<?xml version="1.0" encoding="utf-8"?>
<!-- Generator: Adobe Illustrator 15.0.2, SVG Export Plug-In . SVG Version: 6.00 Build 0)  -->
<!DOCTYPE svg PUBLIC "-//W3C//DTD SVG 1.1//EN" "http://www.w3.org/Graphics/SVG/1.1/DTD/svg11.dtd">
<svg version="1.1" id="Layer_1" xmlns="http://www.w3.org/2000/svg" xmlns:xlink="http://www.w3.org/1999/xlink" x="0px" y="0px"
	 width="670.705px" height="627.12px" viewBox="0 0 670.705 627.12" enable-background="new 0 0 670.705 627.12"
	 xml:space="preserve">
<g id="Psupzt.tif">
	<g>
		<path fill-rule="evenodd" clip-rule="evenodd" d="M620.705,167.109c0.667,0,1.333,0,2,0c-1.711,10.188-6.028,18.588-9,28
			c-4.778,15.134-11,35.08-11,56c0,12.131,3.767,24.362,2,37c-0.771,5.521-4.1,10.008-5,16c4.581,6.052,13.089,8.933,18,16
			c5.079,7.31,9.238,17.599,13,27c7.104,17.758,18.274,34.813,28,51c4.877,8.116,11.455,16.132,12,25
			c-10.992-3.113-20.052-10.566-30-17c-24.416-15.789-40.203-33.975-54-63c-3.751-7.891-6.826-16.169-10-25
			c-7.125-19.826-15.026-46.813-9-75c1.551-7.253,5.66-14.887,9-22c10.21-21.744,25.095-40.142,43-54
			C620.038,167.109,620.372,167.109,620.705,167.109z"/>
		<path fill-rule="evenodd" clip-rule="evenodd" d="M526.705,275.109c11.234,1.479,15.411-12.523,26-15
			c4.622,37.794,14.438,72.329,30,100c4.401,7.826,12.032,14.462,13,24c-16.64-3.058-30.018-14.606-47-14
			c2.301,9.031,9.732,15.865,15,24c10.572,16.325,20.201,33.853,29,53c8.938,19.451,18.064,41.576,18,71
			c-0.1,45.875-49.84,55.687-92,67c-44.528,11.948-90.438,21.51-150,19c-15.091-0.636-29.689-2.604-44-2
			c-36.134,1.523-67.21,9.421-99,17c-11.498,2.741-32.123,7.84-47,8c-16.215,0.175-34.83-1.828-52-4
			c-25.359-3.208-56.733-9.603-83-16c-18.86-4.594-29.589-7.503-22-27c-4.84-3.451-11.645-1.617-15-5
			c-4.492-4.528-3.411-25.598-4-34c-7.645-109.053-0.903-220.23,44-285c22.071-31.836,47.969-60.862,77-93
			c26.3-29.116,52.503-56.503,83-87c17.061-17.061,35.807-35.042,57-50c8.028-5.667,15.92-10.833,26-16
			c9.561-4.901,20.957-11.004,36-10c25.423,1.697,51.17,12.266,73,21c5.908,2.364,12.551,3.488,18,6
			c14.892,6.864,30.152,16.519,44,26c28.403,19.448,48.578,43.828,63,78c2.279,5.4,5.336,11.19,7,17c4.229,14.771,8.895,36.554,9,56
			C539.842,229.667,532.456,250.676,526.705,275.109z M511.705,154.109c-5.854-22.258-21.236-38.191-38-55
			c-26.81-26.882-54.125-47.996-90-64c-21.874-9.758-51.415-18.583-74-12c-20.947,6.106-39.342,21.174-56,35
			c-17.19,14.268-33.857,29.809-46,46c9.544-4.937,15.885-13.758,24-21c7.757-6.923,16.629-13.603,25-20
			c15.811-12.082,37.149-27.104,58-32c22.008-5.168,41.495,2.769,58,9c37.824,14.28,67.618,36.288,93,61
			c13.882,13.516,30.15,31.881,37,49c11.199,27.992,3.041,64.519,8,97C517.372,218.672,519.395,183.353,511.705,154.109z
			 M203.705,108.109c1.72,0.054,2.563-0.77,3-2C205.133,106.205,203.237,105.976,203.705,108.109z M549.705,413.109
			c8.273,23.224,21.238,51.652,27,80c1.619,7.967,1.944,26.475,0,33c-5.592,18.762-33.078,29.546-54,37
			c-24.015,8.557-50.665,14.563-73,18c-7.43,1.144-17.031-0.482-21,4c29.256,2.638,56.949-3.935,80-9
			c37.562-8.254,83.842-20.533,84-62c0.15-39.63-26.13-72.633-40-103c-0.667,0-1.333,0-2,0c-0.057-0.61-0.149-1.184-1-1
			C549.705,411.109,549.705,412.109,549.705,413.109z M262.705,434.109c-8.981,4.134-16.955,10.936-23,17
			c10.466-0.879,19.118-9.657,31-13c5.244-1.476,10.733-1.473,17-2c13.999,14.062,23.021,39.622,16,64
			c-7.599,26.387-37.615,55.788-67,61c-10.528-6.472-14.827-19.174-26-25c1.781,7.21,5.316,12.355,9,20
			c2.987,6.198,6.212,16.687,12,18c1.174,0.267,11.42-2.021,14-3c2.588-0.982,6.493-4.013,10-6c10.348-5.862,19.598-12.979,27-21
			c8.76-9.492,22.251-27.256,26-39c9.509-29.787-1.286-59.488-18-77C278.549,428.456,270.011,430.747,262.705,434.109z
			 M59.705,438.109c0.352,2.981,0.578,6.089,3,7c0.471-9.138-4.766-12.567-11-15C53.809,433.338,57.771,434.71,59.705,438.109z
			 M48.705,455.109c1.386-5.72-2.292-6.374-3-10c-1.108-3.869,3.535-3.558,1-6C31.217,432.522,33.426,463.208,48.705,455.109z
			 M61.705,456.109c1.147-1.266,2.009-7.885,0-9C61.194,449.689,58.045,455.368,61.705,456.109z M55.705,460.109
			c0.667,0,1.333,0,2,0c0.055-1.278,1.282-1.385,1-3c-0.667,0-1.333,0-2,0C56.65,458.388,55.423,458.494,55.705,460.109z
			 M166.705,509.109c-0.07,32.23-15.986,54.179-35,67c-4.657,3.141-10.72,4.262-14,9c9.032,1.921,17.358-4.721,25-9
			c7.809-4.372,15.462-8.592,21-15c19.831-22.947,15.774-64.706-1-90C162.686,483.498,166.735,495.251,166.705,509.109z
			 M229.705,482.109c-4.154,0.887-9.524,2.676-11,5c13.253,1.194,23.406,0.401,37,0
			C251.274,480.516,239.066,480.112,229.705,482.109z M247.705,507.109c-3.281-1.211-12.814-8.188-17-2
			c10.452,0.882,16.471,6.195,28,6C258.395,506.6,251.895,508.656,247.705,507.109z"/>
	</g>
</g>
</svg>
