<?xml version="1.0" encoding="utf-8"?>
<!-- Generator: Adobe Illustrator 15.0.2, SVG Export Plug-In . SVG Version: 6.00 Build 0)  -->
<!DOCTYPE svg PUBLIC "-//W3C//DTD SVG 1.1//EN" "http://www.w3.org/Graphics/SVG/1.1/DTD/svg11.dtd">
<svg version="1.1" id="Layer_1" xmlns="http://www.w3.org/2000/svg" xmlns:xlink="http://www.w3.org/1999/xlink" x="0px" y="0px"
	 width="836.044px" height="386px" viewBox="0 0 836.044 386" enable-background="new 0 0 836.044 386" xml:space="preserve">
<g id="XfwjwA.tif">
	<g>
		<path fill-rule="evenodd" clip-rule="evenodd" fill="#FFFFFF" d="M1.044,0c278.326,0,556.68,0,835,0c0,128.666,0,257.334,0,386
			c-278.659,0-557.344,0-836,0c0-127.667,0-255.333,0-383C-0.042,1.581-0.121,0.168,1.044,0z M290.044,28
			c-3.642-0.691-4.611-4.055-9-4c-21.515,3.656-33.037,12.571-47,22c-6.487,4.381-14.559,7.294-18,14
			c27.692,1.876,63.584-4.518,97-3c15.277,0.694,29.362,3.747,43,2c2.632-6.702,5.702-12.964,7-21
			C343.63,29.748,316.706,29.004,290.044,28z M631.044,128c-1.327-8.944-28.075-27.661-43-34c-24.486-10.401-55.091-14.214-85-22
			c-38.557-10.037-76.56-26.772-110-8c25.02,3.689,47.646,6.007,69,11c65.225,15.25,115.188,43.039,153,86
			c5.567-2.766,10.097-6.57,14-11C620.878,144.073,632.189,135.718,631.044,128z M705.044,206c2.31-16.725-0.429-40.428-11-43
			c-5.561-1.353-20.199,4.283-30,6c-11.397,1.997-23.646,3.621-34,3c-29.893-1.791-41.823-28.781-61-45
			c-32.581-27.556-80.626-39.963-132-50c-56.122-10.964-127.713-15.588-195-11c-106.932,7.292-171.242,66.548-215,140
			c-5.366,9.008-16.181,24.765-16,35c0.155,8.799,6.206,9.833,9,18c1.662,4.857-0.502,10.254,2,15c5.673,10.757,26.9,13.861,44,17
			c52.955,9.72,105.116,20.207,161,22c31.584,1.014,62.129-4.721,92-8c59.976-6.585,119.917-13.23,172-28
			c25.601-7.26,48.932-19.58,74-26c33.217-8.507,74.548-5.02,110,0C688.984,242.879,702.181,226.735,705.044,206z M769.044,126
			c-20.827,11.506-46.052,18.615-63,34c18.634,32.599-0.49,79.649-23,98c16.286,24.713,48.377,33.623,79,44
			c3.149-0.184,1.28-5.386,5-5c5.769-1.103,5.41,3.924,11,3c4.012-19.78,2.608-37.268,7-58c4.301-20.306,22.371-47.11,11-64
			c1.851-5.816,8.219-7.115,10-13c-0.3-3.7-4.401-3.598-3-9c2.405-3.594,6.959-5.041,8-10c0.079-3.746-4.312-3.022-3-8
			c0.965-5.369,7.035-5.631,8-11c-7.817-1.244-3.837-5.946-5-11C794.154,116.444,783.885,123.507,769.044,126z M563.044,260
			c-3.367-0.035-5.985,2.854-9,4c-19.808,7.529-49.842,15.445-66,23c3.829,7.413,14.965,4.3,22,6c23.709,5.729,54.482,13.082,79,15
			c0.603-7.269-6.234-7.099-7-13C588.201,280.539,576.422,260.138,563.044,260z M365.044,306c-35.076,2.257-66.464,8.202-97,15
			c12.355,8.507,29.191,17.339,47,26c24.054,11.698,64.204,29.409,89,11c-4.358-10.642-16.886-13.114-22-23
			c2.073-2.927,8.451-1.549,8-7C383.003,319.375,373.342,313.369,365.044,306z"/>
		<path fill-rule="evenodd" clip-rule="evenodd" d="M363.044,38c-1.298,8.036-4.368,14.298-7,21c-13.638,1.747-27.723-1.306-43-2
			c-33.416-1.518-69.308,4.876-97,3c3.441-6.706,11.513-9.619,18-14c13.963-9.429,25.485-18.344,47-22c4.389-0.055,5.358,3.309,9,4
			C316.706,29.004,343.63,29.748,363.044,38z"/>
		<path fill-rule="evenodd" clip-rule="evenodd" d="M629.044,150c-3.903,4.43-8.433,8.234-14,11c-37.812-42.961-87.775-70.75-153-86
			c-21.354-4.993-43.98-7.311-69-11c33.44-18.772,71.443-2.037,110,8c29.909,7.786,60.514,11.599,85,22
			c14.925,6.339,41.673,25.056,43,34C632.189,135.718,620.878,144.073,629.044,150z"/>
		<path fill-rule="evenodd" clip-rule="evenodd" d="M675.044,251c-35.452-5.02-76.783-8.507-110,0c-25.068,6.42-48.399,18.74-74,26
			c-52.083,14.77-112.024,21.415-172,28c-29.871,3.279-60.416,9.014-92,8c-55.884-1.793-108.045-12.28-161-22
			c-17.1-3.139-38.327-6.243-44-17c-2.502-4.746-0.338-10.143-2-15c-2.794-8.167-8.845-9.201-9-18
			c-0.181-10.235,10.634-25.992,16-35c43.758-73.452,108.068-132.708,215-140c67.287-4.588,138.878,0.036,195,11
			c51.374,10.037,99.419,22.444,132,50c19.177,16.219,31.107,43.209,61,45c10.354,0.621,22.603-1.003,34-3
			c9.801-1.717,24.439-7.353,30-6c10.571,2.572,13.31,26.275,11,43C702.181,226.735,688.984,242.879,675.044,251z M122.044,157
			c1.015-3.427-7.512-2.382-8-1C116.439,156.605,118.606,157.438,122.044,157z M132.044,169c0.034,11.367-6.74,15.927-14,20
			c7.835,1.835,6.658-5.341,13-5c4.641-9.666,4.912-22.244-6-26C125.762,163.282,129.5,165.544,132.044,169z M110.044,181
			c3.129-0.204,7.341,0.674,9-1c-0.87-5.186-1.617-11.006,0-16C107.293,158.75,103.055,175.219,110.044,181z M473.044,188
			c1.313,1.283,3.687,1.283,5,0c0.475-3.141-1.247-4.086-3-5C474.615,184.904,472.89,185.512,473.044,188z M562.044,190
			c0.698-3.698-1.582-4.418-5-4C555.77,190.398,559.562,192.364,562.044,190z M591.044,196c5.938,0.722,5.938-5.722,0-5
			C589.761,192.314,589.761,194.687,591.044,196z M412.044,196c-2.288,10.246,12.101,10.044,10,0
			C418.919,194.072,414.841,193.416,412.044,196z M617.044,199c3.078,0.7,1.922,0.7,5,0c0.319-2.319-0.161-3.839-1-5c-1,0-2,0-3,0
			C617.205,195.161,616.725,196.681,617.044,199z M201.044,225c-2.22,24.894-13.371,39.708-23,58c24.365-11.41,36.381-54.554,24-87
			C199.751,204.155,201.8,216.525,201.044,225z M672.044,204c1.367-1.278,1.367-4.722,0-6c-1,0-2,0-3,0
			C667.615,201.024,668.213,203.771,672.044,204z M309.044,203c15.429,3.78,43.301-2.553,54,3c-7.416,14.682-24.023,22.626-32,37
			c-1.184,2.133-0.397,5-2,7c-8.996,11.227-26.65,13.432-39,22c23.748,7.174,35.602-12.416,53-18c9.045-21.968,31.75-35.565,41-54
			C362.084,200.066,329.153,197.757,309.044,203z M443.044,204c5.938,0.722,5.938-5.722,0-5
			C441.761,200.313,441.761,202.687,443.044,204z M494.044,201c-0.843,5.51,1.026,8.308,6,8c2.267-1.066,3.634-3.033,4-6
			C502.416,198.887,497.62,198.477,494.044,201z M520.044,204c3.078,0.7,1.922,0.7,5,0C527.002,197.417,518.406,197.865,520.044,204
			z M542.044,209c2.267-1.066,3.634-3.033,4-6C540.953,191.87,528.024,208.493,542.044,209z M574.044,202
			c-1.336,5.938,7.156,4.816,5-1C576.725,200.681,575.205,201.161,574.044,202z M470.044,208c5.816,2.156,6.938-6.336,1-5
			C470.204,204.161,469.725,205.681,470.044,208z M613.044,205C594.893,196.272,610.426,226.121,613.044,205L613.044,205z
			 M638.044,208c1.148,7.646,11.107,5.017,11-2C645.929,202.662,638.762,201.942,638.044,208z M256.044,207
			c11.229,3.526,28.559,1.284,40-1C285.243,204.953,265.2,203.091,256.044,207z M686.044,217c2.305-1.361,5.58-1.753,5-6
			C686.859,200.667,674.815,214.603,686.044,217z M586.044,215c-0.856,3.781,4.477,3.539,6,2
			C592.9,213.219,587.567,213.461,586.044,215z M563.044,226c5.028,0.361,7.52-1.813,8-6
			C567.847,212.028,556.544,219.393,563.044,226z M470.044,225c1.758,2.712,8.242,2.712,10,0c0-1.667,0-3.333,0-5
			C477.04,216.289,467.653,217.356,470.044,225z M624.044,223c2.333-0.334,4.309-1.025,5-3c-1.907-0.426-1.81-2.857-5-2
			C622.761,219.313,622.761,221.687,624.044,223z M660.044,223c1.333,0,2.667,0,4,0c0-1.333,0-2.667,0-4
			C661.288,215.888,656.932,220.244,660.044,223z M411.044,224c2.319,0.319,3.839-0.161,5-1c-0.122-2.545-1.456-3.878-4-4
			C411.205,220.161,410.725,221.681,411.044,224z M517.044,224c2.863,0.197,5.458,0.124,5-3c-0.658-1.342-2.138-1.862-4-2
			C517.205,220.161,516.725,221.681,517.044,224z M288.044,222c4.772,1.788,14.015,0.246,18-2
			C300.353,220.976,290.547,217.837,288.044,222z M434.044,230c2.899-1.101,6.763-1.237,7-5
			C439.048,214.393,425.185,224.559,434.044,230z M502.044,236c2.319,0.319,3.84-0.161,5-1c-0.345-2.322-0.647-4.687-4-4
			C502.205,232.161,501.725,233.681,502.044,236z M273.044,235c6.657,0.426,19.045,3.229,23,0
			C291.624,232.662,277.159,231.14,273.044,235z"/>
		<path fill-rule="evenodd" clip-rule="evenodd" fill="#FFFFFF" d="M114.044,156c0.488-1.382,9.015-2.427,8,1
			C118.606,157.438,116.439,156.605,114.044,156z"/>
		<path fill-rule="evenodd" clip-rule="evenodd" fill="#FFFFFF" d="M759.044,157c4.57,6.073-13.986,5.889-21,7
			C740.395,157.017,751.943,159.232,759.044,157z"/>
		<path fill-rule="evenodd" clip-rule="evenodd" fill="#FFFFFF" d="M119.044,164c-1.617,4.994-0.87,10.814,0,16
			c-1.659,1.674-5.871,0.796-9,1C103.055,175.219,107.293,158.75,119.044,164z"/>
		<path fill-rule="evenodd" clip-rule="evenodd" fill="#FFFFFF" d="M475.044,183c1.753,0.914,3.475,1.859,3,5
			c-1.313,1.283-3.687,1.283-5,0C472.89,185.512,474.615,184.904,475.044,183z"/>
		<path fill-rule="evenodd" clip-rule="evenodd" fill="#FFFFFF" d="M557.044,186c3.418-0.418,5.698,0.302,5,4
			C559.562,192.364,555.77,190.398,557.044,186z"/>
		<path fill-rule="evenodd" clip-rule="evenodd" fill="#FFFFFF" d="M737.044,187c5.407,0.926,15.06-2.393,16,3
			C747.4,189.311,738.425,191.953,737.044,187z"/>
		<path fill-rule="evenodd" clip-rule="evenodd" fill="#FFFFFF" d="M591.044,191c5.938-0.722,5.938,5.722,0,5
			C589.761,194.687,589.761,192.314,591.044,191z"/>
		<path fill-rule="evenodd" clip-rule="evenodd" fill="#FFFFFF" d="M422.044,196c2.101,10.044-12.288,10.246-10,0
			C414.841,193.416,418.919,194.072,422.044,196z"/>
		<path fill-rule="evenodd" clip-rule="evenodd" fill="#FFFFFF" d="M618.044,194c1,0,2,0,3,0c0.839,1.161,1.319,2.681,1,5
			c-3.078,0.7-1.922,0.7-5,0C616.725,196.681,617.205,195.161,618.044,194z"/>
		<path fill-rule="evenodd" clip-rule="evenodd" fill="#FFFFFF" d="M202.044,196c12.381,32.446,0.365,75.59-24,87
			c9.629-18.292,20.78-33.106,23-58C201.8,216.525,199.751,204.155,202.044,196z"/>
		<path fill-rule="evenodd" clip-rule="evenodd" fill="#FFFFFF" d="M669.044,198c1,0,2,0,3,0c1.367,1.278,1.367,4.722,0,6
			C668.213,203.771,667.615,201.024,669.044,198z"/>
		<path fill-rule="evenodd" clip-rule="evenodd" fill="#FFFFFF" d="M384.044,200c-9.25,18.435-31.955,32.032-41,54
			c-17.398,5.584-29.252,25.174-53,18c12.35-8.568,30.004-10.773,39-22c1.603-2,0.816-4.867,2-7c7.977-14.374,24.584-22.318,32-37
			c-10.699-5.553-38.571,0.78-54-3C329.153,197.757,362.084,200.066,384.044,200z"/>
		<path fill-rule="evenodd" clip-rule="evenodd" fill="#FFFFFF" d="M443.044,199c5.938-0.722,5.938,5.722,0,5
			C441.761,202.687,441.761,200.313,443.044,199z"/>
		<path fill-rule="evenodd" clip-rule="evenodd" fill="#FFFFFF" d="M504.044,203c-0.366,2.967-1.733,4.934-4,6
			c-4.974,0.308-6.843-2.49-6-8C497.62,198.477,502.416,198.887,504.044,203z"/>
		<path fill-rule="evenodd" clip-rule="evenodd" fill="#FFFFFF" d="M525.044,204c-3.078,0.7-1.922,0.7-5,0
			C518.406,197.865,527.002,197.417,525.044,204z"/>
		<path fill-rule="evenodd" clip-rule="evenodd" fill="#FFFFFF" d="M546.044,203c-0.366,2.967-1.733,4.934-4,6
			C528.024,208.493,540.953,191.87,546.044,203z"/>
		<path fill-rule="evenodd" clip-rule="evenodd" fill="#FFFFFF" d="M579.044,201c2.156,5.816-6.336,6.938-5,1
			C575.205,201.161,576.725,200.681,579.044,201z"/>
		<path fill-rule="evenodd" clip-rule="evenodd" fill="#FFFFFF" d="M471.044,203c5.938-1.336,4.816,7.156-1,5
			C469.725,205.681,470.204,204.161,471.044,203z"/>
		<path fill-rule="evenodd" clip-rule="evenodd" fill="#FFFFFF" d="M613.044,205C610.426,226.121,594.893,196.272,613.044,205
			L613.044,205z"/>
		<path fill-rule="evenodd" clip-rule="evenodd" fill="#FFFFFF" d="M649.044,206c0.107,7.017-9.852,9.646-11,2
			C638.762,201.942,645.929,202.662,649.044,206z"/>
		<path fill-rule="evenodd" clip-rule="evenodd" fill="#FFFFFF" d="M296.044,206c-11.441,2.284-28.771,4.526-40,1
			C265.2,203.091,285.243,204.953,296.044,206z"/>
		<path fill-rule="evenodd" clip-rule="evenodd" fill="#FFFFFF" d="M691.044,211c0.58,4.247-2.695,4.639-5,6
			C674.815,214.603,686.859,200.667,691.044,211z"/>
		<path fill-rule="evenodd" clip-rule="evenodd" fill="#FFFFFF" d="M592.044,217c-1.523,1.539-6.856,1.781-6-2
			C587.567,213.461,592.9,213.219,592.044,217z"/>
		<path fill-rule="evenodd" clip-rule="evenodd" fill="#FFFFFF" d="M571.044,220c-0.48,4.187-2.972,6.361-8,6
			C556.544,219.393,567.847,212.028,571.044,220z"/>
		<path fill-rule="evenodd" clip-rule="evenodd" fill="#FFFFFF" d="M480.044,220c0,1.667,0,3.333,0,5c-1.758,2.712-8.242,2.712-10,0
			C467.653,217.356,477.04,216.289,480.044,220z"/>
		<path fill-rule="evenodd" clip-rule="evenodd" fill="#FFFFFF" d="M624.044,218c3.19-0.857,3.093,1.574,5,2
			c-0.691,1.975-2.667,2.666-5,3C622.761,221.687,622.761,219.313,624.044,218z"/>
		<path fill-rule="evenodd" clip-rule="evenodd" fill="#FFFFFF" d="M664.044,219c0,1.333,0,2.667,0,4c-1.333,0-2.667,0-4,0
			C656.932,220.244,661.288,215.888,664.044,219z"/>
		<path fill-rule="evenodd" clip-rule="evenodd" fill="#FFFFFF" d="M412.044,219c2.544,0.122,3.878,1.455,4,4
			c-1.161,0.839-2.681,1.319-5,1C410.725,221.681,411.205,220.161,412.044,219z"/>
		<path fill-rule="evenodd" clip-rule="evenodd" fill="#FFFFFF" d="M518.044,219c1.862,0.138,3.342,0.658,4,2
			c0.458,3.124-2.137,3.197-5,3C516.725,221.681,517.205,220.161,518.044,219z"/>
		<path fill-rule="evenodd" clip-rule="evenodd" fill="#FFFFFF" d="M306.044,220c-3.985,2.246-13.228,3.788-18,2
			C290.547,217.837,300.353,220.976,306.044,220z"/>
		<path fill-rule="evenodd" clip-rule="evenodd" fill="#FFFFFF" d="M441.044,225c-0.237,3.763-4.101,3.899-7,5
			C425.185,224.559,439.048,214.393,441.044,225z"/>
		<path fill-rule="evenodd" clip-rule="evenodd" fill="#FFFFFF" d="M503.044,231c3.353-0.687,3.655,1.678,4,4
			c-1.16,0.839-2.681,1.319-5,1C501.725,233.681,502.205,232.161,503.044,231z"/>
		<path fill-rule="evenodd" clip-rule="evenodd" fill="#FFFFFF" d="M296.044,235c-3.955,3.229-16.343,0.426-23,0
			C277.159,231.14,291.624,232.662,296.044,235z"/>
		<path fill-rule="evenodd" clip-rule="evenodd" fill="#FFFFFF" d="M737.044,252c1.333,0,2.667,0,4,0c0,1.667,0,3.333,0,5
			C737.346,257.698,736.626,255.418,737.044,252z"/>
		<path fill-rule="evenodd" clip-rule="evenodd" fill="#FFFFFF" d="M764.044,261c0.319,2.319-0.161,3.839-1,5
			c-2.545-0.122-3.878-1.455-4-4C760.205,261.161,761.725,260.681,764.044,261z"/>
		<path fill-rule="evenodd" clip-rule="evenodd" fill="#FFFFFF" d="M748.044,277c2.545,0.122,3.878,1.455,4,4
			c-1.987,0.013-1.271,2.729-4,2C746.677,281.722,746.677,278.278,748.044,277z"/>
		<path fill-rule="evenodd" clip-rule="evenodd" fill="#FFFFFF" d="M335.044,344c3.999,0.334,9.952-1.285,10,3
			C341.045,346.666,335.092,348.285,335.044,344z"/>
		<path fill-rule="evenodd" clip-rule="evenodd" fill="#FFFFFF" d="M349.044,350c1.064-2.27,6.286-0.381,9-1
			C358.511,352.816,350.232,350.895,349.044,350z"/>
		<path fill-rule="evenodd" clip-rule="evenodd" fill="#FFFFFF" d="M125.044,158c10.912,3.756,10.641,16.334,6,26
			c-6.342-0.341-5.165,6.835-13,5c7.26-4.073,14.034-8.633,14-20C129.5,165.544,125.762,163.282,125.044,158z"/>
		<path fill-rule="evenodd" clip-rule="evenodd" d="M811.044,116c1.163,5.054-2.817,9.756,5,11c-0.965,5.369-7.035,5.631-8,11
			c-1.312,4.978,3.079,4.254,3,8c-1.041,4.959-5.595,6.406-8,10c-1.401,5.402,2.7,5.3,3,9c-1.781,5.885-8.149,7.184-10,13
			c11.371,16.89-6.699,43.694-11,64c-4.392,20.732-2.988,38.22-7,58c-5.59,0.924-5.231-4.103-11-3c-3.72-0.386-1.851,4.816-5,5
			c-30.623-10.377-62.714-19.287-79-44c22.51-18.351,41.634-65.401,23-98c16.948-15.385,42.173-22.494,63-34
			C783.885,123.507,794.154,116.444,811.044,116z M738.044,164c7.014-1.111,25.57-0.927,21-7
			C751.943,159.232,740.395,157.017,738.044,164z M753.044,190c-0.94-5.393-10.593-2.074-16-3
			C738.425,191.953,747.4,189.311,753.044,190z M741.044,257c0-1.667,0-3.333,0-5c-1.333,0-2.667,0-4,0
			C736.626,255.418,737.346,257.698,741.044,257z M759.044,262c0.122,2.545,1.455,3.878,4,4c0.839-1.161,1.319-2.681,1-5
			C761.725,260.681,760.205,261.161,759.044,262z M748.044,283c2.729,0.729,2.013-1.987,4-2c-0.122-2.545-1.455-3.878-4-4
			C746.677,278.278,746.677,281.722,748.044,283z"/>
		<path fill-rule="evenodd" clip-rule="evenodd" d="M582.044,295c0.766,5.901,7.603,5.731,7,13c-24.518-1.918-55.291-9.271-79-15
			c-7.035-1.7-18.171,1.413-22-6c16.158-7.555,46.192-15.471,66-23c3.015-1.146,5.633-4.035,9-4
			C576.422,260.138,588.201,280.539,582.044,295z"/>
		<path fill-rule="evenodd" clip-rule="evenodd" d="M390.044,328c0.451,5.451-5.927,4.073-8,7c5.114,9.886,17.642,12.358,22,23
			c-24.796,18.409-64.946,0.698-89-11c-17.809-8.661-34.645-17.493-47-26c30.536-6.798,61.924-12.743,97-15
			C373.342,313.369,383.003,319.375,390.044,328z M345.044,347c-0.048-4.285-6.001-2.666-10-3
			C335.092,348.285,341.045,346.666,345.044,347z M358.044,349c-2.714,0.619-7.936-1.27-9,1
			C350.232,350.895,358.511,352.816,358.044,349z"/>
	</g>
</g>
</svg>
