<?xml version="1.0" encoding="utf-8"?>
<!-- Generator: Adobe Illustrator 15.0.2, SVG Export Plug-In . SVG Version: 6.00 Build 0)  -->
<!DOCTYPE svg PUBLIC "-//W3C//DTD SVG 1.1//EN" "http://www.w3.org/Graphics/SVG/1.1/DTD/svg11.dtd">
<svg version="1.1" id="Layer_1" xmlns="http://www.w3.org/2000/svg" xmlns:xlink="http://www.w3.org/1999/xlink" x="0px" y="0px"
	 width="577.624px" height="597.146px" viewBox="0 0 577.624 597.146" enable-background="new 0 0 577.624 597.146"
	 xml:space="preserve">
<g id="noxidO.tif">
	<g>
		<path fill-rule="evenodd" clip-rule="evenodd" d="M455.624,0c39.333,0,78.666,0,118,0C536.623,1.667,492.625,1.667,455.624,0z"/>
		<path fill-rule="evenodd" clip-rule="evenodd" d="M388.624,1C381.463,3.988,377.144-0.117,388.624,1L388.624,1z"/>
		<path fill-rule="evenodd" clip-rule="evenodd" d="M532.624,345c-4.738,3.176-5.068-2.533-8-6c-2.686-3.176-8.015-5.742-10-8
			c-0.333-0.379,0.325-1.613,0-2c-2.012-2.388-6.508-5.535-6-9C518.479,326.479,525.067,336.224,532.624,345z"/>
		<path fill-rule="evenodd" clip-rule="evenodd" d="M542.624,593C535.463,595.988,531.144,591.883,542.624,593L542.624,593z"/>
		<path fill-rule="evenodd" clip-rule="evenodd" d="M470.624,111c5.936,3.895,6.605,18.971,6,29c-1.949,32.32-41.161,44.661-57,65
			c14.33-5.311,28.49-10.75,41-19c3.486-2.299,8.494-5.557,11-8c5.098-4.97,6.332-14.976,16-14c2.189,13.573-7.054,23.334-12,33
			c-7.761,0.272-11.974,8.001-19,11c-8.675,3.703-19.812,3.283-26,11c13.044,13.623,30.33,23.003,42,38
			c11.947-11.735,37.57-10.085,49,1c-2.685,6.229-10.744,3.739-16,6c-5.985,2.575-9.01,8.003-13,12c3.873,7.536,11.016,11.55,17,17
			c5.626,5.123,10.397,11.97,18,15c1.484,5.849,9.71,4.957,10,12c5.907,2.426,11.218,5.449,17,8c9.313-0.113,13.769-0.529,23,0
			c0,4.667,0,9.333,0,14c-5.713,1.621-9.69,4.977-16,6c-8.803,23.864-33.634,31.699-65,33c-2.516,9.22-0.277,23.967,0,34
			c0.213,4.629-3.566-0.983-5,2c-1.497,1.503-1.789,4.211-4,5c-10.974-5.305-14.814-20.54-12-34c-27.533,1.163-59.355,0.535-92-2
			c-3.508,1.768-4.512,6.231-6,10c-5.997,15.188-2.133,32.429,1,56c3.137,23.602,14.855,49.761,4,71
			c-4.028,7.881-10.917,15.14-21,20c8.289-17.085-1.301-41.938-3-64c-0.787-10.219,0.597-20.528-1-31
			c-14.055,25.791-0.573,56.375,1,91c0.833,18.33,3.028,43.847-4,53c-1.097,1.429-5.353-0.484-3,3c-5.814,0.853-10.663,2.67-18,2
			c5.234-13.162,7.504-31.008,6-52c-0.5-6.979-3.217-13.171-4-20c-4.125-35.95,1.722-72.312,8-101c-7.943,2.968-6.116,12.492-10,24
			c-1.211,3.588-3.821,6.282-5,10c-3.44,10.853-5.463,22.373-8,34c-3.543,16.232-3.971,39.534-9,48c-4.54,7.644-17.848,13.332-28,9
			c1.686-4.292,5.526-8.281,7-13c1.703-5.452,2.581-12.185,4-18c4.054-16.607,8.466-35.428,12-53c2.601-12.928,3.813-23.816,9-35
			c2.343-5.052,5.191-8.91,8-14c4.642-8.41,5.999-17.71,13-24c-3.273-1.899-4.981,6.322-10,6c-12.599,24.069-29.835,48.613-45,75
			c-3.684,6.41-6.197,13.643-10,20c-3.628,6.064-9.034,11.176-13,17c-8.107,11.907-16.332,25.1-27,33c-5.757,4.264-13.7,7.618-22,6
			c8.85-12.791,24.378-24.477,31-41c0.966-2.411,0.256-5.34,1-8c1.636-5.852,6.455-11.66,9-18c1.289-3.212,1.695-6.97,3-10
			c1.373-3.188,3.967-5.25,5-8c2.423-6.451,1.469-13.562,6-19c-13.268,4.8-22.426,16.682-34,24c-10.154,6.42-22.075,10.582-32,17
			c-4.776,3.089-9.323,6.972-14,10c-4.995,3.234-10.552,5.619-15,9c-9.87,7.501-18.786,18.967-28,28
			c-4.67,4.579-10.042,13.552-20,11c2.377-4.906,6.662-9.021,10-13c6.558-7.816,14.105-14.76,21-23c3.287-3.928,5.395-9.302,9-13
			c5.667-5.812,13.992-10.033,21-16c12.94-11.019,26.336-22.084,41-32c7.349-4.97,14.008-10.653,21-15
			c10.905-6.779,23.74-11.491,35-18c11.302-6.533,21.716-12.782,31-22c-11.313,1.238-21.501,10.05-32,14
			c-3.748,1.41-8.224,1.588-12,3c-26.628,9.96-52.729,24.214-80,35c-4.447,1.759-8.629,4.038-13,6c-11.248,5.05-25.878,9.017-39,15
			c-3.138,1.431-5.892,4.574-9,6c-6.693,3.071-14.889,4.311-22,7c-20.641,7.806-40.402,18.181-61,26
			c-0.446-17.445,12.79-21.21,21-30c27.44-13.182,56.862-22.618,86-33c6.05-2.155,11.943-5.585,18-8
			c18.382-7.331,36.458-14.665,56-22c-12.701-0.613-25.77,2.964-40,4c-36.691,2.671-79.767,1.152-119,4
			c-7.391,0.536-22.163-0.371-32,1c-7.44,1.037-14.356,6.656-22,5c1.87-9.346,14.736-17.216,23-24c34.996-4.919,72.429-7,110-7
			c13.662,0,27.591,2.333,41,2c38.679-0.961,73.557-11.587,104-22c-41.172-1.938-88.275,11.065-134,8
			c-24.048-1.612-48.129-4.429-70-2c-15.668,1.739-27.154,12.132-41,16c5.056-9.707,10.782-20.322,20-27
			c12.766-9.249,33.482-8.819,53-9c-0.275-5.235-5.062-14.143-8-20c-14.763-2.357-16.731,13.172-27,12
			c-1.004-5.579,5.187-7.568,8-11c2.771-3.38,4.119-8.049,7-11c3.648-3.737,8.445-6.358,13-9c5.867-10.488,9.243-21.193,20-27
			c15.124-8.165,36.227-1.493,55-3c-14.929-7.227-31.899-14.087-47-12c-2.894,0.4-7.723,2.973-12,5c-19.73,9.35-35.418,19.57-59,26
			c-9.04,2.465-20.174,6.655-28,5c-8.7-1.84-14.875-13.062-21-21c-11.017-14.28-15.922-20.651-17-39
			c-0.624-10.613-1.647-21.094,2-29c8.214-17.805,26.792-36.29,42-46c27.19,1.305,46.154,10.949,65,23
			c8.535,5.458,17.515,10.784,28,16c13.854,6.892,26.523,16.163,45,11c-15.469-12.468-49.478-12.068-62-29
			c-6.846-9.257-10.644-31.022-2-42c4.626-5.875,24.667-15.684,35-17c10.007-1.274,22.532,0.728,30,3
			c32.398,9.858,44.967,45.593,75,56c-1.138-6.225-7.772-10.772-13-16c-15.201-15.201-30.078-31.027-49-44
			c-12.189-8.357-23.84-17.093-37-25c-13.422-8.065-28.539-11.415-44-18c2.88-3.792,9.078-1.936,13-2c9.741-0.159,21.131-0.275,29,2
			c13.656,3.948,25.243,16.222,37,25c12.511,9.341,24.228,17.58,35,26c-5.17-9.993-14.777-20.503-25-29
			c-1.603-1.332-3.169-1.145-5-3c-12.637-12.808-29.804-27.001-43-40c-11.101-3.232-17.215-11.451-30-13
			c5.341-7.883,22.486-6.798,33-3c5.331,1.926,11.426,7.104,17,11c10.827,7.568,17.136,12.975,26,23c3.178,3.595,7.697,6.469,11,10
			c18.984,20.296,38.047,52.075,53,73c-9.509-24.457-25.458-46.539-42-69c-13.869-18.83-33.024-44.811-57-54
			c-6.739-2.583-14.344-1.189-20-7c2.64-3.765,8.599-1.92,13-2c14.668-0.265,26.723,2.952,33,10c-3.62-5.536-8.153-13.145-14-19
			c-5.502-5.51-14.021-9.087-16-17c40.852,2.278,56.033,35.793,74,63c14.436,21.859,29.789,41.427,42,60
			c-16.444-37.246-36.29-76.007-62-106c-10.248-11.955-17.471-16.949-34-25c-7.493-3.649-16.552-8.787-24-10
			c-13.612-2.217-29.434,0-43,0c-28.903,0-55.415,0.324-86,0c-2.578-0.027-21.376-0.083-8-1c4.374-0.3,14.448,0,21,0
			c95.089,0,199.43,0,300,0c4.171,0,21.369-1.074,27,0c5.007,0.955-4.259,0.879-10,1c-60.856,1.284-108.748-0.95-171,0
			c48.092,8.616,67.458,55.284,88,93c18.42,33.819,35.026,67.418,51,97c0.272-16.349-1.575-31.273-4-46
			c-2.286-13.887-8.029-26.517-12-39c-6.277-19.735-13.944-37.023-24-54c-3.222-5.439-6.699-10.192-9-16
			c0.715-2.715-4.715,0.715-4-2c1.493-5.35-5.562-5.708-2-10c13.807,2.082,22.132,8.25,31,17c3.462,3.416,8.192,6.297,10,9
			c5.289,7.91,8.053,21.017,12,32c10.926,30.402,22.479,69.905,25,107c5.069-14.248,9.221-31.905,11-51
			c2.127-22.829,5.05-48.818-1-69c-3.663-12.221-15.462-19.566-8-33c4.443,0.557,3.963,6.037,6,9c4.774,4.237,9.742,8.497,14,13
			c7.621,8.062,13.581,17.017,13,34c-0.935,27.292-11.335,62.172-11,89c11.177-22.452,22.13-44.861,33-69
			c5.543-12.309,11.134-21.746,11-40c7.106-0.058,8.239,11.404,10,19c2.054,8.86,4.781,18.43,4,26
			c-1.361,13.186-12.577,26.069-20,40c-7.915,14.856-13.746,30.185-19,42c-0.19,0.81-1.003,0.997-1,2
			c17.47-18.197,35.181-36.153,55-52C457.12,138.163,464.358,125.068,470.624,111z M223.624,29c-1.372-9.968-14.666-13.325-22-14
			C209.587,19.037,214.024,26.599,223.624,29z M196.624,49c3.395,4.243,7.201,12.771,15,9c-7.627-8.043-15.736-20.925-26-23
			C188.815,39.045,192.892,44.337,196.624,49z M305.624,73c3.924-3.261,8.175-0.088,11-1c-6.496-16.837-16.793-29.874-32-38
			C293.11,45.514,299.685,58.939,305.624,73z M231.624,43c4.457,5.196,7.171,15.817,15,12C244.412,48.517,240.637,39.487,231.624,43
			z M196.624,70c4.969,4.519,9.357,12.279,15,12c1.596-3.482-3.953-5.128-6-7c-7.516-6.874-16.797-16.148-25-18
			C186.338,60.386,191.464,65.309,196.624,70z M368.624,74c2.225,1.442,4.822,2.511,9,2c-2.969-7.031-6.139-13.861-13-17
			C365.588,64.369,369.397,66.894,368.624,74z M148.624,66c3.5,3.59,8.92,5.35,14,9c7.228,5.193,12.74,15.511,21,11
			C172.434,80.406,158.304,65.733,148.624,66z M263.624,84c-4.072-5.261-3.287-15.38-13-15
			C252.159,76.798,255.759,82.531,263.624,84z M219.624,76c0.925,7.42,10.029,11.956,16,11
			C229.803,84.126,228.902,72.222,219.624,76z M319.624,109c4.113,0.553,6.468,2.866,11,3c-1.373-8.627-4.04-15.959-9-21
			c-1.667,0-3.333,0-5,0C312.906,98.01,319.633,102.443,319.624,109z M248.624,106c-5.132-4.202-6.345-12.322-14-14
			C236.828,98.802,240.663,108.157,248.624,106z M370.624,94c0.899,5.767,0.022,13.311,5,15c2.967-3.057,4.846-10.181,3-15
			C376.335,93.363,372.591,92.017,370.624,94z M424.624,122c3.019-7.306,2.632-19.78-2-25
			C419.231,105.847,418.98,115.54,424.624,122z M207.624,111c-2.015-6.652-5.261-12.073-15-11
			C196.189,104.819,200.128,113.296,207.624,111z M242.624,114c-6.141-1.872-6.921-14.395-16-10
			C230.219,107.748,236.833,122.182,242.624,114z M266.624,104c3.096,9.875,4.577,18.416,15,19c-2.471-7.195-6.406-12.927-9-20
			C270.158,102.868,267.805,102.849,266.624,104z M159.624,108c-2.157-1.248-11.165-4.944-10-3
			C152.46,105.874,157.131,110.102,159.624,108z M188.624,126c0.092-2.504-5.01-4.883-6-3
			C184.667,123.957,186.581,125.043,188.624,126z M272.624,143c-3.675-6.659-6.47-14.197-15-16
			C259.516,135.441,263.153,142.137,272.624,143z M222.624,129c-0.667,4.355,5.175,10.809,11,12
			C230.187,137.254,228.241,127.298,222.624,129z M336.624,146c0.579-10.246-0.508-18.825-11-18
			C327.75,135.54,328.356,144.601,336.624,146z M369.624,145c6.468,0.045,6.34-13.45,3-17c-1,0-2,0-3,0
			C370.033,133.712,366.841,140.133,369.624,145z M402.624,145c3.046,0.621,1.954,5.379,5,6c6.505-3.908,9.713-16.339,1-20
			C407.231,136.274,404.918,140.628,402.624,145z M257.624,152c2.001,3.724,4.144,10.545,10,9c-2.735-11.265-7.722-20.278-17-25
			C252.913,141.648,254.819,146.783,257.624,152z M454.624,164c7.464-4.875,13.566-16.426,12-27
			C465.167,148.025,442.703,151.953,454.624,164z M207.624,140c3.734,1.599,4.445,6.221,9,7
			C215.61,143.316,209.078,139.92,207.624,140z M288.624,141c-0.168,1.165-1.581,1.086-3,1c-1.251,6.568,5.022,9.952,8,14
			c5.202,7.072,8.637,16.893,18,20C302.713,165.577,301.03,147.927,288.624,141z M161.624,161c-0.061-8.273-8.114-8.553-13-12
			C151.106,154.851,156.287,158.004,161.624,161z M175.624,154c0.74-2.217-3.685-4.12-4-2
			C173.611,152.013,172.895,154.729,175.624,154z M192.624,170c-1.835-6.831-5.654-11.679-13-13
			C183.292,161.999,187.537,166.42,192.624,170z M147.624,165c-5.08-1.271-10.663-7.312-15-6
			C137.34,160.635,142.739,166.859,147.624,165z M205.624,165c-0.979-2.403-3.636-8.298-6-6
			C201.675,160.948,202.067,164.557,205.624,165z M260.624,175c-6.858-4.142-8.609-13.391-16-17
			C247.722,165.243,254.658,173.955,260.624,175z M247.624,173c-5.899-3.434-7.323-11.344-14-14
			C233.183,164.273,242.369,173.46,247.624,173z M386.624,172c2.027,5.306,0.793,13.874,6,16c2.629-7.532,15.281-25.577,1-29
			C391.888,163.931,390.292,169.001,386.624,172z M343.624,183c0.574-8.241-2.857-12.476-3-20c-3.143-0.524-5.579-1.754-8-3
			C331.164,172.793,336.85,178.44,343.624,183z M166.624,166c3.92,0.746,5.433,3.9,9,5c-1.323-4.344-6.132-5.201-8-9
			C167.848,163.891,166.497,164.206,166.624,166z M366.624,179c1.302-4.667,4.501-14.77-2-16
			C365.248,168.376,362.999,176.625,366.624,179z M139.624,171c-2.867-0.516-6.698-5.235-9-3
			C133.604,168.403,136.56,173.997,139.624,171z M151.624,170c3.195,5.138,9.141,7.526,14,11
			C165.597,173.201,156.038,170.135,151.624,170z M212.624,173c7.359,4.647,11.185,18.14,20,18c-7.517-6.816-12.27-16.397-21-22
			C211.548,170.742,211.847,172.11,212.624,173z M205.624,182c-1.001-6.015-6.857-12.455-12-11
			C198.328,173.962,202.139,177.818,205.624,182z M294.624,198c3.945-0.721,8.094-1.24,11-3c-5.745-9.259-13.83-21.497-25-22
			C287.873,178.751,290.964,188.659,294.624,198z M425.624,187c7.317-0.031,12.383-7.597,9-15
			C431.516,176.893,424.609,177.985,425.624,187z M137.624,177c-2.577-0.481-7.225-4.032-9-2
			C132.063,174.617,134.857,180.022,137.624,177z M157.624,182c-5.225-1.108-6.775-5.892-12-7
			C146.727,179.586,153.652,183.608,157.624,182z M190.624,188c-0.099-6.901-4.37-9.63-9-12
			C180.798,180.118,187.826,184.25,190.624,188z M153.624,189c-2.252-6.081-9.556-7.11-14-11
			C141.68,184.277,147.463,186.827,153.624,189z M168.624,183c9.307,9.155,23.718,14.671,34,23c4.8,3.889,7.126,11.67,14,11
			c-7.521-9.479-18.751-15.249-27-24c-3.15,1.121-2.264,0.09-6,0c-0.232-8.434-8.309-9.025-13-13
			C170.923,181.966,169.273,181.983,168.624,183z M129.624,188c1.347-4.73-6.395-5.539-8-4
			C125.39,184.234,125.857,187.766,129.624,188z M468.624,187c0.108,8.164,8.366,0.391,8-4c-1,0-2,0-3,0
			C473.497,185.873,472.373,187.749,468.624,187z M218.624,196c2.519-6.945-3.519-6.665-5-12c-1.667,0-3.333,0-5,0
			C210.886,189.071,213.115,194.175,218.624,196z M173.624,197c-0.027-6.657-8.434-10.209-12-10
			C166.365,189.592,168.056,195.235,173.624,197z M278.624,198c4.1,0.1,8.197,0.197,11-1c0.273-7.94-9.746-5.587-14-9
			C275.879,192.078,279.351,192.939,278.624,198z M49.624,189c-2.072,0.595-6.569-1.236-7,1
			C46.182,189.155,48.616,192.896,49.624,189z M134.624,192c3.855,0.812,4.869,4.464,10,4c0-1.333,0-2.667,0-4
			C139.705,192.328,136.974,185.969,134.624,192z M156.624,192c5.214,1.786,9.023,4.977,14,7
			C169.123,194.348,159.742,188.558,156.624,192z M214.624,202c-8.009-0.62-13.141-13.786-20-9c5.15,0.85,4.898,7.102,12,6
			c3.089,6.911,9.106,10.894,15,15C223.087,209.856,214.688,207.854,214.624,202z M57.624,193c-0.052,1.194,6.001,1.669,9,2
			C65.544,190.757,57.701,191.228,57.624,193z M239.624,205c3.658,0.658,3.836-2.164,7-2c-1.242-5.773-10.683-8.629-13-10
			C235.593,197.03,237.935,200.688,239.624,205z M88.624,200c-4.528-0.806-6.681-3.985-12-4C77.49,199.83,86.484,200.765,88.624,200
			z M138.624,200c0.496-3.229-5.192-5.385-7-3C133.55,198.407,135.647,199.643,138.624,200z M161.624,203
			c-5.68-0.672-10.884-7.09-15-6C151.553,198.422,156.457,205.142,161.624,203z M221.624,200c4.65,1.593,7.333,12.703,13,7
			c-4.143-2.857-6.305-7.695-11-10C223.923,198.966,222.273,198.983,221.624,200z M399.624,208c5.436-1.565,9.413-4.587,11-10
			C404.586,198.963,402.797,204.173,399.624,208z M441.624,205c4.69-0.668,12.968-3,11-7
			C449.237,200.613,443.517,200.894,441.624,205z M188.624,211c1.75-9.762-8.281-13.036-16-10
			C178.688,203.603,182.171,208.785,188.624,211z M50.624,202c-1.313-0.52,7.183,3.953,8,0
			C54.335,201.564,45.713,200.054,50.624,202z M146.624,204c5.293,2.04,10.562,4.104,16,6
			C160.61,205.559,149.961,200.625,146.624,204z M305.624,250c2.432-12.232,7.914-25.201,11-36c0.895-3.132,4.635-8.49,1-11
			c-5.787-0.787-3.522,6.477-4,11c-4.162,3.171-4.314,10.353-11,11c-1.126-7.541,2.709-20.042-3-23
			C294.531,218.547,304.125,233.797,305.624,250z M279.624,203c0,1,0,2,0,3c-3.647,25.194-2.563,59.263,0,84
			c0.252,2.435-1.919,7.677,2,9c-0.293-16.289-1.53-36.771-1-53c0.083-2.538-1.777-7.87,2-9c0.333,13.218,3.346,31.125,4,46
			c0.372,8.461-3.732,21.647,6,24c-3.959-13.129-1.441-27.363-3-42c-1.643-15.428-6.544-30.268-6-46c0.222-6.402,2.088-13.722-1-16
			C281.624,203,280.624,203,279.624,203z M343.624,204c-2.848,7.212-6.806,11.929-10,19c-2.672,5.915-4.588,12.333-7,19
			c-8.828,24.397-21.403,53.959-8,84c0.96-19.562-1.681-36.536,1-52c4.141-23.89,16.768-43.837,25-62c0.746-1.647,4.391-6.304,1-8
			C344.957,204,344.291,204,343.624,204z M66.624,207c2.003,1.062,2.992,0.248,8,1C75.106,205.198,66.523,203.011,66.624,207z
			 M97.624,206c0.264,3.403,4.504,2.829,6,5c-0.826-2.826,1.409-2.591,1-5C102.348,205.515,99.515,204.016,97.624,206z M264.624,274
			c-0.388-22.014-3.911-45.998-1-68c-0.221-0.779-0.837-1.163-2-1C261.818,228.806,260.742,253.882,264.624,274z M325.624,331
			c6.096-4.312,2.36-14.803,2-23c-0.812-18.47,0.116-34.094,4-46c1.502-4.604,3.261-10.191,5-14c2.241-4.908,6.929-9.021,9-14
			c1.348-3.24,0.82-6.968,2-10c2.512-6.456,7.949-10.678,9-17c1.052-0.055,0.787-1.282-1-1
			C334.803,236.451,318.892,276.229,325.624,331z M374.624,206c-2.283,6.201-7.343,9.55-10,15c-1.606,3.295-1.3,6.899-3,11
			c-3.469,8.366-9.287,15.882-13,24c-9.152,20.01-6.009,48.146-5,72c0.129,3.045-3.225,9.149,1,7c4.815-0.951,1.262-10.274,1-15
			c-0.66-11.919-2.801-28.414-1-39c0.957-5.627,5.085-13.353,8-20c8.429-19.223,19.918-39.89,29-55
			C379.291,206,376.957,206,374.624,206z M178.624,216c-0.934-4.094-7.142-8.155-10-7C173.052,210.238,173.78,215.177,178.624,216z
			 M368.624,246c-5.199,10.971-17.108,27.451-19,38c-2.028,11.311-0.15,29.671,1,39c0.526,4.264,1.449,12.336,4,11
			c2.814-0.563,1.076-5.063,1-6c-1.406-17.273-0.145-30.605,4-44c6.039-19.52,10.984-33.074,18-49c4.137-9.391,10.078-17.73,13-27
			C378.208,213.684,374.91,232.736,368.624,246z M419.624,215c4.484,0.484,5.306-2.694,7-5
			C423.907,211.283,418.949,210.325,419.624,215z M94.624,215c-3.237-0.801-8.051-5.231-11-3
			C86.882,212.779,91.594,217.312,94.624,215z M193.624,215c5.1,1.163,10.086,10.557,14,4c-4.067-1.933-5.85-6.15-10-8
			C197.617,213.66,194.841,213.551,193.624,215z M239.624,217c0.798-1.869,1.671-3.663,2-6c-1,0-2,0-3,0
			C238.103,214.58,239.196,226.102,239.624,217z M44.624,215c0.59-3.647-7.296-3.96-9-2C38.217,214.073,40.527,215.429,44.624,215z
			 M230.624,214c0.738,19.595-2.062,42.729,3,58c-0.745-20.747,1.073-44.257,2-60C234.776,213.486,232.404,213.447,230.624,214z
			 M109.624,215c5.192,0.417,9.572,6.048,14,4C121.425,215.019,113.56,211.304,109.624,215z M52.624,218
			c3.249-1.154,6.151,3.055,8,0c-2.897-0.56,1.534-1.56,1-3c-2.88-0.12-6.546,0.546-8-1C53.699,215.742,53.4,217.11,52.624,218z
			 M256.624,268c0.031,5.773-1.706,12.57,2,15c-0.792-22.542,0.677-47.344-3-67C250.993,231.996,256.523,249.384,256.624,268z
			 M399.624,235c-10.08,18.479-25.468,41.592-24,66c4.926-5.673,12.522-9.494,18-15c9.885-9.938,18.646-23.939,26-35
			c4.76-7.158,13.112-14.796,12-24c-10.522,5.519-15.62,18.089-22,26c-5.554,6.887-9.512,14.383-15,22
			c-4.127,5.728-8.226,11.833-15,15c4.538-13.206,12.783-24.365,19-36c6.535-12.23,14.592-22.602,23-33
			C408.761,211.168,405.457,224.306,399.624,235z M74.624,222c3.708-0.708,4.292,1.708,8,1c1.103-5.437-3.859-4.807-8-5
			C74.624,219.333,74.624,220.667,74.624,222z M185.624,222c2.572,0.762,4.238,2.428,5,5c3.36,0.027,5.29-1.377,7-3
			c-5.5,0.472-8.507-6.79-12-5C187.329,219.41,185.413,220.29,185.624,222z M115.624,225c-3.943-1.276-2.597,2.737-4,4
			c4.713,0.38,6.271-2.396,9-4c-5.208-2.125-9.824-4.842-16-6C106.252,223.038,113.702,221.255,115.624,225z M14.624,223
			c2.391-0.609,7.255,1.255,8-1C20.576,220.07,16.07,221.323,14.624,223z M25.624,224c6.833,0.04,9.78,0.041,14,1
			c0-1.333,0-2.667,0-4C33.63,220.673,28.018,220.728,25.624,224z M103.624,223c-4.714,0.048-7.577-1.756-12-2
			C90.861,227.681,102.951,228.75,103.624,223z M130.624,222c-0.339-0.809-2.655-1.207-3,0
			C126.961,224.317,131.53,224.163,130.624,222z M213.624,222c-3.494,12.471-0.641,32.653,1,45c0.598,4.5-0.227,10.289,3,13
			c-1.657-15.974-1.772-41.812-1-59C216.456,222.165,215.043,222.086,213.624,222z M49.624,226c2.271-0.729,7.802,1.802,7-2
			c-1.46-0.952-6.54-3.354-8-1C49.789,223.168,49.709,224.581,49.624,226z M66.624,226c0.145,1.051,14.525,6.132,16,0
			C77.414,226.909,69.42,220.949,66.624,226z M238.624,266c0.082,3.957-1.771,9.728,2,12c2.398-16.324,0.797-43.056-2-53
			C238.813,238.195,238.369,253.667,238.624,266z M203.624,226c-0.373,8.14-3.51,15.683-3,23c0.38,5.457,3.905,10.396,5,16
			c1.121,5.739-0.638,11.049,3,16c1.565-16.945-1.496-37.804-2-56C206.456,226.165,205.043,226.086,203.624,226z M122.624,230
			c0.835,0.851,7.815,2.74,7-1c-1.395-1.939-5.176-1.491-7-3C122.624,227.333,122.624,228.667,122.624,230z M89.624,232
			c5.808,1.841,13.537-1.261,15-2c-6.493,0.473-13.124-4.182-18-2C90.202,227.183,91.587,230.128,89.624,232z M146.624,254
			c-1.161-9.172,0.158-20.825-4-27C142.114,237.843,143.158,247.132,146.624,254z M34.624,231c-3.695,0.638-9.961-1.295-12,1
			C25.005,232.458,34.055,235.199,34.624,231z M106.624,235c7.998,1.002,14.746,3.254,24,3c-3.147-6.853-15.888-4.112-23-7
			C107.699,232.742,107.4,234.11,106.624,235z M52.624,234c-0.849-2.151-3.682-2.318-7-2C45.2,234.836,52.417,235.101,52.624,234z
			 M60.624,234c-2.436,0.939,11.776,2.895,11-1C70.304,231.747,60.38,230.374,60.624,234z M189.624,267
			c0.657,8.66-2.877,20.794,5,22c0.473-3.14-2.691-2.642-3-5c3.818-17.156-2.244-33.086-2-50c-0.221-0.779-0.837-1.163-2-1
			C184.7,245.175,188.877,257.163,189.624,267z M79.624,236c3.409,0.291,11.441,3.08,13-1C88.2,235.724,81.693,231.409,79.624,236z
			 M164.624,255c-0.768-7.232-0.848-15.152-4-20C160.673,242.95,162.478,249.146,164.624,255z M177.624,240
			c2.703,11.963,4.85,24.484,8,36c0,2.333,0,4.667,0,7c0.055,1.052,1.282,0.787,1-1c0-2.333,0-4.667,0-7
			c0.976-14.303-6.722-24.159-3-38c-0.211-1.122-1.11-1.557-2-2C180.457,236.833,179.01,238.386,177.624,240z M111.624,242
			c-0.162-6.171-8.814-3.853-13-6C98.346,242.611,108.501,238.789,111.624,242z M169.624,256c1.015-3.695-0.669-12.411,0-19
			c-1,0-2,0-3,0C167.177,243.78,165.014,253.276,169.624,256z M21.624,242c2.768-0.898,9.388,2.054,9-2
			C27.855,240.898,21.236,237.946,21.624,242z M38.624,242c3.167-1.083,8.403,3.88,9-1C46.445,239.245,38.505,239.148,38.624,242z
			 M113.624,243c3.454,0.787,4.399-0.935,5-3c-1,0-2,0-3,0C115.923,241.966,114.273,241.983,113.624,243z M122.624,244
			c4.359-0.764,9.262,1.237,11,0c0.926-5.259-7.195-1.472-9-4C125.769,243.146,123.053,242.43,122.624,244z M150.624,246
			c-0.015-2.651,0.555-5.888-2-6C149.538,241.753,148.967,244.99,150.624,246z M54.624,244c3.127,0.583,9.288,3.32,12,1
			c-2.487-0.15-0.292-3.386,0-4C61.029,240.405,56.959,241.335,54.624,244z M72.624,247c8.583-0.973,16.101,3.034,18-4
			c-6.446,0.779-9.848-1.486-16-1C75.478,245.188,73.752,245.796,72.624,247z M443.624,265c1.607-5.751,8.902-18.02,7-21
			C450.68,252.734,440.754,256.782,443.624,265z M95.624,248c4.491-0.491,7.493,0.507,11,1c-0.319-2.319,0.161-3.839,1-5
			c-4,0-8,0-12,0C95.624,245.333,95.624,246.667,95.624,248z M114.624,249c3.141,0.474,4.086-1.247,5-3c-3.1,1.317-5.547-2.964-7,0
			C114.029,246.261,113.764,248.193,114.624,249z M131.624,250c0.114-3.171-7.184-4.073-9-2
			C124.974,249.316,127.169,250.788,131.624,250z M151.624,251c0.161-0.697-0.349-5.82-1-3
			C149.745,251.807,151.16,253.008,151.624,251z M463.624,254c-3.104-1.562-4.721-4.612-8-6
			C451.839,252.984,460.166,256.595,463.624,254z M27.624,252c1.015-3.427-7.512-2.381-8-1C22.843,250.78,23.855,252.769,27.624,252
			z M35.624,255c4.639-0.361,11.249,1.249,12-3C42.872,252.427,35.572,248.076,35.624,255z M443.624,256
			c-7.256,5.45,3.601-0.091,1-3C444.569,254.278,443.341,254.385,443.624,256z M60.624,254
			C54.219,252.846,58.427,257.055,60.624,254L60.624,254z M151.624,254C152.149,261.833,155.624,258.359,151.624,254L151.624,254z
			 M94.624,257c1.208,0.211,0.615,1.11,0,2c3,0,6,0,9,0C103.99,253.139,95.316,254.947,94.624,257z M121.624,257
			c3.667,0,7.333,0,11,0C132.7,253.446,121.701,254.237,121.624,257z M485.624,257c5.597-0.263,9.25,1.417,12,4
			c0.07-3.968,11.16-2.122,10-4C499.715,258.455,491.418,251.168,485.624,257z M54.624,259c-5.848-1.889-15.61-3.551-19,2
			c8.679-2.655,24.891,2.224,30-4C63.782,255.55,53.68,254.346,54.624,259z M71.624,259c1.935,0.14,11.785,0.786,15-1
			C84.739,254.803,72.223,254.632,71.624,259z M111.624,258c0.667,0,1.333,0,2,0c1.555-2.461-3.396-2.94-3-1
			C111.233,257.057,111.807,257.149,111.624,258z M450.624,267c1.182,0.485,2.267,1.066,3,2c6.645-1.022,9.711-5.622,17-6
			C466.473,257.317,447.73,252.719,450.624,267z M125.624,260c0,1.667,0,3.333,0,5c4.677-0.657,10.177-0.49,10-6
			C132.238,259.281,129.881,260.591,125.624,260z M168.624,262c2.917,1.47,2.917-4.47,0-3C168.624,260,168.624,261,168.624,262z
			 M111.624,263c1.759,0.241,2.279,1.721,2,4c2.333,0,4.667,0,7,0c-0.64-3.973,1.27-5.397,3-7
			C118.296,259.673,114.675,261.051,111.624,263z M149.624,265c-0.33-0.787-1.595-7.516-1-2c0.496,4.594,0.979,9.399,4,12
			C153.979,272.756,150.873,267.984,149.624,265z M153.624,261c1.264,3.736,1.291,8.709,4,11
			C156.915,267.709,155.992,263.632,153.624,261z M480.624,262c-4.555,6.779-14.395,8.272-21,13c-2.667,0-5.333,0-8,0
			c-0.4,2.6-2.984,3.016-3,6c10.238,5.435,20.747-2.513,26-6c5.445-3.614,12.951-5.789,11-12
			C484.462,262.161,482.943,261.681,480.624,262z M91.624,266c0.933,1.067,3.689,0.311,3,3c-1.177,0.157-2.838-0.172-3,1
			c5.642-0.025,8.268-3.066,15-2c0-1.333,0-2.667,0-4C101.85,264.894,95.583,264.292,91.624,266z M168.624,270
			c-0.914-1.753-0.344-4.99-2-6C166.293,266.425,167.734,272.095,168.624,270z M126.624,270c1.871-0.054,2.117,0.77,1,2
			c3.25-0.75,6.189-1.811,9-3c0-1.333,0-2.667,0-4C132.732,266.108,129.389,267.766,126.624,270z M432.624,270
			c1.496-0.17,3.69,0.357,4-1c-2.735,0.28,1.774-5.976-1-3C435.33,268.039,432.917,267.961,432.624,270z M69.624,274
			c-1.779-1.764-1.311-6.387,1-7c-6.901,0.432-15.86-1.193-17,5c4.787,0.94,7.944-2.671,10,1c-4.22,4.113-17.857-1.19-19,6
			c12.085,0.08,29.873-2.79,41-7c-0.132-2.465-0.151-4.818,1-6c-3.667,0-7.333,0-11,0C76.932,270.427,75.688,274.427,69.624,274z
			 M489.624,270c0.294-2.039,2.706-1.961,3-4c-1.333,0-2.667,0-4,0C488.794,267.496,488.266,269.69,489.624,270z M173.624,274
			c-1.509-1.825-1.061-5.605-3-7C170.704,269.653,172.386,275.814,173.624,274z M38.624,270c3.999-0.332,5.551,1.783,10,1
			C47.917,268.229,39.152,266.786,38.624,270z M438.624,270c1.571-0.095,3.467,0.134,3-2c-0.667,0-1.333,0-2,0
			C439.626,269.003,438.814,269.19,438.624,270z M76.624,283c-2.959-2.242-10.594-0.632-11,3c15.726-0.292,31.366-5.027,43-8
			c4.592-1.173,10.744-0.436,13-5c-0.224-0.776-0.027-1.973-1-2C108.96,278.003,89.293,277.003,76.624,283z M125.624,277
			c5.71,0.043,9.962-1.372,12-5C133.598,273.641,127.988,273.698,125.624,277z M444.624,278c0.357-3.691-2.487-4.179-5-5
			C439.551,276.405,442.565,276.725,444.624,278z M425.624,281c0.183-1.815,4.531-6.498,2-6c-9.856,9.189,2.82,26.851,11,27
			C431.577,298.391,424.688,290.323,425.624,281z M28.624,278c2.152,1.181,2.398,4.269,7,3c-1.059-3.726,2.105-3.228,3-5
			C35.75,277.126,30.826,276.203,28.624,278z M21.624,278c-0.257,2.34-4.394,0.576-5,0C16.486,281.835,25.511,281.011,21.624,278z
			 M113.624,282c2.143,0.049,6.877-2.329,4-4C116.719,279.762,113.942,279.652,113.624,282z M435.624,293
			c-0.163-6.17-3.166-9.5-4-15C429.734,283.816,431.16,290.695,435.624,293z M491.624,289c2.74,3.533,4.402,8.5,7,12
			c4.043,5.448,8.81,6.523,14,10c14.445,9.674,24.322,22.524,34,36c4.023-18.496-14.363-22.867-21-34c-1.869-0.798-3.662-1.671-6-2
			c-0.116-4.655-5.342-5.55-8-8c-8.898-8.201-16.841-16.712-25-25c-1,0-2,0-3,0C483.649,282.727,488.593,285.093,491.624,289z
			 M177.624,280C173.582,276.483,175.265,283.217,177.624,280L177.624,280z M490.624,296c-1.978-0.187-1.078-2.729-2-4
			c-2.006-2.768-11.841-12.028-12-9C483.109,284.859,484.641,296.966,490.624,296z M100.624,286c2.356,0.022,2.944-1.723,6-1
			c-0.043-1.376,0.471-2.196,1-3C103.823,281.866,101.719,283.429,100.624,286z M246.624,296c0-2.333,0-4.667,0-7
			c-7.599-2.41-16.294-9.027-26-6C229.965,286.659,237.992,291.631,246.624,296z M49.624,286c2.312,0.792,3.313,0.838,8,1
			C58.122,282.051,51.747,285.014,49.624,286z M211.624,296c-0.074-4.26-1.673-6.994-1-12c-1.333,0-2.667,0-4,0
			C205.677,290.613,207.766,294.19,211.624,296z M35.624,288c2.51-0.824,8.611,1.944,8-2C43.363,285.163,35.34,284.982,35.624,288z
			 M87.624,289c4.689,0.356,7.042-1.625,9-4C93.955,286.665,87.688,284.731,87.624,289z M468.624,288c1.772-0.228,5.008,1.008,4-2
			c-1.333,0-2.667,0-4,0C468.624,286.667,468.624,287.333,468.624,288z M76.624,296c6.551,6.063,13.453-1.329,20-4
			c4.546-1.854,9.873-1.805,12-5C97.819,289.862,86.01,291.719,76.624,296z M216.624,298c2.043,0.957,3.957,2.043,6,3
			c0.348-5.348-0.44-9.56-2-13c-1.891,0.224-2.207-1.127-4-1C216.624,290.667,216.624,294.333,216.624,298z M73.624,289
			c0.043,1.376-0.471,2.196-1,3c4.72,1.053,5.617-1.717,7-4C77.268,287.978,76.679,289.723,73.624,289z M403.624,301
			c-4.451,13.549-16.428,19.572-25,29c10.19-4.851,23.752-12.475,32-19c2.173-1.72,5.085-3.419,7-5c2.764-2.281,8.443-6.873,6-10
			c-6.779,8.888-15.78,15.553-27,20c5.475-5.192,9.591-11.742,17-15c0.072-6.17,11.261-8.775,7-13
			C418.205,295.581,412.007,299.384,403.624,301z M54.624,291c0.1,3.698,12.617,5.396,11-1
			C62.117,290.493,59.114,291.491,54.624,291z M442.624,296c0.122,2.544,1.455,3.878,4,4c4.216-1.509,10.43-5.646,6-10
			C454.559,297.425,447.254,298.129,442.624,296z M452.624,302c5.544,1.371,9.915-11.583,5-11
			C460.701,295.451,454.912,299.591,452.624,302z M469.624,290c-1.453,0.547-5.169-1.168-5,1
			C466.077,290.453,469.792,292.168,469.624,290z M40.624,295c5.363,0.363,9.837-0.163,12-3C47.934,292.31,42.563,291.94,40.624,295
			z M475.624,294c4.728,1.293,9.645,7.661,14,6C485.078,298.998,476.592,291.99,475.624,294z M30.624,296
			c2.279,0.279,3.759-0.241,4-2C32.852,294.228,29.616,292.992,30.624,296z M150.624,296c-0.743,2.507-0.127,3.163-3,5
			c5.972-1.361,12.84-1.827,16-6C158.65,294.694,154.449,295.158,150.624,296z M279.624,319c7.917-13.721-6.425-20.331-15-24
			C265.019,307.604,270.171,315.453,279.624,319z M515.624,362c3.6-1.4,8.97-1.03,12-3c-6.574-6.759-12.084-14.583-20-20
			c-0.268,4.397,5.638,6.385,3,10c-17.201-10.799-24.068-31.932-37-47c-0.091-2.729,1.666-2.013,0-4c-4.105,0.105-4.003-3.997-9-3
			c-0.367,3.034,3.258,2.076,5,3c12.393,13.274,14.899,36.434,21,56c9.49-0.483,8.361,13.836,17,11
			c-3.652-12.019-16.711-19.951-16-33C498.672,342.951,510.485,349.139,515.624,362z M62.624,302c2.348-0.319,3.753-1.58,7-1
			c-2.645-4.296,2.294-1.754,3-5C67.885,296.595,63.09,297.133,62.624,302z M166.624,298c2.279,0.279,3.759-0.241,4-2
			C168.344,295.721,166.864,296.241,166.624,298z M238.624,313c-0.184-6.816,0.659-14.659-4-17
			C237.739,301.771,233.27,311.139,238.624,313z M158.624,306c5.179-0.642-1.204,4.764,2,5c3.614-3.72,10.167-4.5,14-8
			c-2.599,0.599-3.599-0.401-3-3c1.758-0.575,5.875,1.209,6-1C170.215,296.792,163.234,302.226,158.624,306z M205.624,306
			c5.389,3.969,10.147,9.009,17,10c-0.836-14.164-15.074-14.926-27-18C198.11,301.556,201.987,303.321,205.624,306z M465.624,310
			c7.528,17.156,14.918,38.597,13,62c4.468-0.532,6.992-3.008,13-2c-1.746-7.896-8.59-12.349-12-21c-3.311-8.398-2.438-18.089-4-27
			c-1.782-10.176-7.674-16.905-12-24c1.165,5.884-0.742,8.312-2,16C469.065,321.412,461.117,312.978,465.624,310z M130.624,304
			c4.091-1.242,11.156,0.489,12-4C137.474,300.184,134.269,302.312,130.624,304z M153.624,303c2.551-0.116,5.145-0.188,5-3
			C156.291,300.334,154.315,301.025,153.624,303z M48.624,303c1.695,1.576,6.958,1.082,7-2
			C53.837,302.214,49.806,301.183,48.624,303z M539.624,352c-8.732-14.268-19.929-26.071-31-38c-13.464-1.202-19.8-9.534-31-13
			c6.44,9.227,13.802,17.531,21,26c-1.354-7.769-12.025-11.142-11-18c16.353,15.314,34.426,28.907,45,50
			c6.074-0.259,7.923-4.743,11-8C541.733,350.776,541.417,352.127,539.624,352z M492.624,304c1.064,0.717,4.605,3.904,6,1
			c-2.039-0.294-1.961-2.706-4-3C494.612,303.321,492.871,302.914,492.624,304z M246.624,317c1.744-3.777-1.02-11.623-4-14
			C244.38,307.243,242.264,315.36,246.624,317z M452.624,308c-1.067,4.6-3.658,7.676-4,13c-5.885,3.563-9.324,14.52-16,14
			c3.509-11.157,11.166-18.167,17-27c-2.829,1.047-6.86-1.65-7,0c0.072,6.085-5.007,15.649-11,19c0.341,18.341-13.383,22.617-23,31
			c1.22,0.113,2.367,0.299,2,2c-4.838,4.496-9.88,8.786-14,14c-1.35,3.316-7.779,1.554-8,6c1.289,1.378,4.344,0.989,7,1
			c19.033-27.3,52.275-45.725,64-77C458.843,306.887,454.787,306.496,452.624,308z M131.624,312c4.332-2.668,11.332-2.669,14-7
			C141.226,306.955,132.062,309.414,131.624,312z M418.624,332c-8.163,8.719-15.411,17.266-28,21c-0.776-0.224-1.973-0.027-2-1
			c6.312-7.021,13.651-13.016,21-19c-9.168,4.499-16.174,11.16-26,15c2.554,2.112,4.423,4.91,6,8c10.337-2.996,18.873-7.794,27-13
			c3.248-6.419,8.504-10.829,13-16c0.08-10.587,8.411-12.922,12-20c-2.465,0.132-4.818,0.151-6-1c-4.007,10.331-17.226,16.769-21,24
			c3.511-1.793,6.777-8.138,11-6C426.271,328.524,420.905,329.563,418.624,332z M142.624,315c5.152,1.918,8.509-0.651,12-3
			c-2.715,0.716,0.715-4.716-2-4C150.467,311.511,144.951,311.661,142.624,315z M167.624,318c-7.195-0.862-10.919,1.748-15,4
			c12.587,0.254,19.147-5.52,28-9c0.054-1.721-0.77-2.563-2-3C175.316,313.026,168.021,312.063,167.624,318z M201.624,314
			c-2.358-0.309-1.86-3.473-5-3C196.04,313.678,200.737,316.093,201.624,314z M126.624,312c-0.1,0.033,0.08,0.906,0,1
			C121.14,316.888,133.704,309.64,126.624,312z M261.624,319c-0.015-2.651,0.555-5.889-2-6
			C259.729,315.562,260.189,317.768,261.624,319z M115.624,318c1.72,0.054,2.563-0.77,3-2
			C116.903,315.946,116.06,316.77,115.624,318z M179.624,320c1.406,0.261,1.14,2.193,2,3c5.12-0.546,8.044-3.289,12-5
			C187.075,316.387,184.265,315.926,179.624,320z M269.624,326c-0.409-3.591-0.253-7.747-3-9
			C266.666,320.957,265.646,325.979,269.624,326z M458.624,332c-13.231,15.102-26.606,30.061-34,51c7.918,0.132,5.364-7.639,7-12
			c3.947-10.525,14.496-17.365,18-28c6.198-3.135,6.984-11.683,14-14c-0.847-4.153-0.233-9.767-3-12
			c-3.711,6.964-11.588,15.068-13,21c3.443-3.224,5.104-8.229,11-9C458.624,330,458.624,331,458.624,332z M203.624,320
			c2.062-0.605,6.947,1.613,6-2C207.871,318.914,204.634,318.344,203.624,320z M298.624,328c4.788,2.395,9.984,9.1,17,6
			c-1.904-8.43-8.697-11.97-16-15C299.932,322.643,299.464,325.508,298.624,328z M268.624,337c-1.312-10.354-13.935-9.398-21-14
			C250.991,331.3,259.491,334.466,268.624,337z M170.624,325C177.129,328.267,174.679,322.142,170.624,325L170.624,325z
			 M193.624,326c2.386,2.092,7.247,0.596,8-2C198.221,323.931,194.646,323.688,193.624,326z M216.624,326c1.72,0.054,2.563-0.77,3-2
			C218.052,324.096,216.156,323.866,216.624,326z M103.624,334c7.218-0.115,13.013-1.653,21-1c-1.045-2.288-0.635-6.032-2-8
			C113.051,324.761,106.63,327.673,103.624,334z M168.624,341c2.05-7.045-5.611-6.294-3-11c-6.25,0.229-12.231-5.074-17-3
			C151.803,335.154,158.176,340.113,168.624,341z M281.624,330c3.037,0.02,8.019,3.237,10,1c-3.135-1.864-7.457-2.543-10-5
			C281.624,327.333,281.624,328.667,281.624,330z M207.624,332c0-0.667,0-1.333,0-2C205.778,326.679,202.748,333.002,207.624,332z
			 M222.624,335c4.667,0.001,8.122-1.212,8-6c-2.391,0.609-7.255-1.256-8,1c2.322,0.345,4.686,0.647,4,4
			C225.127,334.171,222.933,333.643,222.624,335z M566.624,333c-6.985-3.028-12.269,2.46-18-3
			C549.718,337.399,561.215,334.42,566.624,333z M454.624,355c-3.283,9.233-6.861,18.017-4,29c1.712-2.288,7.633-0.367,11-1
			c0.711-11.763,5.673-19.478,5-30c3.149-0.483,0.749,4.585,3,5c-0.17-9.497,0.81-20.144-2-27c-0.116,2.551-0.188,5.146-3,5
			c-2.473-1.173,2.426-4.155-2-4c-0.26,6.424-9.631,9.013-7,15c-0.468-3.114,2.515-3.574,4-2c0.88-2.786,1.248-6.085,3-8
			c6.421,7.034,0.69,14.545-1,22c-1.69,7.454-0.294,18.613-7,20C449.594,372.587,455.201,359.662,454.624,355z M216.624,334
			c1.453-0.547,5.168,1.169,5-1C218.482,333.505,217.538,330.644,216.624,334z M232.624,335c5.861-0.173,12.564,4.073,17,2
			C243.241,336.549,236.896,328.744,232.624,335z M191.624,341c9.545,1.795,21.21,6.78,30,6c-5.444-8.228-21.706-10.954-32-11
			C191.81,336.147,191.771,338.52,191.624,341z M555.624,341c0,1.333,0,2.667,0,4c7.495-2.172,16.293-3.041,19-10
			C567.496,336.206,564.618,341.66,555.624,341z M368.624,339c1.158,2.437,4.71-1.115,2-2
			C370.612,338.321,368.871,337.914,368.624,339z M119.624,343c5.013-0.32,9.038-1.629,12-4
			C125.888,338.598,120.76,338.803,119.624,343z M329.624,342c-10.45,1.107-21.387-2.601-29-1
			C306.995,344.79,321.458,344.771,329.624,342z M414.624,383c8.498-3.773,9.263-15.444,14-23c4.949-7.894,12.502-13.257,15-20
			C431.466,351.843,419.874,364.25,414.624,383z M143.624,344c2.655,1.06,5.689,0.749,6-3
			C146.575,340.951,144.532,341.908,143.624,344z M248.624,351c6.45-1.217,17.841,2.508,21-2c-2.777-6.898-20.246-4.409-26-5
			C246.938,344.686,248.156,347.467,248.624,351z M151.624,352c4.936,1.903,7.064-0.485,12-1c-2.333-4.745,5.114-4.78,2-7
			C161.79,347.5,155.237,348.28,151.624,352z M168.624,347c1.78-0.553,4.153-0.514,5-2c-1.78,0.598-4.153-2.931-5,0
			C169.832,345.212,169.238,346.109,168.624,347z M364.624,344c-3.919,6.081-12.293,7.707-16,14c11.786,1.119,17.454-3.879,21-11
			C368.124,345.833,367.178,344.111,364.624,344z M176.624,350c5.093,0.427,9.241-0.092,11-3
			C182.104,345.653,179.648,346.801,176.624,350z M538.624,362c-6.816,3.089-16.209,1.38-20,6c0,1.333,0,2.667,0,4
			c17.879-2.121,31.975-8.025,36-24c-1.427-0.239-1.687-1.646-3-2C549.315,353.078,545.398,358.931,538.624,362z M128.624,350
			c3.74,0.073,6.913-0.421,9-2C134.458,346.506,129.75,346.761,128.624,350z M198.624,353c-7.801,5.223,5.94-0.422,6-5
			c-2.333,0-4.667,0-7,0C195.177,350.358,199.117,349.86,198.624,353z M302.624,351c7.232,0.25,17.42,2.695,21-3
			C316.426,350.739,306.753,345.001,302.624,351z M164.624,357c1.427,0.239,1.687,1.646,3,2c1.813-2.521,6.187-2.479,8-5
			c-4.725,0.475-1.863-1.247-1-3C170.236,351.945,167.698,354.74,164.624,357z M215.624,352c-0.987,2.132-8.077,7.299-4,8
			c18.111-0.468,45.08,1.362,55-2C247.292,358.331,231.982,354.642,215.624,352z M181.624,361c5.54-0.46,10.531-1.469,13-5
			C190.75,356.686,184.074,356.417,181.624,361z M136.624,359c3.249-0.084,6.151-0.516,8-2
			C141.125,356.834,138.222,357.266,136.624,359z M392.624,364c0.595,2.071-1.236,6.569,1,7c3.346-4.988,8.899-7.767,13-12
			C400.913,359.622,397.967,363.011,392.624,364z M436.624,383c3.129-0.204,7.341,0.675,9-1c-2.137-10.149,3.941-17.375,3-23
			C445.28,367.656,440.248,374.624,436.624,383z M160.624,360c-1.496,0.171-3.69-0.357-4,1
			C158.12,360.83,160.314,361.357,160.624,360z M364.624,376c5.775-0.225,7.308-4.692,9-9c1.464-1.27,6.564-4.013,4-6
			C373.298,366.008,367.7,369.743,364.624,376z M265.624,365c4.855,9.147,21.761,1.205,28-1
			C285.95,358.871,274.3,364.712,265.624,365z M114.624,366c-19.316-4.781-45.329,5.412-54,14c17.527-6.14,41.895-5.438,63-8
			C120.524,370.269,118.283,366.906,114.624,366z M156.624,376c8.667,0,17.333,0,26,0c-1.272-13.399-24.12-10.541-37-9
			C149.917,369.373,152.502,373.454,156.624,376z M207.624,367c-2.159,2.226,3.742,4.876,3,9c9.373,0.706,15.438-1.896,22-4
			C230.198,364.977,216.093,364.688,207.624,367z M468.624,382c1.011-1.656,4.247-1.086,6-2c-1.993-3.365-3.5-12.468-5-13
			C470.432,372.505,466.154,378.156,468.624,382z M496.624,376c6.493-0.174,11.354-1.979,17-3c-0.334-2.333-1.025-4.309-3-5
			C506.817,371.526,501.547,373.591,496.624,376z M325.624,371c-3.537,5.13-9.691,7.643-15,11c8.204,4.434,17.694-4.188,24-8
			C329.222,375.401,329.324,371.3,325.624,371z M380.624,382c0.154-3.556,6.168-6.44,4-9
			C383.313,375.399,377.454,378.439,380.624,382z M490.624,390c0.745,3.078-2.745,1.922-2,5c3.189,5.94-2.338,13.615-1,19
			c-0.088-3.421,6.088-0.579,6-4c-5.669-5.227-1.816-16.085-1-24c-2.98-3.68-2.853-6.001-2-12
			C486.301,376.068,488.906,387.417,490.624,390z M282.624,383c7.669,1.866,17.385-1.608,20-8
			C295.34,377.05,287.466,378.51,282.624,383z M339.624,397c2.802-1.15,5.198-1.15,8,0c1.285-2.493,5.059-5.416,7-9
			c1.719-3.174,4.698-9.606,2-11C351.965,384.675,341.656,386.699,339.624,397z M478.624,400c5.615,0.063,0.553,6.262,3,8
			c0.14-3.21,5.337-4.369,3-7c-5.861,0.014-0.979-6.809-1-7c-0.029-0.264-1.873-0.094-2-1c-0.764-5.449,2.736-14.285-3-16
			C481.156,383.065,481.554,394.008,478.624,400z M362.624,384c0.898-1.768,2.414-2.919,3-5c-1.377,0.043-2.196-0.471-3-1
			C362.9,379.753,359.808,382.989,362.624,384z M359.624,399c10.406,3.035,13.906-9.1,9-15
			C363.495,386.871,361.814,393.19,359.624,399z M225.624,397c4.555,13.127,20.407,5.396,30,2
			C250.994,384.623,236.85,397.631,225.624,397z M282.624,393c-2.961,5.116-17.839,2.258-15,10c8.132-2.868,17.49-4.51,23-10
			C287.957,393,285.29,393,282.624,393z M143.624,410c-4.246-9.426-21.836-10.823-35-8C115.183,410.401,129.445,414.93,143.624,410z
			 M197.624,407c-6.623-6.431-15.707-5.63-27-6C174.199,410.278,188.692,413.46,197.624,407z M64.624,402
			c-7.636,6.504-30.955,1.053-30,13c14.264-2.735,34.808,0.808,49-2C77.685,408.939,73.352,403.271,64.624,402z M284.624,418
			c5.387-0.283,13.426-1.771,17-5c1.089-0.983,5.676-6.444,2-7C299.229,411.939,289.182,412.225,284.624,418z M362.624,429
			c8.594,0.914,7.968-12.681,6-19C367.411,417.12,364.106,422.148,362.624,429z M224.624,417c9.234,3.125,18.791-0.889,23-6
			C237.619,410.662,231.939,414.649,224.624,417z M483.624,413C488.735,420.156,482.124,410.899,483.624,413L483.624,413z
			 M344.624,434c11.304,1.304,11.655-8.345,14-16C347.32,416.696,346.968,426.345,344.624,434z M324.624,421
			c-3.593,4.073-4.699,10.635-7,16c5.905-0.911,9.173-3.4,14-3c1.827-4.84,4.788-8.545,5-15
			C331.453,418.496,330.472,422.182,324.624,421z M179.624,436c3.726,0.607,6.549,2.118,9,4c4.01-4.656,13.722-3.611,16-10
			C195.399,425.839,185.237,430.765,179.624,436z M278.624,444c2.45-3.026,6.508,0.758,10,0c4.049-3.299,10.737-9.243,11-13
			C289.415,431.465,275.344,433.377,278.624,444z M239.624,447c3.576,0.425,5.336,2.663,10,2c3.479-5.854,11.508-7.159,16-12
			C258.004,426.017,246.266,441.826,239.624,447z M137.624,450c2.699,6.472,20.742,4.048,23-2
			C151.765,443.612,145.534,446.613,137.624,450z M361.624,448c0.896,3.771,0.863,8.471,2,12c4.938,0.938,6.782-1.218,9-3
			c0.714-5.047-1.366-7.301-2-11C366.035,445.077,365.792,448.502,361.624,448z M311.624,465c3.863,0.196,7.369,0.035,10-1
			c0.939-3.728,3.777-5.557,3-11C317.578,444.229,310.325,454.076,311.624,465z M343.624,450c-1.021,4.312-2.585,8.081-2,14
			c7.495,1.343,10.826-10.498,6-15C348.518,452.492,344.362,450.708,343.624,450z M267.624,459c-0.188,5.146-5.451,5.215-5,11
			c7.744,0.938,17.398-4.499,20-12C277.87,458.58,273.402,459.445,267.624,459z M214.624,459c-2.897,5.103-8.808,7.192-13,11
			c9.884,3.156,18.25-2.798,23-8C218.904,463.386,218.249,459.708,214.624,459z M103.624,466c-0.126-0.126,0.116-1.99,0-2
			c-2.376-0.192-9.614,2.919-15,5c-14.334,5.54-34.148,15.312-36,25c17.312-9.688,37.305-16.695,58-23
			C112.777,466.335,102.866,465.242,103.624,466z M375.624,475c-4.848,1.485-10.021,2.646-12,7c-0.327,5.66,2.937,7.73,3,13
			C377.112,494.965,381.347,482.633,375.624,475z M340.624,499c3.658,0.658,3.836-2.164,7-2c-0.372-5.628,1.05-13.05-3-15
			C342.031,486.497,336.153,493.472,340.624,499z M306.624,500c7.929-0.737,11.527-5.807,10-16
			C306.315,478.897,303.582,491.873,306.624,500z M187.624,487c0.054-1.721-0.77-2.563-2-3
			C184.193,485.461,184.154,487.872,187.624,487z M255.624,489c-0.467,3.533-2.526,5.475-4,8c6.844,1.147,13.084-2.414,14-10
			C262.001,484.108,260.987,490.507,255.624,489z M175.624,494c3.78-0.22,5.697-2.303,7-5
			C179.299,489.676,176.518,490.894,175.624,494z M168.624,502c0.658-1.662,7.368-5.722,3-6
			C172.226,499.015,165.136,499.406,168.624,502z M369.624,516c-0.22,3.22,1.769,4.231,1,8c7.544-1.456,9.455-8.545,11-16
			C374.101,507.144,375.167,514.876,369.624,516z M235.624,528c6.667-2.666,9.015-9.652,13-15
			C240.706,514.416,239.828,522.871,235.624,528z M300.624,518c-1.031,9.969-4.618,17.382-7,26c13.777-0.556,17.209-11.458,16-27
			C305.602,516.312,303.915,517.958,300.624,518z M349.624,520c-10.383,0.141-8.735,16.73-4,22c-0.901-5.901,4.239-5.761,7-8
			C353.942,527.016,349.893,525.396,349.624,520z M343.624,588c10.15,0.048,12.028-13.166,10-22
			C344.788,563.97,342.191,576.465,343.624,588z"/>
	</g>
</g>
</svg>
