<?xml version="1.0" encoding="UTF-8" standalone="no"?>
	<svg xmlns:rdf="http://www.w3.org/1999/02/22-rdf-syntax-ns#" xmlns="http://www.w3.org/2000/svg" height="283.736px" width="500px" xmlns:cc="http://creativecommons.org/ns#" xmlns:xlink="http://www.w3.org/1999/xlink" xmlns:dc="http://purl.org/dc/elements/1.1/">
	<title>Microalgae</title>
<desc xmlns:ian_image_library="http://ian.umces.edu/imagelibrary/">
      <ian_image_library:title>Microalgae</ian_image_library:title>
      <ian_image_library:descr>Illustration of a mixed phytoplankton community</ian_image_library:descr>
      <ian_image_library:scene>
		<ian_image_library:contains>symbol,vector,illustration,mixed,phytoplankton,community,coloured,colored,microalgae,algae,harmful,algal,bloom,</ian_image_library:contains>
        <ian_image_library:when>2004-03-05</ian_image_library:when>
	  </ian_image_library:scene>
   </desc>
    <metadata
		id="metadata-iil-0d36bf1a11e65504751178c6e20d3d37">
      <rdf:RDF>
      <cc:Work
         rdf:about="">
        <dc:format>image/svg+xml</dc:format>
        <dc:type
           rdf:resource="http://purl.org/dc/dcmitype/StillImage" />
        <cc:license
           rdf:resource="http://creativecommons.org/licenses/by-sa/3.0/" />
        <dc:title>Microalgae</dc:title>
		<dc:date>2004-03-05</dc:date>
        <dc:creator>
			<cc:Agent>
				<dc:title>Tracey Saxby</dc:title>
			</cc:Agent>
		</dc:creator>
		<dc:rights>
          <cc:Agent>
            <dc:title>Tracey Saxby, Integration and Application Network</dc:title>
          </cc:Agent>
        </dc:rights>
        <dc:publisher>
          <cc:Agent>
            <dc:title>Integration and Application Network</dc:title>
          </cc:Agent>
        </dc:publisher>
		<dc:identifier>http://ian.umces.edu/imagelibrary/displayimage-4936.html</dc:identifier>
        <dc:source>http://ian.umces.edu/imagelibrary/displayimage-4936.html</dc:source>
        <dc:language>en-US</dc:language>
        <dc:subject>
          <rdf:Bag>
            <rdf:li>symbol,vector,illustration,mixed,phytoplankton,community,coloured,colored,microalgae,algae,harmful,algal,bloom,</rdf:li>
          </rdf:Bag>
        </dc:subject>
        <dc:coverage></dc:coverage>
        <dc:description>Illustration of a mixed phytoplankton community</dc:description>
        <dc:contributor>
          <cc:Agent>
            <dc:title></dc:title>
          </cc:Agent>
        </dc:contributor>
      </cc:Work>
      <cc:License
         rdf:about="http://creativecommons.org/licenses/by-sa/3.0/">
        <cc:permits
           rdf:resource="http://creativecommons.org/ns#Reproduction" />
        <cc:permits
           rdf:resource="http://creativecommons.org/ns#Distribution" />
        <cc:requires
           rdf:resource="http://creativecommons.org/ns#Notice" />
        <cc:requires
           rdf:resource="http://creativecommons.org/ns#Attribution" />
        <cc:permits
           rdf:resource="http://creativecommons.org/ns#DerivativeWorks" />
        <cc:requires
           rdf:resource="http://creativecommons.org/ns#ShareAlike" />
      </cc:License>
    </rdf:RDF>
  </metadata>
	
<g id="ian_symbols_b85c12e7d21d0d84750a8dac5831064f">
	<g>
		<path fill="#8EC640" d="M499.131,184.176c-5.696-12.482-29.02-18.146-29.02-18.146c-7.845-2.204-15.725-3.418-22.188-3.418
			c-8.622,0-13.969,2.056-15.525,5.856c0,0-6.875,20.157-5.784,23.476c0.745,2.589,9.433,6.827,25.82,12.598
			c5.773,2.033,25.312,8.666,34.393,8.666c1.663,0,4.019-0.184,5.217-1.688c4.009-4.451,7.461-21.103,7.638-21.716
			C500.105,188.578,500.266,186.662,499.131,184.176z M454.227,172.646l-1.783-5.29c2.621,0.21,7.608,0.695,8.162,1.527
			s-0.669,6.617-0.669,6.617s3.568-5.64,4.722-6.027c1.153-0.389,5.912,1.403,6.557,2.209s-1.001,7.435-1.001,7.435
			s3.216-6.731,4.54-6.566c1.324,0.164,9.249,3.509,9.19,4.341c-0.058,0.832-4.403,4.129-4.403,4.129s5.962-2.396,7.695-2.146
			c1.734,0.25,6.055,4.559,7.311,6.443l-9.867,0.461l10.022,3.459c-0.108,0.14-0.212,0.295-0.305,0.477
			c-0.686,0.605-3.976,1.858-9.034,2.279c-0.583,0.025-1.158,0.065-1.793,0.056c-2.335-0.032-7.075-7.794-7.075-7.794l0.594,7.378
			c-1.732-0.204-4.504-0.662-6.315-1.016c-1.77-1.105-3.224-8.646-3.224-8.646l-1.599,6.677c-2.546-0.315-4.239-0.685-6.524-1.568
			l0.222-7.146l-3.177,6.462c-3.086-1.01-7.651-3.77-8.66-4.566c-0.211-0.169-0.398-0.329-0.603-0.496l4.924-5.643
			c0,0-6.111,3.632-7.734,3.238c-1.622-0.395-4.785-4.872-5.958-6.539l7.602-0.507l-8.398-2.723
			c1.641-1.116,8.427-2.546,10.279-2.001S454.227,172.646,454.227,172.646z M488.697,208.441c-0.146,0.059-0.657,0.217-1.87,0.217
			c-12.585,0-51.739-14.823-55.885-18.282c-0.079-1.663,1.176-6.828,3.117-13.067c2.708,3.681,7.759,7.372,14.248,10.531
			c3.196,2.151,11.304,4.492,13.359,5.088c3.021,0.942,6.07,1.71,9.064,2.301c4.221,1.165,8.263,1.457,11.182,1.457
			c0.937,0,1.963-0.037,3.029-0.111c3.564-0.1,6.552-0.594,8.902-1.452C492.997,199.33,491.231,205.496,488.697,208.441z"/>
		<path fill="#8EC640" d="M354.866,196.557c-1.453,0.026-1.8-0.091-3.295,0.259c-0.372,0.085-1.393,0.252-1.765,0.338
			c-0.25-0.519-0.36-0.556-0.734-0.932c-0.428-0.428-0.503-0.989-0.466-1.222l0.359-0.343v-0.65c0-0.564,0.066-1.245-0.248-2.146
			c0.236-0.103,0.693-0.323,0.908-0.415c1.266-0.543,1.814-0.962,1.814-0.962s-0.898,0.181-2.248,0.453
			c-0.251,0.052-0.533,0.107-0.813,0.164c-0.426-0.831-1.15-1.661-2.454-2.31c-0.686-0.344-2.22-1.058-4.094-1.93
			c-3.888-1.81-9.737-4.531-11.658-5.665c-0.807-0.634-1.775-1.308-2.801-2.019c-2.601-1.807-5.837-4.055-8.392-6.972
			c-0.814-1.093-1.772-2.324-2.73-3.558c-0.963-1.239-1.928-2.479-2.75-3.584c-0.982-1.309-2.385-2.06-3.846-2.06
			c-1.818,0-3.205,1.201-3.287,2.816c-0.561,3.219-1.095,5.891-1.096,5.897c0,0-0.766,7.416-1.467,8.891
			c-0.301,0.47-0.674,1.152-1.179,2.077c-1.503,2.749-4.017,7.35-8.046,12.59c-5.703,7.605-6.905,10.994-6.592,12.765
			c-0.717,0.168-1.41,0.33-2.074,0.486c-2.584,0.654-2.252,1.137,0.355,0.607c0.679-0.127,2.102-0.115,2.264,0.072
			c0.737,1.17,0.794,2.779,0.799,3.781c-0.05,0.16-1.949,0.625-1.949,0.625c-0.912,0.268-2.698,1.246-2.698,1.246
			c0.931-0.07,1.894-0.256,2.794-0.486l1.619-0.391c-0.266,1.541,0.076,3.014,1.781,4.709l0.224,0.184
			c0.268,0.18,0.797,0.498,1.517,0.93c3.409,2.043,12.468,7.467,15.069,11.785c2.491,4.146,4.329,8.293,5.317,10.521
			c0.215,0.482,0.391,0.875,0.522,1.16c0.101,1.412,0.757,3.307,2.302,3.307l0,0c0.602,0,1.354-0.34,1.659-1.299
			c0.091-0.283,0.141-0.613,0.155-1.025c0.174-0.561,0.451-1.525,0.772-2.65c0.479-1.668,1.366-4.766,1.902-6.322
			c1.009-0.01,1.604-0.813,2.016-1.428l0.104-0.182c0.221-0.455,0.455-1.285,0.886-2.834c0.104-0.371,0.232-0.834,0.37-1.318
			c0.006,0.008,0.012,0.014,0.018,0.02c0.873,1.268,2.184,2.021,3.527,2.021c0.76,0,1.439-0.24,1.934-0.674
			c0.481-0.348,0.794-0.738,1-1.121c1.337,1.152,3.088,3.699,4.299,5.457c1.537,2.232,2.191,3.154,2.955,3.541
			c1.128,0.553,2.346,0.281,3-0.627c0.598-0.828,0.673-2.041,0.215-3.408l-0.084-0.199c-1.018-2.025-3.002-8.594,0.063-14.721
			c1.936-5.063,4.996-10.092,7.021-13.42c0.728-1.195,1.31-2.152,1.651-2.809c1.422-1.975,1.495-3.992,0.896-5.57
			c0.346-0.109,0.691-0.221,1.039-0.33C352.688,197.213,353.39,196.984,354.866,196.557z M328.369,183.636l0.161,0.111
			c1.973,1.188,7.781,3.891,12.022,5.865c1.839,0.855,3.345,1.556,4.02,1.894c0.214,0.106,0.385,0.218,0.536,0.33
			c-0.287,0.074-0.572,0.148-0.863,0.219c-1.795,0.435-3.578,0.937-4.916,1.322c-0.521,0.154-0.949,0.28-1.307,0.386
			c-3.105-2.845-11.33-6.529-14.197-7.227l0.002-0.004c-0.582-0.249-1.721-1.512-3.067-3.238l0.144-0.028
			c-0.22-1.104,1.072-2.586,2.091-3.477c0.921,0.675,1.817,1.303,2.648,1.88C326.706,182.407,327.624,183.045,328.369,183.636z
			 M323.44,189.55c3.593,0.895,8.953,3.872,11.553,5.624c-5.91,2.761-11.574,5.468-13.521,6.789
			c-0.138-0.631-0.261-1.568-0.358-2.318c-0.061-0.463-0.123-0.949-0.202-1.488C320.5,195.673,322.399,190.677,323.44,189.55z
			 M313.856,170.511c0.945,1.217,1.891,2.433,2.768,3.601c1.246,1.425,2.591,2.669,3.938,3.785c-0.654,0.62-1.415,1.479-1.967,2.481
			c-2.838-3.993-5.828-8.765-6.561-10.581c-0.297-0.736-0.628-1.398-0.961-1.982c0.031-0.27,0.064-0.533,0.1-0.799
			C311.983,168.097,312.917,169.302,313.856,170.511z M305.288,184.143c0.484-0.886,0.846-1.554,1.106-1.95l0.091-0.156
			c0.029-0.059,0.057-0.129,0.086-0.19c-0.285,1.601-0.801,3.423-1.779,5.628c-0.135,0.401-0.4,1.026-0.756,1.769
			c-0.375-0.337-0.773-0.618-1.156-0.845C303.87,186.728,304.667,185.277,305.288,184.143z M305.29,193.329
			c0.359,0.183,0.902,0.461,1.634,0.856c1.328,0.729,3.251,1.787,5.316,3.286c0.992,0.74,2.146,1.658,2.739,2.633
			c0.074,0.119,0.117,0.221,0.158,0.326l0.18,0.561c0.117,0.365,0.234,0.732,0.354,1.105c0.01,0.031,0.018,0.063,0.027,0.096
			l-0.394,0.045c-1.78,0.221-3.386,0.619-5.126,0.955c-1.713,0.361-3.453,0.725-5.193,1.09c-3.271,0.691-6.531,1.402-9.614,2.086
			c0.729-1.51,2.945-4.021,4.662-5.959c0.62-0.699,1.247-1.406,1.876-2.137C303.2,196.715,304.349,194.955,305.29,193.329z
			 M296.996,197.111c1.681-2.185,3.092-4.249,4.294-6.13c0.543,0.321,1.049,0.741,1.187,1.16c-0.825,1.396-1.806,2.873-2.884,4.173
			c-0.601,0.698-1.219,1.395-1.828,2.083c-3.485,3.932-5.629,6.471-5.682,8.707c-0.371,0.086-0.73,0.166-1.094,0.25
			C291.049,206.77,291.646,204.246,296.996,197.111z M292.913,216.438c-1.103-1.131-0.992-1.639-0.627-2.729l0.079-0.234
			l1.511-0.334c0.213,0.717,1.462,4.426,5.686,7.045l-0.102,0.305c-2.063-1.355-3.969-2.5-5.282-3.285
			C293.616,216.869,293.179,216.607,292.913,216.438z M316.534,212.615c-0.584,0.387-1.165,0.795-1.717,1.32
			c-0.306,0.295-0.604,0.623-0.865,1.035c-0.196,0.313-0.338,0.715-0.416,1.148c-0.145,0.246-0.344,0.49-0.623,0.797
			c-0.149,0.174-0.319,0.332-0.535,0.699c-0.051,0.086-0.107,0.205-0.152,0.355c-0.045,0.135-0.08,0.346-0.064,0.541
			c0.01,0.145,0.064,0.264,0.11,0.387c-0.004,0.037-0.004,0.066-0.015,0.115l-0.019,0.111c-12.302,1.941-15.171-5.818-15.52-6.975
			l1.719-0.412c3.653-0.857,7.316-1.709,10.985-2.371c0.916-0.16,1.838-0.307,2.732-0.391c0.433-0.029,0.91-0.061,1.154,0.014
			c0.502,0.127,0.762,0.256,1.158,0.453c0.715,0.396,1.364,0.959,1.774,1.609C316.626,211.643,316.725,212.26,316.534,212.615z
			 M314.141,217.955c0.041,0.035,0.039,0.049,0.088,0.127c0.031,0.066,0.055,0.15,0.065,0.244L314.141,217.955z M315.592,240.461
			c-1.053-2.365-2.868-6.377-5.306-10.43c-1.577-2.621-4.88-5.387-8.225-7.764l0.258-0.771c1.716,0.613,3.741,1.004,6.162,1.004
			c1.42,0,2.981-0.141,4.677-0.434c0.102,0.186,0.205,0.373,0.307,0.559l0.072,0.107c0.189,0.285,0.402,0.738,0.583,1.199
			c0.185,0.465,0.354,0.957,0.521,1.459l0.973,3.078c0.334,1.043,0.678,2.096,1.123,3.172c0.229,0.539,0.476,1.084,0.826,1.654
			c0.055,0.084,0.115,0.168,0.172,0.252C317.329,234.547,316.74,236.459,315.592,240.461z M320.404,230.027
			c-0.136,0.49-0.3,1.078-0.438,1.549c-0.213-0.32-0.421-0.701-0.615-1.104c-0.432-0.9-0.815-1.887-1.191-2.885l-1.145-3.055
			c-0.203-0.518-0.412-1.037-0.654-1.564c-0.25-0.531-0.501-1.063-0.945-1.654l0.071,0.104c-0.312-0.496-0.626-0.998-0.886-1.465
			l-0.158-0.311c-0.009-0.041-0.058-0.148-0.041-0.086c-0.01,0.029-0.006,0-0.003-0.027c-0.005,0.004,0.014-0.121,0.024-0.205
			c0.029-0.172,0.027-0.404,0.035-0.604l-0.104-0.25c0.045-0.061,0.098-0.131,0.156-0.199c0.274-0.338,0.619-0.77,0.871-1.293
			l0.133-0.277l-0.025-0.178c-0.038-0.264,0.232-0.783,0.68-1.24c0.436-0.465,0.989-0.9,1.562-1.313l0.159-0.115l0.088-0.135
			c0.395-0.607,0.479-1.379,0.348-1.992c-0.127-0.625-0.403-1.145-0.723-1.6c-0.648-0.906-1.512-1.557-2.457-2.021
			c-0.447-0.213-1.068-0.424-1.486-0.498c-0.676-0.135-1.15-0.035-1.648,0.006c-0.972,0.127-1.9,0.314-2.83,0.512
			c-3.697,0.813-7.199,1.318-10.827,2.313l-6.019,1.777c-0.021-1.053-0.12-2.195-0.734-3.631c-0.087-0.207,8.787-2.193,13.633-2.982
			c1.75-0.281,3.499-0.563,5.223-0.838c1.703-0.246,3.463-0.602,5-0.674l0.637-0.033c0.251-0.045,0.449,0.023,1.006-0.254
			c0.289-0.143,0.586-0.578,0.622-0.863c0.059-0.279,0.042-0.475,0.028-0.623c-0.031-0.303-0.082-0.516-0.131-0.73
			c-0.101-0.398-0.199-0.793-0.297-1.182l-0.144-0.561c-0.071-0.26-0.169-0.521-0.278-0.734c-0.92-1.699-2.098-2.623-3.145-3.558
			c-2.137-1.777-4.043-2.99-5.38-3.846c-0.746-0.47-1.304-0.804-1.673-1.021c0.436-0.896,0.76-1.651,0.912-2.114
			c2.332-5.231,2.332-8.762,2.332-11.599c0-0.809,0.184-1.272,0.439-1.912c0.135-0.341,0.283-0.727,0.406-1.174
			c2.425,4.174,6.965,11.078,10.072,14.086c-1.745,2.359-3.438,7.703-2.948,10.648c0.071,0.492,0.133,0.965,0.19,1.414
			c0.371,2.85,0.692,5.311,2.962,5.311c0.635,0,1.287-0.26,1.983-0.787c1.667-1.238,10.193-5.221,13.403-6.721
			c0.701-0.328,3.278-1.789,3.847-2.092c1.201-0.638,2.814-1.48,4.463-2.266c0.367-0.176,0.732-0.356,1.096-0.536
			c0.041,0.192,0.061,0.391,0.067,0.602c-0.229,0.434-0.354,0.956-0.361,1.529c-0.015,1.204,1.241,2.898,1.153,2.91
			c-4.131,0.535-14.941,5.395-17.533,6.559c-1.412,0.639-2.819,1.295-4.203,1.994l-2.07,1.057c-0.67,0.344-1.395,0.74-1.973,1.008
			l-0.057,0.025l-0.105,0.068c-0.324,0.207-0.656,0.422-1.021,0.783c-0.181,0.186-0.369,0.406-0.53,0.695
			c-0.165,0.281-0.276,0.621-0.333,0.928c-0.102,0.621-0.046,1.01-0.043,1.322c0.012,0.309,0.014,0.557,0.002,0.803l-0.016,0.299
			l0.19,0.445c0.218,0.508,0.409,1.08,0.544,1.633c0.136,0.543,0.219,1.131,0.191,1.465l-0.031,0.383l0.219,0.426
			c0.183,0.357,0.363,0.746,0.563,1.076l0.59,0.928c0.283,0.418,0.532,0.816,0.781,1.213c0.031,0.273,0.066,0.547,0.064,0.875
			c0.025,0.385-0.008,0.826-0.019,1.244C321.898,223.646,320.936,228.115,320.404,230.027z M325.717,219.615l-0.027-0.113
			l-0.191-0.252c-0.424-0.557-0.852-1.127-1.264-1.631l-0.549-0.707c-0.116-0.16-0.205-0.307-0.3-0.459
			c-0.095-0.705-0.272-1.285-0.464-1.865c-0.217-0.625-0.477-1.215-0.781-1.809c-0.02-0.223-0.043-0.438-0.067-0.627
			c-0.044-0.313-0.069-0.559-0.069-0.559c-0.004,0.016-0.088,0.096-0.014-0.02c0.07-0.096,0.247-0.252,0.44-0.4l-0.162,0.094
			c0.78-0.443,1.368-0.84,2.031-1.25l1.94-1.197c1.295-0.791,2.612-1.539,3.94-2.277c1.747-0.961,3.533-1.852,5.337-2.715
			c-0.335,0.729-0.571,1.5-0.571,2.271c0,1.678,0,1.678-1.321,3.441c-0.5,0.623-1.169,1.549-1.941,2.625
			C330.26,214.145,327.747,217.637,325.717,219.615z M337.849,218.59c-2.687,5.355-2.09,11.088-0.983,14.762
			c-1.777-2.58-3.779-5.457-5.777-6.645c-0.626-0.313-1.15-0.52-1.675-0.52c-0.475,0-1.603,0.176-1.831,1.818
			c-0.046,0.324-0.052,0.336-0.205,0.438l-0.129,0.086c-0.002,0-0.004,0-0.008,0c-0.272,0-0.693-0.197-1.059-0.75l-0.142-0.178
			c-0.116-0.162-0.313-0.674-0.507-1.283c0,0,0.701-2.537,0.691-3.064c-0.002-0.049-0.005-0.096-0.007-0.145
			c2.392-1.65,5.038-5.156,7.928-9.174c0.733-1.021,1.367-1.904,1.874-2.533c0.004-0.006,0.006-0.008,0.01-0.014l5.58-0.703
			C340.249,213.15,338.887,215.865,337.849,218.59z M346.784,201.875l-0.139,0.225c-0.276,0.549-0.857,1.504-1.594,2.715
			c-0.47,0.771-0.998,1.645-1.552,2.576l-5.637,0.711c0.092-0.521,0.116-1.127,0.116-2.002c0-1.072,1.918-4.254,1.918-4.254
			c2.291-0.98,4.61-1.906,6.972-2.725c0.149-0.057,0.302-0.104,0.452-0.156C347.621,199.643,347.68,200.676,346.784,201.875z"/>
		<path fill="#8EC640" d="M224.003,232.695c-2.562,0.004-8.55-1.17-13.899,1.393c-3.967,1.842-87.69,39.674-91.229,41.697
			c-3.538,2.02-13.876,7.951-13.876,7.951s12.233-3.529,15.266-3.529c3.033,0,16.922,0.424,20.97,0.023
			c4.048-0.402,20.475-9.246,22.623-9.879c2.147-0.631,4.811-0.75,9.005-1.949c4.194-1.197,43.18-20.164,43.18-20.164
			c2.528-1.01,4.317-2.861,6.571-4.549c0.37-0.367,2.394-2.203,2.78-2.654c0.77-0.895,1.948-2.18,3.032-2.904
			c2.692-2.166,18.077-11.246,18.077-11.246S225.71,232.15,224.003,232.695z M225.516,237.371c-1.231,0.818-8.26,7.273-8.764,7.68
			c-1.917,0.865-42.292,21.355-49.609,21.637c-2.936,0.113-23.445,10.424-26.156,10.992c-2.71,0.566-12.872-0.281-14.468-0.281
			c-2.022,0-3.722,0.063-4.965,0.182c-0.127,0-0.275-0.029-0.436-0.078c13.029-5.895,88.773-41.285,91.912-41.717
			c3.139-0.436,5.7-0.533,10.806-0.533c0.1,0,0.199-0.016,0.294-0.047c1.112-0.367,5.182-1.096,7.076-1.623
			C231.205,233.582,227.626,235.67,225.516,237.371z"/>
		<g>
			<path fill="#8EC640" d="M419.397,57.807c-0.379-0.195-0.834-0.163-1.182,0.086c-0.037,0.026-3.657,2.604-5.757,3.683
				c-1.164,0.161-2.326-2.138-2.34-2.652c0.093-0.308,0.683-1.108,2.962-3.176c0.256-0.232,0.455-0.414,0.561-0.52
				c0.873-0.872,0.654-2.042,0.008-2.701c-0.213-0.218-0.506-0.341-0.812-0.341c-0.729,0-1.302,0.423-4.856,4.311
				c-0.128,0.14-0.246,0.271-0.354,0.388c-0.629-0.563-1.585-1.521-2.229-2.167c-0.183-0.181-0.068-0.86,0.613-1.922
				c0.678-1.059,1.573-1.963,1.582-1.972c0.213-0.214,0.332-0.504,0.332-0.806c-0.002-0.301-0.121-0.591-0.336-0.804l-0.545-0.541
				c-0.243-0.239-0.582-0.358-0.917-0.323c-0.337,0.035-0.644,0.218-0.832,0.502c-0.574,0.866-2.212,3.241-3.077,4.137
				c-0.613,0.375-1.202,0.088-1.211,0.086c-0.326-0.324-0.818-0.424-1.239-0.247c-0.427,0.175-0.704,0.59-0.704,1.05
				c0,0.172,0.03,0.382,0.073,0.622c0.092,0.522,0.129,0.835-0.183,1.208c-0.314,0.162-0.719,0.383-1.174,0.631
				c-1.233,0.672-2.922,1.592-3.984,1.949c-0.464,0.156-0.775,0.562-0.775,1.05c-0.007,0.064-0.05,0.185-0.079,0.286
				c-0.646,0.527-0.841,1.123-0.808,1.846c-0.814,1.609-1.99,3.591-2.639,4.238c-0.08,0.081-0.368,0.215-1.397,0.215
				c-0.514,0-0.956,0.348-1.09,0.844c-0.104,0.379,0.003,0.777,0.257,1.059c-0.061,0.111-0.18,0.287-0.409,0.53
				c-0.341,0.205-0.717,0.518-1.208,0.925c-1.307,1.081-3.42,2.772-4.814,2.222c-0.302-0.12-0.646-0.103-0.938,0.044
				c-0.718,0.368-1.419,1.387-2.595,3.157c-0.6,0.903-1.578,2.375-2.044,2.765c-1.271,0.002-2.264,0.048-2.634,0.951
				c-0.078,0.192-0.283,0.874,0.441,1.583c4.398,3.842,8.801,7.688,13.191,11.544c0.211,0.186,0.479,0.283,0.75,0.283
				c0.158,0,0.318-0.033,0.47-0.101c0.405-0.184,0.667-0.589,0.667-1.036v-0.312c0.156-0.397,0.18-0.71,0.196-0.931
				c0.013-0.194,0.035-0.486,1.497-1.667c3.099-2.062,5.064-2.533,5.414-2.546c0.432,0,0.826-0.244,1.018-0.63
				c0.604-1.21,1.826-3.395,2.539-4.104c0.759-0.759,1.475-0.759,1.946-0.759c0.459,0,0.876-0.272,1.052-0.696
				s0.082-0.909-0.242-1.235c-0.029-0.098,0.067-0.676,1.088-1.704c0.912-0.912,2.522-1.688,3.698-2.254
				c0.985-0.474,1.472-0.716,1.794-1.036c0.087-0.087,0.158-0.186,0.213-0.294c0.611-1.215,1.208-2.241,1.736-3.146
				c0.415-0.712,0.766-1.318,0.936-1.688c0.306-0.457,0.682-0.679,1.149-0.679c0.04,0,0.077,0.001,0.11,0.004
				c0.17,0.107,0.363,0.172,0.569,0.172c0.864,0,1.078-0.643,1.401-1.616c0.17-0.512,0.395-1.191,0.609-1.673
				c0.585-0.511,2.747-2.17,4.691-3.624c0.287-0.215,0.456-0.552,0.456-0.911v-0.549C420.013,58.393,419.775,58.002,419.397,57.807z
				 M394.68,69.96c-0.515-0.487-1.151-1.205-1.418-1.504c-0.144-0.161-0.27-0.303-0.37-0.412c0.052-0.401,0.46-1.41,0.854-2.388
				l0.365-0.91c0.523-1.298,0.449-2.217,0.354-2.873c0.121-0.255,0.237-0.509,0.337-0.747c0.092-0.043,0.2-0.09,0.331-0.143
				c2.797-1.129,5.543-2.759,5.658-2.828c0.082-0.049,0.206-0.132,0.272-0.198c0.001,0,0.148,0.047,0.381,0.398
				c0.043,0.066,0.093,0.126,0.149,0.182c0.657,0.647,2.188,3.723,3.066,5.7c0.218,0.492,0.752,0.758,1.275,0.652
				c0.525-0.112,0.901-0.575,0.901-1.113v-0.511c0.409,0.043,1.454,0.595,1.761,1.176c0.095,0.178,0.063,0.241-0.002,0.336
				c-0.027,0.042-0.055,0.087-0.076,0.133c-0.088,0.179-0.384,0.546-0.672,0.9c-0.937,1.16-2.287,2.83-2.645,5.071
				c-1.16,0.238-2.401,1.063-3.515,1.804c-0.52,0.346-1.306,0.869-1.479,0.923c-0.176,0-0.351,0.042-0.508,0.12
				c-0.053,0.026-0.086,0.029-0.109,0.029c-0.428,0-1.266-0.832-1.822-1.374c-0.092-0.141-0.269-0.595-0.594-1.942
				c0.008-0.434-0.11-0.843-0.349-1.183c-0.216-0.362-0.606-0.648-1.01-0.648c-0.628,0-1.146,0.569-1.146,1.196
				C394.672,69.86,394.674,69.911,394.68,69.96z M395.701,79.132c-0.905,1.276-1.675,2.362-2.025,3.267
				c-2.107,0.162-3.9,1.431-5.358,2.463c-0.879,0.622-1.873,1.326-2.399,1.326c-0.061,0-0.151,0-0.306-0.154l-1.469-1.462
				c-0.661-0.66-0.895-0.893-2.369-2.381c-0.039-0.04-0.082-0.078-0.129-0.112c-0.494-0.369-0.962-0.683-1.385-0.968
				c-1.298-0.875-1.57-1.137-1.561-1.404c0.848-0.95,2.499-3.205,3.141-4.891c1.887-0.141,3.506-1.338,4.943-2.403
				c0.883-0.653,1.884-1.394,2.416-1.394c0.061,0,0.147,0,0.303,0.155c0.283,0.279,0.665,0.595,1.061,0.92
				c0.265,0.217,0.67,0.55,0.973,0.835c-0.941,0.72-1.925,2.162-1.684,3.161c0.144,0.597,0.654,0.997,1.271,0.997
				c0.183,0,0.366-0.034,0.558-0.104c0.881-0.119,1.555-0.793,2.105-1.346c0.041-0.041,0.088-0.087,0.135-0.135
				c0.013,0.009,0.023,0.018,0.035,0.027c2.112,1.707,2.406,2.399,2.425,2.632C396.176,78.459,395.942,78.79,395.701,79.132z
				 M403.11,55.096c0.107,0.473,0.337,0.893,0.68,1.234c2.617,2.623,3.251,3.187,4.012,3.187c0.047,0,0.095-0.004,0.143-0.01
				c0.158,0.692,0.527,1.502,1.008,2.212c-0.732-0.453-1.537-0.73-2.158-0.73c-0.471,0-0.771,0.046-1.052,0.188
				c-0.741-1.52-1.728-3.376-2.464-4.167c-0.633-0.909-1.32-1.21-1.877-1.29c0.014-0.071,0.035-0.145,0.044-0.215
				C402.002,55.517,402.563,55.375,403.11,55.096z M389.568,68.081c0.379-0.079,0.749-0.242,1.096-0.459
				c-0.146,0.783-0.031,1.371,0.491,1.894c0.09,0.092,0.231,0.253,0.406,0.449c0.001,0.002,0.002,0.004,0.004,0.005
				c-0.172-0.144-0.332-0.284-0.462-0.412c-0.501-0.498-1.112-0.768-1.771-0.801C389.442,68.528,389.53,68.302,389.568,68.081z
				 M398.606,77.905c-0.219-1.698-2.107-3.246-3.223-4.146c-0.193-0.156-0.349-0.277-0.418-0.346
				c-0.226-0.228-0.51-0.371-0.816-0.414c-0.025-0.281-0.141-0.546-0.296-0.806c0.587,0.408,1.079,0.55,1.566,0.431
				c0.22,0.657,0.43,1.04,0.692,1.311c1.04,1.031,2.115,2.098,3.48,2.098c0.09,0,0.18-0.016,0.268-0.025
				c-0.367,0.623-0.543,1.175-0.568,1.635C399.074,77.703,398.841,77.795,398.606,77.905z M412.137,64.74
				c-0.444,0.005-0.86,0.116-1.258,0.278c0.091-0.544,0.016-1.105-0.276-1.65c-0.011-0.02-0.026-0.038-0.037-0.058
				c0.608,0.373,1.251,0.568,1.873,0.547C412.329,64.164,412.226,64.469,412.137,64.74z"/>
			<path fill="#8EC640" d="M406.401,0.052c0,0-0.096,0.788-0.261,2.166c-0.175,1.379-0.394,3.347-0.644,5.703
				c-0.221,2.363-0.446,5.12-0.648,8.07c-0.07,1.478-0.189,3-0.221,4.551c-0.063,1.549-0.096,3.122-0.093,4.692
				c-0.018,1.572,0.054,3.139,0.11,4.679c0.096,1.533,0.19,3.041,0.282,4.5c0.073,1.452,0.144,2.855,0.21,4.187
				c0.036,0.665,0.105,1.303,0.152,1.927c0.027,0.629,0.08,1.229,0.159,1.799c0.062,0.576,0.121,1.129,0.176,1.655
				c0.083,0.517,0.177,1.006,0.235,1.476c0.104,0.95,0.363,1.714,0.471,2.401c0.151,0.667,0.349,1.161,0.436,1.529
				c0.103,0.363,0.157,0.557,0.157,0.557l-0.261,0.156c0,0-0.126-0.159-0.361-0.457c-0.225-0.305-0.608-0.743-0.971-1.363
				c-0.326-0.628-0.826-1.386-1.17-2.32c-0.391-0.924-0.789-1.988-1.094-3.174c-0.374-1.181-0.586-2.48-0.845-3.859
				c-0.21-1.377-0.394-2.842-0.45-4.354c-0.089-1.514-0.021-3.074,0.031-4.657c0.113-1.579,0.15-3.183,0.308-4.776
				c0.112-1.596,0.259-3.188,0.435-4.75c0.146-1.565,0.375-3.094,0.555-4.577c0.395-2.962,0.887-5.705,1.328-8.05
				c0.475-2.343,0.852-4.292,1.184-5.64c0.313-1.353,0.49-2.126,0.49-2.126L406.401,0.052z"/>
			<path fill="#8EC640" d="M463.42,57.874c0,0-0.677,0.217-1.862,0.596c-1.181,0.395-2.894,0.878-4.95,1.478
				c-2.062,0.572-4.475,1.219-7.093,1.799c-1.312,0.27-2.661,0.591-4.05,0.839c-1.385,0.267-2.796,0.526-4.219,0.737
				c-1.414,0.258-2.849,0.403-4.257,0.62c-1.417,0.149-2.811,0.328-4.182,0.329c-1.362,0.035-2.693-0.049-3.946-0.189
				c-1.256-0.169-2.44-0.33-3.52-0.638c-0.542-0.137-1.055-0.287-1.538-0.432c-0.481-0.19-0.938-0.354-1.355-0.538
				c-0.849-0.305-1.523-0.802-2.082-1.111c-0.549-0.352-0.921-0.736-1.183-0.954c-0.254-0.232-0.389-0.355-0.389-0.355l0.172-0.249
				c0,0,0.174,0.054,0.498,0.153c0.328,0.084,0.76,0.281,1.352,0.416c0.616,0.09,1.279,0.338,2.13,0.4
				c0.419,0.042,0.851,0.117,1.309,0.18c0.471,0.026,0.964,0.048,1.472,0.096c0.505,0.056,1.043,0.063,1.6,0.062
				c0.557,0.011,1.121,0.062,1.715,0.043c1.185-0.013,2.434-0.026,3.729-0.042c1.303,0,2.65-0.002,4.02-0.003
				c1.377-0.044,2.778-0.078,4.181-0.196c1.4-0.095,2.803-0.237,4.182-0.39c1.381-0.134,2.734-0.344,4.05-0.505
				c2.62-0.387,5.069-0.767,7.166-1.123c4.181-0.747,6.979-1.313,6.979-1.313L463.42,57.874z"/>
			<path fill="#8EC640" d="M324.346,81.202c0,0,3.076-0.775,7.729-1.811c2.326-0.517,5.044-1.114,7.976-1.658
				c2.934-0.544,6.068-1.111,9.232-1.557c1.578-0.257,3.171-0.428,4.734-0.652c1.572-0.178,3.119-0.362,4.637-0.397
				c1.508-0.065,2.985,0.002,4.375,0.1c1.398,0.152,2.712,0.257,3.922,0.548c0.605,0.121,1.181,0.25,1.725,0.387
				c0.543,0.175,1.057,0.326,1.531,0.496c0.959,0.277,1.743,0.767,2.387,1.061c0.638,0.34,1.083,0.729,1.395,0.945
				c0.301,0.231,0.463,0.354,0.463,0.354l-0.156,0.261c0,0-0.193-0.051-0.559-0.147c-0.37-0.078-0.859-0.275-1.528-0.396
				c-0.335-0.055-0.705-0.116-1.108-0.182c-0.39-0.089-0.822-0.147-1.298-0.168c-0.472-0.031-0.961-0.095-1.479-0.144
				c-0.526-0.018-1.081-0.037-1.657-0.056c-0.572-0.04-1.174-0.044-1.802-0.022c-0.625,0.001-1.265-0.021-1.93-0.003
				c-1.333,0.04-2.737,0.083-4.19,0.126c-2.913,0.041-6.059,0.065-9.199,0.303c-3.141,0.214-6.283,0.552-9.229,0.882
				c-2.947,0.36-5.696,0.696-8.054,0.983c-4.716,0.628-7.86,1.045-7.86,1.045L324.346,81.202z"/>
			<path fill="#8EC640" d="M386.315,136.82c0,0,0.426-2.913,1.067-7.284c0.288-2.186,0.589-4.74,0.901-7.469
				c0.272-2.734,0.542-5.651,0.653-8.563c0.071-1.457,0.078-2.91,0.066-4.337c-0.052-1.424-0.058-2.827-0.12-4.168
				c-0.012-0.67-0.021-1.331-0.033-1.978c-0.033-0.641-0.061-1.269-0.064-1.883c0.006-0.619-0.075-1.2-0.112-1.774
				c-0.031-0.573-0.044-1.135-0.13-1.653c-0.074-0.523-0.123-1.032-0.171-1.518c-0.089-0.474-0.172-0.922-0.251-1.344
				c-0.109-0.875-0.398-1.552-0.531-2.182c-0.172-0.605-0.402-1.038-0.509-1.373c-0.123-0.329-0.188-0.504-0.188-0.504l0.24-0.185
				c0,0,0.133,0.134,0.385,0.386c0.236,0.261,0.653,0.625,1.039,1.178c0.349,0.563,0.888,1.24,1.242,2.106
				c0.203,0.425,0.403,0.889,0.611,1.38c0.168,0.496,0.346,1.021,0.51,1.577c0.343,1.107,0.584,2.328,0.784,3.623
				c0.204,1.294,0.319,2.668,0.337,4.081c0.039,1.418-0.08,2.87-0.197,4.341c-0.16,1.466-0.279,2.954-0.489,4.429
				c-0.344,2.96-0.845,5.884-1.331,8.616c-0.506,2.73-1.072,5.255-1.58,7.414c-0.527,2.156-0.955,3.948-1.307,5.19
				c-0.334,1.245-0.526,1.958-0.526,1.958L386.315,136.82z"/>
			<path fill="#8EC640" d="M430.178,107.544c0,0-0.693-0.019-1.904-0.052c-0.302-0.01-0.638-0.022-1.002-0.036
				c-0.369-0.052-0.766-0.108-1.19-0.167c-0.856-0.108-1.823-0.25-2.839-0.535c-0.511-0.13-1.055-0.24-1.601-0.406
				c-0.541-0.182-1.099-0.372-1.674-0.564c-1.166-0.36-2.302-0.952-3.521-1.478c-1.17-0.61-2.403-1.213-3.582-1.938
				c-1.213-0.682-2.372-1.466-3.559-2.221c-2.313-1.576-4.654-3.116-6.695-4.713c-2.025-1.615-3.805-3.238-5.331-4.615
				c-1.522-1.399-2.791-2.565-3.68-3.381c-0.897-0.817-1.394-1.338-1.394-1.338l0.154-0.261c0,0,0.676,0.214,1.827,0.683
				c1.15,0.463,2.742,1.253,4.54,2.35c0.912,0.535,1.854,1.166,2.84,1.852c0.996,0.668,1.99,1.437,3.011,2.239
				c1.004,0.814,2.009,1.699,3.023,2.59c1.009,0.909,2.077,1.754,3.13,2.632c1.084,0.821,2.152,1.68,3.26,2.426
				c1.08,0.797,2.207,1.464,3.284,2.145c1.113,0.601,2.174,1.241,3.239,1.705c0.53,0.243,1.046,0.481,1.543,0.709
				c0.507,0.215,1.012,0.37,1.49,0.549c0.955,0.379,1.851,0.609,2.654,0.797c0.796,0.221,1.513,0.373,2.118,0.441
				c1.199,0.181,1.883,0.285,1.883,0.285L430.178,107.544z"/>
			<path fill="#8EC640" d="M392.936,86.091c0.484,0.447,0.816,1.073,1.229,1.632l0.006,0.007l0.013,0.043
				c0.516,1.629,1.004,3.274,1.474,4.909l1.438,4.896c0.451,1.638,0.994,3.244,1.494,4.861c0.485,1.623,1.071,3.209,1.645,4.796
				c0.293,0.792,0.564,1.59,0.875,2.374l0.992,2.32c0.32,0.776,0.622,1.556,0.897,2.348c0.257,0.801,0.601,1.56,0.881,2.347
				c0.28,0.789,0.591,1.565,0.847,2.369c0.274,0.794,0.506,1.615,0.837,2.381c0.62,1.56,1.202,3.156,1.669,4.861l-0.258,0.16
				c-1.178-1.275-2.237-2.661-3.259-4.083c-0.552-0.694-0.926-1.472-1.354-2.226c-0.432-0.753-0.808-1.536-1.213-2.304
				c-0.389-0.776-0.808-1.546-1.083-2.363c-0.306-0.808-0.587-1.625-0.847-2.45c-0.541-1.643-0.983-3.311-1.393-4.981
				c-0.418-1.669-0.895-3.318-1.238-4.998c-0.366-1.674-0.775-3.339-1.088-5.019c-0.342-1.674-0.645-3.356-0.938-5.035l-0.914-5.019
				l0.02,0.049l-0.44-0.847c-0.13-0.293-0.317-0.567-0.522-0.832L392.936,86.091z"/>
			<g>
				<path fill="#8EC640" d="M358.047,35.62c0,0,0.144,0.696,0.393,1.914c0.108,0.615,0.285,1.347,0.533,2.161
					c0.225,0.822,0.475,1.744,0.863,2.727c0.182,0.492,0.371,1.004,0.566,1.534c0.23,0.516,0.469,1.05,0.714,1.598
					c0.459,1.106,1.093,2.21,1.679,3.373c0.666,1.128,1.32,2.306,2.098,3.444c0.729,1.162,1.569,2.286,2.377,3.424
					c0.861,1.108,1.697,2.229,2.599,3.284c0.878,1.067,1.771,2.106,2.578,3.149c1.616,2.099,3.032,4.143,4.171,5.967
					c2.315,3.622,3.379,6.355,3.379,6.355l-0.249,0.173c0,0-0.559-0.476-1.452-1.354c-0.898-0.875-2.147-2.14-3.602-3.696
					c-1.447-1.555-3.109-3.406-4.748-5.514c-1.608-2.138-3.141-4.573-4.682-7.001c-0.739-1.239-1.505-2.456-2.164-3.719
					c-0.703-1.233-1.286-2.511-1.877-3.726c-0.506-1.259-1.086-2.433-1.438-3.63c-0.192-0.589-0.381-1.162-0.563-1.716
					c-0.146-0.565-0.286-1.11-0.42-1.635c-0.293-1.036-0.455-2.021-0.598-2.888c-0.171-0.865-0.267-1.615-0.296-2.235
					c-0.103-1.239-0.162-1.947-0.162-1.947L358.047,35.62z"/>
				<path fill="#8EC640" d="M380.381,72.708c0,0-2.592-0.51-6.447-1.435c-3.867-0.875-8.97-2.248-14.055-3.736
					c-2.551-0.709-5.104-1.471-7.457-2.286c-1.172-0.412-2.276-0.919-3.302-1.441c-1.034-0.503-1.998-1.002-2.876-1.485
					c-0.892-0.443-1.657-0.997-2.333-1.473c-0.674-0.479-1.251-0.907-1.714-1.271c-0.932-0.724-1.425-1.178-1.425-1.177l0.155-0.261
					c0,0,0.678,0.151,1.794,0.486c0.561,0.165,1.228,0.38,1.979,0.637c0.749,0.267,1.578,0.575,2.533,0.844
					c0.943,0.283,1.951,0.614,3.006,0.989c1.061,0.356,2.146,0.801,3.31,1.201c1.145,0.436,2.311,0.931,3.49,1.455
					c1.174,0.538,2.397,1.011,3.622,1.486c4.887,1.92,9.858,3.654,13.576,4.996c3.733,1.308,6.223,2.178,6.223,2.178L380.381,72.708
					z"/>
			</g>
			<g>
				<path fill="#8EC640" d="M450.194,84.798c0,0-0.723-0.001-1.984-0.003c-1.265-0.026-3.063,0.039-5.233-0.11
					c-1.088-0.07-2.267-0.145-3.514-0.224c-1.257-0.044-2.551-0.267-3.904-0.432c-1.348-0.201-2.761-0.31-4.164-0.601
					c-1.411-0.271-2.843-0.546-4.276-0.822c-1.437-0.272-2.837-0.701-4.247-1.018c-0.7-0.174-1.396-0.347-2.085-0.517
					c-0.674-0.216-1.329-0.461-1.979-0.692c-1.284-0.5-2.532-0.967-3.663-1.532c-1.121-0.593-2.166-1.178-3.115-1.738
					c-1.936-1.049-3.338-2.303-4.342-3.094c-0.994-0.818-1.522-1.327-1.522-1.327l0.163-0.256c0,0,0.72,0.209,1.913,0.647
					c0.599,0.216,1.311,0.494,2.117,0.822c0.41,0.15,0.814,0.368,1.28,0.522c0.465,0.156,0.953,0.317,1.452,0.504
					c1.007,0.356,2.081,0.765,3.204,1.221c1.15,0.392,2.369,0.792,3.604,1.266c0.612,0.251,1.236,0.505,1.867,0.763
					c0.644,0.23,1.295,0.463,1.951,0.698c1.316,0.465,2.644,0.984,4.009,1.381c1.374,0.378,2.746,0.757,4.1,1.129
					c1.349,0.394,2.719,0.606,4.024,0.909c1.311,0.274,2.578,0.57,3.791,0.744c1.213,0.201,2.36,0.392,3.419,0.568
					c2.122,0.371,3.936,0.467,5.183,0.651c1.253,0.15,1.97,0.237,1.97,0.237L450.194,84.798z"/>
				<path fill="#8EC640" d="M406.906,72.355c0,0,1.728,1.956,4.317,4.89c2.612,2.913,6.045,6.833,9.594,10.633
					c0.884,0.954,1.77,1.903,2.688,2.794c0.909,0.899,1.786,1.797,2.602,2.696c0.789,0.925,1.588,1.773,2.291,2.634
					c0.72,0.845,1.38,1.664,1.976,2.438c0.588,0.786,1.159,1.454,1.659,2.066c0.495,0.617,0.92,1.166,1.262,1.633
					c0.688,0.927,1.055,1.506,1.055,1.506l-0.195,0.234c0,0-0.591-0.307-1.579-0.926c-0.496-0.306-1.087-0.697-1.76-1.158
					c-0.665-0.469-1.439-0.986-2.167-1.649c-0.755-0.64-1.555-1.354-2.382-2.13c-0.84-0.763-1.7-1.6-2.503-2.529
					c-1.596-1.872-3.207-3.955-4.793-6.036c-3.213-4.136-6.358-8.31-8.593-11.534c-2.274-3.193-3.711-5.376-3.711-5.376
					L406.906,72.355z"/>
			</g>
			<g>
				<path fill="#8EC640" d="M378.375,14.736c0,0,0.149,0.763,0.412,2.098c0.127,0.668,0.282,1.479,0.46,2.409
					c0.088,0.465,0.182,0.96,0.279,1.482c0.131,0.511,0.271,1.049,0.416,1.61c0.288,1.118,0.602,2.328,0.932,3.609
					c0.316,1.279,0.796,2.604,1.209,3.984c0.443,1.375,0.841,2.811,1.417,4.216c0.538,1.414,1.084,2.851,1.63,4.288
					c0.617,1.408,1.258,2.804,1.896,4.171c0.611,1.38,1.299,2.693,1.936,3.978c0.624,1.291,1.156,2.573,1.696,3.772
					c0.579,1.179,1.104,2.308,1.569,3.366c0.241,0.523,0.455,1.037,0.659,1.525c0.21,0.485,0.46,0.914,0.651,1.346
					c0.407,0.849,0.752,1.599,1.024,2.227c0.551,1.253,0.825,2.007,0.825,2.007l-0.249,0.173c0,0-0.565-0.552-1.483-1.583
					c-0.895-1.044-2.276-2.5-3.536-4.496c-0.661-0.98-1.354-2.059-2.064-3.216c-0.708-1.158-1.306-2.456-1.953-3.784
					c-0.632-1.335-1.228-2.741-1.698-4.222c-0.511-1.46-1.031-2.944-1.551-4.427c-0.448-1.504-0.896-3.008-1.338-4.489
					c-0.479-1.466-0.779-2.96-1.125-4.387c-0.312-1.437-0.719-2.791-0.911-4.133c-0.214-1.33-0.416-2.589-0.601-3.75
					c-0.094-0.578-0.183-1.133-0.268-1.66c-0.049-0.528-0.094-1.03-0.137-1.502c-0.085-0.943-0.158-1.765-0.219-2.442
					c-0.113-1.356-0.179-2.13-0.179-2.13L378.375,14.736z"/>
				<path fill="#8EC640" d="M396.049,59.055c0,0-2.486-1.36-6.14-3.538c-3.679-2.135-8.474-5.157-13.22-8.279
					c-2.391-1.531-4.771-3.104-6.934-4.67c-1.075-0.786-2.061-1.634-2.957-2.478c-0.912-0.826-1.756-1.626-2.518-2.382
					c-1.542-1.489-2.615-3.004-3.386-3.986c-0.757-1.008-1.144-1.615-1.144-1.615l0.221-0.208c0,0,0.645,0.363,1.688,1.05
					c0.524,0.341,1.145,0.768,1.841,1.263c0.688,0.504,1.456,1.071,2.351,1.647c0.882,0.584,1.818,1.237,2.787,1.948
					c0.981,0.697,1.971,1.483,3.041,2.256c1.045,0.801,2.096,1.667,3.151,2.565c1.047,0.909,2.16,1.772,3.272,2.639
					c4.436,3.482,9.002,6.812,12.402,9.35c3.424,2.509,5.705,4.182,5.705,4.182L396.049,59.055z"/>
			</g>
		</g>
		<path fill="#8EC640" d="M248.53,28.804c-0.657,0.188-1.656,0.412-2.892,0.795c-2.481,0.736-6.03,1.944-10.025,4.038
			c-2.012,1.021-4.121,2.278-6.264,3.752c-0.102,0.069-0.203,0.146-0.304,0.218c-0.021-0.068-0.036-0.129-0.059-0.199
			c-0.179-0.669-0.541-1.324-0.903-2.076c-0.399-0.724-0.77-1.579-1.367-2.325c-0.58-0.757-1.17-1.601-1.903-2.356
			c-0.76-0.723-1.524-1.527-2.421-2.186c-0.911-0.637-1.814-1.34-2.832-1.847c-1.01-0.518-2.019-1.041-3.088-1.374
			c-1.037-0.412-2.11-0.654-3.144-0.865c-1.033-0.213-2.057-0.287-3.013-0.347c-0.968-0.009-1.869-0.007-2.705,0.105
			c-0.472,0.047-0.91,0.117-1.329,0.197c0.185-2.664,0.181-5.188,0.021-7.494c-0.258-4.544-1.042-8.249-1.718-10.78
			c-0.319-1.271-0.661-2.246-0.866-2.911c-0.218-0.665-0.335-1.02-0.335-1.02s-0.018,0.373-0.007,1.073
			c0.004,0.696,0.011,1.716,0.02,3.014c0.01,1.29-0.045,2.853-0.105,4.629c-0.066,1.775-0.251,3.768-0.453,5.92
			c-0.219,2.153-0.612,4.458-1.05,6.871c-0.459,2.412-1.09,4.912-1.814,7.464c-0.799,2.532-1.659,5.126-2.755,7.676
			c-1.084,2.55-2.292,5.097-3.7,7.536c-0.681,1.232-1.385,2.451-2.166,3.619c-0.734,1.198-1.543,2.342-2.343,3.481
			c-1.617,2.264-3.333,4.413-5.073,6.44c-1.766,2.002-3.523,3.914-5.295,5.637c-0.849,0.904-1.745,1.707-2.602,2.502
			c-0.861,0.791-1.646,1.619-2.491,2.303c-1.671,1.394-3.145,2.772-4.557,3.865c-1.4,1.104-2.576,2.159-3.62,2.916
			c-2.05,1.576-3.203,2.548-3.203,2.548s1.401-0.503,3.819-1.51c1.223-0.479,2.648-1.179,4.274-2.011
			c1.658-0.783,3.431-1.839,5.364-3.012c0.708-0.452,1.447-0.927,2.194-1.42c0.212,0.998,0.59,2.312,1.292,3.767
			c0.364,0.814,0.853,1.641,1.396,2.508c0.563,0.85,1.209,1.721,1.945,2.563c0.76,0.819,1.542,1.688,2.476,2.415
			c0.46,0.37,0.901,0.779,1.391,1.122l1.508,0.991c1.003,0.671,2.117,1.155,3.191,1.651c0.528,0.271,1.089,0.448,1.647,0.617
			c0.554,0.175,1.097,0.353,1.64,0.496c1.074,0.32,2.174,0.404,3.179,0.558c1.005,0.166,1.988,0.098,2.873,0.083
			c0.891-0.058,1.687-0.039,2.402-0.218c0.352-0.066,0.679-0.142,0.981-0.216c-0.003,0.156-0.013,0.328-0.016,0.481
			c-0.016,2.239,0.009,4.282,0.186,6.089c0.119,1.805,0.26,3.37,0.473,4.654c0.375,2.568,0.66,4.014,0.66,4.014
			s0.244-1.473,0.547-4.018c0.116-1.272,0.408-2.808,0.64-4.561c0.214-1.756,0.621-3.714,0.961-5.842
			c0.154-1.067,0.435-2.16,0.676-3.293c0.252-1.131,0.448-2.309,0.786-3.49c0.556-2.387,1.273-4.855,2.049-7.386
			c0.453-1.244,0.841-2.529,1.313-3.8c0.521-1.251,0.965-2.55,1.522-3.81c1.117-2.518,2.27-5.066,3.682-7.469
			c1.322-2.454,2.879-4.767,4.457-7.008c1.616-2.215,3.332-4.306,5.086-6.261c1.792-1.915,3.576-3.74,5.397-5.347
			c1.82-1.604,3.577-3.114,5.297-4.392c1.722-1.272,3.324-2.439,4.797-3.406c1.475-0.959,2.775-1.807,3.871-2.47
			c1.097-0.68,1.96-1.213,2.548-1.577c0.594-0.37,0.876-0.607,0.876-0.607S249.194,28.635,248.53,28.804z M205.52,73.23
			c-0.618,2.767-1.088,5.459-1.362,8.027c-0.204,1.727-0.297,3.366-0.357,4.956c-0.244-0.105-0.497-0.213-0.772-0.317
			c-0.631-0.208-1.305-0.608-2.045-0.914c-0.734-0.338-1.541-0.6-2.333-1.04c-0.797-0.417-1.667-0.733-2.502-1.196
			c-0.829-0.48-1.727-0.849-2.572-1.358c-0.833-0.53-1.752-0.922-2.563-1.512c-0.861-0.502-1.697-1.044-2.505-1.613
			c-0.839-0.525-1.598-1.137-2.393-1.674c-1.524-1.146-2.988-2.251-4.223-3.279c-1.18-0.94-2.173-1.78-2.935-2.406
			c0.894-0.615,1.795-1.262,2.69-1.976c2.076-1.578,4.154-3.396,6.208-5.39c0.86-0.856,1.71-1.759,2.552-2.679
			c0.104,0.366,0.227,0.739,0.382,1.116c0.259,0.73,0.665,1.444,1.093,2.184c0.212,0.374,0.495,0.709,0.76,1.066
			c0.27,0.354,0.531,0.726,0.875,1.032c0.639,0.662,1.332,1.293,2.128,1.814c0.767,0.555,1.618,0.983,2.484,1.334l0.637,0.274
			l0.667,0.173c0.442,0.109,0.875,0.22,1.308,0.297c0.852,0.202,1.714,0.13,2.494,0.152c0.786,0.03,1.516-0.179,2.175-0.312
			c0.377-0.098,0.723-0.187,1.051-0.288C206.118,70.889,205.802,72.066,205.52,73.23z M211.936,56.61
			c-1.516,2.655-2.772,5.446-3.853,8.239c-0.297,0.769-0.57,1.54-0.83,2.313c-0.06-0.022-0.114-0.044-0.176-0.065
			c-0.463-0.127-0.959-0.41-1.484-0.615c-0.521-0.234-1.089-0.37-1.625-0.684c-0.539-0.294-1.129-0.462-1.665-0.792
			c-0.53-0.338-1.123-0.532-1.637-0.908c-0.529-0.34-1.094-0.615-1.589-1.023c-0.554-0.313-1.032-0.745-1.557-1.117
			c-0.514-0.383-0.993-0.82-1.503-1.211c-0.462-0.442-0.985-0.825-1.424-1.263c-0.475-0.409-0.91-0.827-1.334-1.217
			c-0.127-0.117-0.243-0.224-0.364-0.335c0.275-0.342,0.568-0.656,0.835-1.007c0.909-1.208,1.856-2.408,2.663-3.713
			c0.864-1.269,1.658-2.588,2.414-3.933c0.589-0.984,1.087-2.02,1.591-3.049c0.249,0.561,0.542,1.121,0.872,1.696
			c0.216,0.386,0.505,0.733,0.776,1.102c0.277,0.364,0.543,0.749,0.896,1.067c0.654,0.683,1.362,1.34,2.178,1.881
			c0.785,0.577,1.657,1.023,2.545,1.392l0.654,0.287l0.685,0.184c0.454,0.116,0.899,0.236,1.342,0.318
			c0.875,0.215,1.762,0.151,2.564,0.181c0.126,0.006,0.25-0.001,0.374-0.007C212.818,55.08,212.364,55.837,211.936,56.61z
			 M222.958,42.535c-2.079,1.958-4.105,4.125-5.964,6.493c-0.426,0.548-0.845,1.106-1.256,1.671
			c-0.13-0.058-0.255-0.117-0.387-0.167c-0.539-0.239-1.129-0.376-1.686-0.699c-0.558-0.302-1.173-0.472-1.729-0.814
			c-0.55-0.351-1.167-0.553-1.702-0.945c-0.548-0.355-1.135-0.646-1.648-1.074c-0.573-0.33-1.066-0.783-1.608-1.176
			c-0.529-0.404-1.022-0.865-1.544-1.279c-0.473-0.465-1.008-0.871-1.454-1.333c-0.484-0.431-0.926-0.872-1.356-1.284
			c-0.083-0.082-0.159-0.154-0.241-0.232c0.098-0.252,0.207-0.502,0.298-0.755c1.099-2.831,1.863-5.726,2.495-8.532
			c0.371-1.793,0.623-3.543,0.823-5.264c0.387,0.146,0.786,0.3,1.208,0.469c1.399,0.527,2.961,1.189,4.573,1.9
			c0.8,0.379,1.628,0.727,2.436,1.153c0.828,0.38,1.632,0.828,2.437,1.272c0.844,0.375,1.569,0.954,2.387,1.361
			c0.78,0.469,1.511,0.995,2.28,1.439c0.738,0.505,1.452,0.994,2.128,1.457c0.732,0.426,1.307,0.97,1.938,1.389
			c0.605,0.444,1.238,0.806,1.712,1.21c0.056,0.044,0.107,0.079,0.162,0.12C225.816,40.023,224.38,41.233,222.958,42.535z"/>
		<g>
			<path fill="#8EC640" d="M119.408,139.042c0,0,5.153,2.698,12.667,7.081c3.766,2.18,8.123,4.777,12.755,7.614
				c2.309,1.433,4.718,2.873,7.124,4.407c2.412,1.522,4.861,3.071,7.311,4.617c2.431,1.579,4.861,3.154,7.254,4.706
				c2.401,1.54,4.716,3.128,6.983,4.626c4.518,3.018,8.7,5.891,12.254,8.398c7.125,4.99,11.73,8.544,11.73,8.544
				s-5.155-2.694-12.669-7.078c-3.766-2.179-8.123-4.776-12.755-7.616c-2.309-1.431-4.721-2.87-7.123-4.407
				c-2.411-1.524-4.86-3.07-7.31-4.619c-2.43-1.576-4.86-3.154-7.252-4.706c-2.399-1.543-4.717-3.127-6.982-4.626
				c-4.517-3.021-8.699-5.891-12.254-8.399C124.014,142.593,119.408,139.042,119.408,139.042z"/>
			<path fill="#8EC640" d="M110.744,156.802c0,0,5.511,0.284,13.721,1.113c4.107,0.397,8.889,0.927,14.003,1.558
				c2.555,0.332,5.202,0.627,7.88,1.01c2.679,0.37,5.401,0.746,8.123,1.125c2.716,0.409,5.434,0.82,8.108,1.226
				c2.677,0.388,5.299,0.859,7.843,1.267c5.083,0.844,9.819,1.694,13.87,2.479c8.106,1.54,13.472,2.832,13.472,2.832
				s-5.512-0.281-13.722-1.108c-4.107-0.396-8.889-0.927-14.003-1.561c-2.555-0.331-5.202-0.625-7.879-1.013
				c-2.679-0.37-5.401-0.746-8.123-1.125c-2.717-0.412-5.434-0.823-8.108-1.226c-2.676-0.394-5.298-0.862-7.842-1.271
				c-5.083-0.844-9.819-1.694-13.87-2.479C116.11,158.09,110.744,156.802,110.744,156.802z"/>
			<path fill="#8EC640" d="M111.161,160.483c0,0,4.981-0.163,12.425-0.006c3.723,0.062,8.062,0.201,12.706,0.415
				c2.321,0.122,4.723,0.204,7.158,0.367c2.435,0.151,4.91,0.305,7.384,0.459c2.472,0.189,4.943,0.379,7.377,0.563
				c2.435,0.172,4.824,0.427,7.14,0.625c4.629,0.43,8.946,0.892,12.642,1.345c7.394,0.873,12.305,1.727,12.305,1.727
				s-4.981,0.166-12.426,0.009c-3.723-0.063-8.062-0.198-12.706-0.415c-2.321-0.124-4.723-0.201-7.157-0.367
				c-2.436-0.153-4.909-0.308-7.384-0.462c-2.472-0.189-4.943-0.379-7.377-0.565c-2.434-0.175-4.824-0.427-7.139-0.625
				c-4.63-0.429-8.946-0.891-12.642-1.344C116.071,161.333,111.161,160.483,111.161,160.483z"/>
			<path fill="#8EC640" d="M128.745,136.851c0,0,3.988,3.065,9.696,7.954c2.864,2.432,6.161,5.319,9.647,8.458
				c1.733,1.582,3.556,3.184,5.352,4.869c1.804,1.676,3.636,3.382,5.468,5.085c1.808,1.729,3.617,3.459,5.397,5.162
				c1.791,1.691,3.493,3.418,5.173,5.056c3.34,3.296,6.414,6.42,9.01,9.139c5.213,5.411,8.503,9.217,8.503,9.217
				s-3.99-3.063-9.699-7.952c-2.864-2.432-6.161-5.318-9.647-8.461c-1.733-1.581-3.558-3.178-5.35-4.868
				c-1.804-1.677-3.635-3.383-5.468-5.085c-1.808-1.729-3.616-3.459-5.396-5.162c-1.788-1.697-3.492-3.42-5.172-5.058
				c-3.338-3.299-6.413-6.42-9.01-9.139C132.038,140.653,128.745,136.851,128.745,136.851z"/>
			<path fill="#8EC640" d="M113.362,167.618c0,0,4.734-0.883,11.866-1.807c3.565-0.479,7.729-0.969,12.196-1.431
				c2.234-0.216,4.54-0.482,6.889-0.675c2.349-0.205,4.734-0.409,7.119-0.616c2.389-0.172,4.777-0.343,7.128-0.512
				c2.35-0.184,4.669-0.275,6.91-0.415c4.484-0.249,8.674-0.417,12.27-0.503c7.189-0.208,12.003-0.074,12.003-0.074
				s-4.734,0.886-11.866,1.81c-3.565,0.48-7.729,0.971-12.197,1.43c-2.235,0.213-4.54,0.486-6.889,0.673
				c-2.349,0.201-4.734,0.408-7.12,0.612c-2.388,0.172-4.777,0.344-7.128,0.513c-2.35,0.178-4.668,0.275-6.91,0.415
				c-4.483,0.245-8.673,0.414-12.27,0.5C118.175,167.745,113.362,167.618,113.362,167.618z"/>
			<path fill="#8EC640" d="M131.489,132.998c0,0,3.488,3.565,8.405,9.163c2.472,2.79,5.303,6.086,8.285,9.657
				c1.48,1.795,3.044,3.622,4.57,5.529c1.535,1.898,3.094,3.829,4.654,5.76c1.532,1.949,3.063,3.9,4.572,5.822
				c1.521,1.91,2.948,3.848,4.367,5.692c2.815,3.705,5.393,7.202,7.558,10.234c4.354,6.048,7.047,10.247,7.047,10.247
				s-3.49-3.565-8.409-9.163c-2.472-2.789-5.303-6.083-8.284-9.657c-1.479-1.795-3.046-3.619-4.568-5.529
				c-1.535-1.901-3.094-3.829-4.653-5.76c-1.531-1.952-3.063-3.903-4.571-5.825c-1.517-1.913-2.948-3.847-4.365-5.692
				c-2.813-3.705-5.392-7.202-7.557-10.235C134.183,137.194,131.489,132.998,131.489,132.998z"/>
			<path fill="#8EC640" d="M111.161,147.302c0,0,5.491,1.362,13.598,3.788c4.058,1.197,8.771,2.657,13.799,4.283
				c2.51,0.826,5.117,1.641,7.741,2.541c2.626,0.892,5.295,1.795,7.964,2.701c2.657,0.936,5.314,1.875,7.93,2.798
				c2.621,0.907,5.171,1.883,7.655,2.784c4.958,1.827,9.565,3.596,13.495,5.162c7.871,3.106,13.03,5.432,13.03,5.432
				s-5.493-1.362-13.599-3.785c-4.058-1.196-8.771-2.656-13.799-4.285c-2.509-0.826-5.118-1.635-7.739-2.541
				c-2.626-0.892-5.296-1.798-7.964-2.701c-2.657-0.939-5.314-1.877-7.929-2.802c-2.62-0.912-5.172-1.883-7.655-2.787
				c-4.958-1.83-9.565-3.595-13.496-5.162C116.32,149.624,111.161,147.302,111.161,147.302z"/>
		</g>
		<path fill="#8EC640" d="M75.794,202.924c-0.078-0.154-0.181-0.295-0.306-0.418c-0.435-0.42-1.02-0.65-1.647-0.65
			c-1.231,0-2.603,0.947-2.603,2.303c0,0.227,0.066,0.48,0.163,0.682c0.49,1.033,3.704,12.305,3.185,17.479
			c-0.382,3.818-3.119,9.25-4.753,12.494c-0.614,1.219-0.983,1.959-1.187,2.471c-0.136-0.109-0.292-0.266-0.357-0.334
			c-0.285-0.287-0.674-0.451-1.08-0.451c-0.667,0-1.058,0.102-1.434,0.354c-0.187-0.141-0.394-0.348-0.538-0.635
			c-0.123-0.24-0.138-0.328-0.173-0.545c-0.1-0.598-0.244-1.188-0.983-2.301c-0.256-0.504-0.585-0.982-0.899-1.389l0.66-0.66
			c0.433-0.436,0.562-1.088,0.327-1.652c-0.235-0.566-0.787-0.938-1.4-0.938H62.62c0.024-0.244-0.011-0.496-0.109-0.73
			c-0.194-0.469-0.607-0.805-1.102-0.906l-2.203-0.441c-1.269-1.705-3.076-4.205-3.411-4.871c-0.073-0.145-0.169-0.279-0.284-0.391
			c-0.875-0.875-3.697-2.748-7.906-5.51c-1.043-0.684-2.034-1.334-2.856-1.885c-0.053-0.033-0.107-0.066-0.163-0.096
			c-2.195-1.1-6.922-8.254-9.195-11.691c-0.846-1.283-1.514-2.293-1.959-2.885c-0.551-0.688-1.307-1.65-2.158-2.734
			c-2.622-3.337-5.867-7.469-7.255-8.923l-17.72-25.448c-0.432-0.619-1.251-0.829-1.923-0.489l-2.221,1.111
			c-0.636,0.317-0.964,1.037-0.791,1.723l0.556,2.216c0.027,0.106,0.066,0.21,0.116,0.311c0.742,1.475,7.571,11.263,17.137,24.93
			c3.674,5.25,7.055,10.079,9.062,12.995c6.323,9.199,6.395,13.926,6.395,14.121c0,0.16,0.025,0.32,0.076,0.473
			c0.252,0.771-0.196,2.504-0.592,4.031c-0.204,0.791-0.415,1.605-0.566,2.357c-0.595,2.398-0.595,3.621-0.595,4.807v5.42
			c-0.508,3.252-0.104,6.689,0.606,8.346c0.126,0.502,0.446,0.906,0.736,1.27c0.103,0.131,0.27,0.338,0.371,0.498
			c-0.394,0.656-0.273,1.229-0.142,1.545c0.148,0.359,0.374,0.6,0.63,0.758c-0.13,0.031-0.272,0.061-0.43,0.092
			c-0.092,0.02-0.183,0.045-0.27,0.08c-0.185,0.074-0.427,0.113-0.716,0.113c-1.328,0-4.058-0.768-9.534-4.416
			c-1.539-1.018-4.813-3.752-8.09-7.006c-4.237-4.25-8.772-9.43-10.952-11.92c-0.67-0.768-1.112-1.268-1.258-1.416
			c-0.704-0.701-1.378-1.045-2.063-1.045c-0.64,0-1.221,0.318-1.552,0.855c-0.24,0.385-0.549,1.227,0.083,2.502
			c0.66,1.33,6.884,10.314,14.039,18.584c7.028,8.777,17.301,11.594,20.476,11.674c1.248,0.205,2.71,0.408,4.168,0.609
			c2.382,0.332,4.846,0.676,6.043,0.973c0.364,0.117,0.812,0.174,1.408,0.174c3.78,0,12.712-2.23,19.912-7.037
			c9.612-6.77,11.548-14.131,14.227-24.322l0.247-0.941c0.014-0.051,0.024-0.102,0.032-0.15c1.067-6.758-0.65-14.643-4.966-22.801
			L75.794,202.924z"/>
		<path fill="#8EC640" d="M41.203,61.092l-20.119,28.81c-0.451,0.646-0.333,1.528,0.271,2.033l3.327,2.779
			c0.275,0.228,0.619,0.353,0.972,0.353c0.069,0,0.139-0.004,0.208-0.015c0.423-0.058,0.803-0.293,1.044-0.646l18.508-27.018
			l7.632,31.504c0.166,0.687,0.781,1.161,1.472,1.161c0.062,0,0.124-0.004,0.186-0.012l4.444-0.545
			c0.428-0.054,0.814-0.285,1.061-0.64c0.246-0.355,0.33-0.796,0.229-1.217l-8.089-33.918l34.03,7.457
			c0.108,0.024,0.217,0.036,0.326,0.036c0.682,0,1.3-0.462,1.47-1.152l1.101-4.446c0.098-0.397,0.032-0.817-0.185-1.166
			c-0.216-0.346-0.563-0.592-0.963-0.681l-34.538-7.558l-0.307-1.08l20.241-29.539c0.23-0.334,0.315-0.746,0.239-1.145
			c-0.077-0.398-0.31-0.748-0.646-0.973l-3.327-2.224c-0.69-0.462-1.624-0.281-2.094,0.402L49.09,48.811l-7.535-31.652
			c-0.18-0.754-0.899-1.257-1.667-1.152l-4.444,0.566c-0.426,0.055-0.809,0.287-1.054,0.64s-0.329,0.793-0.231,1.211l8.191,34.939
			l-0.053,0.093L8.221,46.005c-0.802-0.176-1.597,0.318-1.795,1.115l-1.104,4.442c-0.098,0.397-0.032,0.817,0.184,1.167
			c0.216,0.346,0.564,0.592,0.964,0.681l34.707,7.592L41.203,61.092z M48.03,54.145l2.38,1.975l0.352,1.238l-1.061,4.18
			c-0.004,0.015,0.001,0.03-0.002,0.046l-0.017,0.03l-3.127,0.391l-2.392-1.587l-0.257-0.909l0.981-3.884
			c0.052-0.206,0.055-0.416,0.021-0.62l0.053-0.095l0.993-0.246L48.03,54.145z"/>
	</g>
	<g id="ian_symbols_b85c12e7d21d0d84750a8dac5831064f_1_">
	</g>
</g>
</svg>
