<?xml version="1.0" encoding="UTF-8" standalone="no"?>
<svg xmlns:rdf="http://www.w3.org/1999/02/22-rdf-syntax-ns#" xmlns="http://www.w3.org/2000/svg" height="506px" width="506px" xmlns:cc="http://creativecommons.org/ns#" xmlns:xlink="http://www.w3.org/1999/xlink" xmlns:dc="http://purl.org/dc/elements/1.1/">
<title>Seagrass habitat: reef</title>
<desc xmlns:ian_image_library="http://ian.umces.edu/imagelibrary/">
      <ian_image_library:title>Seagrass habitat: reef</ian_image_library:title>
      <ian_image_library:descr>Illustration of reef seagrass habitat</ian_image_library:descr>
      <ian_image_library:scene>
		<ian_image_library:contains>symbol,vector,illustration,seagrass,SAV,habitat,coral,reef,tropical,water</ian_image_library:contains>
        <ian_image_library:when>2008-08-26</ian_image_library:when> 
	  </ian_image_library:scene>
   </desc>
    <metadata
		id="metadata-iil-2975ac0083546b94bdcbe73d8da2d710">
      <rdf:RDF>
      <cc:Work
         rdf:about="">
        <dc:format>image/svg+xml</dc:format>
        <dc:type
           rdf:resource="http://purl.org/dc/dcmitype/StillImage" />
        <cc:license
           rdf:resource="http://creativecommons.org/licenses/by-sa/3.0/" />
        <dc:title>Seagrass habitat: reef</dc:title>
		<dc:date>2008-08-26</dc:date>
        <dc:creator>
			<cc:Agent>
				<dc:title>Catherine Collier</dc:title>
			</cc:Agent>	
		</dc:creator>   
		<dc:rights>
          <cc:Agent>
            <dc:title>Catherine Collier, James Cook University</dc:title>
          </cc:Agent>
        </dc:rights>
        <dc:publisher>
          <cc:Agent>
            <dc:title>Integration and Application Network</dc:title>
          </cc:Agent>
        </dc:publisher>
		<dc:identifier>http://ian.umces.edu/imagelibrary/displayimage-5726.html</dc:identifier>
        <dc:source>http://ian.umces.edu/imagelibrary/displayimage-5726.html</dc:source>
        <dc:language>en-US</dc:language>
        <dc:subject>
          <rdf:Bag>
            <rdf:li>symbol,vector,illustration,seagrass,SAV,habitat,coral,reef,tropical,water</rdf:li>
          </rdf:Bag>
        </dc:subject>
        <dc:coverage></dc:coverage>
        <dc:description>Illustration of reef seagrass habitat</dc:description>
        <dc:contributor>
          <cc:Agent>
            <dc:title></dc:title>
          </cc:Agent>
        </dc:contributor>
      </cc:Work>
      <cc:License
         rdf:about="http://creativecommons.org/licenses/by-sa/3.0/">
        <cc:permits
           rdf:resource="http://creativecommons.org/ns#Reproduction" />
        <cc:permits
           rdf:resource="http://creativecommons.org/ns#Distribution" />
        <cc:requires
           rdf:resource="http://creativecommons.org/ns#Notice" />
        <cc:requires
           rdf:resource="http://creativecommons.org/ns#Attribution" />
        <cc:permits
           rdf:resource="http://creativecommons.org/ns#DerivativeWorks" />
        <cc:requires
           rdf:resource="http://creativecommons.org/ns#ShareAlike" />
      </cc:License>
    </rdf:RDF>
  </metadata>
	
 <defs></defs>
 <rect y="2.747" x="2.747" height="500" width="500" fill="#fff"/>
 <path stroke="#000" stroke-width="1.3736" d="m502.75 502.75h-500v-460.45s19.393 18.748 34.071 16.238c14.765-2.602 31.31-13.93 31.31-13.93s14.771 15.696 34.022 13.93c19.16-1.953 31.592-14.209 31.592-14.209s16.637 16.243 34.302 14.486c17.57-1.861 31.966-14.486 31.966-14.486s17.668 16.992 34.677 14.486c16.916-2.599 31.407-13.927 31.407-13.927s20.28 17.356 38.135 13.368c18.039-4.265 28.131-13.927 28.131-13.927s20.566 16.992 34.868 14.486c14.383-2.599 31.408-14.207 31.408-14.207s13.173 14.76 34.026 13.93c20.834-1.031 31.3-14.667 31.3-14.667s23.182 16.808 38.785 15.606v443.27z" fill="#00B9F2"/>
 <path stroke="#000" stroke-width="1.3736" d="m502.75 470.91c-225.7-90.962-136.96-348.86-262.96-354.24-43.82-1.872-46.579 64.149-126.25 65.928-70.735 1.587-102.22-75.072-110.8-76.079v396.23h500v-31.84z" fill="#fff"/>
 <path stroke="#000" stroke-width="1.3736" d="m370.79 502.75c-142.04-98.546-111.52-274.69-183.9-351.67" fill="none"/>
 <line y2="220.29" x1="287.65" x2="224.35" stroke="#000" y1="159.03" stroke-width="1.3736" fill="none"/>
 <line y2="389.79" x1="256.91" x2="174.27" stroke="#000" y1="332.67" stroke-width="1.3736" fill="none"/>
 <line y2="388.51" x1="308.28" x2="390.59" stroke="#000" y1="439.56" stroke-width="1.3736" fill="none"/>
 <radialGradient id="ian_symbols_d6bd8874b9ec8ab4e1363a73800caaba" gradientUnits="userSpaceOnUse" cy="255.46" cx="-1.3335" gradientTransform="matrix(.1811 .901 -.9009 .1811 546.27 115.02)" r="73.417">
  <stop stop-color="#F8ABAD" offset="0"/>
  <stop stop-color="#C2799F" offset="1"/>
 </radialGradient>
 <path stroke="#000" stroke-width="1.3736" d="m317.28 215.15c-7.41-14.467-10.405-24.29-18.95-35.254-8.735-10.924-17.719-24.045-27.442-36.819 0 0 2.908-3.858 5.778-7.914 7.221-9.836 40.115-25.241 64.881 7.414 23.97 34.86-1.75 62.52-24.27 72.57z" fill="url(#ian_symbols_d6bd8874b9ec8ab4e1363a73800caaba)"/>
 <linearGradient id="ian_symbols_c921cf7856ae7c144149ef0a0003763c" y2="231.12" gradientUnits="userSpaceOnUse" x2="14.386" gradientTransform="matrix(.1971 .9804 -.9804 .1971 568.13 100.68)" y1="299.17" x1="14.386">
  <stop stop-color="#F8ABAD" offset="0"/>
  <stop stop-color="#fff" offset="1"/>
 </linearGradient>
 <path stroke="#000" stroke-width="1.3736" d="m325.37 131.31c2.441 2.987-3.299 7.005-4.481 7.237-1.134.435-1.682-.273-1.052-1.215.624-.941.07-2.672-1.46-3.187-1.693-.274-2.202 1.266-2.441 3.151-.391 2.125.906 1.458-1.574 2.358-2.436 1.104-1.529-3.573-.747-4.761.747-1.369.194-2.083-.158-3.849-.592-1.923-1.769-1.69-3.504-2.162-4.797-1.486-6.055.405-10.103 2.651-2.55 1.532-2.122 2.674-5.545 2.954-3.38.477-4.791 3.619-5.843 5.469-1.025 2.048-.662 4.839-.782 6.296.114 1.611 2.822.868 4.558.309 1.53-.518 1.492.31 2.121 1.417.434 1.137-.906 1.613-1.774 2.393-.857.79.13 2.634.993 2.873 1.096.398 2.675-.947 3.342-1.695.868-.784 1.177-1.257.825-4.051-.516-2.555-1.303-4.44-3.234-4.875-1.687-.268-2.794-2.712-.949-3.689 1.85-.988 3.228-.245 4.486-.089 1.063.198 2.04 2.048 2.36 3.618.282 1.375-.038 3.89.906 4.522.911.428 2.359-.473 3.347-2.716.939-2.444-.677-4.367-2.208-4.877-1.535-.507-1.855-3.101-.156-3.855 1.601-1.142.895-1.608 3.525-.708 2.643.897 2.762 4.552 2.734 8.453.152 3.846-1.177 5.344-2.561 6.646-1.177 1.262-3.532 2.756-5.658 2.368-2.116-.396-1.726 3.619-.108 3.499 1.611-.118 1.888.229 2.75-.558 1.102-.63 2.437-.079 2.594.707-.038.828-1.139 1.457-2.437 2.124-1.296.673-1.769.358-1.925 1.614-.315 1.498 1.579 2.754 2.397 2.794.831.038.635 1.096.987-1.223.392-2.125 4.324-2.911 5.426-2.518 1.102.388 1.297 1.373.988 2.862-.314 1.497-.348 1.301-3.229 3.309-2.864 2.01 2.604 4.798 3.743 4.359.938-.387 2.675-2.986 2.871-4.05-.006-1.025.58-2.162-.642-6.212-1.258-4.248-.391-2.989-3.943-4.321-3.527-1.332 2.484-3.974 3.624-3.385.943.629 2.562.507 2.322-2.712-.244-3.231-1.698-2.322-2.843-3.939-.95-1.644.905-1.606 2.718-2.791 1.611-1.136 2.165 1.614 3.146 4.481.787 2.908-.466 6.846-2.034 11.249-1.372 4.368 3.146 1.411 4.204.589.868-.795 2.475-3.975 3.185-5.551.744-1.375 1.016-4.087.977-7.354 0-3.065.266-4.76-.841-7.199-.933-2.667 3.7-.941 4.329 2.203.642 3.147-.027 6.961-1.128 8.61-1.097 1.652-.938 4.479 1.106 5.504 1.845 1.063 4.124-4.921 4.319-5.981.157-1.256.905-2.631-.044-4.289-1.145-1.609-.435-3.179.705-3.619.944-.388 2.279 1.177 3.858 3.933 1.535 2.559-1.487 7.864-3.293 10.067-1.803 2.203-6.37 2.922-6.17 3.898.158.79 2.79.667 4.243-.239 1.459-.908 2.832-1.182 3.304.155.32 1.57-.824 2.01-1.215 3.111s-3.38 1.5-3.853.163c-.276-1.375-1.85-1.066-3.385-.548-1.53.51-4.123 2.873-4.872 3.226-.944.396-2.24 1.063-2.865 3.027-.667 1.774.119 3.659-.423 6.022-.553 2.36-2.794 2.398-3.38 2.517-.629-.079-1.264-1.174-.597-3.971.467-2.753-1.617-1.926-2.713-1.291-1.14.431-1.14 3.494-.818 5.07.509 1.535 2.082 3.26 4.595 3.578 2.322.35 3.499-.912 3.348.35.081 1.416-.234 2.911-.906 3.654-.662.754.482 3.385 1.779 3.735 1.492.315 3.456-3.152 3.06-5.116-.357-1.768.587-5.235.575-8.3-.184-3.022-1.529-2.547-2.316-4.438-.591-1.929 1.492-1.731 2.713-1.769 1.183-.239.315 2.593 1.145 2.631.862.23 1.649-2.986 1.964-4.481.468-1.73.033-1.85 1.449-1.929 1.378-.279 2.045 2.043.911 3.499-.944 1.416-1.927 3.654-2.951 5.703-.819 2.004-.027 4.917 1.465 4.209 1.529-.518.857-3.859 1.247-4.956.157-1.262 3.662-5.236 5.187-6.771 1.492-1.736 3.337-6.812 3.294-10.072-.044-3.266 1.693-3.82 2.788-3.424 1.259.158.711 3.535.559 5.816-.353 2.325-2.988 5.515-3.574 6.651-.348 1.297.352 1.771 2.718.269 2.392-1.294 1.845-4.047 1.644-6.052-.157-1.809.9-2.637 2.474-.906 1.378 1.763.679 6.41.245 7.319-.435.897-1.959 3.45-3.891 4.047-1.73.547-1.769 1.375-1.813 3.22.131 1.617.049 1.229 2.171.594 2.159-.434 3.185-2.482 4.285-3.112 1.096-.632.587 1.926-.119 3.497-.662 1.774-2.234 2.089-3.847 3.231-1.567 1.334-3.385-.548-4.052-1.844-.668-1.297-2.914-.231-4.482 1.106-1.572 1.334-2.039 5.113-2.268 8.027-.477 2.75-3.032 3.266-4.248 4.326-1.259.869-.629 1.964.277 2.403.905.429 2.165-1.462 3.543-1.742 1.563-.312.938.625-.314 2.521-1.455 1.923-3.576 2.561-5.421 3.54-2.083.83-2.365 2.531-2.518 3.778-.313 1.5 1.368 1.774 1.368 1.774s4.41-1.5 8.105-6.541c3.693-5.037 1.128-8.607 1.323-12.738.195-4.129 3.299-3.934 4.086-3.071.748.662.319 4.642-.473 5.816-.619.949-1.405 3.152-.461 3.782.71.466 2.316-2.718 3.142-3.701.586-1.142 1.448-3.979 2.077-4.92.63-.944 1.851.043 2.089 2.237.233 2.203-.233 2.912-.786 4.249-.549 1.337-2.311 2.721-3.413 3.35-.906.588-2.907 1.803-2.556 2.552.749.673 2.676-.941 4.559-.707 1.893.232.01 2.045-1.098 2.671-1.095.635-4.009 1.422-4.757 1.777-.787.157-2.393 2.322-3.532 4.799-1.172 2.284-2.751 3.621-3.619 4.408-.896.594-5.224 3.505-5.224 3.505-1.883-2.284-5.551-5.219-4.759-8.456.819-3.025 3.256-4.123 2.279-5.973-.95-1.655-3.435-.739-4.77-3.339-1.535-2.553.429-6.014-1.937-5.534-2.322.667-1.801 1.177-1.443 3.969.348 2.791-4.048 5.309-3.819-.67.271-5.777 1.916-6.719.857-8.962-1.025-2.046-.592-.903-3.89-.036-3.146.632-7.249-2.428-6.18-4.283.819-2.004 2.55-5.624 3.809-2.404 1.025 3.067.905 3.502 2.484 2.165 1.568-1.34 1.964-4.487-.206-5.07-1.932-.434-5.002.595-5.778-2.319-.792-2.912.694-3.619-1.308-5.463s-3.966.594-2.989 2.441c.993 1.844-2.539 8.697-4.709 6.063-.868-1.256 1.063-5.94-.011-7.159-1.334-1.575-5.572.708-6.087-.821-.944-2.678 8.604-5.002 8.018-5.909-.792-.862-.477-3.38-2.528-3.372-1.883-.239-2.36 1.491-5.979-.233-3.608-1.73-4.4-5.659-.82-4.134 3.543 1.337 4.471-5.184.467-2.746-4.161 2.678-4.638 1.34-6.646.513-2.051-1.017-2.17-6.719-.521-7.668 1.888-.787 4.568 1.337 4.102 3.063-.282 1.695 2.121 2.442 2.669.079.554-2.363.152-5.345 2.387-8.456 2.04-3.06 4.904-6.098 5.501-4.172.825 2.078 1.421 2.987 3.695 1.097 2.127-1.649 4.953-2.838 7.074-3.47 2.122-.629 10.808-1.148 11.872.073.829 1.058.477 2.355 2.169 2.629 1.71.44 7.14-1.06 9.42 2.17z" fill="url(#ian_symbols_c921cf7856ae7c144149ef0a0003763c)"/>
 <linearGradient id="ian_symbols_4d34dc42da554864d5eb2e426ff8437f" y2="420.81" gradientUnits="userSpaceOnUse" x2="387.47" gradientTransform="matrix(.1976 -1.5877 -1.5877 -.1976 1092.1 887.71)" y1="527.68" x1="280.6">
  <stop stop-color="#9D6533" offset="0"/>
  <stop stop-color="#F0F1E1" offset="1"/>
 </linearGradient>
 <path stroke="#A25641" stroke-width="1.3736" d="m449.85 313.86s-14.236 15.419-18.354 14.579c-4.117-.836-.504 9.337.531 11.42 1.075 1.752 1.635 7.66.201 11.377-1.106 3.748-4.112 6.943-4.112 6.943s-1.714 3.354-3.705-1.432c-1.324-5.034 2.431-9.103-.012-12.982-2.436-3.868-6.07-8.534-9.662-13.521-3.917-5.029-12.305-10.611-17.453-10.926-4.86.039-10.46-1.958-9.538 1.085 1.237 3.065 1.996 4.786-.2 6.782-2.832 1.915.011 7.785-5.746 1.878-5.436-5.871-4.704-6.424-7.784-7.781-3.153-.716-2.523-3.233-6.028-1.08-3.5 2.166-4.584 3-7.091 4.959-2.517 1.963-4.117 4.351-6.152 7.666-1.997 3 1.285 10.542-2.913 5.148-4.193-5.382-4.476-5.746-8.063-10.731-3.364-4.308-5.675-9.136-5.675-9.136s5.355 1.319 8.859-.835c3.51-2.165 8.86-3.44 9.613-6.923.755-3.473 2.952-8.062 3.315-10.938.396-3.19 2.023-11.1.19-17.16-1.845-6.068-7.362-13.892-7.281-17.122-.597-2.99-6.076-16.323-6.033-21.832-.281-5.547-.482-9.139-.688-12.738-.245-3.269 1.595-4.986 1.595-4.986l.281-4.831 2.23-4.91s-1.672.434-2.479-3.551c-.482-3.953-.722-2.031-2.718-6.825-2.002-4.791-3.032-4.267-.765-6.904 2.234-2.324 4.909-2.957 4.909-2.957l3.358 4.313s1.477 1.15 2.719-.963c1.231-2.119 2.544-4.872 3.948-3.076 1.4 1.796 1.954 2.512 1.954 2.512l-1.112 6.353s-2.234-.279.798 6.582c2.723 6.819 1.996 7.378 4.118 8.626 1.789 1.191 3.396 1.389 6.304 1.435 2.951-.291 7.818 2.262 5.707 3.619-2.147 1.685-4.389-1.185-3.509 4.758 1.242 5.667-.315 5.143.563 8.493.879 3.361 2.273 7.75 2.273 7.75s6.705-9.543 8.062-12.619c1.399-3.396 2.751-6.467 2.669-11.014-.363-4.915-4.476-13.531-4.476-13.531s-4.237-7.669-7.589-11.976c-3.359-4.308-2.242-2.873-4.478-5.743-2.24-2.873-3-4.587.277-4.832 3.592-.206 2.474.953 5.675 1.352 3.19.399 5.338 1.315 5.338 1.315s1.205-1.795 4.004 1.796c2.437 3.868 1.639 7.663 2.952 10.093 1.318 2.439-.119 3.556 2.713 4.234 2.843.678 3.922-.166 6.434-2.113 2.469-1.646 8.534-8.675 10.412-10.71 1.872-2.04 3.429-4.11 1.752-6.272-1.677-2.146-2.723-6.822-2.723-6.822s-.239-3.269 1.557-4.666c1.801-1.4 4.432.876 4.432.876s2.361 4.508 4.004 6.982c1.558 3.109 1.634 7.658 1.634 7.658l5.945-.879 5.431-1.918s5.507-2.557 7.222-.719c2.04 1.87 4.031 1.471-.228 4.503-4.308 3.358-4.602 3-9.825 5.911-5.182 2.604-3.944 3.082-7.904 3.562-3.988.806-4.428-.879-4.021 3.719.711 4.625 2.589 2.591 1.953 7.696-.634 5.116-.515 6.752-.515 6.752s2.599-2.599 4.389-3.999c1.79-1.397 2.99-.599 4.991-3.594 2.072-3.629 3.593-5.39 3.593-5.39s2.988-3.19 3.948-.478c.956 2.71 1.08 4.346-.118 6.147-1.547 2.072-1.953 5.268-1.953 5.268s-.358.279 3.472-1.833c3.868-2.441 2.196-4.595 4.91-2.962 2.077 1.557 2.706 1.636.84 3.681-1.838 1.709-2.272 2.631.636 2.672 2.881.35 7.384-2.004 5.278 1.948-2.116 3.955-1.237 4.712-4.274 5.632-3.31.562-4.156-.521-8.1 2.561-3.951 3.071-1.759-1.519-8.02 4.508-6.234 5.713-7.546 8.463-7.546 8.463s8.463-.238 11.338-2.471c2.479-1.636 4.954-3.277 7.107-4.957 2.474-1.636 7.541-.683 10.016-2.322 2.87-2.235 2.989-3.193 4.101-1.755 1.4 1.793 2.441 3.868.646 5.268-1.795 1.397.076 1.961-2.874 2.238-2.99.595-.917-.436-4.118 1.753-3.814 2.119-4.894 2.957-4.894 2.957s-.114 3.56 2.951 2.316c3.07-1.242 3.591-2.796 6.31-3.754 2.701-.958 6.733-2.078 8.133-.279 1.958 2.509-.314 5.146-3.033 6.103-2.701.958-6.977 1.406-8.653 4.438-1.628 2.71-3.385 6.392.293 5.542 3.021-.917 5.696-1.555 8.647-1.834 3.271-.244 5.035 1.278 5.035 1.278s-1.801 1.395-.2 4.186c1.595 2.794 3.151 3.313-.439 6.109-3.548 2.477-.717-2.04-4.628 3.314-3.906 5.355-4.585 8.188-4.585 8.188s6.831 2.474 11.101-.57c4.346-3.668 2.192-4.584 6.906-5.946 4.698-1.362 5.583-3.196 7.813-.325 2.241 2.872-.07 5.829-.07 5.829s-3.478-.762.96 2.715c4.112 3.429 7.622 1.272 4.194 5.387-3.749 4.075-3.033 8.703-7.666 6.825-4.948-1.91-5.984-6.581-10.857-6.537-4.909.358-1.116-1.438-6.623 1.118-5.518 2.56-3.554-.114-8.226 3.521-4.66 3.635-5.344 3.879-7.497 5.55-1.834 1.72-3.349.879 3.553 5.306 6.901 4.427 11.378 4.986 15.326 1.905 4.628-3.31 8.947-1.476 12.495-3.955 3.592-2.794 6.104-4.748 8.145-2.875 2.029 1.872 4.941 1.916 2.43 3.869-2.512 1.958-3.58 2.805-1.155 4.074 2.756 1.313 6.19-.206 4.156 3.114-2.035 3.31 1.166 6.304-4.552 5.268-5.301-1.633-4.786-3.19-8.459-2.354-3.955.483-4.59.412-11.372 2.805-6.8 2.38-9.32 1.73-10.91 1.54z" fill="url(#ian_symbols_4d34dc42da554864d5eb2e426ff8437f)"/>
 <path stroke="#A25641" stroke-width="1.3736" d="m440.04 309.39s-9.706 7.547-16.965 5.995c-7.584-1.589-18.282-1.628-21.875-4.02-3.559-2.713-.238-5.865 6.69-6.95 6.955-1.079 15.255-5.235 19.727-2.083 4.74 3.51 12.42 7.06 12.42 7.06z" fill="#00B9F2"/>
 <path stroke="#A25641" stroke-width="1.3736" d="m386.04 255.98s3.635 2.07 2.077 6.741c-1.909 4.946-13.043 21.4-15.561 23.364-2.831 1.916-4.665-4.155-2.982-12.375 1.301-7.948 3.097-14.541 7.285-16.938 4.14-2.06 5.61-6.1 9.18-.78z" fill="#00B9F2"/>
 <path stroke="#A25641" stroke-width="1.3736" d="m404.65 278.39s-4.497 20.521-16.672 24.52c-11.893 4.357-14.209 2.127-16.006.928-1.877-.559 7.342-9.467 10.255-12.018 2.91-2.56 22.43-13.43 22.43-13.43z" fill="#00B9F2"/>
 <path stroke="#A25641" stroke-width="1.3736" d="m433.21 252.12s-4.818 4.904-9.407 7.905c-4.275 3.038-12.978 7.793-19.679 9.549-7.068 2.04-8.544 3.475-8.104-.036.401-3.195-2.713-1.636 3.108-6.746 5.469-4.829 13.922-12.858 18.837-13.228 5.272-.637 14.691-.757 14.691-.757s.993-.208 1.514.833c.48 1.38-.96 2.5-.96 2.5z" fill="#00B9F2"/>
 <path stroke="#AD624D" stroke-width="1.3736" d="m418.16 227.22c-1.596 2.387-3.033 8.694-7.297 11.735-4.275 3.033-7.547 5.873-9.663 7.229-1.795 1.397-4.747 1.677-3.749-1.115 1.356-3.073 2.431-3.909 5.665-6.432 3.59-2.82 15.04-11.43 15.04-11.43z" fill="#00B9F2"/>
 <path stroke="#AD624D" stroke-width="1.3736" d="m409.4 206.34s.238-1.92.635 2.667c.326 5.235-.271 10.021-1.112 11.537-.793 1.208-1.389 5.993-3.505 7.349-1.834 1.719-3.787 4.392-7.031 6.909-3.229 2.523-2.702 6.153-3.944 3.082-1.476-3.76.038-5.515.276-7.428.202-1.597-.835-6.274.082-8.428.87-1.83 14.55-15.37 14.59-15.69z" fill="#00B9F2"/>
 <path stroke="#AD624D" stroke-width="1.3736" d="m356.49 225.05c3.028-.928 1.428-1.121 3.863 2.748 2.441 3.863.967 5.308 1.438 6.665.494 1.356 3.088 6.543 2.447 9.06-.678 2.837-1.438 6.307-1.676 8.223-.234 1.913-3.305 8.344-3.104 9.342.232.678.39-8.377-.494-11.738-.841-3.667 1.442-1.115-1.395-6.985-2.599-5.178-3.314-9.814-2.994-12.37.34-2.86 1.22-4.71 1.9-4.94z" fill="#00B9F2"/>
 <path stroke="#A25641" stroke-width="1.3736" d="m449.57 313.5s-8.339-3.309-9.815-4.464" fill="none"/>
 <line y2="214.84" x1="356.97" x2="349.98" stroke="#A25641" y1="223.81" stroke-width="1.3736" fill="none"/>
 <path stroke="#A25641" stroke-width="1.3736" d="m450.38 257.49l-4.385 1.394s-1.398-1.785-3.157-.708c-1.789 1.397-5.903 3.152-5.903 3.152l-2.153 1.679 11.421-.524 4.17-4.99z" fill="#00B9F2"/>
 <path stroke="#A25641" stroke-width="1.3736" d="m479.3 301.3s-3.342 6.076-10.655 4.839" fill="none"/>
 <line y2="180.91" x1="412.62" x2="408.35" stroke="#98C53F" y1="180.47" stroke-width="1.3736" fill="none"/>
 <path stroke="#A25641" stroke-width="1.3736" d="m358.79 203.93s-3.428 1.517-5.593-1.988" fill="none"/>
 <path stroke="#A25641" stroke-width="1.3736" d="m444.57 275.58s1.823 3.475-2.115 6.551c-4.276 3.033-22.711 10.471-25.944 10.39-3.592.201-1.558-5.707 4.389-11.775 5.583-5.794 10.688-10.352 15.473-9.752 4.78.60 8.02-1.91 8.19 4.59z" fill="#00B9F2"/>
 <path stroke="#000" stroke-width="1.3736" d="m68.15 171.77c.819 4.107 3.282-46.826 0-46.826-7.398-1.63-4.102 35.32 0 46.83z" fill="#37A54F"/>
 <path stroke="#000" stroke-width="1.3736" d="m67.317 177.52c0 9.03 13.159-66.537 18.898-74.75 4.926-9.039 2.474-21.357-2.462-13.968-4.107 7.391-17.239 52.568-16.436 88.718z" fill="#37A54F"/>
 <path stroke="#000" stroke-width="1.3736" d="m68.15 177.52s-9.039-75.578-9.039-85.433c0-9.853-7.384-18.887-7.384-6.563v1.636c-.827 11.496 3.28 43.536 9.025 66.539 3.296 13.14 7.398 23.82 7.398 23.82z" fill="#37A54F"/>
 <path stroke="#000" stroke-width="1.3736" d="m146.18 156.64c-.803-1.644-1.636-17.25-4.104-28.741-2.468-13.153-4.104-29.581-4.926-33.688-.828-7.389-1.655-18.886-8.211-9.03-7.398 9.857 14.784 99.389 18.891 103.5 4.1 4.1-1.65-32.04-1.65-32.04z" fill="#37A54F"/>
 <path stroke="#000" stroke-width="1.3736" d="m148.64 191.96c3.288 4.118 3.288-25.461 7.398-51.747 1.63-12.313 3.291-22.182 4.92-29.568 1.641-8.216 0-12.326 0-13.97 0-4.104-4.92-9.852-8.208-.819-4.11 9.863-7.378 57.506-7.378 67.358.01 9.86.81 24.65 3.27 28.75z" fill="#37A54F"/>
 <path stroke="#000" stroke-width="1.3736" d="m108.39 156.98c.827-1.639 1.646-16.422 4.112-27.924 2.469-13.97 4.11-30.398 4.11-33.678.814-8.217 1.644-19.724 9.025-9.853 6.576 9.853-15.601 99.384-19.71 103.49-4.11 4.1 2.46-32.04 2.46-32.04z" fill="#37A54F"/>
 <path stroke="#000" stroke-width="1.3736" d="m105.11 192.31c-2.463 4.107-2.463-25.472-6.567-51.752-2.469-11.502-3.296-22.182-4.94-29.574-2.463-7.389-.803-11.504-.803-13.143 0-4.109 4.909-10.68 9.022-.822 3.288 9.855 6.567 56.682 6.567 66.537 0 9.85-.81 24.64-3.28 28.75z" fill="#37A54F"/>
 <path stroke="#000" stroke-width="1.3736" d="m241.89 502.75c-100.93-100.86-82.22-251.57-147.68-321.2" fill="none"/>
 <path stroke="#000" stroke-width="1.3736" d="m136.35 502.75c-84.815-100.12-71.455-239.91-133.6-306.01" fill="none"/>
 <line y2="309.48" x1="133.05" x2="54.017" stroke="#000" y1="254.61" stroke-width="1.3736" fill="none"/>
 <line y2="462.63" x1="83.688" x2="2.747" stroke="#000" y1="408.11" stroke-width="1.3736" fill="none"/>
 <rect stroke-linejoin="round" height="500" width="500" stroke="#000" stroke-linecap="round" stroke-miterlimit="1" y="2.747" x="2.747" stroke-width="5.4945" fill="none"/>
</svg>
