<?xml version="1.0" encoding="utf-8"?>
<!-- Generator: Adobe Illustrator 15.0.2, SVG Export Plug-In . SVG Version: 6.00 Build 0)  -->
<!DOCTYPE svg PUBLIC "-//W3C//DTD SVG 1.1//EN" "http://www.w3.org/Graphics/SVG/1.1/DTD/svg11.dtd">
<svg version="1.1" id="Layer_1" xmlns="http://www.w3.org/2000/svg" xmlns:xlink="http://www.w3.org/1999/xlink" x="0px" y="0px"
	 width="832.044px" height="337px" viewBox="0 0 832.044 337" enable-background="new 0 0 832.044 337" xml:space="preserve">
<g id="krYBh9.tif">
	<g>
		<path fill-rule="evenodd" clip-rule="evenodd" fill="#FFFFFF" d="M1.044,0c276.996,0,554.01,0,831,0c0,112.333,0,224.667,0,337
			c-277.336,0-554.661,0-832,0c0-111.333,0-222.668,0-334C-0.042,1.581-0.121,0.168,1.044,0z M519.044,269
			c11.025-3.936,20.611-16.263,31-18c12.065-2.018,26.505,4.327,40,5c17.827,0.889,37.406,0.727,54-1
			c25.355-2.639,59.438-7.18,81-14c12.416-3.928,25.475-18.192,36-21c5.923-1.58,14.473-0.353,21-2
			c12.867-3.248,28.735-10.668,29-19c0.206-6.498-11.747-14.991-21-21c-75.47-49.009-181.589-66.515-290-77
			c-20.209-29.791-39.671-60.329-77-73c-1.257,0.41-2.044,1.29-2,3c-2.198,25.802-1.22,54.781-4,80
			c-86.936,14.208-161.131,37.426-243,59c-10.609,2.796-27.144,10.732-35,9c-8.874-1.957-19.579-22.4-26-31
			c-21.626-28.965-41.189-54.125-61-82c-3.319-4.671-6.772-13.675-14-13c-5.222,10.799-1.776,24.836,1,35
			c3.911,14.315,11.703,29.211,17,44c5.475,15.287,12.932,31.343,15,46c3.466,24.564-6.811,43.417-13,61
			c-4.954,14.073-11.94,27.719-13,42c34.003,3.686,46.26-17.885,63-38c7.945-9.547,21.641-35.873,32-38
			c6.68-1.371,18.854,2.343,29,4c28.011,4.574,60.685,10.798,86,14c69.419,8.782,147.174,12.833,217,21
			c-6.521,13.231-24.402,20.148-26,35C472.468,278.85,495.877,277.269,519.044,269z"/>
		<path fill-rule="evenodd" clip-rule="evenodd" fill="#FFFFFF" d="M543.044,125c-79.332-0.539-147.468,11.92-215,24
			c-10.854,1.942-20.771,3.163-34,4c54.474-17.83,121.82-28.828,190-32C503.127,120.112,526.413,118.404,543.044,125z"/>
		<path fill-rule="evenodd" clip-rule="evenodd" fill="#FFFFFF" d="M613.044,154c14.864,11.573,20.996,44.242,12,65
			C623.536,195.487,618.182,170.556,613.044,154z"/>
		<path fill-rule="evenodd" clip-rule="evenodd" fill="#FFFFFF" d="M595.044,159c10.302,13.022,16.09,37.824,11,60
			C603.896,198.124,596.666,177.076,595.044,159z"/>
		<path fill-rule="evenodd" clip-rule="evenodd" fill="#FFFFFF" d="M521.044,257c-4.176,7.49-17.555,5.778-23,12
			c-4.1,0.1-8.196,0.196-11-1C499.418,266.036,509.814,256.776,521.044,257z"/>
		<path fill-rule="evenodd" clip-rule="evenodd" d="M446.044,279c1.598-14.852,19.479-21.769,26-35
			c-69.826-8.167-147.581-12.218-217-21c-25.315-3.202-57.989-9.426-86-14c-10.146-1.657-22.32-5.371-29-4
			c-10.359,2.127-24.055,28.453-32,38c-16.74,20.115-28.997,41.686-63,38c1.06-14.281,8.046-27.927,13-42
			c6.189-17.583,16.466-36.436,13-61c-2.068-14.657-9.525-30.713-15-46c-5.297-14.789-13.089-29.685-17-44
			c-2.776-10.164-6.222-24.201-1-35c7.228-0.675,10.681,8.329,14,13c19.811,27.875,39.374,53.035,61,82
			c6.421,8.6,17.126,29.043,26,31c7.856,1.732,24.391-6.204,35-9c81.869-21.574,156.064-44.792,243-59
			c2.78-25.219,1.802-54.198,4-80c-0.044-1.71,0.743-2.59,2-3c37.329,12.671,56.791,43.209,77,73
			c108.411,10.485,214.53,27.991,290,77c9.253,6.009,21.206,14.502,21,21c-0.265,8.332-16.133,15.752-29,19
			c-6.527,1.647-15.077,0.42-21,2c-10.525,2.808-23.584,17.072-36,21c-21.562,6.82-55.645,11.361-81,14
			c-16.594,1.727-36.173,1.889-54,1c-13.495-0.673-27.935-7.018-40-5c-10.389,1.737-19.975,14.064-31,18
			C495.877,277.269,472.468,278.85,446.044,279z M484.044,121c-68.18,3.172-135.526,14.17-190,32c13.229-0.837,23.146-2.058,34-4
			c67.532-12.08,135.668-24.539,215-24C526.413,118.404,503.127,120.112,484.044,121z M625.044,219c8.996-20.758,2.864-53.427-12-65
			C618.182,170.556,623.536,195.487,625.044,219z M606.044,219c5.09-22.176-0.698-46.978-11-60
			C596.666,177.076,603.896,198.124,606.044,219z M487.044,268c2.804,1.196,6.9,1.1,11,1c5.445-6.222,18.824-4.51,23-12
			C509.814,256.776,499.418,266.036,487.044,268z"/>
	</g>
</g>
</svg>
