<?xml version="1.0" encoding="UTF-8" standalone="no"?>
<svg xmlns:rdf="http://www.w3.org/1999/02/22-rdf-syntax-ns#" xmlns="http://www.w3.org/2000/svg" height="210px" width="501px" xmlns:cc="http://creativecommons.org/ns#" xmlns:xlink="http://www.w3.org/1999/xlink" xmlns:dc="http://purl.org/dc/elements/1.1/">
 <title>Habitat 2D: underwater shoreline</title>
 <desc xmlns:ian_image_library="http://ian.umces.edu/imagelibrary/">
  <ian_image_library:title>Habitat 2D: underwater shoreline</ian_image_library:title>
  <ian_image_library:descr>Illustration of habitat base with underwater shoreline</ian_image_library:descr>
  <ian_image_library:scene>
   <ian_image_library:contains>symbol vector illustration diagram template base ecosystem aquatic coastal marine habitat underwater shoreline sloped sand</ian_image_library:contains>
   <ian_image_library:when>2003-01-01</ian_image_library:when>
  </ian_image_library:scene>
 </desc>
 <metadata id="metadata-iil-56b792af0b09aca425387fb2f7589511">
  <rdf:RDF>
   <cc:Work rdf:about="">
    <dc:format>image/svg+xml</dc:format>
    <dc:type rdf:resource="http://purl.org/dc/dcmitype/StillImage"/>
    <cc:license rdf:resource="http://creativecommons.org/licenses/by-sa/3.0/"/>
    <dc:title>Habitat 2D: underwater shoreline</dc:title>
    <dc:date>2003-01-01</dc:date>
    <dc:creator>
     <cc:Agent>
      <dc:title>Tracey Saxby</dc:title>
     </cc:Agent>
    </dc:creator>
    <dc:rights>
     <cc:Agent>
      <dc:title>Tracey Saxby, Integration and Application Network</dc:title>
     </cc:Agent>
    </dc:rights>
    <dc:publisher>
     <cc:Agent>
      <dc:title>Integration and Application Network</dc:title>
     </cc:Agent>
    </dc:publisher>
    <dc:identifier>http://ian.umces.edu/imagelibrary/displayimage-6140.html</dc:identifier>
    <dc:source>http://ian.umces.edu/imagelibrary/displayimage-6140.html</dc:source>
    <dc:language>en-US</dc:language>
    <dc:subject>
     <rdf:Bag>
      <rdf:li>symbol vector illustration diagram template base ecosystem aquatic coastal marine habitat underwater shoreline sloped sand</rdf:li>
     </rdf:Bag>
    </dc:subject>
    <dc:coverage/>
    <dc:description>Illustration of habitat base with underwater shoreline</dc:description>
    <dc:contributor>
     <cc:Agent>
      <dc:title/>
     </cc:Agent>
    </dc:contributor>
   </cc:Work>
   <cc:License rdf:about="http://creativecommons.org/licenses/by-sa/3.0/">
    <cc:permits rdf:resource="http://creativecommons.org/ns#Reproduction"/>
    <cc:permits rdf:resource="http://creativecommons.org/ns#Distribution"/>
    <cc:requires rdf:resource="http://creativecommons.org/ns#Notice"/>
    <cc:requires rdf:resource="http://creativecommons.org/ns#Attribution"/>
    <cc:permits rdf:resource="http://creativecommons.org/ns#DerivativeWorks"/>
    <cc:requires rdf:resource="http://creativecommons.org/ns#ShareAlike"/>
   </cc:License>
  </rdf:RDF>
 </metadata>
 <defs></defs>
 <linearGradient id="ian_symbols_e1e8c558227e98b4bd2086727a2ed83d" y2="208.23" gradientUnits="userSpaceOnUse" x2="250.25" y1=".7012" x1="250.25">
  <stop stop-color="#95BFD5" offset="0"/>
  <stop stop-color="#66ACCB" offset=".3396"/>
  <stop stop-color="#0083B7" offset="1"/>
 </linearGradient>
 <path stroke="#0083B7" stroke-width=".5" d="m500.25 208.23h-500v-207.53s6.207 2.361 8.456 2.472c2.249.113 7.938-2.472 7.938-2.472s4.847 2.165 7.938 2.472c3.09.312 8.73-2.472 8.73-2.472s6.9 2.556 10.321 2.472c3.419-.083 7.935-2.472 7.935-2.472s2.844 2.361 7.143 2.472c4.302.113 9.524-2.472 9.524-2.472s3.815 2.556 7.94 2.472c4.124-.083 8.732-2.472 8.732-2.472s4.846 2.361 9.521 2.472c4.68.113 9.527-2.472 9.527-2.472s3.689 2.361 8.73 2.472c5.037.113 7.938-2.472 7.938-2.472s5.037 2.361 9.523 2.472c4.488.113 9.525-2.472 9.525-2.472s6.623 2.165 11.907 2.472c5.282.312 9.524-2.472 9.524-2.472s5.375 2.165 11.113 2.472c5.734.312 8.73-2.472 8.73-2.472s1.771 2.953 7.935 2.472c6.168-.479 7.148-2.472 7.148-2.472s6.415 2.556 10.317 2.472c3.9-.083 7.143-2.472 7.143-2.472s4.189 2.361 11.113 2.472c6.923.113 11.11-2.472 11.11-2.472s6.276 2.361 11.112 2.472c4.839.113 7.939-2.472 7.939-2.472s5.374 1.966 11.112 2.472c5.737.51 11.112-2.472 11.112-2.472s3.527 2.361 9.524 2.472c5.998.113 10.319-2.472 10.319-2.472s3.546 2.361 8.73 2.472c5.187.113 9.525-2.472 9.525-2.472s2.353 2.361 7.938 2.472c5.585.113 9.526-2.472 9.526-2.472s5.01 2.556 10.317 2.472c5.309-.083 8.73-2.472 8.73-2.472s4.165 1.966 8.731 2.472c4.563.51 7.936-2.472 7.936-2.472s3.29 2.556 7.937 2.472c4.649-.083 8.734-2.472 8.734-2.472s5.532 2.361 10.315 2.472c4.791.113 8.733-2.472 8.733-2.472s.182 2.361 7.146 2.472c6.959.113 9.524-2.472 9.524-2.472s3.051 2.556 7.936 2.472c4.89-.083 7.94-2.472 7.94-2.472s4.431 2.361 9.524 2.472c5.092.113 8.729-2.472 8.729-2.472s3.552 2.953 7.938 2.472c4.383-.479 7.143-2.472 7.143-2.472s2.106 2.165 7.938 2.472c5.83.312 7.936-2.472 7.936-2.472s1.579 2.755 7.145 2.472c5.57-.28 7.361-2.472 7.361-2.472v207.53z" fill="url(#ian_symbols_e1e8c558227e98b4bd2086727a2ed83d)"/>
 <linearGradient id="ian_symbols_26bfd4523e3c4654e9a1df244c8ff019" y2="92.393" gradientUnits="userSpaceOnUse" x2="250.25" y1="208.23" x1="250.25">
  <stop stop-color="#967D5F" offset="0"/>
  <stop stop-color="#D7BD9C" offset="1"/>
 </linearGradient>
 <path stroke="#967D5F" stroke-width=".5" d="m500.25 208.23h-500v-115.84s20.217 1.397 31.296 4.944c11.079 3.544 49.923 1.437 62.609 9.887s25.357.969 41.791 8.009c16.431 7.04 25.991 8.668 38.161 8.974 12.165.306 18.59 4.935 32.053 4.753 13.463-.178 21.774 7.618 36.633 7.925 14.863.305 46.927 9.199 58.005 9.506 11.077.308 30.962 5.186 48.845 4.756 17.88-.43 56.305 15.737 65.636 15.847 9.332.108 38.091 10.792 54.953 12.677 16.859 1.886 30.018 7.896 30.018 7.896v20.65z" fill="url(#ian_symbols_26bfd4523e3c4654e9a1df244c8ff019)"/>
</svg>
