<?xml version="1.0" encoding="UTF-8" standalone="no"?>
	<svg xmlns:rdf="http://www.w3.org/1999/02/22-rdf-syntax-ns#" xmlns="http://www.w3.org/2000/svg" height="356px" width="501px" xmlns:cc="http://creativecommons.org/ns#" xmlns:xlink="http://www.w3.org/1999/xlink" xmlns:dc="http://purl.org/dc/elements/1.1/">
	<title>Cnidaria</title>
<desc xmlns:ian_image_library="http://ian.umces.edu/imagelibrary/">
      <ian_image_library:title>Cnidaria</ian_image_library:title>
      <ian_image_library:descr>Illustration of lobe coral (Porites lobata).</ian_image_library:descr>
      <ian_image_library:scene>
		<ian_image_library:contains>reef,corals,koa,amu,Cnidaria,Anthozoa,Hexacorallia,Scleractinia,Poritidae,Porites </ian_image_library:contains>
        <ian_image_library:when>2010-07-30</ian_image_library:when> 
	  </ian_image_library:scene>
   </desc>
    <metadata
		id="metadata-iil-de3a30e23956ff84952f3d97b01e2fed">
      <rdf:RDF>
      <cc:Work
         rdf:about="">
        <dc:format>image/svg+xml</dc:format>
        <dc:type
           rdf:resource="http://purl.org/dc/dcmitype/StillImage" />
        <cc:license
           rdf:resource="http://creativecommons.org/licenses/by-sa/3.0/" />
        <dc:title>Cnidaria</dc:title>
		<dc:date>2010-07-30</dc:date>
        <dc:creator>
			<cc:Agent>
				<dc:title>Joanna Woerner</dc:title>
			</cc:Agent>	
		</dc:creator>   
		<dc:rights>
          <cc:Agent>
            <dc:title>Joanna Woerner, Integration and Application Network</dc:title>
          </cc:Agent>
        </dc:rights>
        <dc:publisher>
          <cc:Agent>
            <dc:title>Integration and Application Network</dc:title>
          </cc:Agent>
        </dc:publisher>
		<dc:identifier>http://ian.umces.edu/imagelibrary/displayimage-6615.html</dc:identifier>
        <dc:source>http://ian.umces.edu/imagelibrary/displayimage-6615.html</dc:source>
        <dc:language>en-US</dc:language>
        <dc:subject>
          <rdf:Bag>
            <rdf:li>reef,corals,koa,amu,Cnidaria,Anthozoa,Hexacorallia,Scleractinia,Poritidae,Porites </rdf:li>
          </rdf:Bag>
        </dc:subject>
        <dc:coverage></dc:coverage>
        <dc:description>Illustration of lobe coral (Porites lobata).</dc:description>
        <dc:contributor>
          <cc:Agent>
            <dc:title></dc:title>
          </cc:Agent>
        </dc:contributor>
      </cc:Work>
      <cc:License
         rdf:about="http://creativecommons.org/licenses/by-sa/3.0/">
        <cc:permits
           rdf:resource="http://creativecommons.org/ns#Reproduction" />
        <cc:permits
           rdf:resource="http://creativecommons.org/ns#Distribution" />
        <cc:requires
           rdf:resource="http://creativecommons.org/ns#Notice" />
        <cc:requires
           rdf:resource="http://creativecommons.org/ns#Attribution" />
        <cc:permits
           rdf:resource="http://creativecommons.org/ns#DerivativeWorks" />
        <cc:requires
           rdf:resource="http://creativecommons.org/ns#ShareAlike" />
      </cc:License>
    </rdf:RDF>
  </metadata>
	
<defs>
</defs>
<path fill="#EADF8C" d="M422.552,184.093c11.633-17.45,60.708,20.303,64.337,26.093c3.344,6.013-4.969,12.467,2.277,20.673
	c5.537,6.107,9.589,7.847,10.695,17.782c1.275,14.28-6.245,35.542-21.781,26.336c-10.419-5.792-5.926-12.202-9.732-23.024
	c-1.256-4.091-4.569-7.329-5.549-11.623c-1.129-5.209,2.172-12.182,0.496-16.864c-1.962-4.534-15.229-12.791-19.532-16.283
	c-8.091-6.182-16.244-7.679-19.967-17.065c-0.474-1.383-1.243-2.615-2.203-4.145L422.552,184.093z"/>
<radialGradient id="ian_symbols_9e9942cde0906e6431079c87528145b6" cx="501.0068" cy="466.5063" r="150.491" gradientTransform="matrix(0.5847 0.3047 0.3026 -0.6187 -24.893 413.2908)" gradientUnits="userSpaceOnUse">
	<stop  offset="0" style="stop-color:#707935"/>
	<stop  offset="0.1643" style="stop-color:#767E37"/>
	<stop  offset="0.3504" style="stop-color:#828842"/>
	<stop  offset="0.5471" style="stop-color:#999B52"/>
	<stop  offset="0.7511" style="stop-color:#B9B669"/>
	<stop  offset="0.959" style="stop-color:#E2D986"/>
	<stop  offset="1" style="stop-color:#EADF8C"/>
</radialGradient>
<path fill="url(#ian_symbols_9e9942cde0906e6431079c87528145b6)" d="M340.631,346.959c-8.68-0.294-15.955-14.132-20.838-21.916c-6.191-9.936-1.076-17.383,3.227-27.528
	c2.036-4.882,3.228-10.493,6.561-15.354c1.033-1.709,6.813-7.447,7.129-8.269c0.992-3.818-2.657-7.679-2.13-12.277
	c0.401-3.43,4.157-9.64,5.77-12.539c4.503-7.077,13.511-10.326,17.285-16.527c5.17-8.756,0.93-25.028,13.101-30.08
	c9.091-3.765,14.829,4.726,22.001-3.535c4.725-5.325,7.625-18.377,17.128-12c8.058-11.607,44.782,0.917,41.175,14.849
	c6.792,3.429,23.521,6.359,26.356,14.334c1.888,4.999-3.639,12.487-5.791,17.233c7.277,4.177,18.174,7.983,19.472,18.225
	c0.398,3.355-1.668,5.507-1.848,8.597c-0.211,3.745,1.004,6.392,1.107,9.944c0.465,15-10.398,30.293-17.001,43.54
	c-2.025,4.239-5.695,16.737-9.238,19.175c-4.895,3.059-12.023-3.564-17.972-4.925c-10.939-1.888-37.104-0.2-44.951,8.975
	c-10.168-4.683-22.729-12.562-34.235-12.593c-12.689,0.063-18.964,12.487-24.068,22.677h-2.238V346.959z"/>
<radialGradient id="ian_symbols_232fe9f80e099074b1f7c7438facf3ff" cx="653.252" cy="435.4419" r="110.4983" gradientTransform="matrix(0.1964 0.6541 0.6284 -0.2188 16.6148 -42.4041)" gradientUnits="userSpaceOnUse">
	<stop  offset="0" style="stop-color:#707935"/>
	<stop  offset="0.165" style="stop-color:#767E37"/>
	<stop  offset="0.3508" style="stop-color:#828842"/>
	<stop  offset="0.5467" style="stop-color:#999B52"/>
	<stop  offset="0.7496" style="stop-color:#B8B569"/>
	<stop  offset="0.956" style="stop-color:#E1D886"/>
	<stop  offset="1" style="stop-color:#EADF8C"/>
</radialGradient>
<path fill="url(#ian_symbols_232fe9f80e099074b1f7c7438facf3ff)" d="M368.161,268.469c-2.215-5.621,17.17-22.212,21.948-24.764c7.214-4.093,32.547-11.855,30.386,3.1
	c6.792-8.9,18.94-11.188,26.388-2.024c1.823,2.258,4.249,8.175,4.367,11.074c-0.212,4.387-4.41,7.856-3.313,10.99
	c4.028,11.928,21.811-1.098,19.037,18.898c-1.35,8.731-8.85,8.31-15.473,12.667c2.553,12.222,15.862,24.712,2.826,33.076
	c-8.174,5.314-33.676,15.512-41.543,11.739c-6.023-3.483-9.546-15.926-14.671-21.452c-5.336-5.791-12.277-8.038-17.593-13.839
	c-8.711-10.525-11.749-25.607-19.228-36.872c1.14-0.928,3.102-3.228,3.797-3.459L368.161,268.469z"/>
<path fill="#EADF8C" d="M405.222,114.199c5.717-1.044,12.119-7.793,15.694-13.009c5.105-7.42,2.817-11.766-2.552-19.028
	c-8.1-10.862-13.246-19.12-26.094-24.045c-14.133-5.622-16.538-9.449-24.353-22.622c-7.436-12.579-17.202-12.59-30.829-15.357
	L405.222,114.199z"/>
<radialGradient id="ian_symbols_88002ef04a5ba58419ab4b5a28dc5241" cx="290.5186" cy="611.2388" r="198.6075" gradientTransform="matrix(0.6436 0.1313 0.1031 -0.5057 76.4377 381.9733)" gradientUnits="userSpaceOnUse">
	<stop  offset="0" style="stop-color:#707935"/>
	<stop  offset="0.1643" style="stop-color:#767E37"/>
	<stop  offset="0.3504" style="stop-color:#828842"/>
	<stop  offset="0.5471" style="stop-color:#999B52"/>
	<stop  offset="0.7511" style="stop-color:#B9B669"/>
	<stop  offset="0.959" style="stop-color:#E2D986"/>
	<stop  offset="1" style="stop-color:#EADF8C"/>
</radialGradient>
<path fill="url(#ian_symbols_88002ef04a5ba58419ab4b5a28dc5241)" d="M244.455,118.817c-17.434-5.453-8.373-17.501-5.337-32.368c2.231-10.742,3.75-21.89,7.385-32.42
	c2.716-7.885,6.116-22.122,14.733-25.381c6.961-2.437,19.069,0.606,27.095-0.143c7.541-0.88,13.258-1.26,19.712-3.829
	c3.84-1.329,7.32-3.929,11.265-5.109c9.166-2.314,19.682,0.864,28.539,4.229c9.515,3.638,11.519,6.839,16.696,15.113
	c1.697,2.742,4.821,5.67,6.245,8.628c1.688,3.385,1.308,9.582,3.026,12.339c5.759,8.512,19.713,6.375,27.147,12.15
	c4.007,3.006,7.857,11.876,10.517,16.137c9.491,13.843,7.752,32.791,2.457,48.848c-3.037,8.712-8.714,14.602-12.953,22.111
	c-2.615,3.967-2.615,7.368-6.539,8.543c-3.544,1.17-14.217-3.012-18.1-3.766c-21.367-4.288-40.71-12.149-60.392-20.456
	c-14.712-5.9-27.896-10.658-43.391-14.349c-8.699-2.405-16.131-8.832-25.074-10.22L244.455,118.817z"/>
<radialGradient id="ian_symbols_d065dbc508bdf87489a582c8171f4c34" cx="169.6768" cy="698.354" r="126.388" gradientTransform="matrix(0.5723 0.3289 0.2242 -0.4179 -53.045 296.6909)" gradientUnits="userSpaceOnUse">
	<stop  offset="0" style="stop-color:#707935"/>
	<stop  offset="0.1643" style="stop-color:#767E37"/>
	<stop  offset="0.3504" style="stop-color:#828842"/>
	<stop  offset="0.5471" style="stop-color:#999B52"/>
	<stop  offset="0.7511" style="stop-color:#B9B669"/>
	<stop  offset="0.959" style="stop-color:#E2D986"/>
	<stop  offset="1" style="stop-color:#EADF8C"/>
</radialGradient>
<path fill="url(#ian_symbols_d065dbc508bdf87489a582c8171f4c34)" d="M141.153,58.226c4.509-6.427,3.66-18.65,8.596-23.64c2.49-2.838,8.28-1.761,11.132-3.976
	c3.766-2.791,3.766-6.207,6.003-10.779c2.99-6.107,7.973-12.393,13.879-16.553c9.507-6.55,14.46-2.016,23.757,2.604
	c6.971,3.698,16.019,5.278,21.747,11.698c5.3,5.8,6.381,14.28,11.091,20.47c3.191,3.75,5.347,5.164,6.802,9.557
	c1.124,3.797-0.607,7.837,1.091,11.222c1.494,3.102,5.289,3.725,6.76,7.458c1.703,4.039,0.548,9.007,0.624,13.219
	c-0.043,18.301,4.54,29.027-16.86,35.613c-17.33,4.89-39.593-3.518-57.583-3.75c-10.389-0.299-34.445,1.336-38.543-12.039
	c-3.755-12.092,7.287-27.09,3.173-39.811L141.153,58.226z"/>
<radialGradient id="ian_symbols_59b5278301cb93441d63ce11fd4f9ef5" cx="106.9536" cy="646.6392" r="80.7478" gradientTransform="matrix(0.6436 0.1313 0.1105 -0.5417 69.2474 417.0695)" gradientUnits="userSpaceOnUse">
	<stop  offset="0" style="stop-color:#707935"/>
	<stop  offset="0.165" style="stop-color:#767E37"/>
	<stop  offset="0.3508" style="stop-color:#828842"/>
	<stop  offset="0.5467" style="stop-color:#999B52"/>
	<stop  offset="0.7496" style="stop-color:#B8B569"/>
	<stop  offset="0.956" style="stop-color:#E1D886"/>
	<stop  offset="1" style="stop-color:#EADF8C"/>
</radialGradient>
<path fill="url(#ian_symbols_59b5278301cb93441d63ce11fd4f9ef5)" d="M163.006,100.021c2.157-10.875,3.708-19.935,3.328-30.119c-0.272-8.537,0.914-14.146,4.726-21.656
	c12.013-24.934,27.215,2.762,45.061-2.016c4.726-1.271,3.909-3.273,10.088-3.549c2.504-0.073,9.719-0.123,11.787,0.49
	c5.541,2.062,10.994,10.786,13.304,17.186c4.558,14.793-4.296,33.931-16.421,41.06c-9.034,5.247-26.44,8.691-36.418,7.689
	c-5.88-0.575-34.769-3.962-35.196-10.067"/>
<radialGradient id="ian_symbols_219dfcda650c9d04ed0cf4128051bf68" cx="193.7471" cy="521.8159" r="80.7238" gradientTransform="matrix(0.6436 0.1313 0.1105 -0.5417 65.8196 433.8752)" gradientUnits="userSpaceOnUse">
	<stop  offset="0" style="stop-color:#707935"/>
	<stop  offset="0.165" style="stop-color:#767E37"/>
	<stop  offset="0.3508" style="stop-color:#828842"/>
	<stop  offset="0.5467" style="stop-color:#999B52"/>
	<stop  offset="0.7496" style="stop-color:#B8B569"/>
	<stop  offset="0.956" style="stop-color:#E1D886"/>
	<stop  offset="1" style="stop-color:#EADF8C"/>
</radialGradient>
<path fill="url(#ian_symbols_219dfcda650c9d04ed0cf4128051bf68)" d="M201.603,195.759c2.125-10.895,3.782-19.8,3.385-29.947c-0.315-8.713,0.912-14.182,4.637-21.812
	c12.054-24.944,27.338,2.89,45.149-1.872c5.058-1.456,3.813-3.439,10.025-3.728c2.511-0.071,9.798,0.062,11.876,0.664
	c5.546,2.045,10.988,10.756,13.205,17.038c4.662,14.922-4.208,34.087-16.316,41.217c-9.06,5.252-26.547,8.513-36.423,7.677
	c-5.996-0.716-34.885-4.122-35.296-10.238"/>
<linearGradient id="ian_symbols_339ba8dd72f9b704edcdab2ab009bdc2" gradientUnits="userSpaceOnUse" x1="-52.9424" y1="507.9302" x2="-10.2808" y2="507.9302" gradientTransform="matrix(0.9798 0.1999 0.1999 -0.9798 83.9088 576.5529)">
	<stop  offset="0" style="stop-color:#EADF8C"/>
	<stop  offset="1" style="stop-color:#707935"/>
</linearGradient>
<path fill="url(#ian_symbols_339ba8dd72f9b704edcdab2ab009bdc2)" d="M131.354,81.983c2.22-10.72,2.035-28.039,13.733-31.096c11.27-3.018,22.645,7.714,26.763,18.324
	c14.606,36.989-40.221,24.095-39.495,13L131.354,81.983z"/>
<path fill="#EADF8C" d="M163.207,107.767c1.488-3.045,1.351-8.712,3.734-11.028c4.936-5.009,4.408-0.417,10.938-1.54
	c11.755-2.22,4.999-13.752,14.476-19.681c5.178-3.232,15.26-2.087,21.093-2.969c7.73-1.213,9.077-0.393,16.823,1.785
	c-22.529,3.455-30.513,30.673-52.835,46.015c-2.411-6.566-12.936-9.15-13.744-15.205"/>
<radialGradient id="ian_symbols_4dde2c8024dd91144993f8c9b70c7816" cx="166.7485" cy="567.4663" r="113.4916" fx="186.463" fy="519.8394" gradientTransform="matrix(0.6436 0.1313 0.102 -0.5 76.1602 383.157)" gradientUnits="userSpaceOnUse">
	<stop  offset="0" style="stop-color:#707935"/>
	<stop  offset="0.1643" style="stop-color:#767E37"/>
	<stop  offset="0.3504" style="stop-color:#828842"/>
	<stop  offset="0.5471" style="stop-color:#999B52"/>
	<stop  offset="0.7511" style="stop-color:#B9B669"/>
	<stop  offset="0.959" style="stop-color:#E2D986"/>
	<stop  offset="1" style="stop-color:#EADF8C"/>
</radialGradient>
<path fill="url(#ian_symbols_4dde2c8024dd91144993f8c9b70c7816)" d="M213.296,155.502c11.496-6.759,8.168-10.268,21.748-7.511c7.764,1.526,20.825,6.767,28.212,3.629
	c3.746-1.478,7.479-5.728,10.526-7.642c4.061-2.331,10.842-4.436,12.488-9.287c3.575-9.872-11.434-13.475-16.665-18.495
	c-3.037-2.77-3.143-5.679-5.864-8.669c-2.71-2.963-7.041-4.514-10.246-8.248c-5.404-6.619-8.185-13.801-15.003-19.961
	c-7.687-7.526-10.177-7.436-20.307-3.88c-9.388,3.312-11.56,2.569-15.72,11.527c-3.069,5.969-1.608,6.952-7.142,11.055
	c-3.569,2.452-9.372,2.673-12.134,5.045c-4.418,3.823-9.081,16.079-8.443,21.849c1.423,22.691,18.073,24.828,35.068,31.646
	L213.296,155.502z"/>
<path fill="#EADF8C" d="M201.799,176.295c5.3-0.977,12.016-7.942,15.354-12.778c5.042-7.595,3.159-11.977-2.229-19.244
	c-8.174-11.017-13.626-19.084-26.095-24.031c-14.127-5.643-16.906-9.417-24.622-22.435c-7.456-12.565-17.328-12.772-30.56-15.546
	L201.799,176.295z"/>
<radialGradient id="ian_symbols_a8f36963b7137b9441eda87dd993e0f7" cx="4.4668" cy="463.9185" r="200.0634" gradientTransform="matrix(0.6436 0.1313 0.1031 -0.5057 71.3176 407.0807)" gradientUnits="userSpaceOnUse">
	<stop  offset="0" style="stop-color:#707935"/>
	<stop  offset="0.1643" style="stop-color:#767E37"/>
	<stop  offset="0.3504" style="stop-color:#828842"/>
	<stop  offset="0.5471" style="stop-color:#999B52"/>
	<stop  offset="0.7511" style="stop-color:#B9B669"/>
	<stop  offset="0.959" style="stop-color:#E2D986"/>
	<stop  offset="1" style="stop-color:#EADF8C"/>
</radialGradient>
<path fill="url(#ian_symbols_a8f36963b7137b9441eda87dd993e0f7)" d="M37.789,179.084c-17.451-5.458-5.433-15.463-2.379-30.333c2.093-10.889,3.628-22.021,7.335-32.42
	c2.642-8.026,6.441-22.296,14.766-25.377c7.167-2.769,19.075,0.628,27.306-0.479c7.214-0.702,12.909-1.083,19.486-3.486
	c3.738-1.504,7.534-4.277,11.164-5.259c9.466-2.542,19.687,0.871,28.571,4.208c9.814,3.453,11.907,6.819,16.981,14.924
	c1.807,2.893,4.813,5.673,6.228,8.621c1.503,3.755,1.334,9.588,3.054,12.346c5.542,8.866,19.501,6.729,26.941,12.498
	c3.902,2.854,7.826,11.883,10.8,15.969c9.404,13.685,7.747,32.791,2.068,48.88c-2.947,8.838-8.327,14.534-12.941,22.105
	c-2.204,3.924-2.31,7.173-6.154,8.522c-3.837,1.328-14.501-2.849-18.377-3.597c-21.093-4.482-40.458-12.34-60.507-20.62
	c-14.735-5.894-27.795-10.482-43.063-14.533c-8.639-2.278-16.358-8.485-25.351-9.903L37.789,179.084z"/>
<path fill="#EADF8C" d="M333.693,152.079c-0.496-3.508,2.51-10.273,4.936-14.534c3.775-6.207,7.511-7.036,13.395-7.121
	c9.534-0.417,16.327-1.054,22.783,3.829c7.552,5.278,10.473,5.159,21.314,3.469c10.22-1.291,12.772,4.108,18.005,10.437
	L333.693,152.079z"/>
<radialGradient id="ian_symbols_a026ac4a57cef7b4ddb7d7bb939c48eb" cx="849.2627" cy="381.2251" r="199.4223" gradientTransform="matrix(-0.2476 -0.3023 0.3163 -0.2859 445.2026 560.9673)" gradientUnits="userSpaceOnUse">
	<stop  offset="0" style="stop-color:#707935"/>
	<stop  offset="0.1643" style="stop-color:#767E37"/>
	<stop  offset="0.3504" style="stop-color:#828842"/>
	<stop  offset="0.5471" style="stop-color:#999B52"/>
	<stop  offset="0.7511" style="stop-color:#B9B669"/>
	<stop  offset="0.959" style="stop-color:#E2D986"/>
	<stop  offset="1" style="stop-color:#EADF8C"/>
</radialGradient>
<path fill="url(#ian_symbols_a026ac4a57cef7b4ddb7d7bb939c48eb)" d="M372.021,244.629c7.984,7.341,12.045-3.098,21.621-11.619c6.475-5.948,13.753-12.002,19.827-18.562
	c4.842-5.169,13.575-13.617,13.575-19.767c0.063-5.347-4.978-10.692-6.35-15.598c-1.465-4.383-2.668-7.656-2.415-12.687
	c0.097-2.616,0.972-5.948,0.633-8.517c-0.601-6.392-5.368-10.647-9.648-14.123c-5.001-3.898-7.71-3.46-14.439-2.675
	c-2.406,0.226-5.2-0.136-7.426,0.386c-2.89,0.773-6.687,3.554-9.111,3.78c-7.12,0.855-9.24-8.011-14.915-9.613
	c-3.059-0.796-9.997,0.996-13.625,1.339c-11.729,0.955-24.111,10.364-33.414,20.646c-5.357,5.695-7.721,11.423-11.707,17.317
	c-2.299,3.112-4.324,4.626-4.314,7.373c0.033,2.743,5.517,6.76,7.057,8.554c7.995,10.084,18.384,17.182,28.646,24.807
	c7.752,5.568,14.007,10.8,20.399,17.646c3.796,3.996,10.146,5.336,13.225,9.587L372.021,244.629z"/>
<path fill="#EADF8C" d="M69.904,127.837c6.909-20.256,64.32,2.288,68.997,7.023c4.774,4.883-1.697,13.61,7.342,19.221
	c7.077,4.484,11.466,4.742,14.793,14.129c4.903,13.305,3.143,35.648-14.324,31.483c-11.619-2.944-8.717-10.518-14.93-19.792
	c-2.615-3.471-6.533-5.701-8.827-9.372c-2.473-4.624-0.623-12.561-3.708-16.168c-2.991-4.065-17.677-8.501-22.702-10.446
	c-9.491-3.638-17.94-2.816-23.79-10.859c-1.075-1.026-1.834-2.24-3.095-3.579L69.904,127.837z"/>
<radialGradient id="ian_symbols_290b2b45fe51e974a97cd657e0524720" cx="-43.0898" cy="489.3169" r="147.8068" gradientTransform="matrix(0.6436 0.1313 0.1381 -0.6771 41.1731 554.7613)" gradientUnits="userSpaceOnUse">
	<stop  offset="0" style="stop-color:#707935"/>
	<stop  offset="0.1643" style="stop-color:#767E37"/>
	<stop  offset="0.3504" style="stop-color:#828842"/>
	<stop  offset="0.5471" style="stop-color:#999B52"/>
	<stop  offset="0.7511" style="stop-color:#B9B669"/>
	<stop  offset="0.959" style="stop-color:#E2D986"/>
	<stop  offset="1" style="stop-color:#EADF8C"/>
</radialGradient>
<path fill="url(#ian_symbols_290b2b45fe51e974a97cd657e0524720)" d="M36.623,300.333c-8.458,2.128-24.406-3.008-30.818-9.168c-8.669-7.763-5.496-16.347-3.902-27.338
	c0.849-5.42,0.727-11.094,2.505-16.433c0.442-1.983,4.846-9.195,4.877-9.85c-0.074-4.198-4.709-6.835-5.257-11.159
	c-0.518-3.523,1.508-10.494,2.794-13.858c2.237-8.015,10.509-13.794,12.287-20.44c3.011-10.172-5.074-24.473,5.151-32.538
	c8.005-6.274,15.51,0.28,20.383-9.564c3.312-6.297,3.004-19.702,13.7-16.211c4.767-13.412,43.833-11.45,43.8,2.81
	c7.368,1.572,24.413-0.38,29.104,6.449c3.097,4.245-0.362,12.985-1.322,18.288c8.037,1.957,19.839,2.468,23.634,11.967
	c1.124,3.154-0.169,5.854,0.365,8.711c0.574,3.675,2.506,6.069,3.401,9.562c4.193,14.176-2.625,31.811-5.453,46.311
	c-0.939,4.642-1.318,17.635-4.33,20.989c-4.023,4.438-12.392-0.116-18.5,0.306c-11.222,1.074-35.997,9.743-41.401,20.799
	c-11.164-1.551-25.229-5.696-36.439-2.552c-12.209,3.605-9.839,10.972-12.16,22.204L36.623,300.333z"/>
<radialGradient id="ian_symbols_a508aaded16f1f44f5e524f1619b5240" cx="-43.1455" cy="459.7114" r="110.4393" gradientTransform="matrix(0.6436 0.1313 0.1381 -0.6771 41.1731 554.7613)" gradientUnits="userSpaceOnUse">
	<stop  offset="0" style="stop-color:#707935"/>
	<stop  offset="0.165" style="stop-color:#767E37"/>
	<stop  offset="0.3508" style="stop-color:#828842"/>
	<stop  offset="0.5467" style="stop-color:#999B52"/>
	<stop  offset="0.7496" style="stop-color:#B8B569"/>
	<stop  offset="0.956" style="stop-color:#E1D886"/>
	<stop  offset="1" style="stop-color:#EADF8C"/>
</radialGradient>
<path fill="url(#ian_symbols_a508aaded16f1f44f5e524f1619b5240)" d="M33.923,273.585c-6.092-0.233-9.936-26.105-9.661-31.789c0.243-8.459,6.924-35.176,18.151-26.029
	c-4.087-10.609,0.27-22.688,11.649-24.902c2.917-0.771,9.096-0.379,11.45,1.329c3.538,2.256,4.286,7.541,7.567,8.035
	c11.755,1.783,9.902-20.216,25.35-8.404c6.633,5.2,2.351,11.929,2.416,20.166c11.496,3.427,28.871-2.752,29.099,13.256
	c0.21,9.854-4.299,37.969-11.36,43.022c-5.911,4.103-18.149,1.55-25.502,3.407c-7.278,1.973-12.715,7.53-20.366,9.513
	c-13.02,3.038-27.174-1.286-40.421-0.021c-0.058-1.444-1.061-4.428-1.029-5.073L33.923,273.585z"/>
<path fill="#EADF8C" d="M369.953,78.208c11.411-9.007,35.237,26.436,36.419,31.022c0.76,4.621-5.812,7.039-2.711,14.018
	c2.447,5.278,4.788,6.996,3.481,13.763c-2.005,9.739-10.948,21.921-19.376,12.524c-5.516-6.106-1.128-9.281-1.401-17.202
	c-0.106-2.885-1.836-5.659-1.625-8.743c0.296-3.597,3.84-7.493,3.818-10.875c-0.411-3.38-7.257-11.617-9.354-14.982
	c-4.019-5.757-9.07-8.378-9.557-15.271c-0.264-1.129-0.115-2.288-0.39-3.376L369.953,78.208z"/>
<radialGradient id="ian_symbols_30bb60368d20e404d9740ffe0ad24b40" cx="316.9609" cy="556.3931" r="102.1323" gradientTransform="matrix(0.4641 0.4793 0.4668 -0.4959 -63.665 259.7805)" gradientUnits="userSpaceOnUse">
	<stop  offset="0" style="stop-color:#707935"/>
	<stop  offset="0.1643" style="stop-color:#767E37"/>
	<stop  offset="0.3504" style="stop-color:#828842"/>
	<stop  offset="0.5471" style="stop-color:#999B52"/>
	<stop  offset="0.7511" style="stop-color:#B9B669"/>
	<stop  offset="0.959" style="stop-color:#E2D986"/>
	<stop  offset="1" style="stop-color:#EADF8C"/>
</radialGradient>
<path fill="url(#ian_symbols_30bb60368d20e404d9740ffe0ad24b40)" d="M285.378,165.775c-5.528-2.051-8.026-12.051-9.65-18.042c-1.961-7.889,2.953-11.603,7.511-17.208
	c2.478-2.846,4.281-6.09,7.36-8.643c1.033-1.088,5.864-3.485,6.117-3.829c1.529-2.253-0.147-5.643,1.044-8.517
	c1.171-2.236,4.663-5.469,6.613-7.121c4.188-3.485,10.812-3.774,13.985-6.833c5.547-4.737,5.77-15.925,14.597-16.77
	c6.813-0.645,8.628,6.291,15.125,2.457c3.986-2.484,8.416-10.364,13.142-4.176c7.446-5.728,28.667,10.551,23.626,18.794
	c3.626,3.704,13.92,9.372,14.163,15.188c0.18,3.679-4.819,7.235-7.013,9.876c3.597,4.371,10.041,9.238,8.85,16.163
	c-0.285,2.294-2.215,3.28-2.753,5.121c-0.981,2.52-0.938,4.624-1.603,6.945c-2.701,9.972-12.52,17.392-19.429,24.686
	c-2.067,2.13-7.089,9.734-9.703,10.31c-3.944,1.181-7.257-4.821-10.694-6.909c-6.603-3.738-23.846-8.258-30.681-4.217
	c-5.748-5.116-12.014-13.085-19.544-15.622c-8.437-2.588-14.807,4.171-19.966,9.508L285.378,165.775z"/>
<radialGradient id="ian_symbols_40d6fd81ad4a4b2445732829568c6227" cx="316.9365" cy="538.5356" r="75.2069" gradientTransform="matrix(0.4641 0.4793 0.4668 -0.4959 -63.665 259.7805)" gradientUnits="userSpaceOnUse">
	<stop  offset="0" style="stop-color:#707935"/>
	<stop  offset="0.165" style="stop-color:#767E37"/>
	<stop  offset="0.3508" style="stop-color:#828842"/>
	<stop  offset="0.5467" style="stop-color:#999B52"/>
	<stop  offset="0.7496" style="stop-color:#B8B569"/>
	<stop  offset="0.956" style="stop-color:#E1D886"/>
	<stop  offset="1" style="stop-color:#EADF8C"/>
</radialGradient>
<path fill="url(#ian_symbols_40d6fd81ad4a4b2445732829568c6227)" d="M294.67,146.087c-3.228-2.459,7.088-16.531,8.984-19.638c3.355-4.841,16.517-17.755,19.617-8.021
	c1.54-7.764,8.101-12.919,15.506-9.897c1.687,0.653,4.998,3.252,5.863,5.273c1.203,2.625-0.168,5.864,1.266,7.491
	c6.117,5.744,13.004-7.714,17.255,5.169c2.131,5.458-2.835,7.714-5.673,12.677c5.315,6.444,17.339,9.366,11.738,18.8
	c-3.27,5.659-15.799,20.293-21.694,20.35c-4.916,0.296-10.611-6.095-15.483-7.736c-4.936-1.825-9.86-0.865-14.797-2.642
	c-8.723-3.063-15.092-11.192-22.95-15.631c0.314-0.844,1.075-3.021,1.286-3.374L294.67,146.087z"/>
<path fill="#EADF8C" d="M314.941,143.192c-6.054-11.074-38.549,9.668-41.07,13.131c-2.194,3.312,2.363,7.874-2.479,12.403
	c-4.07,3.613-6.613,4.334-7.879,10.447c-1.856,8.592,1.35,21.9,11.57,17.197c6.908-3.248,4.334-7.362,7.414-13.986
	c1.076-2.371,3.334-4.214,4.314-6.717c1.075-3.022-0.771-7.374,0.803-10.283c1.37-2.558,10.009-7.094,12.761-8.818
	c5.495-3.438,10.62-4.087,13.49-9.719c0.4-0.684,0.821-1.377,1.476-2.393L314.941,143.192z"/>
<radialGradient id="ian_symbols_686d765c0fbde9746989e485bc1da20b" cx="795.5889" cy="748.4448" r="92.4992" gradientTransform="matrix(-0.6148 0.2592 -0.2352 -0.6391 982.2301 473.1057)" gradientUnits="userSpaceOnUse">
	<stop  offset="0" style="stop-color:#707935"/>
	<stop  offset="0.1643" style="stop-color:#767E37"/>
	<stop  offset="0.3504" style="stop-color:#828842"/>
	<stop  offset="0.5471" style="stop-color:#999B52"/>
	<stop  offset="0.7511" style="stop-color:#B9B669"/>
	<stop  offset="0.959" style="stop-color:#E2D986"/>
	<stop  offset="1" style="stop-color:#EADF8C"/>
</radialGradient>
<path fill="url(#ian_symbols_686d765c0fbde9746989e485bc1da20b)" d="M355.698,246.446c5.199,0.169,9.15-7.782,12.694-12.349c4.461-5.771,1.899-10.538,0-16.971
	c-1.117-3.143-1.519-6.519-3.027-9.587c-0.77-1.234-3.934-4.99-3.829-5.485c-0.621-2.372,2.131-4.735,2.204-7.32
	c-0.138-2.287-2.119-6.127-2.942-8.151c-2.268-4.319-7.699-6.872-9.303-10.759c-2.626-5.594,0.738-15.134-6.244-18.856
	c-5.188-2.887-9.261,2.199-13.1-3.287c-2.511-3.307-3.47-11.643-9.757-8.125c-3.891-7.559-27.263-1.451-26.103,7.165
	c-4.387,1.893-14.787,2.879-17.032,7.469c-1.487,3.053,1.476,7.787,2.499,10.772c-4.599,2.22-11.539,4.019-13.12,10.325
	c-0.442,1.95,0.812,3.313,0.653,5.105c-0.169,2.457-0.929,3.965-1.203,6.264c-1.454,9.207,4.261,19.037,7.3,27.326
	c0.939,2.817,2.405,10.611,4.557,12.036c2.637,2.17,8.266,0.659,11.862,0.3c6.729-0.803,21.846-0.766,25.969,5.163
	c6.688-2.258,14.903-6.771,22.086-6.16c7.594,0.579,10.45,8.573,12.856,15.124H355.698z"/>
<radialGradient id="ian_symbols_6c7da8a5feec76a499edc0b792b8524e" cx="795.4736" cy="733.2896" r="67.6549" gradientTransform="matrix(-0.6148 0.2592 -0.2352 -0.6391 982.2301 473.1057)" gradientUnits="userSpaceOnUse">
	<stop  offset="0" style="stop-color:#707935"/>
	<stop  offset="0.165" style="stop-color:#767E37"/>
	<stop  offset="0.3508" style="stop-color:#828842"/>
	<stop  offset="0.5467" style="stop-color:#999B52"/>
	<stop  offset="0.7496" style="stop-color:#B8B569"/>
	<stop  offset="0.956" style="stop-color:#E1D886"/>
	<stop  offset="1" style="stop-color:#EADF8C"/>
</radialGradient>
<path fill="url(#ian_symbols_6c7da8a5feec76a499edc0b792b8524e)" d="M353.079,226.043c3.639-0.991,0.231-16.089-0.297-19.591c-0.928-4.915-7.171-20.376-13.393-13.312
	c1.612-6.938-2.185-13.698-9.397-13.672c-1.688,0.011-5.315,1.028-6.655,2.256c-1.867,1.81-1.867,5.207-3.67,5.702
	c-6.866,2.593-8.1-10.885-16.042-1.888c-3.513,3.913-0.316,7.668,0.221,12.624c-6.792,3.396-17.549,1.834-16.241,11.412
	c0.738,5.927,5.863,22.274,10.694,24.573c3.733,1.931,11.021-1.371,15.503-1.012c4.8,0.231,8.649,2.919,13.332,2.952
	c7.994,0.55,16.315-3.817,24.237-4.724c0.221-0.993,0.273-2.967,0.104-3.261L353.079,226.043z"/>
<path fill="#EADF8C" d="M169.161,190.134c1.793-3.271,0.881-2.055,3.265-4.395c4.936-4.983,4.402-0.424,10.937-1.521
	c11.739-2.25,5.009-13.758,14.486-19.67c5.088-3.407,14.839-2.066,21.082-3.01c7.716-1.198,9.068-1.026,16.81,1.154
	c-22.506,3.428-29.524,28.581-52.823,46.671c-2.7-6.392-12.925-9.135-13.758-15.208L169.161,190.134L169.161,190.134z"/>
<radialGradient id="ian_symbols_d04b50f986700b0411ede7d8e84dfa9c" cx="201.6538" cy="440.7456" r="113.4556" fx="221.3621" fy="393.1337" gradientTransform="matrix(0.6436 0.1313 0.102 -0.5 71.6104 405.4646)" gradientUnits="userSpaceOnUse">
	<stop  offset="0" style="stop-color:#707935"/>
	<stop  offset="0.1643" style="stop-color:#767E37"/>
	<stop  offset="0.3504" style="stop-color:#828842"/>
	<stop  offset="0.5471" style="stop-color:#999B52"/>
	<stop  offset="0.7511" style="stop-color:#B9B669"/>
	<stop  offset="0.959" style="stop-color:#E2D986"/>
	<stop  offset="1" style="stop-color:#EADF8C"/>
</radialGradient>
<path fill="url(#ian_symbols_d04b50f986700b0411ede7d8e84dfa9c)" d="M212.719,243.409c11.486-6.75,13.717-7.91,27.338-5.188c7.779,1.552,20.799,6.772,28.192,3.648
	c3.745-1.495,7.478-5.736,10.537-7.656c4.061-2.3,10.831-4.429,12.477-9.26c3.575-9.915-11.402-13.499-16.675-18.5
	c-2.996-2.794-3.122-5.695-5.822-8.67c-2.7-2.995-7.173-4.661-10.179-8.1c-5.511-6.765-8.289-13.964-15.097-20.103
	c-7.714-7.513-10.188-7.456-20.609-3.702c-9.08,3.132-11.238,2.368-15.415,11.358c-3.085,5.97-1.63,6.941-7.444,11.243
	c-3.265,2.215-8.96,2.617-11.831,4.84c-4.408,3.798-9.085,16.065-8.462,21.845c1.129,22.887,18.078,24.849,35.101,31.619"/>
<path fill="#EADF8C" d="M392.273,267.349c-0.095-3.523,0.813-7.366-0.314-10.498c-2.605-6.223-3.808-2.058-9.522-5.717
	c-10-6.507,0.737-14.47-5.401-23.604c-3.648-5.167-13.067-7.994-18.478-11.2c-6.666-3.923-12.467-7.722-20.419-8.902
	c19.322,11.908,29.048,45.796,34.827,67.29c4.936-5.02,14.828-0.822,17.95-5.959L392.273,267.349z"/>
<radialGradient id="ian_symbols_fb3bdebb1da725042d323aa5babd034e" cx="773.2783" cy="409.2905" r="113.3903" fx="792.975" fy="361.7061" gradientTransform="matrix(-0.6436 -0.1313 0.102 -0.5 767.7092 553.3455)" gradientUnits="userSpaceOnUse">
	<stop  offset="0" style="stop-color:#707935"/>
	<stop  offset="0.1643" style="stop-color:#767E37"/>
	<stop  offset="0.3504" style="stop-color:#828842"/>
	<stop  offset="0.5471" style="stop-color:#999B52"/>
	<stop  offset="0.7511" style="stop-color:#B9B669"/>
	<stop  offset="0.959" style="stop-color:#E2D986"/>
	<stop  offset="1" style="stop-color:#EADF8C"/>
</radialGradient>
<path fill="url(#ian_symbols_fb3bdebb1da725042d323aa5babd034e)" d="M321.798,290.077c-8.29-10.547-1.077-13.223-14.693-15.955c-7.73-1.54-21.632-2.003-27.349-7.771
	c-2.952-2.637-4.683-8.133-6.887-11.023c-2.373-3.796-8.174-8.258-7.604-13.479c0.602-10.619,15.736-8.142,22.401-10.407
	c3.839-1.342,5.116-4.063,8.756-5.707c3.67-1.646,8.553-1.287,12.697-3.461c7.742-3.986,13.101-9.669,21.79-12.761
	c10.021-3.712,12.371-2.625,20.271,4.557c7.193,6.741,9.366,6.866,9.999,16.686c0.327,6.602-1.508,7.088,2.299,13.216
	c2.109,3.363,7.236,6.128,8.732,9.196c2.858,5.241,2.088,18.298-0.591,23.54c-10.188,20.398-26.336,15.621-44.445,15.263
	L321.798,290.077z"/>
<radialGradient id="ian_symbols_3f0774e94adb09c4c16def7c22cecc9e" cx="186.2114" cy="415.4077" r="126.533" gradientTransform="matrix(0.5723 0.3289 0.2242 -0.4179 -27.6754 366.3989)" gradientUnits="userSpaceOnUse">
	<stop  offset="0" style="stop-color:#707935"/>
	<stop  offset="0.1643" style="stop-color:#767E37"/>
	<stop  offset="0.3504" style="stop-color:#828842"/>
	<stop  offset="0.5471" style="stop-color:#999B52"/>
	<stop  offset="0.7511" style="stop-color:#B9B669"/>
	<stop  offset="0.959" style="stop-color:#E2D986"/>
	<stop  offset="1" style="stop-color:#EADF8C"/>
</radialGradient>
<path fill="url(#ian_symbols_3f0774e94adb09c4c16def7c22cecc9e)" d="M112.476,251.678c4.482-6.413,3.951-18.838,8.49-23.795c2.584-2.678,8.353-1.591,11.21-3.817
	c3.782-2.784,3.798-6.202,6.013-10.778c2.991-6.117,7.974-12.403,13.885-16.548c9.72-6.908,14.471-2.016,23.736,2.604
	c7.213,3.354,16.057,5.264,22.054,11.507c5.33,5.79,6,14.312,10.8,20.661c3.191,3.733,5.257,4.999,6.819,9.535
	c1.398,3.607-0.332,7.645,1.081,11.243c1.414,2.951,5.285,3.711,7.077,7.255c1.704,4.051,0.242,9.218,0.315,13.416
	c0.248,18.108,4.53,29.024-16.642,35.27c-17.561,5.23-39.811-3.176-57.808-3.407c-10.405-0.285-34.435,1.339-38.565-12.024
	c-3.723-12.119,7.304-27.097,3.175-39.814L112.476,251.678z"/>
<radialGradient id="ian_symbols_7d82487c18131124b516ee07a17d8d14" cx="123.1621" cy="362.3081" r="81.4046" gradientTransform="matrix(0.6436 0.1313 0.1105 -0.5417 61.4393 455.3508)" gradientUnits="userSpaceOnUse">
	<stop  offset="0" style="stop-color:#707935"/>
	<stop  offset="0.165" style="stop-color:#767E37"/>
	<stop  offset="0.3508" style="stop-color:#828842"/>
	<stop  offset="0.5467" style="stop-color:#999B52"/>
	<stop  offset="0.7496" style="stop-color:#B8B569"/>
	<stop  offset="0.956" style="stop-color:#E1D886"/>
	<stop  offset="1" style="stop-color:#EADF8C"/>
</radialGradient>
<path fill="url(#ian_symbols_7d82487c18131124b516ee07a17d8d14)" d="M134.335,293.476c2.427-11.064,3.687-19.934,3.292-30.111c-0.244-8.555,1.216-14.354,4.724-21.653
	c12.029-24.922,27.222,2.753,45.067-2.026c5.025-1.443,3.78-3.438,10.114-3.553c2.504-0.076,9.692-0.105,11.785,0.507
	c5.542,2.065,10.979,10.756,13.289,17.17c4.863,14.596-4.313,33.938-16.399,41.07c-9.069,5.23-26.479,8.688-36.423,7.698
	c-5.896-0.579-34.842-1.164-35.27-7.312L134.335,293.476z"/>
<path fill="#EADF8C" d="M97.791,247.903c-1.673-8.1-24.502-1.075-26.415,0.549c-2.263,1.857-0.168,5.212-3.708,7.022
	c-2.852,1.54-4.556,1.552-6.254,4.959c-2.447,4.915-2.616,13.51,4.021,12.582c4.63-0.771,4.01-3.808,6.625-7.108
	c1.228-1.425,2.658-1.908,3.796-3.45c1.049-1.719,0.922-4.64,2.174-6.052c1.243-1.371,6.876-2.572,9.08-3.122
	c3.861-1.34,6.819-0.653,9.629-3.661c0.196-0.337,0.822-0.728,1.034-1.085"/>
<radialGradient id="ian_symbols_242d2143d3d09034e59d71927490b9b4" cx="1186.6279" cy="620.9204" r="57.63" gradientTransform="matrix(-0.6551 0.0807 -0.064 -0.685 907.0767 612.4573)" gradientUnits="userSpaceOnUse">
	<stop  offset="0" style="stop-color:#707935"/>
	<stop  offset="0.1643" style="stop-color:#767E37"/>
	<stop  offset="0.3504" style="stop-color:#828842"/>
	<stop  offset="0.5471" style="stop-color:#999B52"/>
	<stop  offset="0.7511" style="stop-color:#B9B669"/>
	<stop  offset="0.959" style="stop-color:#E2D986"/>
	<stop  offset="1" style="stop-color:#EADF8C"/>
</radialGradient>
<path fill="url(#ian_symbols_242d2143d3d09034e59d71927490b9b4)" d="M105.841,316.88c3.2,1.012,7.09-2.594,9.947-4.8c3.475-2.594,2.691-5.916,2.506-10.282
	c-0.032-2.109,0.016-4.039-0.196-6.444c-0.395-0.622-1.719-3.416-1.519-3.744c0.147-1.815,1.884-2.427,2.441-4.293
	c0.136-1.149-0.286-3.848-0.333-5.304c-0.712-3.175-3.434-5.507-4.161-8.016c-0.501-4.177,3.143-9.197-0.349-12.772
	c-2.906-2.626-6.09-0.221-7.673-4.125c-0.821-2.678-0.169-7.741-4.509-6.526c-1.249-5.391-16.331-5.748-16.802-0.327
	c-2.811,0.253-9.371-0.739-11.317,1.562c-1.576,1.582-0.363,4.883-0.316,6.972c-3.022,0.62-7.82,0.441-9.417,3.986
	c-0.639,1.034-0.274,2.277-0.517,3.28c-0.422,1.35-1.157,2.215-1.682,3.396c-2.174,5.401-0.37,12.34,0.164,17.961
	c-0.032,1.951-0.396,6.825,0.79,8.027c1.229,1.983,4.573,0.538,6.835,0.803c4.299,0.727,13.273,4.893,15.129,9.238
	c4.13-0.222,9.782-1.413,14.018-0.031c4.555,1.823,4.893,7.13,5.483,11.443h1.477V316.88z"/>
<radialGradient id="ian_symbols_8a729035763ed5f4bdc26eba7603c503" cx="1186.6279" cy="611.1108" r="42.4479" gradientTransform="matrix(-0.6551 0.0807 -0.064 -0.685 907.0767 612.4573)" gradientUnits="userSpaceOnUse">
	<stop  offset="0" style="stop-color:#707935"/>
	<stop  offset="0.165" style="stop-color:#767E37"/>
	<stop  offset="0.3508" style="stop-color:#828842"/>
	<stop  offset="0.5467" style="stop-color:#999B52"/>
	<stop  offset="0.7496" style="stop-color:#B8B569"/>
	<stop  offset="0.956" style="stop-color:#E1D886"/>
	<stop  offset="1" style="stop-color:#EADF8C"/>
</radialGradient>
<path fill="url(#ian_symbols_8a729035763ed5f4bdc26eba7603c503)" d="M107.815,304.751c2.22,0.127,2.683-9.979,2.749-11.929c0.395-3.439-1.309-13.638-5.787-10.611
	c1.916-3.755,0.939-8.681-3.6-9.871c-1.001-0.222-3.312-0.476-4.226,0.095c-1.535,0.96-1.987,2.943-3.279,2.9
	c-4.509,0.265-2.87-8.005-9.292-3.975c-2.647,1.856-1.428,4.503-1.913,7.782c-4.541,0.931-10.647-2.058-11.545,4.019
	c-0.595,3.776-0.136,14.745,2.521,16.928c1.948,1.74,6.973,0.95,9.646,1.825c2.868,1.171,4.71,3.428,7.352,4.302
	c4.874,1.668,10.526,0.465,15.276,1.309c0.105-0.494,0.746-1.507,0.881-2.013L107.815,304.751z"/>
<path fill="#EADF8C" d="M256.391,199.786c-2.391-10.64-33.161-1.412-35.925,0.961c-2.868,2.226,0.089,6.971-4.999,9.726
	c-3.87,1.972-6.044,1.865-8.58,6.633c-3.086,6.604-3.433,18.299,5.88,16.917c6.149-1.054,4.952-4.978,8.884-9.564
	c1.456-1.764,3.813-2.794,4.843-4.503c1.791-2.596,1.097-6.454,2.857-8.375c1.745-1.962,9.703-3.524,12.513-4.44
	c5.059-1.444,9.355-0.729,12.835-4.631c0.85-0.728,1.35-1.255,1.866-1.78"/>
<radialGradient id="ian_symbols_98f8e93d990271c4e161335bc912dfb0" cx="946.3779" cy="644.9028" r="77.9333" gradientTransform="matrix(-0.6551 0.0807 -0.064 -0.685 907.0767 612.4573)" gradientUnits="userSpaceOnUse">
	<stop  offset="0" style="stop-color:#707935"/>
	<stop  offset="0.1643" style="stop-color:#767E37"/>
	<stop  offset="0.3504" style="stop-color:#828842"/>
	<stop  offset="0.5471" style="stop-color:#999B52"/>
	<stop  offset="0.7511" style="stop-color:#B9B669"/>
	<stop  offset="0.959" style="stop-color:#E2D986"/>
	<stop  offset="1" style="stop-color:#EADF8C"/>
</radialGradient>
<path fill="url(#ian_symbols_98f8e93d990271c4e161335bc912dfb0)" d="M264.01,290.84c4.271,1.381,12.73-0.719,16.802-3.714c4.62-3.511,3.755-8.268,3.343-13.743
	c-0.138-2.89,0.453-6.032-0.368-8.73c0.042-1.276-1.856-4.959-1.731-5.463c-0.041-2.131,2.596-3.354,3.271-5.666
	c0.231-1.653-0.357-5.303-0.695-7.224c-0.864-4.122-4.683-7.488-5.264-11.158c-1.074-5.062,4.167-12.381-0.905-17.064
	c-3.797-3.376-8.006-0.549-10.04-5.863c-1.193-3.271-0.391-10.168-6.035-8.966c-1.803-6.94-22.159-7.625-22.991-0.073
	c-3.918,0.517-12.682-1.235-15.662,2.142c-1.672,2.087-0.411,6.813-0.074,9.385c-4.525,0.908-10.606,0.687-13.167,5.464
	c-0.734,1.528,0.121,2.911-0.639,4.43c-0.533,1.836-1.478,3.059-2.125,4.745c-3.116,7.257-0.58,16.729,0.286,24.238
	c0.215,2.414-0.575,9.282,0.944,11.095c1.638,2.607,6.318,0.527,9.597,1.023c5.588,0.771,17.997,6.402,20.138,12.499
	c6.019-0.569,13.548-2.099,19.097-0.021c6.213,2.468,6.834,9.534,7.562,15.439"/>
<radialGradient id="ian_symbols_b3ebddac60c0892449ec0caa8f2e7e27" cx="946.4922" cy="630.9888" r="57.4878" gradientTransform="matrix(-0.6551 0.0807 -0.064 -0.685 907.0767 612.4573)" gradientUnits="userSpaceOnUse">
	<stop  offset="0" style="stop-color:#707935"/>
	<stop  offset="0.165" style="stop-color:#767E37"/>
	<stop  offset="0.3508" style="stop-color:#828842"/>
	<stop  offset="0.5467" style="stop-color:#999B52"/>
	<stop  offset="0.7496" style="stop-color:#B8B569"/>
	<stop  offset="0.956" style="stop-color:#E1D886"/>
	<stop  offset="1" style="stop-color:#EADF8C"/>
</radialGradient>
<path fill="url(#ian_symbols_b3ebddac60c0892449ec0caa8f2e7e27)" d="M267.227,276.926c2.995,0.056,6.297-13.056,6.561-15.988c0.23-4.387-1.436-18.647-8.08-14.302
	c2.985-5.463,1.16-11.771-4.599-13.487c-1.181-0.519-4.582-0.54-5.799,0.22c-1.942,1.012-2.717,3.839-4.404,3.839
	c-6.424,0.612-4.192-10.778-12.666-5.273c-3.967,2.48-2.068,6.17-2.495,10.272c-6.346,1.414-14.824-2.637-15.962,5.729
	c-0.65,5.071,0.109,19.9,3.649,22.79c2.794,2.523,9.322,1.394,12.803,2.838c3.855,1.424,6.272,4.588,10.326,5.654
	c6.534,2.297,13.975,0.621,20.962,1.592c0.021-0.655,0.759-2.203,0.568-2.499"/>
<path fill="#EADF8C" d="M358.91,314.833c4.831-1.097,9.776-6.116,12.498-9.944c3.46-5.348,1.234-8.218-4.629-12.836
	c-8.597-6.94-14.039-12.255-25.872-14.85c-13.395-3.101-16.128-5.42-24.786-13.836c-8.048-8.144-24.82-5.442-37.021-6.561
	L358.91,314.833z"/>
<radialGradient id="ian_symbols_2b244b32263a0814155a95ec6dd9b85c" cx="352.8447" cy="325.5239" r="135.8751" gradientTransform="matrix(0.8614 0.0712 0.0484 -0.5134 -31.3984 462.1256)" gradientUnits="userSpaceOnUse">
	<stop  offset="0" style="stop-color:#707935"/>
	<stop  offset="0.1643" style="stop-color:#767E37"/>
	<stop  offset="0.3504" style="stop-color:#828842"/>
	<stop  offset="0.5471" style="stop-color:#999B52"/>
	<stop  offset="0.7511" style="stop-color:#B9B669"/>
	<stop  offset="0.959" style="stop-color:#E2D986"/>
	<stop  offset="1" style="stop-color:#EADF8C"/>
</radialGradient>
<path fill="url(#ian_symbols_2b244b32263a0814155a95ec6dd9b85c)" d="M219.845,329.923c-16.116-2.678-13.991-10.788-13.169-21.051c0.802-7.541,1.033-15.345,2.827-22.632
	c1.592-5.655,2.974-15.674,10.268-18.299c6.164-2.375,17.222-1.005,24.237-1.974c6.639-0.972,11.759-1.613,17.228-3.755
	c3.12-1.106,6.285-3.523,9.618-4.304c7.973-2.235,17.444-0.705,25.755,1.076c9.261,1.878,11.402,3.944,16.846,9.261
	c1.94,1.749,5.083,3.396,6.834,5.494c1.835,2.258,2.31,6.425,4.177,8.037c6.106,5.728,18.268,3.439,25.576,6.931
	c3.649,1.771,8.5,7.467,11.517,10.249c9.831,8.944,10.737,21.971,7.616,33.265c-1.698,6.172-5.813,10.443-9.071,16.075
	c-1.677,2.763-1.466,5.189-4.608,6.287c-3.218,0.979-13.047-1.192-16.654-1.479c-19.659-1.54-37.988-5.79-56.785-9.997
	c-13.604-3.398-26.029-5.613-40.294-7.322c-7.956-1.181-15.752-4.807-23.757-5.355"/>
<path fill="#EADF8C" d="M134.514,301.229c1.488-3.059,1.673-8.912,4.024-11.222c4.651-4.831,4.117-0.23,10.663-1.351
	c11.728-2.237,4.982-13.754,14.46-19.67c5.516-3.45,15.172-2.247,21.083-2.995c7.73-1.214,14.688-2.362,22.402-0.181
	c-22.492,3.449-44.592,30.65-58.399,47.988c-2.416-6.561-13.411-4.271-14.233-10.333V301.229L134.514,301.229z"/>
<radialGradient id="ian_symbols_0e7f198b89398e94b1c57fa995a62679" cx="182.5278" cy="282.564" r="113.4205" fx="202.23" fy="234.9668" gradientTransform="matrix(0.6436 0.1313 0.102 -0.5 65.9317 433.3113)" gradientUnits="userSpaceOnUse">
	<stop  offset="0" style="stop-color:#707935"/>
	<stop  offset="0.1643" style="stop-color:#767E37"/>
	<stop  offset="0.3504" style="stop-color:#828842"/>
	<stop  offset="0.5471" style="stop-color:#999B52"/>
	<stop  offset="0.7511" style="stop-color:#B9B669"/>
	<stop  offset="0.959" style="stop-color:#E2D986"/>
	<stop  offset="1" style="stop-color:#EADF8C"/>
</radialGradient>
<path fill="url(#ian_symbols_0e7f198b89398e94b1c57fa995a62679)" d="M181.845,350.51c11.496-6.75,10.736-10.767,23.968-8.002c7.835,1.698,20.882,6.938,28.582,3.597
	c3.434-1.286,7.157-5.506,10.226-7.437c3.959-2.468,10.826-4.43,12.465-9.28c3.602-9.894-11.099-13.667-16.658-18.489
	c-3.012-2.793-3.132-5.694-5.744-8.512c-2.81-3.143-7.276-4.83-10.346-8.416c-5.42-6.601-8.217-13.795-14.712-20.113
	c-7.99-7.371-10.501-7.264-20.599-3.732c-9.404,3.322-11.561,2.563-15.736,11.549c-2.78,5.78-1.624,6.95-7.23,10.885
	c-3.46,2.594-9.292,2.826-11.74,5c-4.708,4.007-9.069,16.094-8.765,22.031c1.444,22.707,18.363,24.65,35.101,31.643L181.845,350.51z
	"/>
<path fill="#EADF8C" d="M387.44,283.626c-1.961-7.922-24.796-0.877-26.736,0.747c-1.951,1.666-0.053,5.357-3.596,7.141
	c-2.953,1.423-4.579,1.58-6.266,4.987c-2.446,4.917-2.594,13.522,4.346,12.383c4.219-0.718,3.618-3.755,6.286-6.919
	c1.287-1.402,2.89-2.215,3.818-3.438c1.055-1.73,0.844-4.778,2.089-6.202c1.233-1.413,7.276-2.639,9.091-3.145
	c3.914-1.158,6.813-0.632,9.683-3.491c0.212-0.347,0.749-0.875,1.37-1.256L387.44,283.626z"/>
<radialGradient id="ian_symbols_ff3660662697dbe455f2745b41fba73e" cx="754.7705" cy="517.6187" r="57.7489" gradientTransform="matrix(-0.6551 0.0807 -0.064 -0.685 907.0767 612.4573)" gradientUnits="userSpaceOnUse">
	<stop  offset="0" style="stop-color:#707935"/>
	<stop  offset="0.1643" style="stop-color:#767E37"/>
	<stop  offset="0.3504" style="stop-color:#828842"/>
	<stop  offset="0.5471" style="stop-color:#999B52"/>
	<stop  offset="0.7511" style="stop-color:#B9B669"/>
	<stop  offset="0.959" style="stop-color:#E2D986"/>
	<stop  offset="1" style="stop-color:#EADF8C"/>
</radialGradient>
<path fill="url(#ian_symbols_ff3660662697dbe455f2745b41fba73e)" d="M395.791,352.802c3.186,1.001,6.479-2.594,9.347-4.809c3.471-2.596,2.68-5.929,2.596-10.136
	c-0.147-2.247,0.222-4.367-0.222-6.434c-0.148-0.981-1.487-3.745-1.572-3.903c0.232-1.655,1.878-2.436,2.532-4.125
	c0.422-1.35-0.084-4.217-0.443-5.462c-0.621-3.017-3.438-5.484-3.87-8.217c-0.687-3.828,2.857-9.008-0.622-12.572
	c-2.848-2.499-6.096-0.23-7.679-4.136c-0.718-2.509-0.086-7.582-4.197-6.717c-1.562-5.189-16.347-5.725-17.003,0
	c-2.826,0.274-9.176-1.054-11.453,1.414c-1.15,1.569-0.254,5.04-0.296,6.993c-3.026,0.621-7.414,0.39-9.43,3.976
	c-0.632,1.034-0.264,2.287-0.484,3.29c-0.422,1.338-1.159,2.215-1.604,3.545c-2.257,5.24-0.483,12.19,0.085,17.812
	c0.231,1.74-0.433,6.835,0.864,8.165c1.139,1.845,4.473,0.391,6.878,0.801c4.176,0.579,13.542,4.714,14.997,9.103
	c4.43-0.422,9.768-1.413,14.133,0.104c4.43,1.677,5.085,6.803,5.337,11.308H395.791L395.791,352.802z"/>
<radialGradient id="ian_symbols_219a1c8dff3aa4342dd9a02947f9b4db" cx="754.8584" cy="507.8755" r="42.2281" gradientTransform="matrix(-0.6551 0.0807 -0.064 -0.685 907.0767 612.4573)" gradientUnits="userSpaceOnUse">
	<stop  offset="0" style="stop-color:#707935"/>
	<stop  offset="0.165" style="stop-color:#767E37"/>
	<stop  offset="0.3508" style="stop-color:#828842"/>
	<stop  offset="0.5467" style="stop-color:#999B52"/>
	<stop  offset="0.7496" style="stop-color:#B8B569"/>
	<stop  offset="0.956" style="stop-color:#E1D886"/>
	<stop  offset="1" style="stop-color:#EADF8C"/>
</radialGradient>
<path fill="url(#ian_symbols_219a1c8dff3aa4342dd9a02947f9b4db)" d="M397.48,340.462c2.509-0.063,2.448-9.629,2.406-11.706c0.422-3.46-0.876-13.692-5.695-10.494
	c2.151-4.063,0.864-8.809-3.281-10.052c-1.087-0.357-3.617-0.297-4.503,0.274c-1.623,0.8-2.088,2.805-3.301,2.911
	c-4.504,0.251-2.942-8.154-9.271-3.978c-2.742,1.719-1.435,4.503-2.015,7.646c-4.557,0.909-10.642-2.046-11.443,4.177
	c-0.603,3.777,0.169,14.535,2.426,16.75c2.341,1.729,6.961,0.947,9.725,1.991c2.773,1.045,4.608,3.301,7.267,4.165
	c4.946,1.793,10.493,0.443,15.578,1.098c0.21-0.337,0.464-1.328,0.653-1.676L397.48,340.462z"/>
</svg>
