<?xml version="1.0" encoding="utf-8"?>
<!-- Generator: Adobe Illustrator 15.0.2, SVG Export Plug-In . SVG Version: 6.00 Build 0)  -->
<!DOCTYPE svg PUBLIC "-//W3C//DTD SVG 1.1//EN" "http://www.w3.org/Graphics/SVG/1.1/DTD/svg11.dtd">
<svg version="1.1" id="Layer_1" xmlns="http://www.w3.org/2000/svg" xmlns:xlink="http://www.w3.org/1999/xlink" x="0px" y="0px"
	 width="553px" height="306px" viewBox="0 0 553 306" enable-background="new 0 0 553 306" xml:space="preserve">
<g id="kwiKEQ.tif">
	<g>
		<path fill-rule="evenodd" clip-rule="evenodd" d="M217,5c0.581-0.082,0.89,0.11,1,0.5c-2.751,4.027-7.782,11.691-3.5,18
			c11.058-1.109,12.355-11.979,21-15.5c-1.895,4.612-5.991,11.771-4,17c6.266-0.439,7.56-5.999,12.5-8.5
			c2.591-1.312,5.49-2.239,8.5-3.5c-1.641,5.193-8.426,5.241-8,12.5c4.281,1.741,7.836-1.848,11.5-4c2.762-1.622,5.087-3.896,8-4.5
			c-1.342,4.435-7.82,6.029-7,11c7.756,1.235,15.781-4.192,23-3.5c0.152,2.486-3.872,0.795-4,3c0.249,2.251,0.962,4.038,2,5.5
			c8.789,1.664,11.77-5.572,20-6c-1.812,3.731-8.572,5.723-4.5,11c6.938,0.24,9.483-6.474,15-6c-0.096,3.071-1.967,4.366-2.5,7
			c5.045,1.29,10.154-4.09,15-3c-0.835,3.332-5.394,2.939-5,7.5c6.995,2.621,11.857-1.477,18-2.5c1.2,3.081-2.941,4.12-3.5,7
			c5.545-0.455,10.456-1.543,16-2c1.472,2.092-2.346,2.447-2.5,4.5c6.591-0.21,10.946-2.934,20.5-2.5
			c2.604,0.118,4.973,0.635,7.5,0.5c6.704-0.358,12.055-2.366,20-1.5c2.82,0.307,5.548,0.642,8.5,1c16.319,1.982,34.295,3.6,45,10
			c1.863,0.47,4.419,0.248,5.5,1.5c-0.607,2.42-1.67,4.641-1.5,6.5c-0.951,2.308-3.484,2.795-5,4.5
			c-6.753,7.597-8.157,20.423-19.5,24c-0.482,2.983,3.062,1.938,3,4.5c-0.577,2.589-3.356,2.977-6.5,3
			c-3.962,8.144-16.111,9.826-28.5,11c-4.452,0.422-9.33-0.502-13,1.5c7.973,0.76,17.76,3.677,26.5,2.5
			c13.397-1.804,27.061-13.029,38-19.5c4.173-2.468,8.478-4.258,12.5-6.5c7.933-4.423,15.039-10.721,23-15
			c3.982-2.14,8.636-4,13.5-5.5c8.102-2.498,21.278-6.507,26.5,1.5c0.595,0.912,0.871,3.119,1.5,4.5c0.752,1.649,1.808,2.956,2,4
			c0.832,4.517-1.438,6.329,1.5,9.5c-1.441,5.324-1.139,9.575-1,16c-1.602,0.732-2.218,2.449-5,2c0.833,1.667,4.345,0.656,5,2.5
			c0.531,2.531-1.479,2.522-2,4c4.419,0.915,5.794,4.873,8,8c0.055,16.893,0.446,38.435-2,54.5c-0.687,4.508,0.479,8.923,0,13
			c-1.005,8.538-5.315,12.327-13,16c-4.891-0.873-9.271,2.597-14,2.5c-1.617-0.033-3.054-1.169-4.5-1.5
			c-6.554-1.501-12.992-2.415-19.5-4.5c-3.014-0.966-6.094-1.882-9-3c-2.748-1.057-5.311-2.692-8-3.5
			c-1.068-0.321-2.368,0.234-3.5,0c-2.295-0.476-5.496-2.032-8-3c-7.49-2.895-15.966-6.156-22.5-10c-3.625,0.935-6.356-2.342-10-3
			c-3.354-0.606-8.535-0.277-13,0c-10.82,0.672-21.457,1.527-29,4.5c3.794,4.229,12.266,4.459,18.5,6.5
			c2.097,0.687,3.794,2.242,5.5,3c1.618,0.215,4.324-0.658,4.5,1c2.665,0.198-1.337,2.475,0.5,3.5c5.407,2.169,8.739,7.362,13,11
			c2.15,1.836,4.648,2.79,6.5,5c1.499,1.789,2.036,4.306,3.5,6c3.127,3.618,8.23,5.249,10,10c3.448,1.219,5.76,3.574,7,7
			c-4.472,2.194-9.599,3.735-15.5,4.5c-1.706,1.138,2.281,1.938,0.5,3c-0.945,0.992-2.362,0.243-3.5,0
			c-6.765,4.584-17.962,5.986-29,6.5c-13.813,0.643-28.701-0.742-39.5-3.5c-1.608,0.802,1.759,1.869,0,3
			c-9.268-4.398-20.051-7.282-30-11c-0.864,4.296,4.288,4.91,3.5,7.5c-6.081-2.291-11.268-6.714-17.5-10
			c-2.874-1.516-5.791-3.423-9-5c-4.368-2.147-7.806-3.53-13-3.5c-13.542,0.078-30.079-0.103-47,0c-0.637,3.804,1.508,4.825,1,8.5
			c1.151,1.016,1.931,2.402,3,3.5c2.272,16.763-1.026,34.987,9,43c2.633,2.104,6.691,3.659,10,5c3.093,1.254,7.25,1.215,9.5,4
			c-1.578,2.465-4.401,0.395-6,0c-8.446-2.085-19.17-4.473-27.5-8c-2.91-1.232-5.909-3.012-9-5c-5.195-3.341-8.227-6.296-15.5-4.5
			c-3.89-2.602-8.229-2.538-12-4.5c-7.172-3.732-12.772-10.856-17.5-17.5c-4.892-6.874-9.167-14.705-13-22
			c-9.938-4.981-27.119-7.573-40-10.5c-9.184-2.087-18.389-4.312-26.5-7.5c-1.377-0.541-2.717-0.748-4-1.5
			c-0.979-0.574-1.736-1.926-3-2.5c-4.194-1.906-9.21-1.696-13.5-2.5c-20.028-3.751-32.863-16.607-47-27
			c-11.789-3.211-20.193-9.807-23-22c2.169-1.998,6.098-2.235,10.5-2c-1.445-6.509-14.005-10.236-7-17.5
			c1.193-0.807,3.203-0.797,4.5-1.5c8.09-8.033,17.679-14.335,26.5-21.5c8.832-7.174,17.143-14.968,26.5-21.5
			c18.618-12.997,39.049-24.665,63.5-32c4.662-7.338,2.84-21.16,8-28c3.249,0.418-0.096,7.429,2.5,8.5c3.66-1.316,3.909-6.593,6-10
			c1.942-3.165,4.231-6.402,7-8.5c0.698,2.19-1.222,5.662-1.5,8.5c7.025,2.789,9.271-6.184,12-11.5c2.628-5.119,4.372-9.628,8.5-11
			c-1.693,3.851-2.958,10.649-1.5,16c11.576-0.59,9.714-14.619,18.5-18c-0.366,3.19-4.752,8.071-2.5,14
			c5.345,1.322,6.38-4.161,8.5-7C210.523,11.621,214.741,8.676,217,5z"/>
	</g>
</g>
</svg>
