<?xml version="1.0" encoding="UTF-8" standalone="no"?>
	<svg xmlns:rdf="http://www.w3.org/1999/02/22-rdf-syntax-ns#" xmlns="http://www.w3.org/2000/svg" height="" width="" xmlns:cc="http://creativecommons.org/ns#" xmlns:xlink="http://www.w3.org/1999/xlink" xmlns:dc="http://purl.org/dc/elements/1.1/">
	<title>Fishing</title>
<desc xmlns:ian_image_library="http://ian.umces.edu/imagelibrary/">
      <ian_image_library:title>Fishing</ian_image_library:title>
      <ian_image_library:descr>Icon representing a fishery.</ian_image_library:descr>
      <ian_image_library:scene>
		<ian_image_library:contains>symbol,vector,illustration,fishing,economy,revenue,seafood,industry,food,trade</ian_image_library:contains>
        <ian_image_library:when>2016-05-01</ian_image_library:when>
	  </ian_image_library:scene>
   </desc>
    <metadata
		id="metadata-iil-d245d0f3ccadb3341d416f9a4bfc7d1e">
      <rdf:RDF>
      <cc:Work
         rdf:about="">
        <dc:format>image/svg+xml</dc:format>
        <dc:type
           rdf:resource="http://purl.org/dc/dcmitype/StillImage" />
        <cc:license
           rdf:resource="http://creativecommons.org/licenses/by-sa/3.0/" />
        <dc:title>Fishing</dc:title>
		<dc:date>2016-05-01</dc:date>
        <dc:creator>
			<cc:Agent>
				<dc:title>Jane Hawkey</dc:title>
			</cc:Agent>
		</dc:creator>
		<dc:rights>
          <cc:Agent>
            <dc:title>Jane Hawkey, Integration and Application Network</dc:title>
          </cc:Agent>
        </dc:rights>
        <dc:publisher>
          <cc:Agent>
            <dc:title>Integration and Application Network</dc:title>
          </cc:Agent>
        </dc:publisher>
		<dc:identifier>http://ian.umces.edu/imagelibrary/displayimage-9291.html</dc:identifier>
        <dc:source>http://ian.umces.edu/imagelibrary/displayimage-9291.html</dc:source>
        <dc:language>en-US</dc:language>
        <dc:subject>
          <rdf:Bag>
            <rdf:li>symbol,vector,illustration,fishing,economy,revenue,seafood,industry,food,trade</rdf:li>
          </rdf:Bag>
        </dc:subject>
        <dc:coverage></dc:coverage>
        <dc:description>Icon representing a fishery.</dc:description>
        <dc:contributor>
          <cc:Agent>
            <dc:title></dc:title>
          </cc:Agent>
        </dc:contributor>
      </cc:Work>
      <cc:License
         rdf:about="http://creativecommons.org/licenses/by-sa/3.0/">
        <cc:permits
           rdf:resource="http://creativecommons.org/ns#Reproduction" />
        <cc:permits
           rdf:resource="http://creativecommons.org/ns#Distribution" />
        <cc:requires
           rdf:resource="http://creativecommons.org/ns#Notice" />
        <cc:requires
           rdf:resource="http://creativecommons.org/ns#Attribution" />
        <cc:permits
           rdf:resource="http://creativecommons.org/ns#DerivativeWorks" />
        <cc:requires
           rdf:resource="http://creativecommons.org/ns#ShareAlike" />
      </cc:License>
    </rdf:RDF>
  </metadata>
	
<g>
	<title>Layer 1</title>
	<path id="ian_symbols_ddc1a1d29dc9d38439cf01981dc65816" fill="#00ADEE" d="M499,50.7C310.5,36.8,184,171.3,184,177.5c0,6.3,90.6,62.3,90.3,69.1
		C274,253.5,117,319.8,117,325s102.9,96.1,383,85.3L499,50.7L499,50.7z M394,230.5c-34.1,0-61.7-27.6-61.7-61.7s27.6-61.7,61.7-61.7
		s61.7,27.6,61.7,61.7S428.1,230.5,394,230.5z"/>
	<path id="ian_symbols_58c3da4415458fe45de12fd8b21058dc" d="M209.2,43.7c0,0-185.2,150-196.4,161.5s-17.2,26.5-8.9,65.4s52.2,46.2,67.9,43.4c15.7-2.8,49.4,8,88.6-108.8
		l-90.8,53.2l27.8,8.9c0,0-16.1,18.4-30,18.9s-31.8-17.3-35.7-22.3s-8-32.3,6.7-44.5s188-156.8,188-156.8c17.7,10,38.1-3.3,38.1-3.3
		s22.1-15.6,0-44.5s-44.4-6.7-44.4-6.7S202.4,16,209.2,43.7L209.2,43.7z"/>
</g>
</svg>
