<?xml version="1.0" encoding="utf-8"?>
<!-- Generator: Adobe Illustrator 15.0.2, SVG Export Plug-In . SVG Version: 6.00 Build 0)  -->
<!DOCTYPE svg PUBLIC "-//W3C//DTD SVG 1.1//EN" "http://www.w3.org/Graphics/SVG/1.1/DTD/svg11.dtd">
<svg version="1.1"
	 id="Layer_1" xmlns:dc="http://purl.org/dc/elements/1.1/" xmlns:cc="http://creativecommons.org/ns#" xmlns:rdf="http://www.w3.org/1999/02/22-rdf-syntax-ns#"
	 xmlns="http://www.w3.org/2000/svg" xmlns:xlink="http://www.w3.org/1999/xlink" x="0px" y="0px" width="501px" height="311px"
	 viewBox="0 0 501 311" enable-background="new 0 0 501 311" xml:space="preserve">
<title>Chaetodon lineolatus (Lined Butterflyfish)</title>
<desc  xmlns:ian_image_library="http://ian.umces.edu/imagelibrary/">
	<ian_image_library:title>Chaetodon lineolatus (Lined Butterflyfish)</ian_image_library:title>
	<ian_image_library:descr>Illustration of Chaetodon lineolatus (Lined Butterflyfish)</ian_image_library:descr>
	<ian_image_library:scene>
		<ian_image_library:contains>
			symbol,vector,illustration,fish,lined,butterflyfish,Chordata,Actinopterygii,Perciformes,Chaetodontidae,Chaetodon,lineolatus,Pacific,marine
			</ian_image_library:contains>
		<ian_image_library:when>2006-08-07</ian_image_library:when>
	</ian_image_library:scene>
</desc>
<radialGradient id="SVGID_1_" cx="330.5547" cy="-28.833" r="134.5777" gradientTransform="matrix(1 0 0 -1 -196 106)" gradientUnits="userSpaceOnUse">
	<stop  offset="0" style="stop-color:#E5E5E5"/>
	<stop  offset="0.3807" style="stop-color:#E4E4E4"/>
	<stop  offset="0.5385" style="stop-color:#E1E1E1"/>
	<stop  offset="0.6551" style="stop-color:#DADADA"/>
	<stop  offset="0.7514" style="stop-color:#D1D1D1"/>
	<stop  offset="0.8351" style="stop-color:#C5C5C5"/>
	<stop  offset="0.9102" style="stop-color:#B6B6B6"/>
	<stop  offset="0.9771" style="stop-color:#A4A4A4"/>
	<stop  offset="1" style="stop-color:#9D9D9D"/>
</radialGradient>
<path fill="url(#SVGID_1_)" stroke="#2B2B2B" stroke-width="0.2068" d="M268.98,18.288c-30.42-8.108-48.66-11.492-73.07-13.745
	c-28.742-2.653-40.146-8.656-68.726,0.298c-42.372,13.278-52.72,52.72-35.144,86.504C77.171,69.722,60.123,50.63,51.853,36.04
	C21.764,73.769,7.999,110.79,0.128,174.141c12.107-4.697,61.714-32.607,73.93-32.784c-7.688,0-27.422,11.295-44.186,29.745
	c-13.536,14.861-11.248,39.056,1.354,54.06c27.098,32.262,44.565,32.241,113.51,44.401c-42.575-31.429-59.988-72.277-62.614-92.627
	c-1.36-10.599,14.862-14.261,17.406-24.581c4.954-20.005-4.73-13.86-3.066-35.869c0.576-7.532,15.478-7.025,21.515-11.261
	c9.576-6.707,5.083-8.622,10.239-20.486c11.322-25.988,21.508-38.433,47.347-49.079c14.523-5.983,28.85-9.833,43.807-12.879
	c15.586-3.167,31.483,0.535,46.169-3.601l3.439-0.887L268.98,18.288z"/>
<linearGradient id="SVGID_2_" gradientUnits="userSpaceOnUse" x1="273.1074" y1="-57.4893" x2="695.8945" y2="-57.4893" gradientTransform="matrix(1 0 0 -1 -196 106)">
	<stop  offset="0" style="stop-color:#DCDCDC"/>
	<stop  offset="0.2801" style="stop-color:#C4C4C4"/>
	<stop  offset="0.4663" style="stop-color:#B9B9B9"/>
	<stop  offset="1" style="stop-color:#D6D6D6"/>
</linearGradient>
<path fill="url(#SVGID_2_)" stroke="#2B2B2B" stroke-width="0.2068" d="M106.92,99.296c-3.796-38.149,56.436-61.842,84.528-71.716
	c114.94-40.355,224.88,53.64,233.2,62.519c14.86,15.81,19.003,27.707,24.675,48.267c9.108,33.147-3.093,63.758,11.302,89.448
	c7.336,13.129,23.402,27.502,33.195,36.545c3.668,3.863,8.363,10.389,4.812,16.222c-1.266,1.272-2.545,2.03-9.881,1.272
	c1.834,1.447,5.577,2.287,5.624,5.767c-0.46,12.771-34.995,4.276-43.002,3.944c-24.884-1.028-45.546,7.153-68.8,13.056
	c-56.035,14.26-164.6-4.832-241.72-36.701c-23.633-9.772-63.751-69.883-63.745-84.312c0.007-13.414,5.908-24.973,8.094-38.907
	c-0.968-0.169-2.118-2.917-2.768-7.573c-0.649-4.656-1.475-13.854,3.154-22.144c6.099-10.93,21.335-15.694,21.335-15.694
	L106.92,99.296z"/>
<linearGradient id="SVGID_3_" gradientUnits="userSpaceOnUse" x1="610.4082" y1="-34.249" x2="624.6283" y2="-247.5703" gradientTransform="matrix(1 0 0 -1 -196 106)">
	<stop  offset="0" style="stop-color:#262626"/>
	<stop  offset="0.2699" style="stop-color:#282828"/>
	<stop  offset="0.43" style="stop-color:#303030"/>
	<stop  offset="0.5613" style="stop-color:#3C3C3C"/>
	<stop  offset="0.6772" style="stop-color:#4E4E4E"/>
	<stop  offset="0.7829" style="stop-color:#646464"/>
	<stop  offset="0.8811" style="stop-color:#808080"/>
	<stop  offset="0.9718" style="stop-color:#A1A1A1"/>
	<stop  offset="1" style="stop-color:#ACACAC"/>
</linearGradient>
<path fill="url(#SVGID_3_)" d="M387.721,302.88c0-24.513,5.704-50.271,11.146-72.306c5.225-21.122,12.832-37.764,10.813-58.135
	c-1.576-15.822,14.862-31.083,25.976-34.833c11.564-3.898,15.417,1.671,17.102,15.234c1.029,8.121-7.465,8.615-7.086,14.198
	c0.508,7.6,7.086,4.061,7.086,10.138c0,5.05,0.976,7.146,0.475,10.442c-3.933,26.203-6.497,50.751-16.846,75.053
	c-3.233,7.58-2.396,23.396-8.459,29.055c-7.012,6.563-30.306,8.154-38.515,10.813l-1.68,0.351L387.721,302.88z"/>
<path fill="#363636" d="M452.65,206.029c-0.894,4.894-4.29,8.365-7.572,7.757c-3.271-0.603-5.198-5.056-4.291-9.937
	c0.9-4.886,4.291-8.356,7.566-7.748c3.26,0.6,5.199,5.049,4.289,9.93L452.65,206.029z"/>
<path fill="#202020" d="M451.7,205.68c-0.758,4.096-3.384,7.039-5.867,6.592c-2.491-0.467-3.892-4.162-3.134-8.248
	c0.758-4.103,3.391-7.039,5.867-6.586c2.479,0.451,3.88,4.141,3.13,8.24L451.7,205.68z"/>
<linearGradient id="SVGID_4_" gradientUnits="userSpaceOnUse" x1="312.3574" y1="19.1211" x2="521.8945" y2="19.1211" gradientTransform="matrix(1 0 0 -1 -196 106)">
	<stop  offset="0.0049" style="stop-color:#CFCFCF"/>
	<stop  offset="0.511" style="stop-color:#CFCFCF"/>
	<stop  offset="0.5777" style="stop-color:#CFCFCF"/>
	<stop  offset="1" style="stop-color:#A8A8A8"/>
</linearGradient>
<path fill="url(#SVGID_4_)" d="M273.54,33.089c-7.613,3.837-12.853,12.784-19.474,18.09c-17.366,13.982-46.802,15.539-67.179,25.663
	c-19.66,9.786-42.402,23.795-56.716,40.558c-11.292,13.271-26.424,32.83,4.538,18.787c26.194-11.904,49.976-27.443,79.493-30.475
	c35.743-3.662,43.989-13.285,60.485-34.366c5.297-6.761,57.203-9.448,50.633-19.924c-6.391-10.213-39.051-20.832-51.78-18.341"/>
<linearGradient id="SVGID_5_" gradientUnits="userSpaceOnUse" x1="383.291" y1="-105.9077" x2="437.811" y2="52.4123" gradientTransform="matrix(1 0 0 -1 -196 106)">
	<stop  offset="0" style="stop-color:#262626"/>
	<stop  offset="0.2618" style="stop-color:#292929"/>
	<stop  offset="0.4639" style="stop-color:#323232"/>
	<stop  offset="0.6461" style="stop-color:#424242"/>
	<stop  offset="0.8164" style="stop-color:#575757"/>
	<stop  offset="0.9771" style="stop-color:#737373"/>
	<stop  offset="1" style="stop-color:#777777"/>
</linearGradient>
<path opacity="0.35" fill="url(#SVGID_5_)" enable-background="new    " d="M229.82,66.737
	c-15.451,45.276-41.763,121.15-49.248,152.01c11.261-33.669,38.393-107.26,53.762-149.82c4.026-11.085,12.642-19.809,17.92-23.991
	l-5.448-1.814c-6.17,5.083-13.58,13.685-16.98,23.612L229.82,66.737z"/>
<linearGradient id="SVGID_6_" gradientUnits="userSpaceOnUse" x1="413.0166" y1="44.3628" x2="371.8266" y2="-102.2682" gradientTransform="matrix(1 0 0 -1 -196 106)">
	<stop  offset="0.2961" style="stop-color:#262626"/>
	<stop  offset="0.5033" style="stop-color:#282828"/>
	<stop  offset="0.6259" style="stop-color:#303030"/>
	<stop  offset="0.7265" style="stop-color:#3C3C3C"/>
	<stop  offset="0.7476" style="stop-color:#3F3F3F"/>
	<stop  offset="1" style="stop-color:#ACACAC"/>
</linearGradient>
<path opacity="0.4" fill="url(#SVGID_6_)" enable-background="new    " d="M206.51,78.906
	c-15.444,45.262-35.686,105.949-43.171,136.789c11.261-33.668,32.309-92.053,47.691-134.619
	c4.007-11.065,12.642-19.809,17.914-23.978l-5.461-1.827c-6.17,5.094-13.59,13.689-16.97,23.631L206.51,78.906z"/>
<linearGradient id="SVGID_7_" gradientUnits="userSpaceOnUse" x1="393.8594" y1="40.0205" x2="356.4594" y2="-93.0995" gradientTransform="matrix(1 0 0 -1 -196 106)">
	<stop  offset="0" style="stop-color:#262626"/>
	<stop  offset="0.2699" style="stop-color:#282828"/>
	<stop  offset="0.43" style="stop-color:#303030"/>
	<stop  offset="0.5613" style="stop-color:#3C3C3C"/>
	<stop  offset="0.6772" style="stop-color:#4E4E4E"/>
	<stop  offset="0.7829" style="stop-color:#646464"/>
	<stop  offset="0.8811" style="stop-color:#808080"/>
	<stop  offset="0.9718" style="stop-color:#A1A1A1"/>
	<stop  offset="1" style="stop-color:#ACACAC"/>
</linearGradient>
<path opacity="0.35" fill="url(#SVGID_7_)" enable-background="new    " d="M187.25,83.961
	c-15.458,45.276-31.639,90.748-39.11,121.609c11.261-33.668,28.255-76.853,43.638-119.399c4-11.085,12.628-19.809,17.9-23.998
	l-5.448-1.821C198.04,65.446,190.65,74.047,187.25,83.961L187.25,83.961z"/>
<linearGradient id="SVGID_8_" gradientUnits="userSpaceOnUse" x1="372.5176" y1="30.1831" x2="338.0471" y2="-92.5216" gradientTransform="matrix(1 0 0 -1 -196 106)">
	<stop  offset="0" style="stop-color:#262626"/>
	<stop  offset="0.2699" style="stop-color:#282828"/>
	<stop  offset="0.43" style="stop-color:#303030"/>
	<stop  offset="0.5613" style="stop-color:#3C3C3C"/>
	<stop  offset="0.6772" style="stop-color:#4E4E4E"/>
	<stop  offset="0.7829" style="stop-color:#646464"/>
	<stop  offset="0.8811" style="stop-color:#808080"/>
	<stop  offset="0.9718" style="stop-color:#A1A1A1"/>
	<stop  offset="1" style="stop-color:#ACACAC"/>
</linearGradient>
<path opacity="0.35" fill="url(#SVGID_8_)" enable-background="new    " d="M164.94,94.119
	c-15.458,45.262-26.556,79.574-34.042,110.43c11.269-33.662,23.193-65.693,38.569-108.26c4.007-11.079,12.628-19.809,17.907-23.978
	l-5.455-1.82C175.739,75.575,168.329,84.177,164.94,94.119L164.94,94.119z"/>
<linearGradient id="SVGID_9_" gradientUnits="userSpaceOnUse" x1="554.7432" y1="49.7275" x2="503.8929" y2="-131.2913" gradientTransform="matrix(1 0 0 -1 -196 106)">
	<stop  offset="0" style="stop-color:#262626"/>
	<stop  offset="0.2699" style="stop-color:#282828"/>
	<stop  offset="0.43" style="stop-color:#303030"/>
	<stop  offset="0.5613" style="stop-color:#3C3C3C"/>
	<stop  offset="0.6772" style="stop-color:#4E4E4E"/>
	<stop  offset="0.7829" style="stop-color:#646464"/>
	<stop  offset="0.8811" style="stop-color:#808080"/>
	<stop  offset="0.9718" style="stop-color:#A1A1A1"/>
	<stop  offset="1" style="stop-color:#ACACAC"/>
</linearGradient>
<path opacity="0.76" fill="url(#SVGID_9_)" enable-background="new    " d="M365.7,49.155c-1.377-0.738-2.763-1.469-4.173-2.193
	c-10.168,28.993-52.639,164.021-61.332,201.67c13.24-41.59,56.471-176.16,65.5-199.48L365.7,49.155z"/>
<linearGradient id="SVGID_10_" gradientUnits="userSpaceOnUse" x1="565.3096" y1="43.6724" x2="513.8698" y2="-139.4788" gradientTransform="matrix(1 0 0 -1 -196 106)">
	<stop  offset="0" style="stop-color:#262626"/>
	<stop  offset="0.2699" style="stop-color:#282828"/>
	<stop  offset="0.43" style="stop-color:#303030"/>
	<stop  offset="0.5613" style="stop-color:#3C3C3C"/>
	<stop  offset="0.6772" style="stop-color:#4E4E4E"/>
	<stop  offset="0.7829" style="stop-color:#646464"/>
	<stop  offset="0.8811" style="stop-color:#808080"/>
	<stop  offset="0.9718" style="stop-color:#A1A1A1"/>
	<stop  offset="1" style="stop-color:#ACACAC"/>
</linearGradient>
<path opacity="0.76" fill="url(#SVGID_10_)" enable-background="new    " d="M376.98,55.469c-1.334-0.785-2.715-1.57-4.094-2.348
	c-10.451,29.466-54.891,166.029-63.57,203.62c13.22-41.55,58.31-177.58,67.66-201.27L376.98,55.469z"/>
<linearGradient id="SVGID_11_" gradientUnits="userSpaceOnUse" x1="575.9346" y1="37.6294" x2="525.9951" y2="-140.1499" gradientTransform="matrix(1 0 0 -1 -196 106)">
	<stop  offset="0" style="stop-color:#262626"/>
	<stop  offset="0.2699" style="stop-color:#282828"/>
	<stop  offset="0.43" style="stop-color:#303030"/>
	<stop  offset="0.5613" style="stop-color:#3C3C3C"/>
	<stop  offset="0.6772" style="stop-color:#4E4E4E"/>
	<stop  offset="0.7829" style="stop-color:#646464"/>
	<stop  offset="0.8811" style="stop-color:#808080"/>
	<stop  offset="0.9718" style="stop-color:#A1A1A1"/>
	<stop  offset="1" style="stop-color:#ACACAC"/>
</linearGradient>
<path opacity="0.76" fill="url(#SVGID_11_)" enable-background="new    " d="M388.32,62.447c-1.51-0.968-3.025-1.942-4.615-2.93
	c-11.16,30.637-54.655,161.9-63.23,197.219c12.98-38.81,57.32-167.81,67.851-194.289L388.32,62.447z"/>
<linearGradient id="SVGID_12_" gradientUnits="userSpaceOnUse" x1="539.9492" y1="57.0322" x2="490.4989" y2="-118.9886" gradientTransform="matrix(1 0 0 -1 -196 106)">
	<stop  offset="0" style="stop-color:#262626"/>
	<stop  offset="0.2699" style="stop-color:#282828"/>
	<stop  offset="0.43" style="stop-color:#303030"/>
	<stop  offset="0.5613" style="stop-color:#3C3C3C"/>
	<stop  offset="0.6772" style="stop-color:#4E4E4E"/>
	<stop  offset="0.7829" style="stop-color:#646464"/>
	<stop  offset="0.8811" style="stop-color:#808080"/>
	<stop  offset="0.9718" style="stop-color:#A1A1A1"/>
	<stop  offset="1" style="stop-color:#ACACAC"/>
</linearGradient>
<path opacity="0.76" fill="url(#SVGID_12_)" enable-background="new    " d="M352.52,42.502c-1.631-0.778-3.252-1.557-4.924-2.321
	c-10.334,28.093-53.918,159.5-62.607,195.27C298.279,195.721,343.529,64.181,352.52,42.502L352.52,42.502z"/>
<linearGradient id="SVGID_13_" gradientUnits="userSpaceOnUse" x1="525.8281" y1="62.2412" x2="474.0184" y2="-122.187" gradientTransform="matrix(1 0 0 -1 -196 106)">
	<stop  offset="0" style="stop-color:#262626"/>
	<stop  offset="0.2699" style="stop-color:#282828"/>
	<stop  offset="0.43" style="stop-color:#303030"/>
	<stop  offset="0.5613" style="stop-color:#3C3C3C"/>
	<stop  offset="0.6772" style="stop-color:#4E4E4E"/>
	<stop  offset="0.7829" style="stop-color:#646464"/>
	<stop  offset="0.8811" style="stop-color:#808080"/>
	<stop  offset="0.9718" style="stop-color:#A1A1A1"/>
	<stop  offset="1" style="stop-color:#ACACAC"/>
</linearGradient>
<path opacity="0.76" fill="url(#SVGID_13_)" enable-background="new    " d="M341.16,37.366c-1.79-0.765-3.621-1.496-5.451-2.233
	c-18.702,41.35-61.975,170.35-69.979,203.37c12.42-37.13,57.551-162.25,75.431-201.13L341.16,37.366z"/>
<linearGradient id="SVGID_14_" gradientUnits="userSpaceOnUse" x1="511.7139" y1="67.7573" x2="461.1843" y2="-112.099" gradientTransform="matrix(1 0 0 -1 -196 106)">
	<stop  offset="0" style="stop-color:#262626"/>
	<stop  offset="0.2699" style="stop-color:#282828"/>
	<stop  offset="0.43" style="stop-color:#303030"/>
	<stop  offset="0.5613" style="stop-color:#3C3C3C"/>
	<stop  offset="0.6772" style="stop-color:#4E4E4E"/>
	<stop  offset="0.7829" style="stop-color:#646464"/>
	<stop  offset="0.8811" style="stop-color:#808080"/>
	<stop  offset="0.9718" style="stop-color:#A1A1A1"/>
	<stop  offset="1" style="stop-color:#ACACAC"/>
</linearGradient>
<path opacity="0.76" fill="url(#SVGID_14_)" enable-background="new    " d="M326.471,31.613c-1.729-0.629-3.455-1.245-5.215-1.841
	c-13.833,28.708-59.096,163.15-67.66,198.5c13.26-39.68,60.2-170.02,72.87-196.66L326.471,31.613z"/>
<linearGradient id="SVGID_15_" gradientUnits="userSpaceOnUse" x1="497.8838" y1="71.7827" x2="446.3938" y2="-111.5083" gradientTransform="matrix(1 0 0 -1 -196 106)">
	<stop  offset="0" style="stop-color:#262626"/>
	<stop  offset="0.2699" style="stop-color:#282828"/>
	<stop  offset="0.43" style="stop-color:#303030"/>
	<stop  offset="0.5613" style="stop-color:#3C3C3C"/>
	<stop  offset="0.6772" style="stop-color:#4E4E4E"/>
	<stop  offset="0.7829" style="stop-color:#646464"/>
	<stop  offset="0.8811" style="stop-color:#808080"/>
	<stop  offset="0.9718" style="stop-color:#A1A1A1"/>
	<stop  offset="1" style="stop-color:#ACACAC"/>
</linearGradient>
<path opacity="0.76" fill="url(#SVGID_15_)" enable-background="new    " d="M236.99,227.42
	c11.248-33.662,44.828-132.69,60.212-175.24c3.472-9.59,11.766-19.382,17.368-24.573c-2.088-0.643-4.209-1.232-6.334-1.827
	c-5.803,5.942-12.689,15.809-15.557,24.208c-15.459,45.268-48.229,146.581-55.689,177.43V227.42z"/>
<linearGradient id="SVGID_16_" gradientUnits="userSpaceOnUse" x1="479.8838" y1="76.4473" x2="427.9135" y2="-108.5686" gradientTransform="matrix(1 0 0 -1 -196 106)">
	<stop  offset="0" style="stop-color:#262626"/>
	<stop  offset="0.2699" style="stop-color:#282828"/>
	<stop  offset="0.43" style="stop-color:#303030"/>
	<stop  offset="0.5613" style="stop-color:#3C3C3C"/>
	<stop  offset="0.6772" style="stop-color:#4E4E4E"/>
	<stop  offset="0.7829" style="stop-color:#646464"/>
	<stop  offset="0.8811" style="stop-color:#808080"/>
	<stop  offset="0.9718" style="stop-color:#A1A1A1"/>
	<stop  offset="1" style="stop-color:#ACACAC"/>
</linearGradient>
<path opacity="0.76" fill="url(#SVGID_16_)" enable-background="new    " d="M217.72,224.38
	c11.254-33.669,44.842-132.69,60.219-175.25c3.627-10.016,11.074-18.11,19.422-26.109c-1.973-0.454-3.963-0.873-5.961-1.272
	c-8.644,8.514-14.95,16.337-17.982,25.203c-15.46,45.266-48.22,146.569-55.7,177.43L217.72,224.38z"/>
<linearGradient id="SVGID_17_" gradientUnits="userSpaceOnUse" x1="464.5967" y1="79.3838" x2="412.6566" y2="-105.5192" gradientTransform="matrix(1 0 0 -1 -196 106)">
	<stop  offset="0" style="stop-color:#262626"/>
	<stop  offset="0.2699" style="stop-color:#282828"/>
	<stop  offset="0.43" style="stop-color:#303030"/>
	<stop  offset="0.5613" style="stop-color:#3C3C3C"/>
	<stop  offset="0.6772" style="stop-color:#4E4E4E"/>
	<stop  offset="0.7829" style="stop-color:#646464"/>
	<stop  offset="0.8811" style="stop-color:#808080"/>
	<stop  offset="0.9718" style="stop-color:#A1A1A1"/>
	<stop  offset="1" style="stop-color:#ACACAC"/>
</linearGradient>
<path opacity="0.35" fill="url(#SVGID_17_)" enable-background="new    " d="M202.51,221.34
	c11.269-33.676,44.843-132.69,60.227-175.24c3.553-9.833,10.798-17.813,19.298-26.021c-2.089-0.332-4.173-0.664-6.284-0.927
	c-8.561,8.541-14.607,16.168-17.534,24.756c-15.47,45.278-48.23,146.58-55.72,177.43L202.51,221.34z"/>
<linearGradient id="SVGID_18_" gradientUnits="userSpaceOnUse" x1="588.0186" y1="31.54" x2="543.6586" y2="-126.3899" gradientTransform="matrix(1 0 0 -1 -196 106)">
	<stop  offset="0" style="stop-color:#262626"/>
	<stop  offset="0.2699" style="stop-color:#282828"/>
	<stop  offset="0.43" style="stop-color:#303030"/>
	<stop  offset="0.5613" style="stop-color:#3C3C3C"/>
	<stop  offset="0.6772" style="stop-color:#4E4E4E"/>
	<stop  offset="0.7829" style="stop-color:#646464"/>
	<stop  offset="0.8811" style="stop-color:#808080"/>
	<stop  offset="0.9718" style="stop-color:#A1A1A1"/>
	<stop  offset="1" style="stop-color:#ACACAC"/>
</linearGradient>
<path opacity="0.76" fill="url(#SVGID_18_)" enable-background="new    " d="M398.87,69.526c-1.543-1.083-3.142-2.179-4.806-3.296
	c-9.914,27.016-45.153,138.34-54.289,175.741c13.77-40.83,50.1-150.121,59.1-172.441L398.87,69.526z"/>
<linearGradient id="SVGID_19_" gradientUnits="userSpaceOnUse" x1="599.7861" y1="23.9043" x2="559.0261" y2="-121.2077" gradientTransform="matrix(1 0 0 -1 -196 106)">
	<stop  offset="0" style="stop-color:#262626"/>
	<stop  offset="0.2699" style="stop-color:#282828"/>
	<stop  offset="0.43" style="stop-color:#303030"/>
	<stop  offset="0.5613" style="stop-color:#3C3C3C"/>
	<stop  offset="0.6772" style="stop-color:#4E4E4E"/>
	<stop  offset="0.7829" style="stop-color:#646464"/>
	<stop  offset="0.8811" style="stop-color:#808080"/>
	<stop  offset="0.9718" style="stop-color:#A1A1A1"/>
	<stop  offset="1" style="stop-color:#ACACAC"/>
</linearGradient>
<path opacity="0.76" fill="url(#SVGID_19_)" enable-background="new    " d="M410.74,78.249c-1.488-1.164-3.065-2.362-4.771-3.627
	c-10.89,29.724-41.779,123.56-50.975,161.16c13.67-40.55,45.399-131.75,55.74-157.53L410.74,78.249z"/>
<path fill="none" stroke="#2B2B2B" stroke-width="0.2068" d="M489.47,281.88c-3.005-0.176-13.521-3.397-15.958-4.323"/>
<linearGradient id="SVGID_20_" gradientUnits="userSpaceOnUse" x1="254.9199" y1="-44.0938" x2="469.9738" y2="70.2522" gradientTransform="matrix(1 0 0 -1 -196 106)">
	<stop  offset="0.0049" style="stop-color:#5E5E5E"/>
	<stop  offset="0.2961" style="stop-color:#262626"/>
	<stop  offset="0.5033" style="stop-color:#282828"/>
	<stop  offset="0.6259" style="stop-color:#303030"/>
	<stop  offset="0.7265" style="stop-color:#3C3C3C"/>
	<stop  offset="0.7476" style="stop-color:#3F3F3F"/>
	<stop  offset="1" style="stop-color:#ACACAC"/>
</linearGradient>
<path fill="url(#SVGID_20_)" d="M243.23,53.453c21.931-11.789,24.063-17.379,25.795-22.577c1.731-5.198-2.568-8.446-7.414-9.542
	c-5.911-1.34-11.52-0.318-18.878-0.318s-18.171,2.545-25.216,3.364c-6.754,0.792-31.449,8.02-37.496,9.752
	c-6.717,1.922-26.234,10.24-36.795,16.96c-10.561,6.72-15.789,11.396-21.119,16.316c-16.638,15.356-12.473,31.111-12.479,32.641
	c-7.038,2.876-11.749,3.424-18.878,10.558c-5.12,5.123-8.317,11.525-7.038,20.161c1.279,8.636,1.918,9.915,4.477,15.038
	c-3.042,4.5-8.859,31.49-9.228,34.461c-0.369,2.971,0.193,14.982,5.391,10.651c5.197-4.331,22.14-58.432,61.267-91.214
	c33.37-27.96,75.69-34.464,97.62-46.253L243.23,53.453z"/>
</svg>
