<?xml version="1.0" encoding="utf-8"?>
<!-- Generator: Adobe Illustrator 15.0.2, SVG Export Plug-In . SVG Version: 6.00 Build 0)  -->
<!DOCTYPE svg PUBLIC "-//W3C//DTD SVG 1.1//EN" "http://www.w3.org/Graphics/SVG/1.1/DTD/svg11.dtd">
<svg version="1.1"
	 id="Layer_1" xmlns:dc="http://purl.org/dc/elements/1.1/" xmlns:cc="http://creativecommons.org/ns#" xmlns:rdf="http://www.w3.org/1999/02/22-rdf-syntax-ns#"
	 xmlns="http://www.w3.org/2000/svg" xmlns:xlink="http://www.w3.org/1999/xlink" x="0px" y="0px" width="501px" height="231px"
	 viewBox="0 0 501 231" enable-background="new 0 0 501 231" xml:space="preserve">
<title>Gobiosoma bosc (Naked Goby)</title>
<desc  xmlns:ian_image_library="http://ian.umces.edu/imagelibrary/">
	<ian_image_library:title>Gobiosoma bosc (Naked Goby)</ian_image_library:title>
	<ian_image_library:descr>Illustration of Gobiosoma bosc (Naked Goby)</ian_image_library:descr>
	<ian_image_library:scene>
		<ian_image_library:contains>
			symbol,vector,illustration,fish,naked,goby,Chordata,Actinopterygii,Perciformes,Gobiidae,Gobiosoma,bosc,Atlantic,marine,estuarine
			</ian_image_library:contains>
		<ian_image_library:when>2004-03-29</ian_image_library:when>
	</ian_image_library:scene>
</desc>
<path fill="#0E0E0E" stroke="#FFFFFF" stroke-width="1.0381" stroke-linecap="round" stroke-linejoin="round" d="M139.94,50.72
	c0,0,26.723-40.736,39.409-46.072c12.686-5.33,26.034-4.654,26.696-2.66c0.656,2.007-9.306,4.112-4.001,10.009
	c2.474-2.146,7.354-3.336,9.361-1.328c1.987,1.998-5.846,4.545-0.689,9.344c5.278,0.426,8.685,2.66,8.016,5.995
	c-0.683,3.338-8.333-2.866-8.016,8.005c3.852,1.788,8.016,2.007,8.016,6.021c0,2.552-7.387,0.764-7.326,6.671
	c-0.041,1.257,3.312,3.447,3.312,6.14c0,2.663-7.502-1.994-9.333,3.873c-2.84,3.095-65.45-5.998-65.45-5.998H139.94z"/>
<path fill="#0E0E0E" stroke="#FFFFFF" stroke-width="1.0381" stroke-linecap="round" stroke-linejoin="round" d="M251.58,37.821
	c2.92-0.733,15.531-14.974,19.222-14.45c2.277-0.063,4.171,4.938,6.083,5.529c3.446,1.091,6.947-1.548,12.692,1.196
	c8.955,4.265,23.356,5.474,32.913,11.953c25.75,17.426,50.209,38.864,54.427,42.713c7.34,6.674,21.363,19.999,21.363,19.999
	s-10.687,24.033-22.032,25.375c-11.354,1.318-11.334,0.677-20.693-1.993c-9.342-2.66-20.695-10.688-28.697-18.702
	c-8.017-8.019-20.02-15.345-30.705-22.019c-10.678-6.694-71.422-28.71-71.422-28.71S231.968,47,240.714,35.835
	c6.43-8.245,2.72,4.025,10.87,1.977L251.58,37.821z"/>
<path fill="#0E0E0E" stroke="#FFFFFF" stroke-width="1.0381" stroke-linecap="round" stroke-linejoin="round" d="M233.99,62.027
	c0,0,18.787-30.086,36.672-38.547"/>
<path fill="#0E0E0E" stroke="#FFFFFF" stroke-width="1.0381" stroke-linecap="round" stroke-linejoin="round" d="M244.33,67.667
	c0,0,22.547-33.836,41.361-37.61"/>
<path fill="#0E0E0E" stroke="#FFFFFF" stroke-width="1.0381" stroke-linecap="round" stroke-linejoin="round" d="M260.3,72.367
	c0,0,25.392-34.776,39.483-34.776"/>
<path fill="#0E0E0E" stroke="#FFFFFF" stroke-width="1.0381" stroke-linecap="round" stroke-linejoin="round" d="M274.42,78.014
	c0,0,24.439-31.021,37.598-32.907"/>
<path fill="#0E0E0E" stroke="#FFFFFF" stroke-width="1.0381" stroke-linecap="round" stroke-linejoin="round" d="M288.51,84.59
	c0,0,23.506-28.213,40.443-29.139"/>
<path fill="#0E0E0E" stroke="#FFFFFF" stroke-width="1.0381" stroke-linecap="round" stroke-linejoin="round" d="M303.55,93.988
	c0,0,31.021-23.489,49.83-23.489"/>
<path fill="#0E0E0E" stroke="#FFFFFF" stroke-width="1.0381" stroke-linecap="round" stroke-linejoin="round" d="M170.16,53.609
	c0,0,19.64-32.015,34.664-31.079"/>
<path fill="#0E0E0E" stroke="#FFFFFF" stroke-width="1.0381" stroke-linecap="round" stroke-linejoin="round" d="M296.15,87.422
	c0,0,24.324-23.506,43.146-23.506"/>
<path fill="#0E0E0E" stroke="#FFFFFF" stroke-width="1.0381" stroke-linecap="round" stroke-linejoin="round" d="M313.88,99.634
	c0,0,27.271-19.745,47.966-15.044"/>
<path fill="#0E0E0E" stroke="#FFFFFF" stroke-width="1.0381" stroke-linecap="round" stroke-linejoin="round" d="M326.859,109.44
	c0,0,23.724-16.39,48.154-11.692"/>
<path fill="#0E0E0E" stroke="#FFFFFF" stroke-width="1.0381" stroke-linecap="round" stroke-linejoin="round" d="M336.46,119.4
	c0,0,19.733-12.224,45.133-8.485"/>
<path fill="#0E0E0E" stroke="#FFFFFF" stroke-width="1.0381" stroke-linecap="round" stroke-linejoin="round" d="M351.5,127.85
	c0,0,7.536-7.539,26.338-6.589"/>
<path fill="#0E0E0E" stroke="#FFFFFF" stroke-width="1.0381" stroke-linecap="round" stroke-linejoin="round" d="M148.43,50.73
	c0,0,18.809-35.712,34.786-42.298"/>
<path fill="#0E0E0E" stroke="#FFFFFF" stroke-width="1.0381" stroke-linecap="round" stroke-linejoin="round" d="M157.82,52.615
	c0,0,16.93-32.907,36.671-38.537"/>
<path fill="#0E0E0E" stroke="#FFFFFF" stroke-width="1.0381" stroke-linecap="round" stroke-linejoin="round" d="M181.33,57.34
	c0,0,10.341-21.634,24.446-20.698"/>
<path fill="#0E0E0E" stroke="#FFFFFF" stroke-width="1.0381" stroke-linecap="round" stroke-linejoin="round" d="M195.44,58.266
	c0,0,5.63-11.273,12.206-10.351"/>
<path fill="#0E0E0E" stroke="#FFFFFF" stroke-width="1.0381" stroke-linecap="round" stroke-linejoin="round" d="M237.43,149.49
	c0,0,11.335,30.051,32.698,40.039c21.37,10.011,40.699,12.027,58.063,16.685c17.369,4.667,30.629-0.743,30.629-0.743
	s-15.943-13.927-18.612-21.275c-2.656-7.336-6.002-16.004-6.002-16.004l-48.06-10.022l-48.721-8.69L237.43,149.49z"/>
<path fill="#0E0E0E" stroke="#FFFFFF" stroke-width="1.0381" stroke-linecap="round" stroke-linejoin="round" d="M216.12,174.84
	c-1.886,5.65-4.697,6.576-6.583,10.357c-1.886,3.773,1.885,13.15-1.886,13.15c-3.758,0-9.388-7.512-22.567-8.461
	c-13.145-0.916-5.63,1.899-10.333,1.899c-4.704,0-39.51-18.813-43.254-26.324c-3.738-7.536-7.509-17.887-7.509-17.887l62.043,3.778
	c0,0,31.97,17.859,30.09,23.479L216.12,174.84z"/>
<path opacity="0.8" fill="#0E0E0E" stroke="#FFFFFF" stroke-miterlimit="10" enable-background="new    " d="M499.04,191.55
	c0-4.011,2.021-20.69-2.656-26.702c-4.67-6.021-26.683-17.35-50.04-22.029c-11.36-2.254-22.396-1.533-32.123-0.651
	c9.374,21.83,4.494,50.077-6.204,72.354c18.572,8.056,44.741,15.436,57.657,14.392c16.706-1.321,29.379-5.988,32.717-10.665
	c3.34-4.68-2.007-10.01-2.662-14.023c-0.69-4,3.3-8.67,3.3-12.67L499.04,191.55z"/>
<path fill="#0E0E0E" stroke="#FFFFFF" stroke-width="1.0381" stroke-linecap="round" stroke-linejoin="round" d="M499.04,191.55
	c0-4.011,2.021-20.69-2.656-26.702c-4.67-6.021-26.683-17.35-50.04-22.029c-23.384-4.662-45.396,3.34-57.427-0.672
	c-12.003-3.99-81.406-58.056-152.83-79.419c-71.42-21.378-146.18-10.69-146.18-10.69s-28.689,3.332-42.694,8.012
	C33.178,64.726,12.504,88.739,7.807,92.75c-4.663,4.015-8.8,22.54-5.447,27.893c3.338,5.336,16.173,0.146,16.173,0.146
	S5.158,124.8,5.158,131.45c0,6.698,4.656,12.03,22.046,14.7c17.336,2.662,32.022-3.457,54.035-2.803
	c22.039,0.676,56.744,10.143,82.758,10.817c26.033,0.665,63.435-2.673,100.13,3.338c36.719,5.995,54.068,10.011,69.417,14.001
	c15.36,4.001,26.702,10.695,31.358,13.348c4.697,2.681,13.342,12.713,29.373,22.698c16.019,10.013,54.736,22.691,71.41,21.354
	c16.706-1.321,29.38-5.988,32.718-10.666c3.339-4.68-2.007-10.008-2.663-14.022c-0.69-4.021,3.3-8.69,3.3-12.69V191.55z"/>
<path fill="#0E0E0E" stroke="#FFFFFF" stroke-width="1.0381" stroke-linecap="round" stroke-linejoin="round" d="M416.38,147.58
	c0,0,62.043,3.777,75.208,19.752"/>
<path fill="#0E0E0E" stroke="#FFFFFF" stroke-width="1.0381" stroke-linecap="round" stroke-linejoin="round" d="M417.32,155.1
	c0,0,45.133,2.836,78.025,21.645"/>
<path fill="#0E0E0E" stroke="#FFFFFF" stroke-width="1.0381" stroke-linecap="round" stroke-linejoin="round" d="M418.24,167.33
	c0,0,46.094,4.699,76.183,20.697"/>
<path fill="#0E0E0E" stroke="#FFFFFF" stroke-width="1.0381" stroke-linecap="round" stroke-linejoin="round" d="M418.24,181.42
	l73.344,18.809"/>
<path fill="#0E0E0E" stroke="#FFFFFF" stroke-width="1.0381" stroke-linecap="round" stroke-linejoin="round" d="M416.38,192.721
	c0,0,55.473,7.512,77.094,21.633"/>
<path fill="#0E0E0E" stroke="#FFFFFF" stroke-width="1.0381" stroke-linecap="round" stroke-linejoin="round" d="M410.72,203.07
	c0,0,55.494,4.684,71.479,18.799"/>
<path fill="#0E0E0E" stroke="#FFFFFF" stroke-width="1.0381" stroke-linecap="round" stroke-linejoin="round" d="M408.85,210.57
	c0,0,49.845,5.65,57.366,14.123"/>
<path fill="#0E0E0E" stroke="#FFFFFF" stroke-width="1.0381" stroke-linecap="round" stroke-linejoin="round" d="M180.38,155.1
	c0,0,15.998,15.051,29.157,20.697"/>
<path fill="#0E0E0E" stroke="#FFFFFF" stroke-width="1.0381" stroke-linecap="round" stroke-linejoin="round" d="M167.24,156.04
	c0,0,21.6,29.155,37.584,30.096"/>
<path fill="#0E0E0E" stroke="#FFFFFF" stroke-width="1.0381" stroke-linecap="round" stroke-linejoin="round" d="M155,156.98
	c0,0,16.937,29.156,27.264,30.086"/>
<path fill="#0E0E0E" stroke="#FFFFFF" stroke-width="1.0381" stroke-linecap="round" stroke-linejoin="round" d="M139.94,154.17
	c0,0,5.677,19.738,24.458,30.085"/>
<path fill="#0E0E0E" stroke="#FFFFFF" stroke-width="1.0381" stroke-linecap="round" stroke-linejoin="round" d="M251.83,157.93
	c0,0-1.873,15.979,23.513,33.86"/>
<path fill="#0E0E0E" stroke="#FFFFFF" stroke-width="1.0381" stroke-linecap="round" stroke-linejoin="round" d="M265.96,159.82
	c0,0,5.63,24.438,29.136,38.535"/>
<path fill="#0E0E0E" stroke="#FFFFFF" stroke-width="1.0381" stroke-linecap="round" stroke-linejoin="round" d="M281.93,160.74
	c0,0,2.812,26.324,31.021,42.322"/>
<path fill="#0E0E0E" stroke="#FFFFFF" stroke-width="1.0381" stroke-linecap="round" stroke-linejoin="round" d="M297.9,165.471
	c0,0,0.392,18.523,30.285,40.75"/>
<path fill="#0E0E0E" stroke="#FFFFFF" stroke-width="1.0381" stroke-linecap="round" stroke-linejoin="round" d="M311.09,168.279
	c0,0,7.502,28.189,29.129,38.562"/>
<path fill="#0E0E0E" stroke="#FFFFFF" stroke-width="1.0381" stroke-linecap="round" stroke-linejoin="round" d="M324.23,171.09
	c0,0,2.838,24.459,26.352,36.672"/>
<path fill="#0E0E0E" stroke="#FFFFFF" stroke-miterlimit="10" d="M349.971,118.92c0,0-6.367,12.712-4.435,17.542
	c1.938,4.843,10.651,5.792,13.551,4.843c2.894-0.97,7.738-12.584,7.738-12.584l-16.86-9.8L349.971,118.92z"/>
<path fill="#0E0E0E" stroke="#FFFFFF" stroke-miterlimit="10" d="M172.44,50.459c0,0-2.15,24.094,2.818,28.318
	c4.981,4.208,13.497,9.584,17.335,6.823c3.825-2.768,9.476-30.835,9.476-30.835l-29.64-4.306H172.44z"/>
<path fill="#0E0E0E" stroke="#FFFFFF" stroke-miterlimit="10" d="M133.87,49.858c0,0,1.041,24.189,6.529,27.707
	c5.467,3.524,14.605,7.711,18.065,4.471c3.447-3.237,3.63-31.491,3.63-31.491l-28.22-0.687H133.87z"/>
<path fill="#0E0E0E" stroke="#FFFFFF" stroke-miterlimit="10" d="M110.37,50.828c0,0,1.048,24.175,6.535,27.71
	c5.461,3.521,5.225,7.708,8.658,4.467c3.447-3.248,1.48-33.596,1.48-33.596l-16.67,1.419H110.37z"/>
<path fill="#0E0E0E" stroke="#FFFFFF" stroke-miterlimit="10" d="M84.651,52.335c0,0-0.784,14.511,5.069,17.339
	c5.86,2.855,6.11,7.053,9.145,3.41c3.028-3.629,1.98-21.732,1.98-21.732l-16.189,0.983H84.651z"/>
<path fill="#0E0E0E" stroke="#FFFFFF" stroke-miterlimit="10" d="M56.34,58.113c0,0,2.859,14.565,8.718,17.414
	c5.874,2.835,8.529,5.072,11.57,1.439c3.028-3.629,2.082-23.729,2.082-23.729L56.34,58.113z"/>
<path fill="#0E0E0E" stroke="#FFFFFF" stroke-miterlimit="10" d="M327.17,104.54l12.577,6.762c0,0-4.84,22.267-7.752,29.028
	c-2.899,6.771-13.53,21.271-17.417,21.271c-3.854,0-3.854-2.906-4.832-6.77c-0.953-3.872,5.806-13.555,9.691-18.376
	c3.859-4.82,7.729-31.91,7.729-31.91L327.17,104.54z"/>
<path fill="#0E0E0E" stroke="#FFFFFF" stroke-miterlimit="10" d="M305.859,92.92l13.578,7.512c0,0-5.225,24.689-8.347,32.201
	c-3.136,7.512-14.61,23.607-18.762,23.607c-4.177,0-4.177-3.229-5.218-7.514c-1.041-4.297,6.266-15.026,10.414-20.402
	c4.19-5.35,8.341-35.41,8.341-35.41L305.859,92.92z"/>
<path fill="#0E0E0E" stroke="#FFFFFF" stroke-miterlimit="10" d="M279.5,79.386l18.593,9.195c0,0-9.481,26.433-12.901,34.749
	c-3.414,8.312-15.896,26.138-20.444,26.138c-4.563,0-4.563-3.577-5.704-8.319c-1.122-4.754,6.84-16.629,11.381-22.569
	c4.52-5.93,9.07-39.194,9.07-39.194L279.5,79.386z"/>
<path fill="#0E0E0E" stroke="#FFFFFF" stroke-miterlimit="10" d="M249.6,67.775l22.302,9.114c0,0-11.9,29.977-15.795,39.094
	c-3.893,9.101-18.228,28.632-23.431,28.632c-5.204,0-5.204-3.893-6.516-9.113c-1.304-5.205,7.827-18.234,13.024-24.729
	c5.23-6.53,10.43-42.995,10.43-42.995L249.6,67.775z"/>
<path fill="#0E0E0E" stroke="#FFFFFF" stroke-miterlimit="10" d="M212.81,56.684l24.189,7.231c0,0-10.942,34.431-14.599,44.938
	c-3.65,10.486-18.147,33.452-23.952,33.868c-5.826,0.411-6.124-3.972-7.989-9.695c-1.858-5.725,7.306-21.012,12.604-28.689
	c5.34-7.683,9.75-47.646,9.75-47.646L212.81,56.684z"/>
<path fill="#0E0E0E" stroke="#FFFFFF" stroke-width="1.0381" stroke-linecap="round" stroke-linejoin="round" d="M6.719,121.73
	c-1.123,0.5-4.63,9.803-0.169,12.354c4.461,2.562,7.387,0.173,11.321,1.812c3.913,1.646,6.758,2.334,8.218,2.942
	c1.453,0.622,7.678,2.247,9.34,2.115c1.656-0.121-3.021-3.903-3.021-3.903l-10.165-9.9l-15.524-5.41V121.73z"/>
<path fill="#0E0E0E" stroke="#FFFFFF" stroke-width="1.0381" stroke-linecap="round" stroke-linejoin="round" d="M2.407,123.779
	c-1.081-1.077-3.035-6.193-1-8.519c2.027-2.308,5.042-3.116,7.461-2.277c2.413,0.841,9.266,5.573,11.314,6.586
	c2.061,1.027,5.542,1.345,7.116,3.261c1.562,1.942,5.191,4.842,5.853,6.542c0.675,1.7,7.441,9.695,6.245,10.949
	c-1.189,1.22-4.21,2.027-7.063,0.066c-2.852-1.996-11.388-10.252-13.666-11.854c-2.291-1.582-5.367-1.494-8.124-2.184
	c-2.756-0.68-7.041-1.52-8.136-2.58V123.779z"/>
<path opacity="0.8" fill="#0E0E0E" stroke="#FFFFFF" stroke-width="1.0381" stroke-linecap="round" stroke-linejoin="round" enable-background="new    " d="
	M56.86,85.448c0,6.258-6.225,11.331-13.896,11.331c-7.705,0-13.95-5.072-13.95-11.331c0-6.269,6.245-11.341,13.95-11.341
	C50.636,74.107,56.86,79.18,56.86,85.448z"/>
<path opacity="0.9" fill="#0E0E0E" stroke="#FFFFFF" stroke-width="1.0381" stroke-linecap="round" stroke-linejoin="round" enable-background="new    " d="
	M51.71,84.424c0,3.227-3.494,5.836-7.779,5.836c-4.306,0-7.772-2.609-7.772-5.836c0-3.227,3.466-5.833,7.772-5.833
	C48.216,78.592,51.71,81.197,51.71,84.424z"/>
<path fill="#0E0E0E" stroke="#FFFFFF" stroke-miterlimit="10" d="M47.506,83.117c0,1.156-1.23,2.092-2.757,2.092
	s-2.785-0.936-2.785-2.092c0-1.136,1.257-2.051,2.785-2.051S47.506,81.981,47.506,83.117z"/>
<path fill="#0E0E0E" stroke="#FFFFFF" stroke-width="1.0381" stroke-linecap="round" stroke-linejoin="round" d="M116.38,85.536
	c0,0,12.611-12.615,26.649-12.615c13.99,0,35.59-3.305,48.201,5.103c12.632,8.408-0.973,31.339-9.387,41.152
	c-8.415,9.824-36.929,7.915-50.959,3.729c-14.017-4.217-25.73-13.542-25.73-13.542"/>
<path opacity="0.8" fill="#0E0E0E" stroke="#FFFFFF" stroke-width="1.0381" stroke-linecap="round" stroke-linejoin="round" enable-background="new    " d="
	M95.343,82.721c0,0,9.807,15.419,7.016,32.255c-2.791,16.815-26.216,26.642-26.216,26.642"/>
<path fill="#0E0E0E" stroke="#FFFFFF" stroke-width="1.0381" stroke-linecap="round" stroke-linejoin="round" d="M122.11,85.428
	c0,0,24.642-11.746,34.043-10.567"/>
<path fill="#0E0E0E" stroke="#FFFFFF" stroke-width="1.0381" stroke-linecap="round" stroke-linejoin="round" d="M118.58,92.47
	c0,0,37.571-15.264,51.635-15.264"/>
<path fill="#0E0E0E" stroke="#FFFFFF" stroke-width="1.0381" stroke-linecap="round" stroke-linejoin="round" d="M120.93,96.005
	c0,0,51.635-14.098,68.085-11.756"/>
<path fill="#0E0E0E" stroke="#FFFFFF" stroke-width="1.0381" stroke-linecap="round" stroke-linejoin="round" d="M116.23,100.68
	c0,0,63.388-9.377,69.268-2.335"/>
<path fill="#0E0E0E" stroke="#FFFFFF" stroke-width="1.0381" stroke-linecap="round" stroke-linejoin="round" d="M110.36,104.21
	c0,0,56.333-2.359,68.079,7.045"/>
<path fill="#0E0E0E" stroke="#FFFFFF" stroke-width="1.0381" stroke-linecap="round" stroke-linejoin="round" d="M118.58,108.9
	c0,0,30.515,3.524,38.733,9.391"/>
</svg>
