<?xml version="1.0" encoding="UTF-8" standalone="no"?>
				<svg xmlns:rdf="http://www.w3.org/1999/02/22-rdf-syntax-ns#" xmlns="http://www.w3.org/2000/svg" height="502px" width="249px" xmlns:cc="http://creativecommons.org/ns#" xmlns:xlink="http://www.w3.org/1999/xlink" xmlns:dc="http://purl.org/dc/elements/1.1/">
				<title>Neoesperiopsis rigida (Orange Finger Sponge)</title>
				<desc xmlns:ian_image_library="http://ian.umces.edu/imagelibrary/">
					  <ian_image_library:title>Neoesperiopsis rigida (Orange Finger Sponge)</ian_image_library:title>
					  <ian_image_library:descr>Illustration of Neoesperiopsis rigida (Orange Finger Sponge).</ian_image_library:descr>
					  <ian_image_library:scene>
						<ian_image_library:contains>symbol,vector,illustration,other,sponge,porifera,Demospongiae,Poecilosclerida,Esperiopsidae,Neoesperiopsis rigida,Orange Finger Sponge,</ian_image_library:contains>
						<ian_image_library:when>2010-03-31</ian_image_library:when> 
					  </ian_image_library:scene>
				   </desc>
					<metadata
						id="metadata-iil-c678f6a1442900c4e970621c58dec37b">
					  <rdf:RDF>
					  <cc:Work
						 rdf:about="">
						<dc:format>image/svg+xml</dc:format>
						<dc:type
						   rdf:resource="http://purl.org/dc/dcmitype/StillImage" />
						<cc:license
						   rdf:resource="http://creativecommons.org/licenses/by-sa/3.0/" />
						<dc:title>Neoesperiopsis rigida (Orange Finger Sponge)</dc:title>
						<dc:date>2010-03-31</dc:date>
						<dc:creator>
							<cc:Agent>
								<dc:title>Caroline Wicks</dc:title>
							</cc:Agent>	
						</dc:creator>   
						<dc:rights>
						  <cc:Agent>
							<dc:title>Caroline Wicks, Integration and Application Network</dc:title>
						  </cc:Agent>
						</dc:rights>
						<dc:publisher>
						  <cc:Agent>
							<dc:title>Integration and Application Network</dc:title>
						  </cc:Agent>
						</dc:publisher>
						<dc:identifier>http://ian.umces.edu/imagelibrary/displayimage-6924.html</dc:identifier>
						<dc:source>http://ian.umces.edu/imagelibrary/displayimage-6924.html</dc:source>
						<dc:language>en-US</dc:language>
						<dc:subject>
						  <rdf:Bag>
							<rdf:li>symbol,vector,illustration,other,sponge,porifera,Demospongiae,Poecilosclerida,Esperiopsidae,Neoesperiopsis rigida,Orange Finger Sponge,</rdf:li>
						  </rdf:Bag>
						</dc:subject>
						<dc:coverage></dc:coverage>
						<dc:description>Illustration of Neoesperiopsis rigida (Orange Finger Sponge).</dc:description>
						<dc:contributor>
						  <cc:Agent>
							<dc:title></dc:title>
						  </cc:Agent>
						</dc:contributor>
					  </cc:Work>
					  <cc:License
						 rdf:about="http://creativecommons.org/licenses/by-sa/3.0/">
						<cc:permits
						   rdf:resource="http://creativecommons.org/ns#Reproduction" />
						<cc:permits
						   rdf:resource="http://creativecommons.org/ns#Distribution" />
						<cc:requires
						   rdf:resource="http://creativecommons.org/ns#Notice" />
						<cc:requires
						   rdf:resource="http://creativecommons.org/ns#Attribution" />
						<cc:permits
						   rdf:resource="http://creativecommons.org/ns#DerivativeWorks" />
						<cc:requires
						   rdf:resource="http://creativecommons.org/ns#ShareAlike" />
					  </cc:License>
					</rdf:RDF>
				  </metadata>
					
<defs>
</defs>
<path fill="#AB4412" d="M181.579,280.804c4.492-2.614,6.895-16.804,9.445-22.813c2.924-6.891,5.566-13.332,11.809-12.608
	c8.666,1.005,6.619,16.629,7.076,27.866c0.623,15.336,1.543,30.045,1.898,45.391c0.305,13.221,1.834,28.127-0.365,41.121
	c-0.799,4.709-2.027,7.504-3.74,12.025c-2.178,5.76-3.285,11.59-5.408,17.258c-7.867,21.004-32.023,43.613-45.967,28.734
	c-8.914-9.506-6.746-19.4-0.572-31.711c3.447-6.869,6.08-15.195,8.855-22.662c1.68-4.52,3.945-9.633,4.75-14.902
	c1.023-6.699,1.045-13.537,1.797-20.42c0.744-6.846,3.57-13.387,4.781-20.309c1.48-8.451,2.777-17.967,4.695-25.463"/>
<linearGradient id="ian_symbols_71b12ac09109d3c469cbe2887fcfbb2b" gradientUnits="userSpaceOnUse" x1="261.9019" y1="196.6914" x2="130.8854" y2="425.6331">
	<stop  offset="0" style="stop-color:#FFDD00"/>
	<stop  offset="0.0703" style="stop-color:#FFC31D"/>
	<stop  offset="0.1479" style="stop-color:#FBAB2C"/>
	<stop  offset="0.232" style="stop-color:#F89834"/>
	<stop  offset="0.3233" style="stop-color:#F68A37"/>
	<stop  offset="0.4255" style="stop-color:#F58039"/>
	<stop  offset="0.5472" style="stop-color:#F4793A"/>
	<stop  offset="0.7394" style="stop-color:#F4783B"/>
	<stop  offset="0.9697" style="stop-color:#AB4412"/>
</linearGradient>
<path fill="url(#ian_symbols_71b12ac09109d3c469cbe2887fcfbb2b)" stroke="#AB4412" stroke-width="0.8996" d="M161.602,404.399c0.25-1.104,1.402-6.563-1.396-7.402
	c-2.797-0.842-4.504-9.875-6.219-16.355c-2.969-11.217-5.334-24.908-10.078-34.252c-7.029-13.834-21.805,0.172-30.34-0.02
	c-0.109,9.736,1.732,25.873,3.988,34.896c2.288,9.162,9.016,22.434,13.624,27.467c5.922,6.465,10.197,13.398,12.961,25.449
	c3.273,14.305-1.068,30.846-3.41,43.998c7.623-1.244,14.51-12.611,18.199-22.592c4.924-13.307,8.516-22.578,17.709-25.568
	c6.826-2.221,15.988-4.779,21.143-12.07c5.623-7.955,10.205-23.041,13.467-34.48c1.914-6.711,3.57-14.516,6.859-19.633
	c1.689-2.627,4.047-2.502,5.76-4.621c1.369-1.693,3.471-5.748,4.445-7.734c3.303-6.729,6.033-11.85,3.51-21.105
	c-2.133-7.84-5.188-9.713-4.318-20.178c1.18-14.299,8.197-24.791,11.938-35.424c5.656-16.077,9.107-37.99,7.523-57.117
	c-1.539-18.618-2.063-28.587-14.277-29.546c-3.912-0.307-8.881-2.271-12.725-0.76c-4.344,1.712-8.203,12.957-10.877,19.802
	c-5.26,13.48-5.215,31.423-7.668,47.31c-0.631,4.087-3.814,8.409-4.023,12.004c-0.266,4.597,2.246,6.923,3.236,10.985
	c0.803,3.282,1.055,6.86,0.334,10.87c-0.752,4.17-3.117,6.631-3.502,10.291c1.584,0.531,4.508,2.932,5.303,5.535
	c1.521,4.986-0.926,6.27-1.488,9.797c-0.502,3.139,0.531,8.574-0.26,11.193c-1.289,4.291-6.127,3.865-4.973,10.549
	c0.961,5.553,7.49,6.275,8.49,12.742c1.256,8.121-5.078,10.18-7.119,15.012c-0.109-0.359-0.559-0.686-0.801-0.621
	c-0.141-0.654-0.145-1.371-0.238-2.018c-9.834-1.186-3.578,13.377-4.709,23.027c-5.988,0.742-11.967,5.523-16.141,12.092
	c-2.801,4.402-7.73,17.145-12.535,15.939c0.154-1.219-0.316-3.275-0.207-4.33c-0.752-0.15-1.76-0.428-2.512-0.115
	C160.274,407.415,161.352,405.503,161.602,404.399z"/>
<path fill="#96795D" d="M233.286,200.062c3.906,1.658,7.291,1.7,7.559,0.091c0.27-1.609-2.682-4.255-6.586-5.914
	c-3.908-1.662-7.291-1.704-7.563-0.095C226.428,195.753,229.377,198.403,233.286,200.062z"/>
<path fill="#AB4412" d="M163.018,426.655c0.119-0.355,0.229-0.689,0.322-0.984c1.01-1.627,0.092-4.736-1.813-11.207
	c-0.531-1.82-1.219-4.164-1.424-5.154c0.342-0.555,1.027-1.43,1.627-1.979c-0.506-0.074-1.021-0.096-1.457,0.084
	c0,0,1.078-1.912,1.328-3.016c0.066-0.299,0.197-0.924,0.301-1.68c-3.43,1.174-6.082,7.9-7.586,13.344
	c-1.051,3.795-2.748,8.074-3.654,8.689c-2.471,1.678-1.969,4.65-2.449,6.533c-1.297,5.078-2.199,7.918-3.051,10.961
	c0.152,2.779,0.158,5.59-0.035,8.422c1.191-1.434,3.213-4.059,4.002-6.332c1.15-3.299,1.178-8.602,1.885-11.361
	c0.375-1.486-0.584-1.975,0.973-3.988s3.777-6.328,5.1-11.113c0.338-1.227,0.691-2.496,1.057-3.705
	c0.197,0.664,0.404,1.385,0.646,2.199c0.641,2.188,1.684,5.719,1.902,7.096c-0.1,0.32-0.223,0.691-0.359,1.111
	c-1.268,3.865-3.188,9.701-1.686,13.492c0.344,0.875,3.268,3.01,5.727,4.186c0.703-1.412,1.445-2.695,2.219-3.9
	c-1.318-0.436-5.268-2.406-5.377-2.688C160.583,434.069,162.417,428.489,163.018,426.655z"/>
<path fill="#AB4412" d="M145.627,405.616c1.943-4.559,4.42-5.908,7.551-7.607c1.641-0.891,3.324-1.838,4.99-3.293
	c-0.436-0.854-0.844-1.904-1.23-3.064c-1.236,1.02-2.568,1.764-3.975,2.527c-3.33,1.809-7.107,3.861-9.895,10.391
	c-1.332,3.123-1.975,6.051-2.598,8.883c-0.449,2.031-0.898,3.992-1.57,6.031c0.58,1.092,1.125,2.248,1.645,3.453
	c1.482-3.521,2.203-6.635,2.861-9.639C143.993,410.651,144.543,408.157,145.627,405.616z"/>
<path fill="#AB4412" d="M153.372,378.218c-0.373-1.49-0.744-3.006-1.113-4.549c-8.336,4.379-19.896,17.43-27.041,26.135
	c0.475,0.865,0.945,1.666,1.424,2.463C130.952,397.077,145.856,381.784,153.372,378.218z"/>
<path fill="#AB4412" d="M150.633,366.897c-0.449-1.84-0.916-3.664-1.4-5.471c-7.039,1.324-18.453,7.158-25.502,14.432
	c-2.572,2.66-4.375,5.355-5.419,7.998c0.563,1.811,1.23,3.689,2.013,5.627c2.102-4.523,8.23-11.16,10.236-13.238
	C137.028,369.575,145.834,367.249,150.633,366.897z"/>
<path fill="#AB4412" d="M235.702,245.78c-1.646,0.042-3.352,0.088-5.186,0.526c-1.111,0.271-1.955,0.777-2.699,1.224
	c-1.012,0.611-1.811,1.089-3.197,1.012c-0.818-0.049-1.52-0.594-2.33-1.223c-1.254-0.974-2.811-2.186-5.029-1.448l-0.652,0.218
	l-0.281,0.97c-0.623,2.169-2.379,4.639-3.9,4.727c-0.508,0.028-1.252-0.158-1.908-2.069l-0.725-2.112l-1.219,1.413
	c-1.924,2.225-4.545,4.681-7.148,5.401c-0.004,0.018-0.004,0.031-0.008,0.045c-0.225,1.459-0.779,2.948-1.404,4.421
	c2.727-0.004,5.752-1.757,9.023-5.226c0.928,1.609,2.127,2.436,3.479,2.358c2.369-0.13,4.703-3.058,5.869-6.125
	c1.02-0.103,1.795,0.502,2.74,1.236c0.949,0.734,2.021,1.567,3.398,1.645c1.92,0.113,3.145-0.629,4.23-1.278
	c0.68-0.411,1.322-0.798,2.154-0.998c1.66-0.397,3.275-0.439,4.836-0.481c3.334-0.092,6.781-0.226,10.314-3.887
	c0.211-1.589,0.389-3.188,0.547-4.793C243.364,243.977,238.577,245.703,235.702,245.78z"/>
<path fill="#AB4412" d="M242.071,258.033c-1.244-1.233-2.795-2.769-4.756-1.939c-1.438,0.607-2.178,2.614-2.775,4.228
	c-0.236,0.636-0.676,1.823-0.896,1.933c-0.936,0.453-1.834-0.147-2.877-0.84c-1.705-1.135-4.238-2.818-6.281,2.952
	c-0.836,0.157-1.848,0.449-2.973,0.776c-2.234,0.65-8.17,2.368-8.492,0.193l-0.211-1.398l-0.891-0.208
	c-3.133-0.728-4.543,0.71-6.033,2.231c-0.527,0.538-1.074,1.097-1.764,1.624c-2.027,1.553-3.482,2.017-6.445,2.056
	c0.355,1.489,0.977,2.786,1.596,4.136c2.393-0.207,4.002-0.844,5.998-2.372c0.834-0.64,1.48-1.297,2.045-1.876
	c1.172-1.191,1.877-1.916,3.49-1.736c1.605,4.294,6.873,2.769,11.182,1.518c1.35-0.39,2.625-0.759,3.406-0.818l0.797-0.063
	l0.34-1.148c1.014-3.42,1.438-3.139,3.217-1.954c1.258,0.836,2.822,1.876,4.666,0.98c1.213-0.583,1.848-2.309,2.414-3.83
	c0.365-0.998,0.783-2.123,1.17-2.288c0.795-0.337,1.539,0.32,2.672,1.444c0.73,0.728,1.473,1.258,2.154,1.655
	c0.383-1.525,0.727-3.082,1.068-4.656C243.043,258.444,242.278,258.241,242.071,258.033z"/>
<path fill="#AB4412" d="M229.504,283.987c-0.633-0.146-1.252-0.572-1.906-1.021c-0.906-0.629-1.848-1.279-2.965-1.279
	c-2.766,0-5.016,1.826-7.168,3.592c-1.768,1.453-3.459,2.838-5.371,3.105c-0.316-1.93-1.166-2.773-1.734-3.131
	c-2.461-1.551-6.754,1.877-9.98,5.137c-0.73,2.18-1.732,4-2.383,5.957c3.404-3.416,10.131-8.227,11.221-7.207
	c0.031,0.063,0.129,0.426,0.094,1.236l-0.084,2.07l1.414,0.168c3.324,0.4,5.941-1.75,8.246-3.645
	c1.908-1.566,3.711-3.049,5.742-3.049c0.471,0,1.051,0.404,1.729,0.871c0.77,0.533,1.645,1.135,2.693,1.381
	c1.521,0.355,3.115,0.25,4.67,0.137c0.635-1.461,1.271-2.91,1.91-4.328c-0.621,0.014-1.25,0.045-1.9,0.09
	C232.28,284.177,230.78,284.286,229.504,283.987z"/>
<path fill="#AB4412" d="M213.131,312.624c-0.449,0.109-0.893,0.07-1.363,0.035c-1.057-0.084-2.371-0.189-3.686,1.545
	c-1.012,1.336-0.871,3.406-0.787,4.643c0.01,0.141,0.02,0.313,0.027,0.471c-1.248,1.012-2.994,0.939-4.838,0.861
	c-0.402-0.018-0.809-0.027-1.213-0.031c0.07,1.57,0.088,3.064-0.102,4.23c0.414,0.004,0.832,0.018,1.246,0.035
	c0.496,0.021,0.998,0.043,1.502,0.043c1.852,0,3.682-0.289,5.225-1.938c0.998-1.064,0.867-2.982,0.791-4.125
	c-0.021-0.313-0.053-0.793-0.045-1.064c0.453-0.518,0.889-0.51,1.746-0.439c0.555,0.043,1.18,0.092,1.891-0.078
	c2.715-0.652,4.533-1.918,6.285-3.141c2.047-1.424,4.498-2.688,7.668-2.871c0.014-0.215,0.008-0.379,0.025-0.602
	c0.109-1.297,0.313-2.533,0.506-3.77c-3.637,0.355-7.246,1.961-9.26,3.363C217.079,310.954,215.5,312.054,213.131,312.624z"/>
<path fill="#AB4412" d="M220.092,324.056c-1.82,1.316-3.07,3.818-4.279,6.24c-1.223,2.445-2.379,4.754-4.037,5.84
	c-2.246,1.473-4.705,0.412-7.311-0.713c-2.59-1.117-5.506-2.344-8.525-1.111c0.021,0.443,0.016,0.852,0.105,1.375
	c0.174,0.988,0.561,1.789,1.02,2.533c2.186-0.66,4.389,0.289,6.709,1.289c1.824,0.789,3.682,1.594,5.572,1.594
	c1.137,0,2.285-0.293,3.438-1.049c2.295-1.504,3.789-4.486,5.102-7.119c1.063-2.123,2.066-4.125,3.305-5.025
	c1.887-1.367,3.07-0.67,4.709,0.293c1.123,0.66,3.584,1.029,5.559,0.994c-0.432-1.402-0.879-2.664-1.322-3.785
	c-1.232,0-2.256-0.559-3.32-1.184C225.012,323.169,222.971,321.968,220.092,324.056z"/>
<path fill="#AB4412" d="M212.52,347.997c-0.76,0.467-1.443,0.91-2.084,1.32c-2.141,1.385-3.711,2.379-5.945,2.875
	c-0.309,1.799-1.033,3.258-1.969,4.525c3.965-0.285,6.098-1.65,8.912-3.475c0.625-0.404,1.297-0.836,2.039-1.293
	c2.547-1.564,5.08-0.316,8.012,1.131c1.578,0.777,3.211,1.557,4.969,1.986c0.734-1.348,1.416-2.682,1.859-3.586
	c0.037-0.08,0.072-0.154,0.111-0.23c-2.002-0.541-4.799-1.551-6.156-2.219C219.151,347.493,215.926,345.905,212.52,347.997z"/>
<path fill="#AB4412" d="M205.788,368.831c-2.129-1.178-4.334-2.393-6.836-2.01c-1.693,0.26-3.039,1.531-4.227,2.652
	c-1.283,1.213-2.354,2.137-3.711,2.027c0.145,1.389,0.313,2.826,0.461,4.277c1.855-0.109,3.303-1.434,4.604-2.656
	c1.039-0.984,2.023-1.916,3.131-2.084c1.926-0.295,3.764,0.721,5.709,1.795c1.947,1.08,6.076,1.912,8.785,1.771
	c0.473-1.617,0.979-3.193,1.533-4.709C212.657,370.067,207.538,369.798,205.788,368.831z"/>
<path fill="#AB4412" d="M190.786,384.011c-0.9,0.17-1.799,0.43-2.691,0.771c1.813,10.396,9.055,11.213,14.664,11.213
	c0.533,0,1.055-0.008,1.553-0.014l2.885,0.832c0.602-1.824,1.174-3.641,1.723-5.443l-4.631,0.377
	C197.778,391.837,192.293,391.202,190.786,384.011z"/>
<path fill="#AB4412" d="M190.393,399.237v-1.998l-1.252-0.117c-0.66-0.059-1.373-0.006-2.129,0.053
	c-1.684,0.131-3.592,0.277-4.389-0.959c-0.123-0.322-0.201-1.539-0.254-2.344c-0.109-1.676-0.256-3.518-0.818-5.025
	c-0.777,0.678-1.535,1.406-2.264,2.193c0.264,0.707,0.365,2.094,0.439,3.268c0.123,1.887,0.238,3.672,0.994,4.857
	c1.666,2.607,4.301,2.402,6.42,2.24c0.229-0.018,0.453-0.033,0.672-0.049c0.496,6.586,3.338,8.508,5.871,10.223
	c0.777,0.523,4.014,2.748,5.588,3.984c0.678-1.137,1.336-2.361,1.979-3.672c-2.045-1.438-5.76-3.689-6.533-4.213
	C192.02,405.854,190.393,404.751,190.393,399.237z"/>
<path fill="#AB4412" d="M183.67,416.032l0.115-1.855l-1.139-0.422c-0.656-0.246-1.266-0.693-1.908-1.164
	c-0.854-0.625-1.785-1.307-2.898-1.531c0.006-0.166,0.014-0.334,0.023-0.5c0.17-3.383,0.244-5.713-0.305-7.246
	c-0.717-2.002-1.926-2.736-2.896-3.326c-0.396-0.244-0.723-0.461-1-0.699c-0.539,1.033-1.115,2.15-1.723,3.289
	c0.594,0.625,1.219,1.025,1.777,1.367c0.799,0.484,1.301,0.818,1.521,1.434c0.188,0.705,0.047,3.5-0.02,4.842
	c-0.064,1.219-0.117,2.273-0.088,3.057l0.076,2.273l1.416-0.287c1.094-0.225,1.938,0.396,3.008,1.18
	c0.43,0.313,2.404,1.912,2.949,3.271c0.453,1.129,2.871,4.635,4.736,6.402c1.613-0.752,3.174-1.633,4.664-2.645
	C189.379,421.827,183.553,417.849,183.67,416.032z"/>
<path fill="#AB4412" d="M166.262,410.757c-0.813,0.682-1.635,1.113-2.457,1.164c1.236,4.346,2.793,9.691,4.234,13.166
	c0.426,1.027,2.164,5.707,3.047,8.033c1.051-0.871,2.221-1.58,3.475-2.182c-1.1-2.207-3.857-7.105-4.309-8.188
	C168.875,419.433,167.411,414.763,166.262,410.757z"/>
<path fill="#AB4412" d="M136.588,359.782c0.643-1.184,1.561-2.537,1.561-2.537c-0.078-0.9-0.225-2.723,7.773-6.234
	c-0.521-1.342-1.072-2.625-1.662-3.84c-7.906,3.809-11.422,8.492-13.09,11.223c-1.824,2.988-3.957,2.867-6.084,4.387
	c-3.254,2.313-6.553,4.684-9.649,7.119c0.257,1.768,0.53,3.461,0.822,5.088c3.602-3.152,8.04-6.34,12.395-9.432
	C131.315,363.669,135.946,360.966,136.588,359.782z"/>
<linearGradient id="ian_symbols_7628a983d6d2ff34c1f3ba7f9fc931e0" gradientUnits="userSpaceOnUse" x1="18.0884" y1="7.7744" x2="115.6681" y2="502.3229">
	<stop  offset="0" style="stop-color:#FFDD00"/>
	<stop  offset="0.0774" style="stop-color:#FFC31D"/>
	<stop  offset="0.163" style="stop-color:#FBAB2C"/>
	<stop  offset="0.2556" style="stop-color:#F89834"/>
	<stop  offset="0.3562" style="stop-color:#F68A37"/>
	<stop  offset="0.4687" style="stop-color:#F58039"/>
	<stop  offset="0.6028" style="stop-color:#F4793A"/>
	<stop  offset="0.8146" style="stop-color:#F4783B"/>
</linearGradient>
<path fill="url(#ian_symbols_7628a983d6d2ff34c1f3ba7f9fc931e0)" stroke="#AB4412" stroke-width="0.8996" d="M115.666,366.55c2.414,5.377,7.106,10.855,10.641,14.131
	c2.225,2.063,3.377,2.801,5.021,5.027c3.201,4.334,3.783,9.229,6.297,13.916c3.521,6.561,10.412,11.203,13.67,18.717
	c3.215,7.408,2.965,25.516,1.588,34.254c-1.381,8.783-4.762,19.408-9.568,24.357c-4.646,4.785-10.83,5.189-15.604,9.35
	c-8.957,7.809-18.304,17.359-29.752,13.094c-6.072-2.264-6.188-10.729-9.502-16.652c-1.849-3.305-4.161-3.564-6.632-4.488
	c-4.178-1.564-6.297-3.508-10.078-6.322c-8.557-6.373-18.94-20.479-23.017-35.463c-2.334-8.586-3.792-18.441-7.362-25.471
	c-1.55-3.049-4.674-6.736-6.213-10.299c-1.771-4.088-1.588-9.211-1.869-14.221c-0.439-7.76-1.233-15.357-1.922-22.648
	c-1.047-11.076,0.397-22.807-1.001-33.873c-1.1-8.693-5.13-15.602-7.007-23.516c-2.288-9.646-3.149-19.383-3.764-30.2
	c-0.689-12.078-1.736-26.043-4.234-37.568c-2.724-12.556-9.878-21.815-11.941-34.747c-4.93-30.913-2.217-65.572-2.259-97.417
	c-0.028-23.214,0.031-44.941,2.797-67.02C6.59,18.459,11.517,0.46,26.283,0.453c10.402-0.004,20.768-0.376,29.532,8.208
	c2.695,2.643,4.905,5.56,7.776,7.766c2.569,1.972,4.186,0.738,6.892,2.102c3.43,1.725,6.813,11.944,8.726,17.349
	c2.99,8.462,8.672,17.841,10.637,27.315c2.073,10.022-0.352,21.668,1.561,31.687c1.687,8.816,3.331,17.162,4.188,25.895
	c1.258,12.749,0.499,26.349,0.499,39.259c0,21.32-0.2,42.734,0.921,63.475c0.643,11.898,2.74,23.291,5.208,34.54
	c2.512,11.448,2.846,21.446,2.846,33.915c0,11.342,0.028,21.801,2.983,31.967c3.029,10.416,7.552,20.799,6.934,34.5
	c0,0-0.569,3.596-0.471,4.523C114.611,363.88,115.666,366.55,115.666,366.55z"/>
<path fill="#96795D" d="M59.715,22.556c-0.456,2.822-8.493,1.937-17.946-1.975c-9.453-3.911-16.744-9.365-16.287-12.187
	c0.457-2.818,8.493-1.936,17.946,1.975C52.88,14.281,60.176,19.734,59.715,22.556z"/>
<path fill="#AB4412" d="M6.382,80.099c0.116,7.893,1.855,9.337,6.603,12.183c0.369,0.222,0.914,0.595,1.494,0.988
	c1.795,1.219,2.635,1.764,3.169,1.852c3.275,0.548,4.955-1.247,6.575-2.987c0.868-0.928,1.764-1.887,2.994-2.555
	c4.73-2.568,7.833,2.246,11.427,7.819c2.73,4.237,5.56,8.623,9.358,9.898c2.762,0.925,5.573,0.38,8.29-0.15
	c1.894-0.369,3.683-0.717,5.39-0.577c2.977,0.246,4.966,1.807,7.268,3.609c0.945,0.738,1.919,1.504,3.029,2.238
	c0.449,0.295,0.825,0.608,1.177,0.896c0.967,0.79,1.961,1.605,3.603,1.605c0.245,0,0.502-0.018,0.776-0.056
	c2.231-0.316,3.408-1.947,4.445-3.388c0.685-0.949,1.328-1.845,2.322-2.467c1.269-0.794,3.328-0.563,5.148-0.362
	c0.337,0.039,2.309,0.369,4.6,0.752c-0.238-1.455-0.488-2.916-0.752-4.375c-1.876-0.316-3.395-0.569-3.665-0.601
	c-2.098-0.235-4.474-0.499-6.301,0.643c-1.42,0.893-2.309,2.126-3.092,3.212c-0.91,1.262-1.567,2.172-2.938,2.365
	c-1.359,0.193-1.953-0.295-2.934-1.1c-0.411-0.334-0.851-0.692-1.371-1.037c-1.033-0.685-1.971-1.42-2.878-2.129
	c-2.456-1.926-4.779-3.746-8.3-4.034c-1.937-0.162-3.926,0.225-5.848,0.601c-2.621,0.51-5.092,0.991-7.422,0.211
	c-3.046-1.022-5.481-4.797-8.058-8.796c-3.687-5.714-7.861-12.193-14.133-8.789c-1.56,0.851-2.653,2.018-3.616,3.047
	c-1.451,1.557-2.502,2.682-4.775,2.302c-0.337-0.108-1.659-1.009-2.449-1.542c-0.622-0.426-1.206-0.822-1.599-1.059
	c-4.519-2.709-4.99-2.993-4.881-10.169l0.032-2.099l-1.314-0.07c-0.998-0.052-1.985-0.207-3.033-0.372
	c-1.068-0.169-2.168-0.299-3.282-0.354c-0.039,1.409-0.078,2.814-0.105,4.227c1.022,0.05,2.052,0.173,3.127,0.342
	C5.093,79.919,5.736,80.022,6.382,80.099z"/>
<path fill="#AB4412" d="M13.987,116.002c2.186,1.476,4.045,4.191,6.02,7.069c2.396,3.504,4.885,7.127,8.329,9.162
	c5.647,3.331,9.522,1.894,14.007,0.231c1.009-0.372,2.066-0.766,3.205-1.124c4.375-1.385,7.79,0.572,11.747,2.839
	c0.928,0.53,1.866,1.064,2.825,1.563c3.353,1.74,6.895,1.743,10.331,1.747c2.565,0.003,4.99,0.007,7.296,0.692
	c2.618,0.776,4.508,3.148,6.508,5.661c1.823,2.287,3.704,4.648,6.279,6.128c1.701,0.967,3.647,1.191,5.647,1.198
	c0.024-1.412,0.031-2.828,0.053-4.248c-1.701-0.004-3.317-0.165-4.558-0.875c-2.102-1.202-3.708-3.223-5.412-5.362
	c-2.207-2.77-4.487-5.637-7.893-6.646c-2.607-0.78-5.31-0.78-7.921-0.783c-3.313-0.004-6.44-0.008-9.283-1.483
	c-0.936-0.484-1.838-1.005-2.73-1.518c-4.06-2.323-8.251-4.724-13.551-3.047c-1.177,0.372-2.273,0.776-3.313,1.163
	c-4.28,1.585-7.366,2.73-12.067-0.042c-2.878-1.697-5.138-5.001-7.334-8.195c-2.07-3.021-4.206-6.146-6.884-7.952
	c-2.231-1.504-5.205-1.648-8.072-1.788c-2.604-0.127-4.6-0.349-6.08-0.942c-0.007,1.44-0.021,2.893-0.035,4.34
	c1.961,0.629,4.112,0.741,6.009,0.833C9.668,114.751,12.314,114.881,13.987,116.002z"/>
<path fill="#AB4412" d="M13.411,147.421c1.803,1.35,3.398,3.127,5.085,5.011c1.876,2.087,3.813,4.245,6.125,5.89
	c1.785,1.265,3.645,2.432,5.623,3.665c2.724,1.708,5.542,3.472,8.122,5.514c4.248,3.359,7.917,6.259,14.157,6.908
	c3.086,0.316,6.203,0.239,9.222,0.162c5.541-0.141,10.777-0.274,15.574,1.891c0.963,0.432,2.41,1.321,4.094,2.354
	c4.413,2.706,9.973,6.121,14.225,6.121c0.162,0,0.313-0.031,0.475-0.042c-0.007-1.416-0.014-2.832-0.014-4.252
	c-3.578,0.345-9.84-3.451-13.555-5.728c-1.75-1.076-3.264-2.004-4.36-2.499c-5.243-2.365-10.96-2.221-16.488-2.08
	c-2.955,0.073-6.013,0.151-8.961-0.154c-5.615-0.58-8.862-3.149-12.97-6.399c-2.699-2.133-5.581-3.939-8.371-5.683
	c-1.937-1.216-3.767-2.364-5.489-3.584c-2.048-1.458-3.792-3.395-5.629-5.447c-1.718-1.911-3.497-3.89-5.524-5.411
	c-2.411-1.803-5.201-2-7.903-2.193c-2.277-0.161-4.456-0.326-6.195-1.426c-0.028,1.493-0.053,2.976-0.074,4.47
	c1.933,0.871,4.048,1.04,6.125,1.188C9.204,145.872,11.569,146.041,13.411,147.421z"/>
<path fill="#AB4412" d="M30.763,196.129c5.714,1.827,11.252,0.97,16.46-2.544c1.181-0.088,1.343,0.007,1.662,0.203
	c0.373,0.226,0.879,0.538,1.926,0.851c1.926,0.573,3.623,1.191,5.422,1.845c1.336,0.489,2.692,0.978,4.144,1.452
	c3.746,1.229,7.517,1.233,11.157,1.24c2.302,0.003,4.681,0.007,6.996,0.326c1.09,0.145,2.235,0.289,3.427,0.439
	c4.69,0.587,9.828,1.244,14.351,2.541c-0.027-1.501-0.053-3.005-0.073-4.509c-4.516-1.223-9.464-1.884-14.015-2.453
	c-1.188-0.147-2.329-0.288-3.404-0.436c-2.46-0.337-4.909-0.341-7.271-0.344c-3.645-0.008-7.081-0.011-10.504-1.132
	c-1.431-0.468-2.759-0.952-4.076-1.431c-1.754-0.636-3.557-1.289-5.542-1.887c-0.759-0.229-1.086-0.429-1.37-0.601
	c-0.819-0.496-1.346-0.682-3.297-0.506l-0.295,0.024l-0.264,0.183c-4.628,3.212-9.562,4.03-14.657,2.442
	c-9.924-5.932-20.23-10.792-30.653-14.569c0.07,1.557,0.144,3.113,0.239,4.667c9.994,3.689,19.868,8.377,29.392,14.084
	L30.763,196.129z"/>
<path fill="#AB4412" d="M28.985,221.968c5.405,4.491,11.132,8.356,17.141,11.537c6.635,2.821,9.703,0.944,13.252-1.227
	c1.911-1.167,4.072-2.488,7.235-3.297c3.96-1.012,9.438,0.637,14.281,2.091c1.599,0.481,3.155,0.945,4.586,1.304
	c0.671,0.166,2.08,0.907,3.573,1.688c3.029,1.588,6.551,3.387,9.425,3.626c-0.2-1.423-0.411-2.847-0.583-4.283
	c-2.365-0.51-5.644-2.214-7.692-3.286c-1.778-0.931-3.177-1.669-4.144-1.908c-1.401-0.348-2.909-0.805-4.477-1.271
	c-5.138-1.547-10.96-3.293-15.563-2.119c-3.535,0.903-5.879,2.337-7.952,3.605c-3.317,2.027-5.514,3.37-10.883,1.089
	c-5.774-3.061-11.375-6.845-16.646-11.245l-0.246-0.165c-7.646-4.129-12.443-1.858-17.082,0.334
	c-1.508,0.717-2.984,1.402-4.547,1.873c0.548,1.279,1.093,2.555,1.645,3.83c1.377-0.491,2.674-1.1,3.957-1.707
	C18.692,220.341,22.519,218.528,28.985,221.968z"/>
<path fill="#AB4412" d="M29.512,260.31c2.703,1.317,5.103,3.676,7.653,6.174c2.889,2.833,5.872,5.764,9.475,7.281
	c2.59,1.09,5.05,1.508,7.449,1.508c3.855,0,7.563-1.079,11.396-2.196l1.427-0.411c3.975-1.139,7.959-1.1,12.176-1.062
	c1.778,0.018,3.616,0.035,5.443-0.042l0.956-0.042l0.39-1.202c2.752-8.43,2.752-8.43,9.66-5.591l0.173,0.07
	c2.467,1.016,5.299,2.165,8.11,2.411c-0.19-1.434-0.408-2.875-0.661-4.33c-2.182-0.351-4.455-1.269-6.578-2.14l-0.172-0.074
	c-7.728-3.173-9.611-3.032-12.918,6.694c-1.462,0.039-2.941,0.025-4.379,0.011c-4.195-0.038-8.528-0.081-12.815,1.146l-1.44,0.418
	c-6.087,1.771-11.344,3.3-17.324,0.78c-3.128-1.321-5.788-3.925-8.603-6.687c-2.604-2.555-5.292-5.197-8.395-6.712
	c-4.955-2.422-8.276,0.2-11.491,2.737c-0.221,0.176-0.446,0.348-0.671,0.523c0.14,1.511,0.274,3.015,0.397,4.519
	c0.608-0.446,1.209-0.902,1.792-1.363C23.538,260.387,25.882,258.532,29.512,260.31z"/>
<path fill="#AB4412" d="M54.876,314.026c11.157,4.736,16.383,4.451,27.962-1.537c1.858-0.963,3.816-2.572,5.707-4.131
	c2.892-2.383,5.886-4.846,8.427-4.986c2.491-0.139,4.308,1.664,6.405,3.752c0.679,0.676,1.389,1.371,2.144,2.014
	c-0.141-1.795-0.242-3.613-0.309-5.443c-2.246-2.23-4.79-4.754-8.371-4.555c-3.345,0.188-6.687,2.938-9.924,5.598
	c-1.854,1.529-3.602,2.971-5.193,3.797c-10.999,5.686-15.359,5.932-25.909,1.451c-12.433-5.283-20.589-2.725-29.912,4.518
	c0.464,1.262,0.928,2.527,1.385,3.803C36.072,311.429,43.378,309.142,54.876,314.026z"/>
<path fill="#AB4412" d="M60.875,350.536c1.476,2.412,3.38,3.568,5.64,3.342c3.054-0.727,6.997-3.518,9.664-5.889
	c1.55-1.377,2.906-2.951,4.213-4.473c2.776-3.236,5.18-6.031,8.8-6.365c1.581-0.146,3.046,0.422,4.586,1.023
	c1.929,0.752,3.925,1.527,6.272,0.977c2.326-0.549,4.378-1.918,6.367-3.244c1.515-1.012,2.983-1.961,4.551-2.596
	c-0.408-1.309-0.812-2.607-1.223-3.895c-1.638,0.725-3.146,1.688-4.61,2.66c-1.881,1.258-3.666,2.445-5.577,2.896
	c-1.697,0.4-3.293-0.223-4.979-0.883c-1.722-0.668-3.493-1.359-5.587-1.166c-4.579,0.424-7.591,3.932-10.508,7.32
	c-1.233,1.436-2.512,2.926-3.9,4.156c-2.498,2.217-6.114,4.715-8.416,5.275c-1.332,0.129-2.39-0.646-3.324-2.443l-0.411-0.779
	l-0.682-0.074c-11.065-1.205-21.373,2.607-30.727,11.301c0.046,1.648,0.13,3.289,0.256,4.92
	C40.258,353.661,50.192,349.571,60.875,350.536z"/>
<path fill="#AB4412" d="M51.837,388.517c2.39-2.533,4.716-4.406,6.392-5.137c3.88-1.697,7.945-2.678,12.25-3.715
	c6.797-1.641,13.824-3.336,19.984-8.078c1.188-0.914,2.183-1.736,3.082-2.479c3.11-2.572,4.821-3.988,9.386-4.818
	c0.91-0.164,1.905-0.424,2.945-0.699c3.015-0.789,6.104-1.068,6.072-1.17c0.031,0.102,2.628,0.748,2.66,0.854
	c0.313,0.18,1.152-3.984,0.352-4.318c-3.04-1.258-6.635-0.316-9.646,0.475c-0.974,0.256-1.915,0.502-2.772,0.658
	c-5.184,0.941-7.316,2.705-10.542,5.375c-0.875,0.721-1.838,1.521-3.001,2.414c-5.714,4.4-12.485,6.031-19.036,7.611
	c-4.213,1.016-8.57,2.066-12.637,3.846c-2.733,1.193-5.763,4.152-7.323,5.809c-2.291,2.432-4.237,6.305-6.128,10.051
	c-1.965,3.914-3.992,7.902-6.23,9.887c0.706,1.084,1.416,2.148,2.087,3.174c2.53-2.494,4.607-6.609,6.632-10.627
	C48.112,394.149,49.922,390.548,51.837,388.517z"/>
<path fill="#AB4412" d="M66.768,428.968l19.806-10.869l0.231-0.264c6.688-7.834,14.499-13.926,23.218-18.123
	c7.471-1.738,18.22,0.365,26.873,2.061c0.824,0.16,1.57,0.299,2.357,0.449c-0.59-0.84-1.146-1.697-1.627-2.598
	c-0.395-0.73-0.729-1.469-1.043-2.207c-8.859-1.732-19.602-3.721-27.484-1.809l-0.331,0.115
	c-9.144,4.369-17.331,10.715-24.355,18.875l-19.081,10.475c-6.203,2.668-12.496,3.51-18.755,2.541
	c0.345,1.477,0.686,2.947,1.037,4.41c1.311,0.145,2.621,0.221,3.936,0.221C56.608,432.245,61.683,431.159,66.768,428.968z"/>
<path fill="#AB4412" d="M133.159,428.604c-2.08-0.102-4.006-0.459-6.041-0.836c-2.543-0.475-5.176-0.967-8.11-0.91
	c-12.162,0.232-14.183,3.703-17.953,12.232c-0.534,1.205-1.121,2.523-1.796,3.961c-4.322,9.098-12.021,12.893-20.174,16.916
	c-4.256,2.098-8.603,4.297-12.535,7.291c1.097,1.119,2.179,2.135,3.254,3.051c3.314-2.34,6.979-4.168,10.806-6.055
	c8.406-4.154,17.1-8.441,22.09-18.938c0.703-1.479,1.304-2.842,1.849-4.082c3.243-7.324,4.22-9.537,14.523-9.73
	c2.589-0.051,4.941,0.387,7.431,0.85c2.057,0.379,4.18,0.777,6.492,0.893c7.477,0.377,13.949-3.262,20.178-7.035
	c-0.227-1.701-0.504-3.297-0.852-4.713C145.993,425.362,139.995,428.95,133.159,428.604z"/>
<path fill="#AB4412" d="M95.183,471.87c1.55-1.055,3.647-0.338,7.207,1.02c3.061,1.162,6.863,2.611,11.663,2.965
	c8.53,0.625,14.116-5.914,19.518-12.238c3.039-3.568,5.914-6.934,9.266-9.066c3.391-2.158,6.381-2.639,10.16-2.762
	c0.178-1.273,0.336-2.699,0.467-4.246c-4.301,0.105-8.047,0.594-12.223,3.248c-3.783,2.414-6.971,6.148-10.061,9.762
	c-5.084,5.959-9.893,11.588-16.917,11.072c-4.382-0.32-7.818-1.627-10.848-2.779c-3.753-1.43-6.989-2.664-9.906-0.682
	c-2.548,1.729-4.424,5.566-6.241,12.936c0.411,0.453,0.813,0.973,1.188,1.645c0.495,0.885,0.91,1.838,1.293,2.811l0.077,0.025
	C91.56,477.528,93.261,473.171,95.183,471.87z"/>
<linearGradient id="ian_symbols_5bcce21409e8ecd41568853a84b4b7f0" gradientUnits="userSpaceOnUse" x1="159.7798" y1="124.9063" x2="165.054" y2="407.4549">
	<stop  offset="0" style="stop-color:#FFDD00"/>
	<stop  offset="0.0774" style="stop-color:#FFC31D"/>
	<stop  offset="0.163" style="stop-color:#FBAB2C"/>
	<stop  offset="0.2556" style="stop-color:#F89834"/>
	<stop  offset="0.3562" style="stop-color:#F68A37"/>
	<stop  offset="0.4687" style="stop-color:#F58039"/>
	<stop  offset="0.6028" style="stop-color:#F4793A"/>
	<stop  offset="0.8146" style="stop-color:#F4783B"/>
</linearGradient>
<path fill="url(#ian_symbols_5bcce21409e8ecd41568853a84b4b7f0)" stroke="#AB4412" stroke-width="0.8996" d="M144.674,388.573c-4.252-6.031-5.668-14.32-5.668-14.32
	s1.416-4.521,0-10.549c-1.416-6.029-6.139-2.26-7.084-7.537c-0.945-5.275,2.361-6.779,1.887-9.797
	c-0.471-3.016-4.723-7.539-4.248-11.305c0.471-3.768,0.945-12.061,0.945-14.32s-1.42-12.057-2.836-15.824s0.475-23.365,0.475-23.365
	l-1.891-27.128l0.945-24.116c0,0,4.723-25.625,5.193-36.174c0.475-10.553-2.832-16.579-0.945-31.651
	c1.891-15.075,8.975-32.406,8.975-32.406s6.143-5.278,12.281-6.782c6.139-1.511,10.863-0.756,17.002,2.256
	c6.143,3.015,13.227,9.801,13.227,9.801s4.719,3.767,6.139,9.797c1.416,6.026-1.416,10.55-1.416,10.55s4.723,4.522,4.248,9.045
	c-0.471,4.519-3.777,4.519-3.307,9.041c0.475,4.523,3.307,4.523,3.781,9.046c0.471,4.519-1.891,16.575-1.416,23.361
	c0.471,6.782,4.248,5.278,6.139,13.564c1.887,8.289-2.361,24.872-2.361,24.872l0.945,19.595l-1.891,15.823
	c0,0,2.832,2.263,3.307,12.06c0.471,9.797-2.836,15.072-2.836,15.072s1.42-1.504,2.361,4.521c0.945,6.031-3.777,7.539-3.777,7.539
	s3.307-0.004,4.723,4.518c1.416,4.523-8.025,14.32-7.084,18.844c0.945,4.521,6.139,0.752,7.084,4.521
	c0.945,3.768-5.197,6.783-6.139,12.813c-0.945,6.027,2.832,5.275,0,12.809c-2.836,7.539-8.5,2.264-11.807,5.279
	c-3.307,3.014-1.891,9.041-1.891,9.041l-8.029,12.057c0,0,0.475,5.277-4.25,8.293c-4.723,3.016-6.613-7.537-10.391-12.061
	C151.284,390.837,148.922,394.603,144.674,388.573z"/>
<path fill="#96795D" d="M173.487,133.091c0,2.083-5.5,3.767-12.283,3.767c-6.781,0-12.281-1.684-12.281-3.767
	c0-2.081,5.5-3.768,12.281-3.768C167.987,129.324,173.487,131.01,173.487,133.091z"/>
<path fill="#AB4412" d="M136.11,330.757c3.877-4.035,7.229-7.518,13.141-7.896c1.51-0.096,3.123,0.15,4.68,0.387
	c1.719,0.264,3.504,0.537,5.219,0.361c4.516-0.453,5.506-1.016,6.623-3.75c0.328-0.793,0.693-1.693,1.691-3.012
	c0.668-0.881,1.068-1.541,1.359-2.023c0.559-0.91,0.611-1.008,3.248-1.803c1.377-0.418,2.727-0.52,4.143-0.625
	c1.971-0.15,4.016-0.303,6.094-1.375c3.703-1.91,9.775-6.064,14.172-10.225c0.336-1.67,0.58-3.67,0.633-5.963
	c-3.768,4.424-11.541,9.99-15.85,12.215c-1.65,0.85-3.381,0.979-5.211,1.117c-1.479,0.111-3,0.229-4.613,0.713
	c-3.199,0.967-3.793,1.355-4.914,3.201c-0.256,0.418-0.586,0.959-1.137,1.689c-1.314,1.75-1.871,3.094-2.236,3.982
	c-0.4,0.994-0.516,1.262-4.221,1.633c-1.443,0.148-3.012-0.09-4.674-0.348c-1.672-0.252-3.4-0.52-5.146-0.406
	c-6.832,0.439-10.705,4.463-14.803,8.721c-1.387,1.445-2.824,2.906-4.406,4.281c-0.109,1.311-0.225,2.508-0.34,3.434
	c-0.066,0.541-0.021,1.1,0.08,1.662C132.116,334.856,134.149,332.784,136.11,330.757z"/>
<path fill="#AB4412" d="M156.911,353.938c1.771-0.193,3.729-0.061,5.787,0.08c4.713,0.324,9.584,0.658,13.244-2.902
	c1.74-1.689,3.275-3.492,4.762-5.232c3.416-4.006,6.367-7.467,10.914-8.83l0.508-0.154c0.805-1.543,1.781-3.182,2.697-4.793
	c-2.055,0.383-4.693,0.91-4.693,1.121c-4.586,1.721-7.707,5.383-11,9.24c-1.438,1.691-2.928,3.434-4.568,5.029
	c-2.973,2.893-7.436,2.586-11.748,2.291c-2.363-0.162-4.811-0.33-6.982,0.053l-0.836,0.148l-0.273,1.271
	c-1.828,8.549-9.488,8.32-16.246,8.121c-0.629-0.018-1.334,0.414-1.996,0.727c1.041,0.5,1.982,1.381,2.502,3.518
	c0.852,0.025,1.709,0.051,2.584,0.051C147.819,363.677,154.479,362.604,156.911,353.938z"/>
<path fill="#AB4412" d="M183.118,367.151c-3.971,6.16-7.277,6.6-12.281,7.256c-1.416,0.189-3.025,0.4-4.762,0.77
	c-1.615,0.342-2.664,0.939-3.682,1.52c-0.518,0.295-1.055,0.604-1.715,0.895c-1.037,0.461-2.344,1.432-3.727,2.461
	c-1.443,1.072-3.242,2.41-4.076,2.559c-3.246,0.59-9.996-7.244-13.039-12.684l-0.236,0.264c-0.119,2.488-0.594,4.063-0.594,4.063
	s0.08,0.432,0.219,1.068c3.01,4.438,8.734,11.555,13.299,11.555c0.254,0,0.5-0.021,0.738-0.064c1.363-0.248,3.178-1.592,5.09-3.014
	c1.205-0.896,2.449-1.82,3.232-2.168c0.74-0.33,1.35-0.676,1.932-1.01c0.975-0.551,1.744-0.99,3.002-1.258
	c1.658-0.348,3.152-0.545,4.596-0.738c5.289-0.695,9.467-1.246,14.232-8.619c2.055-3.188,3.717-5.33,6.037-7.057
	c-0.113-0.813-0.15-1.742,0.049-3.012c0.113-0.73,0.309-1.408,0.555-2.059C188.168,360.085,185.913,362.825,183.118,367.151z"/>
<path fill="#AB4412" d="M139.543,313.464c0.887-0.91,1.182-2.4,1.463-3.842c0.404-2.098,0.734-3.422,1.918-4.133
	c0.84-0.498,2.369-0.066,3.715,0.316c2.105,0.602,4.283,1.221,5.844-0.695c1.398-1.719,1.156-4.797,0.924-7.77
	c-0.096-1.219-0.27-3.486-0.08-3.975c1.451-2.104,5.826-2.639,10.064-3.152c4.725-0.576,9.617-1.17,12.703-3.967l0.357-0.322
	c6.736-6.119,9.643-8.706,17.715-9l0.516-4.312c-8.346,0.517-13.16,3.749-19.709,9.695l-0.359,0.324
	c-2.506,2.273-7.057,2.828-11.459,3.363c-5.166,0.625-9.625,1.17-11.814,4.336c-1.209,1.754-0.98,4.676-0.76,7.502
	c0.104,1.234,0.279,3.531,0.088,4.01c-0.523,0.65-2.174,0.18-3.5-0.197c-1.813-0.514-3.689-1.047-5.299-0.084
	c-2.559,1.529-3.188,4.75-3.598,6.885c-0.105,0.547-0.268,1.381-0.334,1.527c-1.707,1.75-5.328,1.494-8.514,1.27
	c-0.068-0.004-0.123-0.004-0.191-0.012c0.271,1.441,0.514,2.91,0.715,4.273c0.928,0.061,1.869,0.131,2.814,0.131
	C135.338,315.636,137.825,315.228,139.543,313.464z"/>
<path fill="#AB4412" d="M141.178,267.046c8.109,3.549,13.354,3.862,19.484-4.28c4.639-6.153,8.033-6.585,15.279-6.976
	c4.762-0.256,6.572-1.771,9.32-4.065c0.67-0.559,1.416-1.181,2.291-1.858c2.564-1.982,4.645-2.316,7.322-2.362l-0.137-2.874
	c0,0,0.131-0.517,0.326-1.367c-3.039,0.039-5.674,0.387-8.887,2.864c-0.912,0.706-1.682,1.35-2.375,1.929
	c-2.617,2.187-3.932,3.286-7.967,3.5c-7.568,0.411-11.771,0.956-17.152,8.086c-5.189,6.892-9.16,6.631-16.66,3.35
	c-3.078-1.347-10.436-2.207-15.096,1.096l0.324,4.66C130.331,265.483,137.657,265.507,141.178,267.046z"/>
<path fill="#AB4412" d="M138.567,241.425c2.762-0.407,5.619-0.829,7.973-2.379c2.154-1.416,3.832-3.159,5.311-4.694
	c2.379-2.475,4.438-4.607,7.932-4.941c2.723-0.26,4.582,0.397,6.223,0.98c3.16,1.118,5.654,2,10.684-4.21
	c1.65-2.041,2.283-2.249,3.434-2.628c0.688-0.225,1.541-0.506,2.758-1.202c1.6-0.91,2.797-2.639,3.953-4.312
	c1.146-1.651,4.471-5.292,6.182-6.227c-0.729-0.925-1.354-1.888-1.729-3.423c-2.307,1.68-5.162,4.962-6.234,6.512
	c-1.01,1.458-1.961,2.836-3.064,3.465c-1.041,0.594-1.764,0.829-2.4,1.04c-1.479,0.484-2.488,0.91-4.523,3.426
	c-4.047,4.993-5.621,4.435-8.486,3.423c-1.717-0.607-3.861-1.367-6.953-1.075c-4.195,0.404-6.639,2.938-9.221,5.622
	c-1.451,1.504-2.949,3.062-4.875,4.33c-1.984,1.304-4.521,1.68-7.207,2.076c-4.178,0.619-8.838,1.318-11.635,6.188l-0.242,6.149
	C129.016,245.27,134.592,242.016,138.567,241.425z"/>
<path fill="#AB4412" d="M139.663,204.068c0.75-0.257,1.473-0.503,2.162-0.692c1.355,3.915,4.393,2.927,6.297,2.309
	c0.941-0.306,1.918-0.625,2.537-0.46c1.68,0.449,2.955,1.243,4.305,2.084c2.004,1.251,4.07,2.537,7.285,2.537
	c0.285,0,0.58-0.011,0.879-0.032c5.664-0.39,6.75-2.302,7.889-6.574c0.502-1.884,1.074-4.021,2.889-6.765
	c2.484-3.753,13.768-11.403,18.525-11.61c0.021-0.777,0.008-1.466-0.053-2.031c-0.088-0.854-0.281-1.512-0.506-2.102
	c-5.918,0.763-17.141,8.458-19.998,12.77c-2.217,3.36-2.963,6.146-3.508,8.181c-0.717,2.692-0.955,3.599-5.369,3.901
	c-3.092,0.214-4.867-0.896-6.93-2.179c-1.438-0.893-2.916-1.817-4.902-2.348c-1.174-0.313-2.436,0.095-3.654,0.492
	c-2.783,0.903-3.104,0.632-3.367-1.022l-0.295-1.842l-1.264,0.229c-1.154,0.207-2.373,0.625-3.561,1.026
	c-2.568,0.875-5.219,1.768-7.189,0.597c-0.154,1.343-0.328,2.745-0.52,4.199C133.981,205.976,136.983,204.978,139.663,204.068z"/>
</svg>
