<?xml version="1.0" encoding="utf-8"?>
<!-- Generator: Adobe Illustrator 18.1.1, SVG Export Plug-In . SVG Version: 6.00 Build 0)  -->
<svg version="1.1" id="Слой_1" xmlns="http://www.w3.org/2000/svg" xmlns:xlink="http://www.w3.org/1999/xlink" x="0px" y="0px"
	 viewBox="0 0 1024 281.362" enable-background="new 0 0 1024 281.362" xml:space="preserve">
<path fill="#000000"      d="
	M844.138,155.742c0,0,49.143-0.699,87.242-12.475l59.592-16.975c0,0,20.732-6.666,25.235-12.554c0,0,5.878-7.091-1.395-9.091H998
	c0,0,0.187-3.046,3.997-6.509c0,0,4.503-3.589-8.659-7.398c0,0-26.323-7.336-44.68-9.414c0,0-19.742-4.188-25.63-6.266
	l-24.591-7.635c0,0-5.195-6.589-19.05-3.471c0,0-15.24-1.043-22.86-2.428c0,0-33.25-5.89-42.948-5.544c0,0-21.908-1.925-40.87-4.504
	c0,0-79.662-11.43-194.306,2.424c0,0-118.107,12.815-136.118,11.776c0,0-18.011,0-28.055-2.425c0,0-43.295-17.318-83.126-22.513
	c0,0-17.318-3.81-22.513,0c0,0-3.81,1.385,4.503,5.888c0,0,4.503,4.156,4.503,6.927c0,0,0,6.234,2.424,7.966
	c0,0-1.385,6.581,0.693,8.313c0,0-1.732,4.156,1.385,9.698c0,0-2.771,5.195,0,6.927c0,0-89.706,18.703-122.957,16.279
	c0,0-9.698,0-26.669-6.343c0,0-92.477-47.958-109.449-57.348c0,0-51.261-30.864-57.842-30.864c0,0-5.195,4.156,10.044,11.776
	c0,0,15.586,11.43,21.474,20.435c0,0,3.464,7.966,12.469,13.508c0,0,8.313,11.083,6.581,23.206c0,0-5.888,13.162,2.078,24.245
	c0,0,3.81,15.932,13.854,20.435c0,0,4.503,4.849,6.927,6.581c0,0,2.078,5.888,5.542,6.234c0,0,5.195-1.385-4.503,7.273
	c0,0-12.122,11.43-9.005,22.167c0,0-2.424,9.126,4.503,18.937c0,0,5.542,9.465,5.195,13.621c0,0-5.542,14.893-3.464,19.396
	c0,0,0.346,6.234-8.313,14.547c0,0-10.044,11.43-15.24,23.899c0,0-11.43,6.927-10.737,9.698c0,0-3.81,4.503-2.078,5.888
	c0,0-3.464,9.352,21.82,0c0,0,37.753-15.932,60.612-36.714c0,0,29.094-22.86,48.49-43.987c0,0,19.05-19.05,38.099-22.86
	c0,0,23.899-3.464,54.724-1.039c0,0,59.92,7.273,67.193,5.542c0,0,1.385,1.039-8.659,5.542c0,0-0.346,4.849,13.854,1.732
	c0,0,3.117,1.385-10.044,7.966c0,0-4.156,3.81-4.156,6.234c0,0-4.503,5.195-2.078,11.083c0,0-2.771,6.927-0.346,11.083l1.039,7.62
	c0,0,2.771,6.927-2.078,11.43c0,0-4.849,7.62,7.966,4.849c0,0,32.211-9.005,59.227-31.172c0,0,24.245-21.7,45.719-24.358
	l76.891-7.507c0,0,133.001-8.313,136.811-11.43c0,0-1.385,3.81,0.346,4.156c0,0-2.771,7.273-1.385,10.044
	c0,0-2.771,11.43-0.693,14.201c0,0-2.078,14.893,1.385,17.318c0,0,0.346,7.273,4.156,10.044c0,0,2.078,7.62,6.927,9.005
	c0,0,35.328-43.641,44.334-58.188l4.849-6.581c0,0,64.076-1.732,77.584-3.81L844.138,155.742z"/>
</svg>
