<?xml version="1.0" encoding="utf-8"?>
<!-- Generator: Adobe Illustrator 15.0.2, SVG Export Plug-In . SVG Version: 6.00 Build 0)  -->
<!DOCTYPE svg PUBLIC "-//W3C//DTD SVG 1.1//EN" "http://www.w3.org/Graphics/SVG/1.1/DTD/svg11.dtd">
<svg version="1.1" id="Layer_1" xmlns="http://www.w3.org/2000/svg" xmlns:xlink="http://www.w3.org/1999/xlink" x="0px" y="0px"
	 width="836.043px" height="386px" viewBox="0 0 836.043 386" enable-background="new 0 0 836.043 386" xml:space="preserve">
<path d="M363.044,38c-1.298,8.036-4.368,14.298-7,21c-13.638,1.747-27.723-1.306-43-2c-33.416-1.518-69.308,4.876-97,3
	c3.441-6.706,11.513-9.619,18-14c13.963-9.429,25.485-18.344,47-22c4.389-0.055,5.358,3.309,9,4
	C316.706,29.004,343.63,29.748,363.044,38z"/>
<path d="M629.043,150c-3.902,4.43-8.432,8.234-14,11c-37.811-42.961-87.775-70.75-153-86c-21.354-4.993-43.979-7.311-69-11
	c33.441-18.772,71.443-2.037,110,8c29.91,7.786,60.514,11.599,85,22c14.926,6.339,41.674,25.056,43,34
	C632.19,135.718,620.877,144.073,629.043,150z"/>
<path d="M675.043,251c-35.451-5.02-76.783-8.507-110,0c-25.068,6.42-48.398,18.74-74,26c-52.082,14.77-112.023,21.415-172,28
	c-29.871,3.279-60.416,9.014-92,8c-55.884-1.793-108.045-12.279-161-22c-17.1-3.139-38.327-6.243-44-17
	c-2.502-4.746-0.338-10.143-2-15c-2.794-8.167-8.845-9.201-9-18c-0.181-10.234,10.634-25.992,16-35
	c43.758-73.452,108.068-132.708,215-140c67.287-4.588,138.878,0.036,195,11c51.375,10.037,99.42,22.444,132,50
	c19.178,16.219,31.107,43.209,61,45c10.355,0.621,22.604-1.003,34-3c9.801-1.717,24.439-7.353,30-6
	c10.572,2.572,13.311,26.275,11,43C702.18,226.734,688.985,242.879,675.043,251z M122.044,157c1.015-3.427-7.512-2.382-8-1
	C116.439,156.605,118.606,157.438,122.044,157z M132.044,169c0.034,11.367-6.74,15.927-14,20c7.835,1.835,6.658-5.341,13-5
	c4.641-9.666,4.912-22.244-6-26C125.762,163.282,129.5,165.544,132.044,169z M110.044,181c3.129-0.204,7.341,0.674,9-1
	c-0.87-5.186-1.617-11.006,0-16C107.293,158.75,103.055,175.219,110.044,181z M473.043,188c1.314,1.283,3.688,1.283,5,0
	c0.475-3.141-1.246-4.086-3-5C474.616,184.904,472.889,185.512,473.043,188z M562.043,190c0.699-3.698-1.582-4.418-5-4
	C555.77,190.398,559.563,192.364,562.043,190z M591.043,196c5.939,0.723,5.939-5.722,0-5C589.76,192.314,589.76,194.688,591.043,196
	z M412.044,196c-2.288,10.246,12.101,10.044,10,0C418.918,194.072,414.841,193.416,412.044,196z M617.043,199
	c3.078,0.7,1.922,0.7,5,0c0.32-2.318-0.16-3.839-1-5c-1,0-2,0-3,0C617.206,195.161,616.725,196.682,617.043,199z M201.044,225
	c-2.22,24.895-13.371,39.708-23,58c24.365-11.41,36.381-54.555,24-87C199.751,204.154,201.8,216.525,201.044,225z M672.043,204
	c1.367-1.277,1.367-4.723,0-6c-1,0-2,0-3,0C667.616,201.023,668.213,203.771,672.043,204z M309.044,203
	c15.429,3.779,43.301-2.553,54,3c-7.416,14.682-24.023,22.626-32,37c-1.184,2.133-0.397,5-2,7c-8.996,11.227-26.65,13.432-39,22
	c23.748,7.174,35.602-12.416,53-18c9.045-21.968,31.75-35.564,41-54C362.084,200.066,329.153,197.757,309.044,203z M443.043,204
	c5.939,0.723,5.939-5.723,0-5C441.76,200.312,441.76,202.688,443.043,204z M494.043,201c-0.842,5.51,1.027,8.309,6,8
	c2.268-1.066,3.635-3.033,4-6C502.417,198.887,497.62,198.477,494.043,201z M520.043,204c3.078,0.7,1.922,0.7,5,0
	C527.002,197.417,518.407,197.865,520.043,204z M542.043,209c2.268-1.066,3.635-3.033,4-6
	C540.954,191.87,528.024,208.493,542.043,209z M574.043,202c-1.336,5.938,7.156,4.816,5-1
	C576.725,200.682,575.206,201.161,574.043,202z M470.043,208c5.816,2.156,6.939-6.336,1-5
	C470.204,204.161,469.725,205.682,470.043,208z M613.043,205C594.893,196.271,610.426,226.121,613.043,205L613.043,205z
	 M638.043,208c1.148,7.646,11.107,5.018,11-2C645.928,202.662,638.762,201.941,638.043,208z M256.044,207
	c11.229,3.525,28.559,1.284,40-1C285.243,204.953,265.2,203.091,256.044,207z M686.043,217c2.305-1.361,5.58-1.753,5-6
	C686.86,200.667,674.815,214.604,686.043,217z M586.043,215c-0.855,3.781,4.479,3.539,6,2
	C592.901,213.219,587.567,213.461,586.043,215z M563.043,226c5.029,0.361,7.521-1.812,8-6
	C567.846,212.027,556.543,219.393,563.043,226z M470.043,225c1.758,2.712,8.242,2.712,10,0c0-1.667,0-3.333,0-5
	C477.04,216.289,467.653,217.355,470.043,225z M624.043,223c2.334-0.334,4.311-1.025,5-3c-1.906-0.426-1.809-2.857-5-2
	C622.76,219.312,622.76,221.688,624.043,223z M660.043,223c1.334,0,2.668,0,4,0c0-1.333,0-2.667,0-4
	C661.288,215.889,656.932,220.244,660.043,223z M411.044,224c2.319,0.318,3.839-0.161,5-1c-0.122-2.545-1.456-3.878-4-4
	C411.205,220.161,410.725,221.682,411.044,224z M517.043,224c2.863,0.197,5.459,0.124,5-3c-0.658-1.342-2.137-1.861-4-2
	C517.206,220.161,516.725,221.682,517.043,224z M288.044,222c4.772,1.788,14.015,0.246,18-2
	C300.353,220.977,290.547,217.837,288.044,222z M434.043,230c2.9-1.102,6.764-1.236,7-5
	C439.047,214.393,425.184,224.559,434.043,230z M502.043,236c2.32,0.318,3.84-0.161,5-1c-0.344-2.322-0.646-4.688-4-4
	C502.206,232.161,501.725,233.682,502.043,236z M273.044,235c6.657,0.426,19.045,3.229,23,0
	C291.624,232.662,277.159,231.141,273.044,235z"/>
<path d="M811.043,116c1.164,5.054-2.816,9.756,5,11c-0.965,5.369-7.035,5.631-8,11c-1.311,4.978,3.08,4.254,3,8
	c-1.041,4.959-5.594,6.406-8,10c-1.4,5.402,2.701,5.3,3,9c-1.781,5.885-8.148,7.184-10,13c11.371,16.891-6.699,43.693-11,64
	c-4.391,20.732-2.988,38.221-7,58c-5.59,0.924-5.23-4.104-11-3c-3.719-0.386-1.85,4.816-5,5c-30.623-10.377-62.713-19.287-79-44
	c22.51-18.352,41.635-65.401,23-98c16.949-15.385,42.174-22.494,63-34C783.885,123.507,794.155,116.444,811.043,116z M738.043,164
	c7.014-1.111,25.57-0.927,21-7C751.944,159.232,740.395,157.017,738.043,164z M753.043,190c-0.939-5.393-10.592-2.074-16-3
	C738.424,191.953,747.401,189.311,753.043,190z M741.043,257c0-1.667,0-3.333,0-5c-1.332,0-2.666,0-4,0
	C736.625,255.418,737.346,257.698,741.043,257z M759.043,262c0.123,2.545,1.455,3.878,4,4c0.84-1.161,1.32-2.682,1-5
	C761.725,260.682,760.206,261.161,759.043,262z M748.043,283c2.73,0.729,2.014-1.986,4-2c-0.121-2.545-1.455-3.878-4-4
	C746.676,278.277,746.676,281.723,748.043,283z"/>
<path d="M582.043,295c0.766,5.9,7.604,5.73,7,13c-24.518-1.918-55.291-9.271-79-15c-7.035-1.7-18.17,1.413-22-6
	c16.158-7.555,46.193-15.471,66-23c3.016-1.146,5.633-4.035,9-4C576.422,260.139,588.202,280.539,582.043,295z"/>
<path d="M390.044,328c0.451,5.451-5.927,4.073-8,7c5.114,9.886,17.642,12.358,22,23c-24.796,18.409-64.946,0.698-89-11
	c-17.809-8.661-34.645-17.493-47-26c30.536-6.798,61.924-12.743,97-15C373.342,313.369,383.003,319.375,390.044,328z M345.044,347
	c-0.048-4.285-6.001-2.666-10-3C335.092,348.285,341.045,346.666,345.044,347z M358.044,349c-2.714,0.619-7.936-1.27-9,1
	C350.232,350.895,358.511,352.816,358.044,349z"/>
</svg>
