<?xml version="1.0" encoding="utf-8"?>
<!-- Generator: Adobe Illustrator 15.0.2, SVG Export Plug-In . SVG Version: 6.00 Build 0)  -->
<!DOCTYPE svg PUBLIC "-//W3C//DTD SVG 1.1//EN" "http://www.w3.org/Graphics/SVG/1.1/DTD/svg11.dtd">
<svg version="1.1"
	 id="Layer_1" xmlns:dc="http://purl.org/dc/elements/1.1/" xmlns:cc="http://creativecommons.org/ns#" xmlns:rdf="http://www.w3.org/1999/02/22-rdf-syntax-ns#"
	 xmlns="http://www.w3.org/2000/svg" xmlns:xlink="http://www.w3.org/1999/xlink" x="0px" y="0px" width="501px" height="211px"
	 viewBox="0 0 501 211" enable-background="new 0 0 501 211" xml:space="preserve">
<title>Pseudocaranx dentex (White Trevally)</title>
<desc  xmlns:ian_image_library="http://ian.umces.edu/imagelibrary/">
	<ian_image_library:title>Pseudocaranx dentex (White Trevally)</ian_image_library:title>
	<ian_image_library:descr>Illustration of Pseudocaranx dentex (White Trevally)</ian_image_library:descr>
	<ian_image_library:scene>
		<ian_image_library:contains>
			symbol,vector,illustration,fish,jack,white,trevally,araara,Chordata,Actinopterygii,Perciformes,Carangidae,Pseudocaranx,dentex,Atlantic,Pacific,marine,estuarine
			</ian_image_library:contains>
		<ian_image_library:when>2008-12-22</ian_image_library:when>
	</ian_image_library:scene>
</desc>
<linearGradient id="SVGID_1_" gradientUnits="userSpaceOnUse" x1="499.8994" y1="-128.2598" x2="514.7769" y2="-169.1428" gradientTransform="matrix(1 0 0 -1 -196 6)">
	<stop  offset="0.0169" style="stop-color:#9B9B9B"/>
	<stop  offset="0.2832" style="stop-color:#A1A1A1"/>
	<stop  offset="0.7392" style="stop-color:#AAAAAA"/>
	<stop  offset="1" style="stop-color:#AEAEAE"/>
</linearGradient>
<path fill="url(#SVGID_1_)" d="M219.18,165.09c9.021,14.86,22.305,10.082,22.305,3.186c11.678,16.979,33.441,22.824,33.441,22.824
	c11.678-26.548,96.608-42.466,118.36-74.853c-4.24-8.49-93.2,54.149-174.1,48.84L219.18,165.09z"/>
<linearGradient id="SVGID_2_" gradientUnits="userSpaceOnUse" x1="397.127" y1="-161.5537" x2="397.127" y2="-20.1167" gradientTransform="matrix(1 0 0 -1 -196 6)">
	<stop  offset="0" style="stop-color:#BCBCBC"/>
	<stop  offset="0.1104" style="stop-color:#C3C3C3"/>
	<stop  offset="0.3337" style="stop-color:#D1D1D1"/>
	<stop  offset="0.4888" style="stop-color:#D6D6D6"/>
	<stop  offset="0.6794" style="stop-color:#C0C0C0"/>
	<stop  offset="0.8728" style="stop-color:#B1B1B1"/>
	<stop  offset="1" style="stop-color:#AAAAAA"/>
</linearGradient>
<path fill="url(#SVGID_2_)" d="M399.86,118.05c-1.484-0.393-6.622-1.965-7.632-1.806c-10.683,1.79-19.736,6.404-29.449,11.236
	c-26.807,13.332-54.079,26.438-83.48,32.916c-23.553,5.186-47.857,4.969-71.789,6.283c-38.754,2.118-77.442,0.293-116.07-4.453
	c-15.602-1.928-30.987-7.814-46.366-10.945c-6.324-1.291-41.405-9.553-39.033-21.499c-8.424-3.142-7.056-8.954-1.856-15.209
	c8.593-10.295,27.605-21.783,30.54-24.609c40.599-39.006,86.788-64.483,163.23-63.69c113.859-3.978,170.13,68.74,191.88,71.657
	c4.235,1.014,3.854,1.732,8.945,1.563c7.12-0.889,1.08,18.559,1.08,18.559V118.05z"/>
<radialGradient id="SVGID_3_" cx="245.0361" cy="-92.2949" r="9.9658" gradientTransform="matrix(1 0 0 -1 -196 6)" gradientUnits="userSpaceOnUse">
	<stop  offset="0" style="stop-color:#B0B0B0"/>
	<stop  offset="0.2331" style="stop-color:#B0B0B0"/>
	<stop  offset="0.4304" style="stop-color:#B1B1B1"/>
	<stop  offset="0.6147" style="stop-color:#B4B4B4"/>
	<stop  offset="0.7911" style="stop-color:#B7B7B7"/>
	<stop  offset="0.9603" style="stop-color:#BBBBBB"/>
	<stop  offset="1" style="stop-color:#BCBCBC"/>
</radialGradient>
<path fill="url(#SVGID_3_)" d="M49.856,92.36c-4.291,1.508-13.677,0.4-12.742,7.96c0.589,4.823,10.891,8.137,10.688,2.207
	c4.765-0.244,12.925,0,13.216-6.981c0.245-5.971-7.774-5.212-11.698-3.185L49.856,92.36L49.856,92.36z"/>
<radialGradient id="SVGID_4_" cx="776.1797" cy="-101.4907" r="191.14" gradientTransform="matrix(1 0 0 -1 -196 6)" gradientUnits="userSpaceOnUse">
	<stop  offset="0" style="stop-color:#BEBEBE"/>
	<stop  offset="0.3346" style="stop-color:#B1B1B1"/>
	<stop  offset="0.6011" style="stop-color:#AAAAAA"/>
	<stop  offset="1" style="stop-color:#9D9D9D"/>
</radialGradient>
<path fill="url(#SVGID_4_)" d="M399.02,99.612c7.814-1.654,13.9-7.059,19.444-12.471c5.781-5.639,11.373-11.471,17.175-17.076
	c6.935-6.696,13.996-13.233,21.315-19.503c6.866-5.883,13.956-11.552,21.642-16.344c5.754-3.568,12.274-7.144,19.142-7.801
	c0.656-0.064,1.328-0.139,1.979-0.139c4.778,3.982-52.547,74.843-50.948,83.6c1.58,8.761,13.522,51.759,42.198,89.981
	c-15.935,10.353-82.81-71.664-79.624-71.664c-1.483-3.952-6.647-7.896-11.488-10.141c-0.31-6.02-1.369-12.439-0.84-18.448
	L399.02,99.612z"/>
<radialGradient id="SVGID_5_" cx="391.1299" cy="-2.7363" r="20.314" gradientTransform="matrix(1 0 0 -1 -196 6)" gradientUnits="userSpaceOnUse">
	<stop  offset="0" style="stop-color:#B0B0B0"/>
	<stop  offset="0.025" style="stop-color:#AEAEAE"/>
	<stop  offset="0.356" style="stop-color:#9D9D9D"/>
	<stop  offset="0.6832" style="stop-color:#949494"/>
	<stop  offset="1" style="stop-color:#919191"/>
</radialGradient>
<path fill="url(#SVGID_5_)" d="M160.4,28.395C171.54,14.864,196.36,0,196.36,0s8.75,23.888,20.699,21.502l4.507,5.314l-61.17,1.579
	H160.4z"/>
<linearGradient id="SVGID_6_" gradientUnits="userSpaceOnUse" x1="502.6699" y1="-62.2344" x2="517.9096" y2="-32.3401" gradientTransform="matrix(1 0 0 -1 -196 6)">
	<stop  offset="0" style="stop-color:#B0B0B0"/>
	<stop  offset="0.3445" style="stop-color:#9E9E9E"/>
	<stop  offset="0.6905" style="stop-color:#949494"/>
	<stop  offset="1" style="stop-color:#919191"/>
</linearGradient>
<path fill="url(#SVGID_6_)" d="M225.15,26.677c19.113-19.113,30.926-21.898,30.926-21.898l5.57,9.553
	C342.867,47.776,393.827,98.73,393.827,98.73s-1.606,2.389-10.356-1.586C279.961,22.556,248.251,34.909,225.15,26.677L225.15,26.677
	z"/>
<radialGradient id="SVGID_7_" cx="349.3701" cy="-163.8701" r="55.124" gradientTransform="matrix(1 0 0 -1 -196 6)" gradientUnits="userSpaceOnUse">
	<stop  offset="0" style="stop-color:#BDBDBD"/>
	<stop  offset="0.5337" style="stop-color:#9D9D9D"/>
	<stop  offset="0.5621" style="stop-color:#9E9E9E"/>
	<stop  offset="0.8436" style="stop-color:#A2A2A2"/>
	<stop  offset="1" style="stop-color:#A4A4A4"/>
</radialGradient>
<path fill="url(#SVGID_7_)" d="M148.59,164.55c-9.57,1.593,33.434,46.712,45.634,45.658c5.842-10.621-12.2-43.526-12.2-43.526
	s-19.63-6.89-33.43-2.13L148.59,164.55z"/>
<path d="M58.071,97.145c0,2.792-2.25,5.04-5.036,5.04c-2.786,0-5.049-2.247-5.049-5.04c0-2.786,2.263-5.056,5.049-5.056
	c2.786,0.004,5.036,2.275,5.036,5.061V97.145z"/>
<path fill="none" stroke="#646464" stroke-width="2.0522" d="M47.776,88.422c1.247-2.24,3.253-3.863,5.713-4.368
	c5.036-1.023,10.12,3.043,11.36,9.082c0.765,3.751-0.143,7.401-2.142,9.854"/>
<path fill="none" stroke="#646464" stroke-width="2.0542" d="M6.452,129.59l17.744,0.465c3.931,0.389,22.753,14.053,27.66,15.401
	c5.862,1.579,18.096,2.114,25.538-1.071s32.431-39.812,32.431-39.812"/>
<path fill="#646464" d="M113.02,67.418l0.535,12.735c0,0-4.778,2.661-4.263,5.307c0.535,2.66,6.906,6.371,12.756,9.557
	c3.713-1.589-6.372-13.268-6.907-15.389c-0.54-2.128-2.13-12.21-2.13-12.21H113.02z"/>
<path fill="none" stroke="#646464" stroke-width="2.216" d="M122.17,93.695c-13.311,51.554-56.397,60.776-56.397,60.776"/>
<linearGradient id="SVGID_8_" gradientUnits="userSpaceOnUse" x1="374.8125" y1="-69.2324" x2="390.7133" y2="-103.3332" gradientTransform="matrix(1 0 0 -1 -196 6)">
	<stop  offset="0.0169" style="stop-color:#A4A4A4"/>
	<stop  offset="0.1021" style="stop-color:#A1A1A1"/>
	<stop  offset="0.2306" style="stop-color:#9E9E9E"/>
	<stop  offset="0.3146" style="stop-color:#9D9D9D"/>
	<stop  offset="0.7386" style="stop-color:#B3B3B3"/>
	<stop  offset="1" style="stop-color:#BDBDBD"/>
</linearGradient>
<path fill="url(#SVGID_8_)" d="M128.42,98.73c43.527-18.045,107.75-20.167,116.77-15.385c-42.456-4.782-95.545,61.04-100.84,44.047
	c12.73-37.151-20.72-20.16-15.93-28.66V98.73z"/>
<line fill="none" stroke="#646464" stroke-width="2.1891" x1="168.24" y1="24.417" x2="194.76" y2="4.779"/>
<line fill="none" stroke="#646464" stroke-width="2.1891" x1="177.77" y1="24.417" x2="195.83" y2="10.082"/>
<line fill="none" stroke="#646464" stroke-width="2.1891" x1="188.92" y1="23.363" x2="197.95" y2="14.864"/>
<line fill="none" stroke="#646464" stroke-width="2.1891" x1="199.02" y1="24.417" x2="204.32" y2="19.113"/>
<line fill="none" stroke="#646464" stroke-width="2.1891" x1="208.56" y1="23.888" x2="209.63" y2="21.76"/>
<line fill="none" stroke="#646464" stroke-width="2.1891" x1="232.45" y1="24.417" x2="254.75" y2="8.492"/>
<line fill="none" stroke="#646464" stroke-width="2.1891" x1="243.6" y1="27.074" x2="257.4" y2="15.928"/>
<line fill="none" stroke="#646464" stroke-width="2.1891" x1="255.811" y1="29.195" x2="265.9" y2="19.113"/>
<line fill="none" stroke="#646464" stroke-width="2.1891" x1="265.359" y1="31.323" x2="272.8" y2="22.299"/>
<line fill="none" stroke="#646464" stroke-width="2.1891" x1="271.74" y1="32.919" x2="280.23" y2="24.417"/>
<line fill="none" stroke="#646464" stroke-width="2.1891" x1="280.23" y1="37.155" x2="288.721" y2="29.734"/>
<line fill="none" stroke="#646464" stroke-width="2.1891" x1="290.32" y1="39.277" x2="297.221" y2="32.919"/>
<line fill="none" stroke="#646464" stroke-width="2.1891" x1="295.359" y1="42.611" x2="304.641" y2="35.532"/>
<line fill="none" stroke="#646464" stroke-width="2.1891" x1="304.12" y1="46.712" x2="312.87" y2="40.341"/>
<line fill="none" stroke="#646464" stroke-width="2.1891" x1="312.609" y1="49.897" x2="317.38" y2="44.59"/>
<line fill="none" stroke="#646464" stroke-width="2.1891" x1="321.62" y1="55.211" x2="328.8" y2="49.369"/>
<line fill="none" stroke="#646464" stroke-width="2.1891" x1="329.6" y1="59.451" x2="334.38" y2="53.083"/>
<line fill="none" stroke="#646464" stroke-width="2.1891" x1="335.96" y1="63.168" x2="341.27" y2="57.861"/>
<line fill="none" stroke="#646464" stroke-width="2.1891" x1="341.8" y1="66.879" x2="346.05" y2="61.047"/>
<line fill="none" stroke="#646464" stroke-width="2.1891" x1="348.96" y1="71.667" x2="354.01" y2="66.36"/>
<line fill="none" stroke="#646464" stroke-width="2.1891" x1="353.48" y1="75.903" x2="357.99" y2="70.871"/>
<line fill="none" stroke="#646464" stroke-width="2.1891" x1="359.85" y1="79.628" x2="364.62" y2="74.582"/>
<line fill="none" stroke="#646464" stroke-width="2.1891" x1="366.48" y1="84.138" x2="371" y2="80.153"/>
<line fill="none" stroke="#646464" stroke-width="2.1891" x1="372.05" y1="87.853" x2="376.3" y2="84.138"/>
<line fill="none" stroke="#646464" stroke-width="2.1891" x1="378.16" y1="92.36" x2="381.62" y2="89.709"/>
<line fill="none" stroke="#646464" stroke-width="2.1891" x1="383.2" y1="95.545" x2="385.07" y2="93.427"/>
<line fill="none" stroke="#646464" stroke-width="2.1891" x1="252.62" y1="165.62" x2="278.91" y2="185"/>
<line fill="none" stroke="#646464" stroke-width="2.1891" x1="272.4" y1="163.359" x2="291.24" y2="174.51"/>
<line fill="none" stroke="#646464" stroke-width="2.1891" x1="292.1" y1="157.859" x2="305.17" y2="166.939"/>
<line fill="none" stroke="#646464" stroke-width="2.1891" x1="309.21" y1="152.48" x2="320.311" y2="159.79"/>
<line fill="none" stroke="#646464" stroke-width="2.1891" x1="325.08" y1="145.71" x2="334.9" y2="153.15"/>
<line fill="none" stroke="#646464" stroke-width="2.1891" x1="340.27" y1="138.939" x2="351.1" y2="145.98"/>
<line fill="none" stroke="#646464" stroke-width="2.1891" x1="352.95" y1="134.04" x2="362.779" y2="139.88"/>
<line fill="none" stroke="#646464" stroke-width="2.1891" x1="365.68" y1="127.27" x2="374.189" y2="132.971"/>
<line fill="none" stroke="#646464" stroke-width="2.1891" x1="376.51" y1="121.82" x2="384.27" y2="125.811"/>
<radialGradient id="SVGID_9_" cx="298.3965" cy="-99.3242" r="13.9298" fx="302.0447" fy="-85.8807" gradientTransform="matrix(1 0 0 -1 -196 6)" gradientUnits="userSpaceOnUse">
	<stop  offset="0" style="stop-color:#C8C8C8"/>
	<stop  offset="0.2705" style="stop-color:#C9C9C9"/>
	<stop  offset="0.4367" style="stop-color:#CACACA"/>
	<stop  offset="0.5747" style="stop-color:#CBCBCB"/>
	<stop  offset="0.6973" style="stop-color:#CDCDCD"/>
	<stop  offset="0.8097" style="stop-color:#D0D0D0"/>
	<stop  offset="0.9131" style="stop-color:#D3D3D3"/>
	<stop  offset="1" style="stop-color:#D6D6D6"/>
</radialGradient>
<path fill="url(#SVGID_9_)" d="M107.18,88.12c-6.405,4.948-15.081,13.406-14.334,21.78c0.196,2.033,1.186,5.673,2.507,7.41
	c2.338,3.07,2.779,2.099,6.52,3.155c3.972,1.099,3.016,4.358,6.907-0.634c2.48-3.186,3.213-7.005,3.213-10.997
	c0-3.565-0.543-7.784-1.512-11.16c-0.881-3.111-2.84-5.08-3.83-7.967l0.53-1.583L107.18,88.12z"/>
<radialGradient id="SVGID_10_" cx="268.625" cy="-89.752" r="10.6373" fx="263.4913" fy="-80.4354" gradientTransform="matrix(1 0 0 -1 -196 6)" gradientUnits="userSpaceOnUse">
	<stop  offset="0" style="stop-color:#C8C8C8"/>
	<stop  offset="0.211" style="stop-color:#C9C9C9"/>
	<stop  offset="0.3792" style="stop-color:#CACACA"/>
	<stop  offset="0.5327" style="stop-color:#CCCCCC"/>
	<stop  offset="0.6774" style="stop-color:#CECECE"/>
	<stop  offset="0.8159" style="stop-color:#D1D1D1"/>
	<stop  offset="0.948" style="stop-color:#D5D5D5"/>
	<stop  offset="1" style="stop-color:#D6D6D6"/>
</radialGradient>
<path fill="url(#SVGID_10_)" d="M80.112,83.871c-4.745-2.037-11.305,2.637-15.304,4.334c-2.108,3.951,2.142,7.395,1.389,11.6
	c-0.759,4.233-5.896,9.804,3.321,7.974c8.54-1.688,11.658-13.623,11.645-21.262L80.112,83.871L80.112,83.871z"/>
</svg>
