<?xml version="1.0" encoding="utf-8"?>
<!-- Generator: Adobe Illustrator 15.0.2, SVG Export Plug-In . SVG Version: 6.00 Build 0)  -->
<!DOCTYPE svg PUBLIC "-//W3C//DTD SVG 1.1//EN" "http://www.w3.org/Graphics/SVG/1.1/DTD/svg11.dtd">
<svg version="1.1"
	 id="Layer_1" xmlns:dc="http://purl.org/dc/elements/1.1/" xmlns:cc="http://creativecommons.org/ns#" xmlns:rdf="http://www.w3.org/1999/02/22-rdf-syntax-ns#"
	 xmlns="http://www.w3.org/2000/svg" xmlns:xlink="http://www.w3.org/1999/xlink" x="0px" y="0px" width="501px" height="315px"
	 viewBox="0 0 501 315" enable-background="new 0 0 501 315" xml:space="preserve">
<title>Chromis chromis (Mediterranean Chromis)</title>
<desc  xmlns:ian_image_library="http://ian.umces.edu/imagelibrary/">
	<ian_image_library:title>Chromis chromis (Mediterranean Chromis)</ian_image_library:title>
	<ian_image_library:descr>Illustration of Chromis chromis (Mediterranean Chromis)</ian_image_library:descr>
	<ian_image_library:scene>
		<ian_image_library:contains>
			symbol,vector,illustration,fish,damselfish,Mediterranean,Chordata,Actinopterygii,Perciformes,Pomacentridae,Chromis,chromis,Atlantic,marine
			</ian_image_library:contains>
		<ian_image_library:when>2004-01-28</ian_image_library:when>
	</ian_image_library:scene>
</desc>
<path fill="#A8A8A8" stroke="#000000" stroke-width="1.0408" stroke-linecap="round" stroke-linejoin="round" d="M8.429,141.56
	c3.117,0,9.845,2.074,9.845,2.074l-0.508,6.22l-14-6.735l1.03-2.073c0.001-0.01,0.537,0.51,3.633,0.51V141.56z"/>
<linearGradient id="SVGID_1_" gradientUnits="userSpaceOnUse" x1="351.6895" y1="56.8428" x2="591.4766" y2="56.8428" gradientTransform="matrix(1 0 0 -1 -196 110)">
	<stop  offset="0.0056" style="stop-color:#4E4E4E"/>
	<stop  offset="1" style="stop-color:#6F6F6F"/>
</linearGradient>
<path fill="url(#SVGID_1_)" stroke="#3D3D3D" stroke-width="1.0408" stroke-linecap="round" stroke-linejoin="round" d="
	M155.69,47.696c0,0,6.742-30.587,8.815-33.691c2.081-3.104,1.552-3.632,3.633-3.104c2.087,0.501-1.552,4.649,1.029,4.649
	c2.602,0,5.713-4.649,6.743-6.735c1.03-2.074-0.515-2.589,1.03-3.632c1.565-1.03,6.756-3.632,8.822-4.147
	c2.081-0.515,4.161-0.515,6.735-0.515c2.602,0,5.712,2.074,5.712,2.074s2.595-1.559,4.14-1.559c1.552,0,1.05,2.588,3.639,3.117
	c2.582,0.501,7.779-1.044,10.375-1.559c2.595-0.516,0,2.06,2.073,2.06c2.074,0,7.257,0,8.809-0.501
	c1.552-0.529-0.515,2.588,2.595,2.588c3.11,0,4.668-1.043,6.742-1.558c2.066-0.529,2.066,3.646,5.19,3.104
	c3.103-0.502,4.655-3.104,7.765-2.589c3.117,0.529,1.03,7.779,4.669,7.264c3.625-0.529,5.712-3.632,8.815-3.117
	c3.104,0.528,1.552,3.117,4.662,4.16c3.109,1.03,4.152,0,6.228,0.515c2.065,0.515-1.037,1.03,1.565,2.073
	c2.588,1.03,3.108,1.03,5.685,1.03c2.603,0-0.501,5.705,2.603,5.705c3.11,0,6.221-0.515,8.301,0c2.066,0.516,0,4.676,3.625,4.676
	c3.633,0,5.178,0.515,6.729,0.515c1.565,0-2.06,4.147,1.05,4.662c3.104,0.515,4.662-0.515,7.772,0
	c3.116,0.515-1.03,2.588,2.596,4.146c3.64,1.558,2.906,1.558,9.235,2.087c6.322,0.502,7.873-4.146,11.492-5.19
	c3.639-1.043,2.086-0.529,5.203-0.529c3.098,0,0.84-2.589,5.698-3.632c4.858-1.03,4.858-1.03,4.858-1.03s7.59-1.544,9.648-1.544
	c2.08,0,3.639,0.515,3.639,0.515s2.597-0.515,5.185-0.515c2.589,0,8.302,1.03,8.302,1.03s-0.516,1.043,1.545,1.043
	c2.086,0,4.153,1.544,5.713,2.588c1.558,1.031,4.146,0.516,5.195,2.074c1.01,1.544,0.495,3.103,0.495,3.103s3.124,0,4.16,3.632
	c1.03,3.632-2.588,2.588-2.588,6.234c0,3.618,2.588,2.575,3.618,5.177c1.029,2.602-1.545,2.602-2.066,5.706
	c-0.516,3.117,0.521,3.117,0,5.705c-0.516,2.589-1.029,1.03-2.609,3.117c-1.543,2.06,1.58,5.706,0,7.766
	c-1.543,2.087-3.617,1.043-4.647,2.588c-1.029,1.572,2.073,7.264,0,9.352c-2.06,2.073-3.624,10.882-6.233,10.354
	c-2.582-0.515-7.766-3.117-12.441-2.575c-4.668,0.501-13.084,3.104-16.912,4.662c-3.828,1.545-9.006,6.749-9.006,6.749
	l-78.279-40.978L155.711,47.7L155.69,47.696z"/>
<linearGradient id="SVGID_2_" gradientUnits="userSpaceOnUse" x1="362.0479" y1="85.5205" x2="376.1904" y2="85.5205" gradientTransform="matrix(1 0 0 -1 -196 110)">
	<stop  offset="0.0056" style="stop-color:#3D3D3D"/>
	<stop  offset="1" style="stop-color:#6F6F6F"/>
</linearGradient>
<path fill="url(#SVGID_2_)" stroke="#3D3D3D" stroke-width="1.0408" stroke-linecap="round" stroke-linejoin="round" d="
	M166.05,43.548c0,0,12.447-40.954,14.013-40.439c1.545,0.515-11.417,35.263-9.845,40.439c1.55,5.191-4.17,0-4.17,0H166.05z"/>
<linearGradient id="SVGID_3_" gradientUnits="userSpaceOnUse" x1="353.0605" y1="81.9419" x2="362.2246" y2="81.9419" gradientTransform="matrix(1 0 0 -1 -196 110)">
	<stop  offset="0.0056" style="stop-color:#3D3D3D"/>
	<stop  offset="1" style="stop-color:#6F6F6F"/>
</linearGradient>
<path fill="url(#SVGID_3_)" stroke="#3D3D3D" stroke-width="1.0408" stroke-linecap="round" stroke-linejoin="round" d="
	M157.06,44.321c0,0,7.365-33.961,8.965-33.785c1.599,0.176-7.034,29.327-4.866,33.162c2.16,3.835-4.09,0.623-4.09,0.623H157.06z"/>
<linearGradient id="SVGID_4_" gradientUnits="userSpaceOnUse" x1="373.9883" y1="87.0718" x2="389.1631" y2="87.0718" gradientTransform="matrix(1 0 0 -1 -196 110)">
	<stop  offset="0.0056" style="stop-color:#3D3D3D"/>
	<stop  offset="1" style="stop-color:#6F6F6F"/>
</linearGradient>
<path fill="url(#SVGID_4_)" stroke="#3D3D3D" stroke-width="1.0408" stroke-linecap="round" stroke-linejoin="round" d="
	M177.99,42.004c0,0,13.362-40.968,15.036-40.453c1.66,0.528-12.258,35.262-10.578,40.453c1.66,5.19-4.46,0-4.46,0H177.99z"/>
<linearGradient id="SVGID_5_" gradientUnits="userSpaceOnUse" x1="383.3047" y1="86.0342" x2="398.4873" y2="86.0342" gradientTransform="matrix(1 0 0 -1 -196 110)">
	<stop  offset="0.0056" style="stop-color:#3D3D3D"/>
	<stop  offset="1" style="stop-color:#6F6F6F"/>
</linearGradient>
<path fill="url(#SVGID_5_)" stroke="#3D3D3D" stroke-width="1.0408" stroke-linecap="round" stroke-linejoin="round" d="
	M187.31,43.034c0,0,13.383-40.955,15.036-40.439c1.681,0.515-12.231,35.263-10.571,40.439c1.66,5.19-4.47,0-4.47,0H187.31z"/>
<linearGradient id="SVGID_6_" gradientUnits="userSpaceOnUse" x1="392.6367" y1="85.0015" x2="409.4023" y2="85.0015" gradientTransform="matrix(1 0 0 -1 -196 110)">
	<stop  offset="0.0056" style="stop-color:#3D3D3D"/>
	<stop  offset="1" style="stop-color:#6F6F6F"/>
</linearGradient>
<path fill="url(#SVGID_6_)" stroke="#3D3D3D" stroke-width="1.0408" stroke-linecap="round" stroke-linejoin="round" d="
	M196.64,44.077c0,0,14.745-40.968,16.608-40.453c1.843,0.529-13.512,35.262-11.682,40.453c1.84,5.177-4.93,0-4.93,0H196.64z"/>
<linearGradient id="SVGID_7_" gradientUnits="userSpaceOnUse" x1="401.9766" y1="83.4434" x2="421.3516" y2="83.4434" gradientTransform="matrix(1 0 0 -1 -196 110)">
	<stop  offset="0.0056" style="stop-color:#3D3D3D"/>
	<stop  offset="1" style="stop-color:#6F6F6F"/>
</linearGradient>
<path fill="url(#SVGID_7_)" stroke="#3D3D3D" stroke-width="1.0408" stroke-linecap="round" stroke-linejoin="round" d="
	M205.98,46.11c0,0,17.049-41.985,19.197-41.457c2.114,0.542-15.639,36.13-13.511,41.457c2.14,5.299-5.69,0-5.69,0H205.98z"/>
<linearGradient id="SVGID_8_" gradientUnits="userSpaceOnUse" x1="413.3906" y1="82.4033" x2="432.7529" y2="82.4033" gradientTransform="matrix(1 0 0 -1 -196 110)">
	<stop  offset="0.0056" style="stop-color:#3D3D3D"/>
	<stop  offset="1" style="stop-color:#6F6F6F"/>
</linearGradient>
<path fill="url(#SVGID_8_)" stroke="#3D3D3D" stroke-width="1.0408" stroke-linecap="round" stroke-linejoin="round" d="
	M217.4,47.14c0,0,17.035-41.958,19.176-41.443c2.127,0.529-15.632,36.117-13.505,41.443c2.13,5.312-5.68,0-5.68,0H217.4z"/>
<linearGradient id="SVGID_9_" gradientUnits="userSpaceOnUse" x1="425.3105" y1="79.8145" x2="444.6777" y2="79.8145" gradientTransform="matrix(1 0 0 -1 -196 110)">
	<stop  offset="0.0056" style="stop-color:#3D3D3D"/>
	<stop  offset="1" style="stop-color:#6F6F6F"/>
</linearGradient>
<path fill="url(#SVGID_9_)" stroke="#3D3D3D" stroke-width="1.0408" stroke-linecap="round" stroke-linejoin="round" d="
	M229.31,49.728c0,0,17.063-41.971,19.19-41.442c2.13,0.542-15.63,36.144-13.5,41.442C237.14,55.041,229.31,49.728,229.31,49.728z"/>
<linearGradient id="SVGID_10_" gradientUnits="userSpaceOnUse" x1="436.1201" y1="76.3564" x2="459.3555" y2="76.3564" gradientTransform="matrix(1 0 0 -1 -196 110)">
	<stop  offset="0.0056" style="stop-color:#3D3D3D"/>
	<stop  offset="1" style="stop-color:#6F6F6F"/>
</linearGradient>
<path fill="url(#SVGID_10_)" stroke="#3D3D3D" stroke-width="1.0408" stroke-linecap="round" stroke-linejoin="round" d="
	M240.12,52.521c0,0,20.653-40.846,23.045-40.25c2.405,0.596-18.838,35.127-16.588,40.439s-6.45-0.189-6.45-0.189H240.12z"/>
<linearGradient id="SVGID_11_" gradientUnits="userSpaceOnUse" x1="445.4502" y1="74.2734" x2="468.6914" y2="74.2734" gradientTransform="matrix(1 0 0 -1 -196 110)">
	<stop  offset="0.0056" style="stop-color:#3D3D3D"/>
	<stop  offset="1" style="stop-color:#6F6F6F"/>
</linearGradient>
<path fill="url(#SVGID_11_)" stroke="#3D3D3D" stroke-width="1.0408" stroke-linecap="round" stroke-linejoin="round" d="
	M249.45,54.594c0,0,20.646-40.846,23.053-40.236c2.392,0.596-18.853,35.113-16.588,40.426c2.239,5.325-6.46-0.19-6.46-0.19H249.45z"
	/>
<linearGradient id="SVGID_12_" gradientUnits="userSpaceOnUse" x1="453.7598" y1="69.6162" x2="476.9834" y2="69.6162" gradientTransform="matrix(1 0 0 -1 -196 110)">
	<stop  offset="0.0056" style="stop-color:#3D3D3D"/>
	<stop  offset="1" style="stop-color:#6F6F6F"/>
</linearGradient>
<path fill="url(#SVGID_12_)" stroke="#3D3D3D" stroke-width="1.0408" stroke-linecap="round" stroke-linejoin="round" d="
	M257.76,59.256c0,0,20.641-40.833,23.032-40.25c2.412,0.61-18.838,35.127-16.581,40.453c2.24,5.312-6.449-0.203-6.449-0.203H257.76z
	"/>
<linearGradient id="SVGID_13_" gradientUnits="userSpaceOnUse" x1="458.5" y1="65.4839" x2="488.0586" y2="65.4839" gradientTransform="matrix(1 0 0 -1 -196 110)">
	<stop  offset="0.0056" style="stop-color:#3D3D3D"/>
	<stop  offset="1" style="stop-color:#6F6F6F"/>
</linearGradient>
<path fill="url(#SVGID_13_)" stroke="#3D3D3D" stroke-width="1.0408" stroke-linecap="round" stroke-linejoin="round" d="
	M262.5,60.692c0,0,27.15-36.821,29.422-35.818c2.27,0.99-24.428,31.482-23.1,37.106c1.34,5.61-6.32-1.288-6.32-1.288H262.5z"/>
<linearGradient id="SVGID_14_" gradientUnits="userSpaceOnUse" x1="466.8086" y1="60.2998" x2="496.3682" y2="60.2998" gradientTransform="matrix(1 0 0 -1 -196 110)">
	<stop  offset="0.0056" style="stop-color:#3D3D3D"/>
	<stop  offset="1" style="stop-color:#6F6F6F"/>
</linearGradient>
<path fill="url(#SVGID_14_)" stroke="#3D3D3D" stroke-width="1.0408" stroke-linecap="round" stroke-linejoin="round" d="
	M270.811,65.883c0,0,27.145-36.822,29.422-35.832c2.263,0.989-24.448,31.481-23.113,37.119c1.34,5.611-6.311-1.287-6.311-1.287
	H270.811z"/>
<linearGradient id="SVGID_15_" gradientUnits="userSpaceOnUse" x1="474.5605" y1="57.877" x2="507.2744" y2="57.877" gradientTransform="matrix(1 0 0 -1 -196 110)">
	<stop  offset="0.0056" style="stop-color:#3D3D3D"/>
	<stop  offset="1" style="stop-color:#6F6F6F"/>
</linearGradient>
<path fill="url(#SVGID_15_)" stroke="#3D3D3D" stroke-width="1.0408" stroke-linecap="round" stroke-linejoin="round" d="
	M278.561,67.008c0,0,29.901-34.369,32.545-33.325c2.655,1.043-26.948,29.354-25.181,34.802c1.78,5.474-7.36-1.477-7.36-1.477
	H278.561z"/>
<linearGradient id="SVGID_16_" gradientUnits="userSpaceOnUse" x1="482.0703" y1="52.5103" x2="516.4561" y2="52.5103" gradientTransform="matrix(1 0 0 -1 -196 110)">
	<stop  offset="0.0056" style="stop-color:#3D3D3D"/>
	<stop  offset="1" style="stop-color:#6F6F6F"/>
</linearGradient>
<path fill="url(#SVGID_16_)" stroke="#3D3D3D" stroke-width="1.0408" stroke-linecap="round" stroke-linejoin="round" d="
	M286.07,71.344c0,0,31.617-32.796,34.231-31.604c2.597,1.179-28.446,27.904-26.969,33.474c1.5,5.543-7.26-1.87-7.26-1.87H286.07z"/>
<linearGradient id="SVGID_17_" gradientUnits="userSpaceOnUse" x1="490.0498" y1="53.5459" x2="535.1133" y2="53.5459" gradientTransform="matrix(1 0 0 -1 -196 110)">
	<stop  offset="0.0056" style="stop-color:#3D3D3D"/>
	<stop  offset="1" style="stop-color:#6F6F6F"/>
</linearGradient>
<path fill="url(#SVGID_17_)" stroke="#3D3D3D" stroke-width="1.0408" stroke-linecap="round" stroke-linejoin="round" d="
	M294.05,73.526c0,0,43.502-41.334,45.021-39.64c1.537,1.722-38.284,35.114-40,42.514C297.361,83.785,294.051,73.526,294.05,73.526
	L294.05,73.526z"/>
<linearGradient id="SVGID_18_" gradientUnits="userSpaceOnUse" x1="496.3516" y1="55.8457" x2="561.6855" y2="55.8457" gradientTransform="matrix(1 0 0 -1 -196 110)">
	<stop  offset="0.0056" style="stop-color:#3D3D3D"/>
	<stop  offset="1" style="stop-color:#6F6F6F"/>
</linearGradient>
<path fill="url(#SVGID_18_)" stroke="#3D3D3D" stroke-width="1.0408" stroke-linecap="round" stroke-linejoin="round" d="
	M365.68,29.034c-32.654,20.735-60.66,50.292-60.66,50.292l-4.668-2.074c0,0,23.852-20.219,32.674-27.483
	c8.811-7.25,28.511-21.765,32.66-20.735H365.68z"/>
<linearGradient id="SVGID_19_" gradientUnits="userSpaceOnUse" x1="504.124" y1="51.959" x2="578.79" y2="51.959" gradientTransform="matrix(1 0 0 -1 -196 110)">
	<stop  offset="0.0056" style="stop-color:#3D3D3D"/>
	<stop  offset="1" style="stop-color:#6F6F6F"/>
</linearGradient>
<path fill="url(#SVGID_19_)" stroke="#3D3D3D" stroke-width="1.0408" stroke-linecap="round" stroke-linejoin="round" d="
	M382.79,31.107c-37.33,22.239-69.326,53.924-69.326,53.924l-5.34-2.223c0,0,27.254-21.684,37.336-29.462
	C355.54,45.568,378.05,29.997,382.79,31.107L382.79,31.107z"/>
<linearGradient id="SVGID_20_" gradientUnits="userSpaceOnUse" x1="507.2402" y1="48.3252" x2="586.5605" y2="48.3252" gradientTransform="matrix(1 0 0 -1 -196 110)">
	<stop  offset="0.0056" style="stop-color:#3D3D3D"/>
	<stop  offset="1" style="stop-color:#6F6F6F"/>
</linearGradient>
<path fill="url(#SVGID_20_)" stroke="#3D3D3D" stroke-width="1.0408" stroke-linecap="round" stroke-linejoin="round" d="
	M390.561,35.77c-39.653,21.385-73.662,51.864-73.662,51.864l-5.658-2.142c0,0,28.968-20.843,39.667-28.337
	c10.69-7.467,34.63-22.456,39.649-21.385H390.561z"/>
<linearGradient id="SVGID_21_" gradientUnits="userSpaceOnUse" x1="510.877" y1="44.2305" x2="590.7227" y2="44.2305" gradientTransform="matrix(1 0 0 -1 -196 110)">
	<stop  offset="0.0056" style="stop-color:#3D3D3D"/>
	<stop  offset="1" style="stop-color:#6F6F6F"/>
</linearGradient>
<path fill="url(#SVGID_21_)" stroke="#3D3D3D" stroke-width="1.0408" stroke-linecap="round" stroke-linejoin="round" d="
	M394.721,42.465c-39.919,19.244-74.138,46.66-74.138,46.66l-5.706-1.924c0,0,29.145-18.77,39.925-25.492
	c10.761-6.736,34.86-20.221,39.921-19.244H394.721z"/>
<linearGradient id="SVGID_22_" gradientUnits="userSpaceOnUse" x1="515.5332" y1="35.9854" x2="589.6973" y2="35.9854" gradientTransform="matrix(1 0 0 -1 -196 110)">
	<stop  offset="0.0056" style="stop-color:#3D3D3D"/>
	<stop  offset="1" style="stop-color:#6F6F6F"/>
</linearGradient>
<path fill="url(#SVGID_22_)" stroke="#3D3D3D" stroke-width="1.0408" stroke-linecap="round" stroke-linejoin="round" d="
	M393.689,54.444c0,2.074-32.273,12.956-43.366,20.22c-11.078,7.264-27.253,19.19-27.253,19.19l-3.537-3.632
	c0,0,25.417-14.013,34.734-20.749c9.35-6.721,39.43-17.102,39.43-15.029H393.689z"/>
<linearGradient id="SVGID_23_" gradientUnits="userSpaceOnUse" x1="522.2773" y1="29.3291" x2="587.6543" y2="29.3291" gradientTransform="matrix(1 0 0 -1 -196 110)">
	<stop  offset="0.0056" style="stop-color:#3D3D3D"/>
	<stop  offset="1" style="stop-color:#6F6F6F"/>
</linearGradient>
<path fill="url(#SVGID_23_)" stroke="#3D3D3D" stroke-width="1.0408" stroke-linecap="round" stroke-linejoin="round" d="
	M391.62,64.812c-1.058,2.087-26.44,9.853-36.32,15.558c-9.832,5.705-25.383,16.587-25.383,16.587l-3.64-2.073
	c0,0,17.773-12.956,31.76-19.705c14.01-6.735,34.609-12.427,33.58-10.367H391.62z"/>
<linearGradient id="SVGID_24_" gradientUnits="userSpaceOnUse" x1="527.4707" y1="23.9814" x2="585.0195" y2="23.9814" gradientTransform="matrix(1 0 0 -1 -196 110)">
	<stop  offset="0.0056" style="stop-color:#3D3D3D"/>
	<stop  offset="1" style="stop-color:#6F6F6F"/>
</linearGradient>
<path fill="url(#SVGID_24_)" stroke="#3D3D3D" stroke-width="1.0408" stroke-linecap="round" stroke-linejoin="round" d="
	M389.02,74.149c0,3.103-19.373,7.264-29.043,10.367c-9.648,3.117-24.881,14-24.881,14l-3.625-2.073c0,0,19.69-12.956,28.006-14.514
	c8.27-1.559,29.529-10.883,29.529-7.78H389.02z"/>
<linearGradient id="SVGID_25_" gradientUnits="userSpaceOnUse" x1="531.6143" y1="15.8184" x2="578.3008" y2="15.8184" gradientTransform="matrix(1 0 0 -1 -196 110)">
	<stop  offset="0.0056" style="stop-color:#3D3D3D"/>
	<stop  offset="1" style="stop-color:#6F6F6F"/>
</linearGradient>
<path fill="url(#SVGID_25_)" stroke="#3D3D3D" stroke-width="1.0408" stroke-linecap="round" stroke-linejoin="round" d="
	M338.73,102.15c0,0,15.537-10.381,21.771-10.882c6.228-0.528,21.265-2.588,21.786-4.147c0.508-1.558-13.676-1.043-22.814,1.03
	c-9.148,2.073-23.858,11.926-23.858,11.926l3.11,2.07L338.73,102.15z"/>
<linearGradient id="SVGID_26_" gradientUnits="userSpaceOnUse" x1="453.083" y1="-121.8042" x2="555.9824" y2="-121.8042" gradientTransform="matrix(1 0 0 -1 -196 110)">
	<stop  offset="0.0056" style="stop-color:#525252"/>
	<stop  offset="1" style="stop-color:#6F6F6F"/>
</linearGradient>
<path fill="url(#SVGID_26_)" stroke="#000000" stroke-width="1.0408" stroke-linecap="round" stroke-linejoin="round" d="
	M359.971,212.6c0,2.575-4.127,2.575-5.171,5.705c-1.036,3.117,0.494,4.135,0,6.723c-0.534,2.603-4.479,5.705-4.479,7.779
	c0,2.072-3.827,2.603-5.372,3.631c-1.565,1.045-3.632,1.561-4.662,4.147c-1.043,2.603-2.603,6.749-3.64,7.276
	c-1.035,0.503-3.617,1.031-3.617,1.031s-3.537,4.146-6.756,5.176c-3.205,1.043-11.397,4.677-15.037,5.178
	c-3.639,0.527-5.17,3.117-8.286,3.117c-3.124,0-7.265,0.527-9.853,1.044c-2.615,0.515-1.037,3.116-3.633,2.588
	c-2.595-0.515-6.749-1.545-8.809-3.104c-2.074-1.559-5.184-1.559-5.184-1.559l-6.757-19.189c0,0,0-4.662-2.067-5.177
	c-2.08-0.528-4.146-1.044-5.176,1.558c-1.063,2.59,0,8.281,0,8.281s-3.64-5.691-4.16-8.281c-0.516-2.602,0-7.264,0-7.264
	l44.084-9.337l24.875-24.38c0.011-0.01,33.711,12.45,33.711,15.051L359.971,212.6z"/>
<linearGradient id="SVGID_27_" gradientUnits="userSpaceOnUse" x1="514.2852" y1="-102.9683" x2="550.1064" y2="-102.9683" gradientTransform="matrix(1 0 0 -1 -196 110)">
	<stop  offset="0.0056" style="stop-color:#3D3D3D"/>
	<stop  offset="1" style="stop-color:#6F6F6F"/>
</linearGradient>
<path fill="url(#SVGID_27_)" stroke="#3D3D3D" stroke-width="1.0408" stroke-linecap="round" stroke-linejoin="round" d="
	M353.971,223.59c2.248-0.447-24.084-10.91-30.9-17.727c-6.829-6.803-5.914-2.725,0,3.185c5.891,5.92,28.611,15,30.9,14.55V223.59z"
	/>
<linearGradient id="SVGID_28_" gradientUnits="userSpaceOnUse" x1="510.3232" y1="-111.5991" x2="543.1904" y2="-111.5991" gradientTransform="matrix(1 0 0 -1 -196 110)">
	<stop  offset="0.0056" style="stop-color:#3D3D3D"/>
	<stop  offset="1" style="stop-color:#6F6F6F"/>
</linearGradient>
<path fill="url(#SVGID_28_)" stroke="#3D3D3D" stroke-width="1.0408" stroke-linecap="round" stroke-linejoin="round" d="
	M347.04,234.391c2.304-0.149-22.496-13.865-28.397-21.494c-5.89-7.617-5.496-3.441-0.394,3.158
	c5.101,6.609,26.479,18.489,28.79,18.329L347.04,234.391z"/>
<linearGradient id="SVGID_29_" gradientUnits="userSpaceOnUse" x1="510.6133" y1="-117.5508" x2="532.8057" y2="-117.5508" gradientTransform="matrix(1 0 0 -1 -196 110)">
	<stop  offset="0.0056" style="stop-color:#3D3D3D"/>
	<stop  offset="1" style="stop-color:#6F6F6F"/>
</linearGradient>
<path fill="url(#SVGID_29_)" stroke="#3D3D3D" stroke-width="1.0408" stroke-linecap="round" stroke-linejoin="round" d="
	M336.62,245.2c2.229,0.651-16.274-20.829-19.142-30.031c-2.873-9.202-3.972-5.163-1.479,2.817c2.49,7.98,18.41,26.561,20.62,27.211
	V245.2z"/>
<linearGradient id="SVGID_30_" gradientUnits="userSpaceOnUse" x1="504.748" y1="-124.8472" x2="523.0957" y2="-124.8472" gradientTransform="matrix(1 0 0 -1 -196 110)">
	<stop  offset="0.0056" style="stop-color:#3D3D3D"/>
	<stop  offset="1" style="stop-color:#6F6F6F"/>
</linearGradient>
<path fill="url(#SVGID_30_)" stroke="#3D3D3D" stroke-width="1.0408" stroke-linecap="round" stroke-linejoin="round" d="
	M326.9,253.58c2.135,0.896-13.863-22.51-15.713-31.969c-1.83-9.461-3.375-5.557-1.763,2.643c1.57,8.2,15.32,28.43,17.47,29.33
	L326.9,253.58z"/>
<linearGradient id="SVGID_31_" gradientUnits="userSpaceOnUse" x1="497.0205" y1="-128.0264" x2="515.3643" y2="-128.0264" gradientTransform="matrix(1 0 0 -1 -196 110)">
	<stop  offset="0.0056" style="stop-color:#3D3D3D"/>
	<stop  offset="1" style="stop-color:#6F6F6F"/>
</linearGradient>
<path fill="url(#SVGID_31_)" stroke="#3D3D3D" stroke-width="1.0408" stroke-linecap="round" stroke-linejoin="round" d="
	M319.17,256.76c2.128,0.895-13.863-22.51-15.707-31.969c-1.855-9.46-3.367-5.557-1.77,2.629c1.591,8.2,15.361,28.439,17.48,29.34
	H319.17z"/>
<linearGradient id="SVGID_32_" gradientUnits="userSpaceOnUse" x1="489.3047" y1="-130.3032" x2="507.6455" y2="-130.3032" gradientTransform="matrix(1 0 0 -1 -196 110)">
	<stop  offset="0.0056" style="stop-color:#3D3D3D"/>
	<stop  offset="1" style="stop-color:#6F6F6F"/>
</linearGradient>
<path fill="url(#SVGID_32_)" stroke="#3D3D3D" stroke-width="1.0408" stroke-linecap="round" stroke-linejoin="round" d="
	M311.45,259.029c2.135,0.896-13.863-22.495-15.7-31.955c-1.843-9.459-3.374-5.557-1.775,2.629c1.57,8.21,15.33,28.449,17.471,29.33
	L311.45,259.029z"/>
<linearGradient id="SVGID_33_" gradientUnits="userSpaceOnUse" x1="480.5479" y1="-132.5786" x2="497.2109" y2="-132.5786" gradientTransform="matrix(1 0 0 -1 -196 110)">
	<stop  offset="0.0056" style="stop-color:#3D3D3D"/>
	<stop  offset="1" style="stop-color:#6F6F6F"/>
</linearGradient>
<path fill="url(#SVGID_33_)" stroke="#3D3D3D" stroke-width="1.0408" stroke-linecap="round" stroke-linejoin="round" d="
	M301.01,261.71c2.088,1.003-12.767-23.147-14.154-32.688c-1.377-9.526-3.104-5.72-1.904,2.562c1.189,8.271,13.949,29.13,16.05,30.13
	L301.01,261.71z"/>
<linearGradient id="SVGID_34_" gradientUnits="userSpaceOnUse" x1="472.0127" y1="-135.7705" x2="486.4277" y2="-135.7705" gradientTransform="matrix(1 0 0 -1 -196 110)">
	<stop  offset="0.0056" style="stop-color:#3D3D3D"/>
	<stop  offset="1" style="stop-color:#6F6F6F"/>
</linearGradient>
<path fill="url(#SVGID_34_)" stroke="#3D3D3D" stroke-width="1.0408" stroke-linecap="round" stroke-linejoin="round" d="
	M290.221,265.37c2.012,1.125-11.263-23.92-12.008-33.528c-0.771-9.607-2.725-5.908-2.066,2.412c0.66,8.34,12.041,30,14.08,31.12
	L290.221,265.37z"/>
<linearGradient id="SVGID_35_" gradientUnits="userSpaceOnUse" x1="464.3906" y1="-133.9775" x2="475.1309" y2="-133.9775" gradientTransform="matrix(1 0 0 -1 -196 110)">
	<stop  offset="0.0056" style="stop-color:#3D3D3D"/>
	<stop  offset="1" style="stop-color:#6F6F6F"/>
</linearGradient>
<path fill="url(#SVGID_35_)" stroke="#3D3D3D" stroke-width="1.0408" stroke-linecap="round" stroke-linejoin="round" d="
	M278.9,264.2c1.891,1.327-8.491-25.058-8.166-34.681c0.299-9.621-2.061-6.18-2.338,2.183c-0.27,8.34,8.621,31.14,10.511,32.5
	L278.9,264.2z"/>
<linearGradient id="SVGID_36_" gradientUnits="userSpaceOnUse" x1="569.4658" y1="-34.377" x2="695.4932" y2="-34.377" gradientTransform="matrix(1 0 0 -1 -196 110)">
	<stop  offset="0.0056" style="stop-color:#3D3D3D"/>
	<stop  offset="1" style="stop-color:#6F6F6F"/>
</linearGradient>
<path fill="url(#SVGID_36_)" stroke="#3D3D3D" stroke-width="1.0408" stroke-linecap="round" stroke-linejoin="round" d="
	M499.46,58.592c-0.502-3.117-4.141-2.073-11.397-1.043c-7.258,1.043-39.424,19.203-46.158,24.895
	c-6.735,5.706-25.911,17.103-32.14,21.25c-6.221,4.16-13.999,9.866-18.146,11.411c-4.154,1.559-9.859,2.602-9.859,2.602
	l-8.294,49.249c0,0,55.998,36.293,63.255,40.438c7.266,4.162,29.558,15.043,35.271,19.189c5.699,4.146,10.882,4.676,13.471,5.191
	c2.604,0.515,2.604,1.043,3.619-1.045c1.057-2.06-4.648-19.176-6.208-23.336c-1.559-4.146-7.264-7.25-8.294-9.853
	c-1.029-2.575,0.521-2.575-0.527-5.177c-1.031-2.588-20.214-21.264-23.853-25.41c-3.625-4.146-7.244-9.324-8.815-13.471
	c-1.545-4.147-1.03-8.294,0-11.397c1.037-3.117,1.037-6.749,5.712-10.91c4.669-4.147,28.006-33.69,32.159-36.794
	c4.14-3.117,12.435-19.204,12.435-19.204s8.301-13.464,7.78-16.58L499.46,58.592z"/>
<linearGradient id="SVGID_37_" gradientUnits="userSpaceOnUse" x1="313.1094" y1="-159.8931" x2="349.6113" y2="-159.8931" gradientTransform="matrix(1 0 0 -1 -196 110)">
	<stop  offset="0.0056" style="stop-color:#606060"/>
	<stop  offset="1" style="stop-color:#808080"/>
</linearGradient>
<path fill="url(#SVGID_37_)" stroke="#000000" stroke-width="1.0408" stroke-linecap="round" stroke-linejoin="round" d="
	M126.65,313.71c0,0-7.779-22.308-8.829-33.705c-1.024-11.409-1.024-25.938,0.535-33.717c1.559-7.767,5.177-20.222,5.177-20.222
	l18.16,4.662l11.919,38.381c0,0-2.067,1.043-4.147,2.589c-2.066,1.571-2.066,1.571-5.712,5.177
	c-3.611,3.646-2.582,8.809-4.662,9.352c-2.066,0.502-2.588,0-4.662,0.502c-2.08,0.527-4.661,4.674-6.749,8.821
	c-2.08,4.171-1.04,18.17-1.04,18.17L126.65,313.71z"/>
<linearGradient id="SVGID_38_" gradientUnits="userSpaceOnUse" x1="296.3438" y1="-134.3594" x2="502.2663" y2="71.5512" gradientTransform="matrix(1 0 0 -1 -196 110)">
	<stop  offset="0.0056" style="stop-color:#5C5C5C"/>
	<stop  offset="0.5393" style="stop-color:#6F6F6F"/>
	<stop  offset="1" style="stop-color:#383838"/>
</linearGradient>
<path fill="url(#SVGID_38_)" stroke="#000000" stroke-width="1.0408" stroke-linecap="round" stroke-linejoin="round" d="
	M63.912,88.149c0,0,6.851-9.582,35.899-24.11c32.031-15.815,60.538-20.477,72.985-22.035c12.448-1.559,77.783,10.367,88.157,14.515
	c10.374,4.146,23.845,9.852,31.624,13.999c7.778,4.147,43.55,29.558,52.372,34.22c8.814,4.662,16.072,11.289,23.33,12.833
	c7.271,1.559,13.478,0.136,13.478,0.136l3.124-0.528c0,0,7.258,6.234,8.809,11.926c1.545,5.706,3.627,12.983,3.11,19.19
	c-0.535,6.22-7.784,14.514-11.919,16.602c-4.154,2.06-6.749,4.146-6.749,4.146s-3.104-2.087-8.308-1.572
	c-5.17,0.528-8.092,2.603-15.165,4.662c-7.062,2.088-8.681,7.278-13.857,9.866c-5.188,2.588-8.821,8.294-10.889,11.938
	c-2.087,3.605-3.32,7.766-6.845,12.957c-3.537,5.176-2.485,7.25-9.743,11.912c-7.257,4.676-20.228,9.865-34.232,12.453
	c-14,2.59-54.968,4.662-72.077,5.178c-17.096,0.528-63.262-3.104-81.401-6.735c-18.153-3.632-42.527-17.632-51.85-22.808
	c-9.345-5.191-29.558-18.676-29.558-18.676L7.91,131.689c0,0,14.256-16.331,23.194-23.202c8.964-6.88,32.803-20.361,32.803-20.361
	L63.912,88.149z"/>
<linearGradient id="SVGID_39_" gradientUnits="userSpaceOnUse" x1="326.29" y1="-158.8462" x2="395.25" y2="-158.8462" gradientTransform="matrix(1 0 0 -1 -196 110)">
	<stop  offset="0.0056" style="stop-color:#606060"/>
	<stop  offset="1" style="stop-color:#808080"/>
</linearGradient>
<path fill="url(#SVGID_39_)" stroke="#000000" stroke-width="1.0408" stroke-linecap="round" stroke-linejoin="round" d="
	M130.29,226.07c0,0,9.324,24.882,12.434,29.558c3.117,4.677,23.33,32.675,26.44,35.263c3.117,2.588,12.977,10.367,17.117,12.969
	c4.154,2.59,12.969,7.767,12.969,7.767s-9.853-8.308-12.461-10.882c-2.582-2.59-9.324-11.926-9.324-15.057
	c0-3.09,1.559-5.164,3.632-7.766c2.073-2.589,2.073-7.768,3.625-9.854c1.559-2.073,5.197-4.662,5.712-7.25
	c0.515-2.604-0.515-4.662-1.559-8.309c-1.037-3.617-6.735-6.722-9.853-9.854c-3.117-3.102-17.109-8.809-17.109-8.809
	s-7.779-3.117-10.903-4.662c-3.1-1.56-20.72-3.119-20.72-3.119V226.07z"/>
<linearGradient id="SVGID_40_" gradientUnits="userSpaceOnUse" x1="207.5469" y1="-63.9824" x2="290.542" y2="-63.9824" gradientTransform="matrix(1 0 0 -1 -196 110)">
	<stop  offset="0.0056" style="stop-color:#585858"/>
	<stop  offset="1" style="stop-color:#5D5D5D"/>
</linearGradient>
<path fill="url(#SVGID_40_)" stroke="#3D3D3D" stroke-width="1.0408" stroke-linecap="round" stroke-linejoin="round" d="
	M22.95,171.63c3.118,4.134,7.257,8.81,10.375,11.913c3.096,3.117,13.471,6.234,17.624,7.264c4.147,1.03,14.515,2.603,19.19,2.603
	c4.662,0,4.14,0.515,11.919-2.073c7.772-2.602,12.969-4.919,12.448-10.109c-0.176-1.694-5.936,3.035-14.114,4.051
	c-5.767,0.732-12.726-7.223-19.759-9.106c-13.525-3.618-28.351-20.098-28.351-20.098l-20.735-1.559
	c-0.001,0.01,8.286,12.98,11.403,17.13V171.63z"/>
<linearGradient id="SVGID_41_" gradientUnits="userSpaceOnUse" x1="196.52" y1="-39.8804" x2="225.6792" y2="-39.8804" gradientTransform="matrix(1 0 0 -1 -196 110)">
	<stop  offset="0.0056" style="stop-color:#585858"/>
	<stop  offset="1" style="stop-color:#5D5D5D"/>
</linearGradient>
<path fill="url(#SVGID_41_)" stroke="#000000" stroke-width="1.0408" stroke-linecap="round" stroke-linejoin="round" d="M3.245,140
	c-1.558,0-2.08,1.043-2.588,2.588c-0.522,1.559,0.508,4.662,2.066,6.749c1.558,2.073,5.191,5.706,7.772,7.25
	c2.602,1.558,4.669-0.515,6.241,0.528c1.538,1.029,4.655,2.072,6.735,2.588c2.067,0.515,6.208-2.588,6.208-2.588l-8.816-11.926
	c0,0-6.213,0.501-8.288,0.501c-2.08,0-4.146-0.501-5.692-2.06C5.313,142.09,4.797,140,3.245,140z"/>
<linearGradient id="SVGID_42_" gradientUnits="userSpaceOnUse" x1="206.9795" y1="-30.8643" x2="275.0059" y2="-30.8643" gradientTransform="matrix(1 0 0 -1 -196 110)">
	<stop  offset="0.0056" style="stop-color:#525252"/>
	<stop  offset="1" style="stop-color:#6F6F6F"/>
</linearGradient>
<path fill="url(#SVGID_42_)" stroke="#3D3D3D" stroke-width="1.0408" stroke-linecap="round" stroke-linejoin="round" d="
	M32.443,153.38c0,0,3.977,4.269,5.537,7.874c1.558,3.646,8.293,9.337,11.932,12.971c3.625,3.631,7.779,4.159,10.889,3.631
	c3.11-0.515,4.147-0.515,7.264-2.588c3.104-2.074,3.618-5.189,4.14-9.336c0.508-4.147,2.595-11.412,3.625-14.516
	c1.043-3.117,3.639-12.441,3.104-17.103c-0.495-4.676-5.17-15.057-6.729-18.16s-4.662-3.104-9.846-6.207
	c-5.183-3.117-5.712-6.247-10.381-6.247c-4.655,0-8.802,0.528-11.905,1.572c-3.124,1.03-6.749,2.588-10.909,6.221
	c-4.147,3.618-10.368,9.324-12.95,11.926c-2.595,2.588-6.755,4.648-4.668,5.692c2.073,1.043,7.25,1.057,9.317,3.117
	c2.086,2.087,4.154,0.515,7.264,1.044c3.124,0.515,3.124,4.147,7.792,7.25c4.668,3.117,8.802,0,8.802,0s11.405,0,11.405,2.602
	c0,2.575-4.147,3.619-6.214,4.133c-2.073,0.529-7.257,0-7.257,0s7.779,2.982,11.919,1.423c4.161-1.545,5.712-2.981,8.822-6.586
	c3.111-3.632,3.111-7.779,2.582-9.866c-0.515-2.073-3.619-3.632-3.619-3.632s-26.968-7.25-28.527-7.779
	c-1.552-0.515-2.582-3.104,0-5.706c2.588-2.602,8.823-4.662,10.889-4.147c2.074,0.529,3.64-1.559,7.257-1.559
	c3.64,0,6.234,3.104,10.883,5.204c4.682,2.06,6.241,12.427,7.786,16.073c1.559,3.632,1.559,9.839,2.066,15.016
	c0.522,5.204-2.066,5.204-3.611,9.852c-1.559,4.676-1.037,13.485-3.124,15.559c-2.066,2.086-2.582,3.117-7.765,2.602
	c-5.184-0.516-10.374-4.146-12.454-6.234c-2.067-2.06-2.582-6.221-5.171-8.293c-2.608-2.061-6.755-7.25-6.755-7.25l-1.39,1.49
	V153.38z"/>
<linearGradient id="SVGID_43_" gradientUnits="userSpaceOnUse" x1="228.8032" y1="-18.7129" x2="261.9785" y2="-18.7129" gradientTransform="matrix(1 0 0 -1 -196 110)">
	<stop  offset="0.1742" style="stop-color:#A6A6A6"/>
	<stop  offset="1" style="stop-color:#6F6F6F"/>
</linearGradient>
<path fill="url(#SVGID_43_)" stroke="#3D3D3D" stroke-width="1.0408" stroke-linecap="round" stroke-linejoin="round" d="
	M65.978,128.72c0,8.158-7.419,14.771-16.587,14.771s-16.588-6.613-16.588-14.771c0-8.172,7.419-14.786,16.588-14.786
	c9.168,0.01,16.587,6.62,16.587,14.79V128.72z"/>
<linearGradient id="SVGID_44_" gradientUnits="userSpaceOnUse" x1="232.4419" y1="-18.1602" x2="257.4453" y2="-18.1602" gradientTransform="matrix(1 0 0 -1 -196 110)">
	<stop  offset="0.1742" style="stop-color:#DDDDDD"/>
	<stop  offset="1" style="stop-color:#A6A6A6"/>
</linearGradient>
<path fill="url(#SVGID_44_)" stroke="#3D3D3D" stroke-width="1.0408" stroke-linecap="round" stroke-linejoin="round" d="
	M61.445,128.16c0,6.342-5.583,11.492-12.495,11.492c-6.912,0-12.508-5.15-12.508-11.492c0-6.342,5.597-11.492,12.508-11.492
	c6.911,0,12.495,5.14,12.495,11.49V128.16z"/>
<path fill="#3D3D3D" stroke="#000000" stroke-width="1.0408" stroke-linecap="round" stroke-linejoin="round" d="M54.574,128.33
	c0,3.862-3.354,7.006-7.521,7.006c-4.147,0-7.515-3.144-7.515-7.006c0-3.862,3.368-6.993,7.515-6.993c4.167,0,7.521,3.13,7.521,6.99
	V128.33z"/>
<path fill="#2D2D2D" d="M53.212,128.1c0,2.995-2.596,5.421-5.807,5.421c-3.226,0-5.814-2.426-5.814-5.421s2.588-5.407,5.814-5.407
	c3.212,0,5.807,2.41,5.807,5.41V128.1z"/>
<path fill="#EDEDED" d="M47.188,123.38c0.326,0.962-0.379,2.074-1.585,2.507c-1.213,0.434-2.474,0.027-2.805-0.921
	c-0.353-0.949,0.366-2.074,1.565-2.494c1.226-0.44,2.48-0.03,2.825,0.9V123.38z"/>
<path fill="none" stroke="#3D3D3D" stroke-width="1.0408" stroke-linecap="round" stroke-linejoin="round" d="M253.17,174.221
	c0,0,16.607-9.867,4.662-26.441"/>
<path fill="none" stroke="#3D3D3D" stroke-width="1.0408" stroke-linecap="round" stroke-linejoin="round" d="M225.18,180.439
	c0,0,9.839,2.074-7.257,22.81"/>
<path fill="none" stroke="#3D3D3D" stroke-width="1.0408" stroke-linecap="round" stroke-linejoin="round" d="M230.36,186.66
	c0,0,8.802-12.439,7.772-18.146"/>
<path fill="none" stroke="#3D3D3D" stroke-width="1.0408" stroke-linecap="round" stroke-linejoin="round" d="M231.39,204.82
	c16.587-11.411,10.889-29.557,10.889-29.557s5.658-6.601,8.172-12.713c0.691-1.721,1.146-3.429,1.146-4.919"/>
<path fill="none" stroke="#3D3D3D" stroke-width="1.0408" stroke-linecap="round" stroke-linejoin="round" d="M244.87,186.66
	c0,0,12.177-7.766,5.577-24.109"/>
<path fill="none" stroke="#3D3D3D" stroke-width="1.0408" stroke-linecap="round" stroke-linejoin="round" d="M243.84,189.779
	c0,0,1.057,6.898,1.28,11.953c0.095,2.02,0.041,3.754-0.244,4.636c-1.036,3.116-9.838,12.44-9.838,12.44"/>
<path fill="none" stroke="#3D3D3D" stroke-width="1.0408" stroke-linecap="round" stroke-linejoin="round" d="M252.65,176.82
	c0,0,10.883,15.016-7.257,26.955"/>
<path fill="none" stroke="#3D3D3D" stroke-width="1.0408" stroke-linecap="round" stroke-linejoin="round" d="M256.279,186.66
	c0,0,12.964-7.25,6.229-24.881"/>
<path fill="none" stroke="#3D3D3D" stroke-width="1.0408" stroke-linecap="round" stroke-linejoin="round" d="M268.721,189.779
	c0,0,14.521-8.821,5.704-22.307"/>
<path fill="none" stroke="#3D3D3D" stroke-width="1.0408" stroke-linecap="round" stroke-linejoin="round" d="M278.58,177.85
	c0,0,14.516-8.822,5.691-22.307"/>
<path fill="none" stroke="#3D3D3D" stroke-width="1.0408" stroke-linecap="round" stroke-linejoin="round" d="M281.689,188.73
	c0,0,14.516-8.822,5.707-22.28"/>
<path fill="none" stroke="#3D3D3D" stroke-width="1.0408" stroke-linecap="round" stroke-linejoin="round" d="M272.87,200.141
	c0,0,14.521-8.81,5.712-22.293"/>
<path fill="none" stroke="#3D3D3D" stroke-width="1.0408" stroke-linecap="round" stroke-linejoin="round" d="M285.33,202.221
	c0,0,14.501-8.822,5.686-22.308"/>
<path fill="none" stroke="#3D3D3D" stroke-width="1.0408" stroke-linecap="round" stroke-linejoin="round" d="M290.48,174.73
	c0,0,14.541-8.81,5.719-22.293"/>
<path fill="none" stroke="#3D3D3D" stroke-width="1.0408" stroke-linecap="round" stroke-linejoin="round" d="M293.609,185.13
	c0,0,13.634-8.212,5.359-20.774"/>
<path fill="none" stroke="#3D3D3D" stroke-width="1.0408" stroke-linecap="round" stroke-linejoin="round" d="M302.95,175.26
	c0,0,13.627-8.213,5.347-20.749"/>
<path fill="none" stroke="#3D3D3D" stroke-width="1.0408" stroke-linecap="round" stroke-linejoin="round" d="M306.57,185.13
	c0,0,13.641-8.212,5.367-20.774"/>
<path fill="none" stroke="#3D3D3D" stroke-width="1.0408" stroke-linecap="round" stroke-linejoin="round" d="M314.99,171.63
	c0,0,8.699-6.979,3.436-17.631"/>
<path fill="none" stroke="#3D3D3D" stroke-width="1.0408" stroke-linecap="round" stroke-linejoin="round" d="M263.02,209.48
	c0,0,13.635-7.17,5.354-18.146"/>
<path fill="none" stroke="#3D3D3D" stroke-width="1.0408" stroke-linecap="round" stroke-linejoin="round" d="M258.87,200.141
	c0,0,14.521-8.81,5.705-22.293"/>
<path fill="none" stroke="#3D3D3D" stroke-width="1.0408" stroke-linecap="round" stroke-linejoin="round" d="M264.57,177.85
	c0,0,14.521-8.822,5.705-22.307"/>
<path fill="none" stroke="#3D3D3D" stroke-width="1.0408" stroke-linecap="round" stroke-linejoin="round" d="M388.5,119.25
	c0,0,23.853-12.427,30.079-17.103"/>
<path fill="none" stroke="#3D3D3D" stroke-width="1.0408" stroke-linecap="round" stroke-linejoin="round" d="M391.62,121.87
	c7.766-2.087,92.283-40.454,92.283-40.454"/>
<path fill="none" stroke="#3D3D3D" stroke-width="1.0408" stroke-linecap="round" stroke-linejoin="round" d="M478.72,91.767
	c0,0-80.879,33.189-83.995,34.233"/>
<line fill="none" stroke="#3D3D3D" stroke-width="1.0408" stroke-linecap="round" stroke-linejoin="round" x1="395.76" y1="130.68" x2="460.06" y2="108.37"/>
<path fill="none" stroke="#3D3D3D" stroke-width="1.0408" stroke-linecap="round" stroke-linejoin="round" d="M396.8,134.31
	c0,0,38.888-14.013,40.447-12.97"/>
<line fill="none" stroke="#3D3D3D" stroke-width="1.0408" stroke-linecap="round" stroke-linejoin="round" x1="398.35" y1="139.48" x2="425.84" y2="135.84"/>
<line fill="none" stroke="#3D3D3D" stroke-width="1.0408" stroke-linecap="round" stroke-linejoin="round" x1="388.5" y1="165.92" x2="475.6" y2="199.63"/>
<line fill="none" stroke="#3D3D3D" stroke-width="1.0408" stroke-linecap="round" stroke-linejoin="round" x1="390.561" y1="162.811" x2="458.49" y2="188.73"/>
<line fill="none" stroke="#3D3D3D" stroke-width="1.0408" stroke-linecap="round" stroke-linejoin="round" x1="394.2" y1="160.75" x2="464.72" y2="184.59"/>
<line fill="none" stroke="#3D3D3D" stroke-width="1.0408" stroke-linecap="round" stroke-linejoin="round" x1="396.8" y1="158.15" x2="446.57" y2="173.7"/>
<line fill="none" stroke="#3D3D3D" stroke-width="1.0408" stroke-linecap="round" stroke-linejoin="round" x1="398.87" y1="155.54" x2="437.76" y2="164.35"/>
<line fill="none" stroke="#3D3D3D" stroke-width="1.0408" stroke-linecap="round" stroke-linejoin="round" x1="427.91" y1="156.59" x2="398.35" y2="154"/>
<line fill="none" stroke="#3D3D3D" stroke-width="1.0408" stroke-linecap="round" stroke-linejoin="round" x1="399.91" y1="149.34" x2="431.01" y2="148.81"/>
<line fill="none" stroke="#3D3D3D" stroke-width="1.0408" stroke-linecap="round" stroke-linejoin="round" x1="399.91" y1="143.63" x2="425.84" y2="140.51"/>
<line fill="none" stroke="#3D3D3D" stroke-width="1.0408" stroke-linecap="round" stroke-linejoin="round" x1="479.76" y1="212.07" x2="386.939" y2="167.471"/>
<line fill="none" stroke="#3D3D3D" stroke-width="1.0408" stroke-linecap="round" stroke-linejoin="round" x1="472.5" y1="203.779" x2="399.91" y2="171.63"/>
<line fill="none" stroke="#3D3D3D" stroke-width="1.0408" stroke-linecap="round" stroke-linejoin="round" x1="482.87" y1="222.45" x2="451.24" y2="204.82"/>
<line fill="none" stroke="#3D3D3D" stroke-width="1.0408" stroke-linecap="round" stroke-linejoin="round" x1="476.13" y1="224.51" x2="385.4" y2="169.04"/>
<line fill="none" stroke="#3D3D3D" stroke-width="1.0408" stroke-linecap="round" stroke-linejoin="round" x1="478.72" y1="215.17" x2="446.05" y2="198.58"/>
<line fill="none" stroke="#3D3D3D" stroke-width="1.0408" stroke-linecap="round" stroke-linejoin="round" x1="404.57" y1="135.84" x2="433.61" y2="128.06"/>
<line fill="none" stroke="#3D3D3D" stroke-width="1.0408" stroke-linecap="round" stroke-linejoin="round" x1="407.17" y1="146.22" x2="434.13" y2="144.66"/>
<line fill="none" stroke="#3D3D3D" stroke-width="1.0408" stroke-linecap="round" stroke-linejoin="round" x1="401.47" y1="115.1" x2="467.31" y2="83.473"/>
<linearGradient id="SVGID_45_" gradientUnits="userSpaceOnUse" x1="347.4453" y1="-132.9336" x2="381.2441" y2="-132.9336" gradientTransform="matrix(1 0 0 -1 -196 110)">
	<stop  offset="0.0056" style="stop-color:#3D3D3D"/>
	<stop  offset="1" style="stop-color:#6F6F6F"/>
</linearGradient>
<path fill="url(#SVGID_45_)" stroke="#3D3D3D" stroke-width="1.0408" stroke-linecap="round" stroke-linejoin="round" d="
	M154.65,232.29c5.421,9.271,30.594,23.864,30.594,23.864s-25.173-10.989-33.698-24.896c-0.53-2.069,1.12-2.37,3.11,1.03
	L154.65,232.29z"/>
<linearGradient id="SVGID_46_" gradientUnits="userSpaceOnUse" x1="343.5" y1="-137.4346" x2="377.71" y2="-137.4346" gradientTransform="matrix(1 0 0 -1 -196 110)">
	<stop  offset="0.0056" style="stop-color:#3D3D3D"/>
	<stop  offset="1" style="stop-color:#6F6F6F"/>
</linearGradient>
<path fill="url(#SVGID_46_)" stroke="#3D3D3D" stroke-width="1.0408" stroke-linecap="round" stroke-linejoin="round" d="
	M181.71,266.42c0,0-33.203-30.412-34.124-36.957c-0.597-1.681,2.12-1.179,2.418,0.799c0.91,5.631,31.7,36.16,31.7,36.16
	L181.71,266.42z"/>
<linearGradient id="SVGID_47_" gradientUnits="userSpaceOnUse" x1="338.3242" y1="-141.9951" x2="373.3066" y2="-141.9951" gradientTransform="matrix(1 0 0 -1 -196 110)">
	<stop  offset="0.0056" style="stop-color:#3D3D3D"/>
	<stop  offset="1" style="stop-color:#6F6F6F"/>
</linearGradient>
<path fill="url(#SVGID_47_)" stroke="#3D3D3D" stroke-width="1.0408" stroke-linecap="round" stroke-linejoin="round" d="M177.3,276
	c0,0-29.632-28.582-34.958-46.538c-0.285-2.737,3.077-1.179,3.225,0.8c3.66,9.289,31.74,45.739,31.74,45.739L177.3,276z"/>
<linearGradient id="SVGID_48_" gradientUnits="userSpaceOnUse" x1="332.166" y1="-146.7783" x2="371.9297" y2="-146.7783" gradientTransform="matrix(1 0 0 -1 -196 110)">
	<stop  offset="0.0056" style="stop-color:#3D3D3D"/>
	<stop  offset="1" style="stop-color:#6F6F6F"/>
</linearGradient>
<path fill="url(#SVGID_48_)" stroke="#3D3D3D" stroke-width="1.0408" stroke-linecap="round" stroke-linejoin="round" d="
	M175.93,286.63c0,0-34.707-38.339-39.572-57.813c-0.915-3.359,1.674-1.518,3.049,0c4.56,15.07,36.52,57.811,36.52,57.811
	L175.93,286.63z"/>
<linearGradient id="SVGID_49_" gradientUnits="userSpaceOnUse" x1="325.5215" y1="-158.6699" x2="395.2539" y2="-158.6699" gradientTransform="matrix(1 0 0 -1 -196 110)">
	<stop  offset="0.0056" style="stop-color:#3D3D3D"/>
	<stop  offset="1" style="stop-color:#6F6F6F"/>
</linearGradient>
<path fill="url(#SVGID_49_)" stroke="#3D3D3D" stroke-width="1.0408" stroke-linecap="round" stroke-linejoin="round" d="
	M168.47,291.21c3.795,3.442,30.784,20.409,30.784,20.409s-18.593-13.146-25.065-18.064c-9.683-6.465-29.882-33.936-41.638-66.582
	c-0.448-1.518-2.738-1.815-3.03,0c10.68,31.221,35.17,60.791,38.96,64.23L168.47,291.21z"/>
<path fill="#525252" stroke="#3D3D3D" stroke-width="1.0408" stroke-linecap="round" stroke-linejoin="round" d="M63.912,177.34
	c0,0,4.675,4.146,9.324,6.735c4.682,2.588,8.294,1.559,12.448,1.057c4.147-0.542,9.344-1.585,11.926-5.217
	c2.595-3.619,5.719-9.839,6.241-11.397c0.509-1.559,1.023-3.619,2.582-6.221c1.544-2.588,1.029-8.294,1.029-8.294l1.545-2.588
	c0,0-0.509-11.926-1.545-15.043c-1.029-3.103-5.177-11.411-6.22-12.44c-1.037-1.03-3.632-4.147-3.632-6.749
	c0-2.575,0.515-4.134,0-6.736c-0.515-2.588-4.668-7.25-4.668-7.25s2.086,5.692,2.086,8.809c0,3.104-1.05,4.147,0.522,6.749
	c1.545,2.588,1.03,4.662,3.625,7.25c2.588,2.588,4.153,5.706,5.699,11.926c1.559,6.221,2.073,9.839,1.037,11.411
	c-1.037,1.559,0,7.779-0.522,9.84c-0.515,2.072-1.029,3.116-2.06,5.176c-1.043,2.102-4.682,9.867-7.27,12.983
	c-2.582,3.104-6.228,5.177-11.405,5.177c-5.183,0-6.735,1.03-10.374-0.515c-3.634-1.58-10.369-4.68-10.369-4.68L63.912,177.34z"/>
<linearGradient id="SVGID_50_" gradientUnits="userSpaceOnUse" x1="198.6714" y1="-36.5576" x2="233.0073" y2="-36.5576" gradientTransform="matrix(1 0 0 -1 -196 110)">
	<stop  offset="0.0056" style="stop-color:#585858"/>
	<stop  offset="1" style="stop-color:#5D5D5D"/>
</linearGradient>
<path fill="url(#SVGID_50_)" stroke="#000000" stroke-width="1.0408" stroke-linecap="round" stroke-linejoin="round" d="
	M4.282,136.88c0,0-3.625-3.104,0-4.147c3.633-1.03,7.779-0.515,10.368,1.043c2.595,1.559,8.822,7.779,10.889,9.337
	c2.08,1.545,6.234,3.104,7.264,5.177c1.03,2.087,4.146,5.705,4.146,7.25c0,1.572,0.522,4.676-1.558,5.204
	c-2.066,0.501-6.227,0-8.823-2.602c-2.581-2.603-4.655-8.281-6.735-10.368c-2.066-2.087-5.183-4.662-8.287-6.221
	c-3.117-1.55-7.264-4.67-7.264-4.67V136.88z"/>
<linearGradient id="SVGID_51_" gradientUnits="userSpaceOnUse" x1="307.6201" y1="-64.4385" x2="419.1016" y2="-64.4385" gradientTransform="matrix(1 0 0 -1 -196 110)">
	<stop  offset="0.0056" style="stop-color:#525252"/>
	<stop  offset="1" style="stop-color:#6F6F6F"/>
</linearGradient>
<path fill="url(#SVGID_51_)" stroke="#000000" stroke-width="1.0408" stroke-linecap="round" stroke-linejoin="round" d="
	M111.62,157.63c0,0,9.331-2.588,16.595-5.706c7.263-3.117,29.042-13.484,38.874-14.514c9.853-1.044,17.638-3.104,27.491-2.602
	c9.853,0.528,28.521,4.675,28.521,4.675s-1.572,2.602-2.588,5.177c-1.044,2.588,1.558,9.337,2.066,13.484
	c0.522,4.146-8.809,16.072-11.919,19.189c-3.117,3.104-19.705,22.293-23.344,26.955c-3.618,4.662-8.809,8.822-14.515,9.338
	c-5.712,0.516-9.838,1.043-13.999-0.516c-4.147-1.559-11.398-3.633-15.558-6.221c-4.147-2.603-8.81-6.748-11.919-8.308
	c-3.11-1.545-18.153-10.368-17.638-11.926c0.522-1.531,2.582-6.749,4.675-9.324c2.074-2.603,2.074-6.749,0.516-8.822
	c-1.559-2.06-4.669-5.177-5.706-6.735c-1.03-1.539-1.55-4.129-1.55-4.129L111.62,157.63z"/>
<path fill="none" stroke="#3D3D3D" stroke-width="1.0408" stroke-linecap="round" stroke-linejoin="round" d="M197.7,188.73
	c-16.601-8.295-70.017-9.854-70.017-9.854"/>
<path fill="none" stroke="#3D3D3D" stroke-width="1.0408" stroke-linecap="round" stroke-linejoin="round" d="M189.92,194.439
	c-17.124-9.853-68.452-15.028-68.452-15.028"/>
<path fill="none" stroke="#3D3D3D" stroke-width="1.0408" stroke-linecap="round" stroke-linejoin="round" d="M207.54,176.29
	c-48.225-7.779-86.591-3.104-86.591-3.104"/>
<path fill="none" stroke="#3D3D3D" stroke-width="1.0408" stroke-linecap="round" stroke-linejoin="round" d="M203.4,182.51
	c-20.762-6.748-80.893-7.25-80.893-7.25"/>
<path fill="none" stroke="#3D3D3D" stroke-width="1.0408" stroke-linecap="round" stroke-linejoin="round" d="M202.87,169.561
	c-31.103-7.779-80.364,1.029-80.364,1.029"/>
<path fill="none" stroke="#3D3D3D" stroke-width="1.0408" stroke-linecap="round" stroke-linejoin="round" d="M121.47,167.471
	c0,0,63.254-10.883,75.173-6.723"/>
<path fill="none" stroke="#3D3D3D" stroke-width="1.0408" stroke-linecap="round" stroke-linejoin="round" d="M177.99,154.51
	c-7.765-1.545-58.071,10.381-58.071,10.381"/>
<path fill="none" stroke="#3D3D3D" stroke-width="1.0408" stroke-linecap="round" stroke-linejoin="round" d="M118.87,162.29
	c0,0,71.047-22.293,89.695-17.103"/>
<path fill="none" stroke="#3D3D3D" stroke-width="1.0408" stroke-linecap="round" stroke-linejoin="round" d="M117.82,159.7
	c0,0,57.569-28.527,91.28-18.146"/>
<path fill="none" stroke="#3D3D3D" stroke-width="1.0408" stroke-linecap="round" stroke-linejoin="round" d="M185.24,199.63
	c-7.257-7.792-59.63-17.116-59.63-17.116"/>
<path fill="none" stroke="#3D3D3D" stroke-width="1.0408" stroke-linecap="round" stroke-linejoin="round" d="M176.94,205.33
	c-8.802-8.294-32.146-16.073-32.146-16.073"/>
<path fill="none" stroke="#3D3D3D" stroke-width="1.0408" stroke-linecap="round" stroke-linejoin="round" d="M166.58,203.25
	c-19.698-12.441-47.71-18.12-47.71-18.12"/>
</svg>
