<?xml version="1.0" encoding="utf-8"?>
<!-- Generator: Adobe Illustrator 15.0.2, SVG Export Plug-In . SVG Version: 6.00 Build 0)  -->
<!DOCTYPE svg PUBLIC "-//W3C//DTD SVG 1.1//EN" "http://www.w3.org/Graphics/SVG/1.1/DTD/svg11.dtd">
<svg version="1.1" id="Layer_1" xmlns="http://www.w3.org/2000/svg" xmlns:xlink="http://www.w3.org/1999/xlink" x="0px" y="0px"
	 width="777.109px" height="691.06px" viewBox="0 0 777.109 691.06" enable-background="new 0 0 777.109 691.06"
	 xml:space="preserve">
<g id="_x38_6cU50.tif">
	<g>
		<path fill-rule="evenodd" clip-rule="evenodd" d="M392.576,499.097c-5.341,1.326-3.465,9.869-8,12c-6.393,20.329-4.731,51.58-5,75
			c-5.767-1.312-10.925-6.137-15-10c-4.144-3.928-7.322-9.11-11-13c-4.125-4.364-8.535-7.532-12-12c-3.407-4.393-5.551-9.921-9-15
			c-38.093-56.101-87.37-104.912-124-164c-24.517-39.548-44.097-82.883-64-129c-9.258-21.453-18.838-44.875-28-68
			c-4.621-11.664-8.246-23.868-12-36c-3.883-12.55-9.715-23.895-12-36c-1.096-5.807-2.523-15.435,2-21
			c5.577-2.253,10.118,2.049,17,5c29.208,12.526,67.458,19.516,101,28c39.872,10.085,79.754,18.932,111,36
			c32.412,17.706,63.931,35.476,95,53c59.548,33.587,130.836,70.717,173,122c5.423,6.596,10.645,13.837,16,21
			c15.199,20.329,30.729,42.365,46,64c34.176,48.419,69.193,101.95,104,154c10.779,16.119,16.516,23.744,19,48
			c1.885,18.405-1.255,29.641-9,40c-11.634,15.561-36.766,28.906-60,34c-27.427,6.013-68.054,4.502-98,0
			c-67.364-10.126-138.848-36.244-190-69c-19.174-12.278-21.648-12.701-27-37c-3.374-15.319-5.998-37.775-4-58
			C389.567,513.067,393.245,512.029,392.576,499.097z M182.576,140.097c32.926,13.106,64.088,25.162,91,44
			c26.641,18.649,51.529,38.562,77,58c44.948,34.3,85.556,73.106,125,111c6.667,6.404,14.986,13.814,22,18
			c-8.128-15.144-18.681-29.215-30-42c-11.438-12.919-23.641-25.284-36-37c-37.441-35.491-76.879-69.193-120-97
			c-15.059-9.71-30.388-17.648-47-26c-32.433-16.306-66.631-31.742-105-41C164.999,134.341,175.708,135.298,182.576,140.097z
			 M551.576,549.097c-8.234-0.895-13.766-0.895-22,0c-11.966,7.725-25.436,19.408-21,42c2.853,14.53,19.674,26.764,33,22
			c-3.456-2.877-8.433-4.234-14-5c-23.055-14.518-15.004-61.43,22-55c3.639,0.062,7.729,6.792,10,2
			C556.111,553.895,553.62,551.72,551.576,549.097z M559.576,574.097c-2.971-6.803-16.86-13.219-23-5c1.192,6.475,5.828,9.505,8,15
			c-2.127,2.873-8.925,1.075-12,3C535.531,610.207,567.24,600.344,559.576,574.097z"/>
		<path fill-rule="evenodd" clip-rule="evenodd" d="M748.576,232.097c-1.804,26.434-25.839,46.603-29,73
			c-2.453,20.48-0.415,41.138,3,57c3.712,17.241,18.204,31.179,15,50c-9.2,5.473-23.078,2.553-36,3c-12.392,0.429-25.559,2.485-36,0
			c-6.918-4.295-9.079-12.437-13-19c-3.757-6.287-8.484-12.133-13-19c-3.953-6.011-6.476-12.721-12-20
			c-3.288-4.332-13.477-12.427-13-18c0.214-2.503,8.251-9.841,14-15c33.087-29.688,71.638-72.023,108-93
			C739.689,229.3,744.167,227.375,748.576,232.097z M691.576,286.097c-5.302,6.143-9.886,12.72-15,19
			c-9.916,12.175-21.606,23.591-29,38c14.346-8.333,24.718-21.578,35-34c10.566-12.765,19.761-27.072,29-41
			c-0.211-1.122-1.109-1.557-2-2C704.156,273.588,697.441,279.3,691.576,286.097z M667.576,345.097c2.933-0.068,3.714-2.286,5-4
			C670.14,341.661,667.432,341.953,667.576,345.097z M664.576,349.097c0.091-1.576,2.551-0.783,2-3
			C664.516,345.22,662.085,348.69,664.576,349.097z"/>
		<path fill-rule="evenodd" clip-rule="evenodd" d="M344.576,621.097c-21.333,12.196-52.522,23.074-80,33
			c-19.234,6.948-41.151,17.463-71,14c-16.948-1.966-31.336-9.588-39-23c14.611-5.038,29.825-4.281,43-9
			c23.889-8.556,42.184-27.969,62-41c10.263-6.749,21.726-13.178,33-19c12.698-6.558,26.377-10.809,38-18c0.667,0,1.333,0,2,0
			c8.973,7.854,20.661,20.66,32,31c3.986,3.635,10.052,7.163,10,11C374.446,609.749,350.155,615.24,344.576,621.097z
			 M291.576,605.097c0.133,4.8-6.488,2.845-7,7c20.569-5.432,37.881-14.119,53-25C318.334,589.188,307.645,599.832,291.576,605.097z
			 M265.576,637.097c-2.402,4.598-10.039,3.962-14,7c11.327-0.918,23.737-3.509,35-8c4.637-1.85,11.518-6.33,15-8
			c4.28-2.053,6.977-3.666,10-5c5.798-2.559,8.746-4.167,13-7c3.165-2.107,7.483-3.483,8-7
			C309.164,617.351,290.697,630.551,265.576,637.097z"/>
		<path fill-rule="evenodd" clip-rule="evenodd" d="M83.576,72.097c-2.719,37.385,8.031,61.302,14,90c-6.699,1.135-13.148-3.33-20-6
			c-21.331-8.312-54.765-18.397-63-41c-0.877-2.408-1.206-6.125-2-9c-5.227-18.927-10.319-48.912-12-72
			c-0.94-12.923-1.996-32.452,8-34c10.158-1.573,16.289,16.435,21,23C43.377,42.33,66.675,56.883,83.576,72.097z M42.576,90.097
			c0.197,4.125,5.208,7.238,9,10c6.216,4.528,13.401,10.523,22,8c-10.681-14.986-22.642-28.691-35-42
			c1.877,12.124,11.001,16.999,15,27C49.462,92.543,47.108,90.231,42.576,90.097z"/>
	</g>
</g>
</svg>
