<?xml version="1.0" encoding="utf-8"?>
<!-- Generator: Adobe Illustrator 15.0.2, SVG Export Plug-In . SVG Version: 6.00 Build 0)  -->
<!DOCTYPE svg PUBLIC "-//W3C//DTD SVG 1.1//EN" "http://www.w3.org/Graphics/SVG/1.1/DTD/svg11.dtd">
<svg version="1.1" id="Layer_1" xmlns="http://www.w3.org/2000/svg" xmlns:xlink="http://www.w3.org/1999/xlink" x="0px" y="0px"
	 width="550px" height="292px" viewBox="0 0 550 292" enable-background="new 0 0 550 292" xml:space="preserve">
<g id="mmzvZN.tif">
	<g>
		<path fill-rule="evenodd" clip-rule="evenodd" d="M400,0c1.333,0,2.667,0,4,0c1.138,4.977-2.207,9.947,1,16
			c0.325,4.183-3.858,7.412-1,11c-3.584,5.056-4.681,8.217-6,14c-10.933,3.4-21.403,7.264-32,11c12.057,5.933,29.73,9.018,47,10
			c13.812,0.786,33.842,1.729,45-1c6.483-1.586,11.656-6.448,18-10c16.922-9.476,35.718-21.285,59-23
			c9.138,8.196,10.402,24.264,15,37c0,8.333,0,16.667,0,25c-4.507,4.16-2.805,14.529-6,20c-39.41,0.537-71.75-14.097-110-14
			c-16.696,0.042-30.729,4.854-45,10c5.532,13.801,24.905,13.761,32,26c-1.704,6.963-3.493,13.84-4,22
			c-22.662-5.338-29.636-26.364-47-37c-12.781,17.902-17.823,39.626-26,59c-8.253,19.555-17.897,38.063-31,54
			c-25.259,30.723-57.778,55.562-107,62c-6.667,0-13.333,0-20,0c-20.085-1.771-36.624-6.475-52-12c-15.194-5.46-31.005-10.633-43-20
			c-7.933-6.195-14.553-16.282-21-25c-13.634-18.436-22.856-36.377-29-63c-2.647-11.47-3.537-25.13-9-37
			c-6.434-13.979-20.893-22.554-31-34c-0.547-1.453,1.168-5.168-1-5c0-4,0-8,0-12c2.076-12,19.9-18.732,29-24
			c6.512-3.77,14.162-7.336,22-13c11.889-8.59,21.752-20.866,34-25c10.27-3.466,23.981-3.999,36-5c58.99-4.912,119.574,5.34,171,17
			c15.116,3.427,32.201,10.279,43,9c11.1-1.315,22.429-15.513,31-22C378.12,11.827,392.179,3.804,400,0z M82,51
			c10.24-1.112,10.835-20.559-3-17C66.646,37.178,73.584,51.914,82,51z M193,55c5.404-4.395,14.035-13.046,23-11
			c10.758,2.455,16.241,28.719,14,45c-1.55,11.263-10.324,27.051-19,29c-17.072,3.834-29.575-11.095-39-16
			c-3.347-1.852-0.873,0.257,0,2c9.25,6.812,22.801,22.656,41,18c8.125-2.079,19.295-19.107,21-33c2.313-18.85-4.344-45.999-16-49
			c-11.615-2.991-19.295,6.585-25,12c-7.301,6.931-14.459,12.839-17,19C181.603,66.011,185.896,60.778,193,55z"/>
	</g>
</g>
</svg>
