<?xml version="1.0" encoding="utf-8"?>
<!-- Generator: Adobe Illustrator 15.0.2, SVG Export Plug-In . SVG Version: 6.00 Build 0)  -->
<!DOCTYPE svg PUBLIC "-//W3C//DTD SVG 1.1//EN" "http://www.w3.org/Graphics/SVG/1.1/DTD/svg11.dtd">
<svg version="1.1" id="Layer_1" xmlns="http://www.w3.org/2000/svg" xmlns:xlink="http://www.w3.org/1999/xlink" x="0px" y="0px"
	 width="747.946px" height="361.462px" viewBox="0 0 747.946 361.462" enable-background="new 0 0 747.946 361.462"
	 xml:space="preserve">
<g id="d5Ndrp.tif">
	<g>
		<path fill-rule="evenodd" clip-rule="evenodd" d="M100.294,165.246c-17.986,5.186-33.706,13.011-31,39
			c2.872,27.577,20.331,59.449,31,74c-6.201,7.959-15.457,13.215-24,19c-12.609,8.538-23.699,18.18-43,21
			c-5.204-10.413,0.221-22.236,3-32c2.85-10.011,6.885-20.351,9-31c5.518-27.785-16.273-41.871-27-61
			c-3.924-6.998-7.681-15.784-11-24c-4.379-10.839-13.954-32.307,0-37c4.49-1.51,14.963-0.019,20,1c11.944,2.417,26.365,7.727,39,13
			C79.808,152.885,94.475,156.894,100.294,165.246z"/>
		<path fill-rule="evenodd" clip-rule="evenodd" d="M475.294,315.246c-1.297,5.815-8.014,8.128-12,11
			c-12.164,8.765-26.462,17.444-41,25c-16.632,1.737-30.142,11.811-47,10c-5.029-8.151,1.017-20.414,2-29
			c-13.596-1.869-34.739,5.61-49,0c-0.857-4.887,3.617-7.189,7-9c7.536-4.034,15.547-3.94,27-6
			C394.728,311.414,438.696,311.087,475.294,315.246z M428.294,330.246c-0.746,3.809,6.477,2.162,5-1
			C430.468,328.419,430.704,330.655,428.294,330.246z M411.294,341.246c6.663-1.337,11.95-4.05,16-8
			C418.969,332.92,415.125,337.077,411.294,341.246z"/>
		<path fill-rule="evenodd" clip-rule="evenodd" d="M306.294,0.246c6.758,2.575,12.578,6.088,16,12
			c-19.405,10.083-37.551,18.32-55,29c-8.569,5.245-16.639,11.033-25,17c-7.849,5.601-16.503,10.565-24,17
			c-3.376,2.898-6.251,7.578-10,11c-18.613,16.995-33.397,32.989-49,56c-4.35,6.415-11.135,24.316-16,25
			c-6.812,0.958-17.753-17.015-21-22c-7.709-11.839-17.689-26.793-8-39c7.099-8.944,26.273-15.903,41-22
			c15.245-6.312,30.337-11.971,43-20c28.17-17.862,47.281-40.784,71-55c4.362-1.304,10.355-0.978,13-4
			c-0.161-10.251,12.776-2.597,16-1C303.203,5.154,302.103,0.054,306.294,0.246z"/>
		<path fill-rule="evenodd" clip-rule="evenodd" d="M737.294,217.246c1.046,5.946,4.382,9.147,3,16
			c-2.719,13.483-21.45,23.646-38,30c-17.546,6.736-35.571,10.653-52,15c-36.776,9.73-71.515,18.316-110,24
			c-57.333,8.467-130.537,5.045-194,2c-37.961-1.821-70.612-3.076-99-13c-22.386-7.825-36.925-19.074-59-29
			c-10.623-4.776-23.868-9.1-36-8c-14.306,1.297-28.844,14.861-40,14c-12.053-0.931-20.644-17.937-26-31
			c-5.087-12.407-13.002-31.746-9-45c3.164-10.479,18.668-19.564,32-20c6.32-0.207,13.3,2.765,21,3c6.678,0.204,16.573,1.057,22-2
			c7.248-4.082,9.748-18.902,14-26c2.786-4.65,6.717-9.251,10-14c41.187-59.575,104.618-103.751,189-122
			c32.443-7.016,82.003-10.656,123-7c15.215,1.357,31.609,5.401,47,9c14.922,3.489,29.144,8.046,43,13
			c13.639,4.876,27.865,9.136,40,16c10.239,5.792,22.501,14.89,32,23c26.844,22.918,55.266,55.787,79,89
			C743.641,174.321,758.646,194.451,737.294,217.246z M256.294,86.246c56.398-33.984,122.442-58.457,207-61
			c6.02-0.181,12.911,1.03,19,0c1.031-0.174,0.803-1.19-1-1c-25.346-2.626-53.845-4.065-79-1c-12.229,1.49-28.167,6.714-37,9
			c-4.091,1.059-8.247,0.946-12,2c-42.176,11.844-77.48,32.547-108,54c-5.36,3.767-12.329,6.636-15,13
			C239.627,97.182,247.594,91.488,256.294,86.246z M584.294,75.246c-1.667,0-3.333,0-5,0
			C578.223,80.688,584.314,77.528,584.294,75.246z M574.294,87.246c1.683-2.317,3.741-4.259,4-8
			C573.729,78.062,571.914,84.799,574.294,87.246z M588.294,84.246c-2.779,3.509,3.865,4.277,3,9c0.275,3.942-4.275,3.058-4,7
			C602.328,114.575,608.162,75.509,588.294,84.246z M572.294,97.246c-0.609-2.391,1.255-7.255-1-8
			C569.951,90.708,569.25,97.166,572.294,97.246z M499.294,92.246c-0.221,0.779-0.838,1.163-2,1c-18.736,13.706-33.984,29.655-36,57
			c-4.191,56.861,30.485,100.414,68,119c2.05,1.888,9.699,5.633,11,2c-30.129-19.898-63.376-47.235-67-95
			c-2.612-34.433,11.271-57.507,24-75c1.956-2.688,5.036-5.369,5-9c-0.667,0-1.333,0-2,0
			C499.961,92.246,499.627,92.246,499.294,92.246z M578.294,106.246c0.24,0.083-0.232,1.86,0,2c1.533,0.92,4.289,3.635,5,0
			c-6.334,0-4.594-8.073-10-9C571.878,103.979,574.637,104.975,578.294,106.246z M410.294,180.246c-6.403-4.869-16.295-6.674-24-9
			c-2.729-0.824-5.24-3.141-8-4c-2.961-0.921-6.053-0.129-9-1c-2.612-0.771-4.366-3.256-7-4c-3.291-0.93-6.771-1.105-10-2
			c-7.742-2.145-12.94-3.325-22-5c-11.864-2.194-28.816-2.768-39,0c-3.062,0.833-7.131,1.272-9,2c-27.407,10.68,8.034,25.893,17,33
			c24.405,19.346,40.567,40.42,65,58c5.312,3.822,10.26,8.632,15,10c14.252,4.112,27.824-2.625,39-5c0.791-4.567,12.297-3.671,9-9
			c-10.555,3.096-21.424,8.205-32,7c-11.866-1.353-22.63-10.975-32-18c-17.687-13.26-34.013-27.296-50-41
			c-8.669-7.432-19.398-14.22-22-24c18.773-9.429,50.915-6.252,70-1c2.214,0.609,3.77,2.418,6,3c3.583,0.935,7.788,0.096,11,1
			c4.562,1.284,8.103,6.15,13,4c4.476,5.191,16.006,3.328,20,9c4.021-0.688,5.708,0.958,9,1c2.48,2.751,13.506,6.844,16,3
			C428.721,184.485,420.644,181.229,410.294,180.246z M502.294,190.246c6.059,20.033,16.73,37.73,29,50
			c7.054,7.054,16.138,12.583,25,18c8.726,5.333,18.233,13.059,29,12c-31.851-20.265-61.94-48.239-77-85
			c-1.494-3.647-2.937-7.286-4-11c-1.365-4.769,0.571-12.704-6-15C497.292,170.967,500.159,183.184,502.294,190.246z
			 M391.294,189.246c7.198,4.135,15.577,7.09,25,9c-2.09-4.91-9.701-4.299-13-8c-8.846-0.82-12.635-6.698-24-5
			C379.92,189.953,386.318,188.889,391.294,189.246z M391.294,210.246c10.852,1.183,27.366,8.96,37,4
			c-12.879-1.792-25.096-9.564-40-6C389.871,208.336,389.078,210.796,391.294,210.246z"/>
		<path fill-rule="evenodd" clip-rule="evenodd" d="M261.294,307.246c-4.213,7.556-16.374,8.542-26,13
			c-10.843,5.021-19.465,12.555-32,13c-2.712,0.097-5.577-1.41-8-1c-6.379,1.081-11.443,6.432-18,5c-19.753-4.312-1.524-35.288,4-44
			c1.959-3.091,3.214-6.47,5-9c2.868-4.063,5.734-6.047,8-10c0.667,0,1.333,0,2,0c9.758,6.331,19.111,13.533,30,19
			C237.436,298.838,249.223,302.133,261.294,307.246z"/>
	</g>
</g>
</svg>
